<?xml version="1.0" encoding="utf-8"?>
<!-- Generator: Adobe Illustrator 19.2.1, SVG Export Plug-In . SVG Version: 6.00 Build 0)  -->
<svg version="1.1" id="Layer_1" xmlns="http://www.w3.org/2000/svg" xmlns:xlink="http://www.w3.org/1999/xlink" x="0px" y="0px"
	 viewBox="0 0 462.5 406.6" enable-background="new 0 0 462.5 406.6" xml:space="preserve">
<path fill="#543729" d="M453.7,198.6c-23.8-22.9-142.7-37.1-180.3-41.3c1.8-4.3,3.4-8.8,4.6-13.3c5.3-2.3,10.8-4.4,16.4-6.1
	c0.7,2.1,4,9.9,5.8,13.7c75.5,2.1,79.4-56.1,82.4-72c3-15.6,2.8-30.6,28.7-58.2c-38.6-11.2-94,17.4-112.6,60.1
	c-7-2.6-14-4.5-20.9-5.7c-5-20-30.8-75.7-98.6-75.7C93.5,0,0,70.8,0,190.6c0,100.7,68.8,189,107.6,189c17,0,31.6-12.7,35-24.1
	c2.9,7.8,11.7,32.1,14.6,38.3c4.3,9.1,24.1,17,32.7,7.6c11.1,6.2,31.6,9.9,42.7-6.6c21.4,4.5,40.4-8.3,40.8-23.5
	c10.5-0.6,15.7-15.3,13.4-27.1c-1.7-8.7-19.8-39.7-26.8-50.5c14,11.4,49.4,14.6,53.7,0c22.5,17.7,57.6,8.4,60.4-6
	c27.4,7.1,58.8-8.5,53.6-27.4C471.7,257.2,466,210.5,453.7,198.6z"/>
<path fill="#00ACEE" d="M331.3,98.8c9.5-18.8,21.4-39.3,36.4-52c-16.5,6.7-32.9,26.6-42.5,47.9c-4.8-3.1-9.8-5.9-15-8.4
	c13.5-28.8,44.8-52.8,79.3-54.7c-23.1,21-14.9,64.5-33.9,87.6C350.1,113.8,337.6,103.3,331.3,98.8z M316.3,129.4
	c0-0.7,0.3-6.3,0.8-8.8c-1.3-0.3-9.6-1.9-13.9-1.8c-0.3,5.4,2.3,14.6,4.8,20.1c17.6-0.4,30.2-5.6,37.7-10.5
	c-6.4-3-17.2-5.6-25.4-7.2C319.4,123.2,317.1,128,316.3,129.4L316.3,129.4z"/>
<path fill="#2BAF2B" d="M251.1,278.1C251.1,278.1,251.1,278.1,251.1,278.1c-2.2-4.7-4.6-10.5-7.4-18.1c11,16,45.4,7.7,43.6-6.6
	c16.9,12.7,51.6-2.1,43.7-19.9c16.9,7.9,36.2-8,31.8-14.9c28.8,5.6,56.4,11.1,65,13.3c-5.8,9.4-18.9,16-38.6,11.4
	c10.7,14.5-10,32-38.9,22.4c6.4,14.3-19.3,27.1-48.5,12.2C302.2,292.2,265.6,293.9,251.1,278.1z M308.2,205.9
	c33.4,2.6,88.7,7.5,122.9,12.3c-2.2-11.1-8.1-14.3-26.6-19.3C384.5,201.1,333.8,206.1,308.2,205.9L308.2,205.9z"/>
<path fill="#FFCC2F" d="M287.3,253.4c16.9,12.7,51.6-2.1,43.7-19.9c16.9,7.9,36.2-8,31.8-14.9c-34-6.6-69.7-13.1-77.8-14.3
	c4.9,0.3,13.1,0.8,23.2,1.6c25.6,0.1,76.3-4.8,96.2-7c-32.3-8.2-98.4-20.2-144-23.1c-2.1,3.1-6,8.3-12.8,13.9
	c-19.9,42.2-56.1,70.3-96.1,70.3c-11.7,0-24.7-2-39.3-6.6c-9.1,9.8-48,17.2-79.5,1.7c25,58.6,83,97.7,147.2,97.7
	c54.1,0,78-55.2,72.8-69.8c-1.3-3.5-6.3-15.3-9.1-22.9C254.7,276,289.1,267.7,287.3,253.4z"/>
<path fill="#CECECE" d="M254.5,142.3c4.8-2.6,21.3-12.6,37-16.4c-0.3-1.7-0.4-3.5-0.6-5.3c-10.3,2.5-29.8,10.8-40.9-0.7
	c23.5,7.1,35.2-6.3,52.5-6.3c10.3,0,25,2.9,36.6,7.4c-9.3-8.6-39.9-34.6-77.7-34.7C253.1,96.6,243.9,118.8,254.5,142.3L254.5,142.3z
	"/>
<path fill="#EF5734" d="M112.3,253.4c14.6,4.7,27.7,6.6,39.3,6.6c40,0,76.1-28.1,96.1-70.3c-14.8,12.3-40.4,22.9-80.4,22.9
	c35.7-8.1,66.4-25.9,82-51.8c-11-17.5-22.9-56.1,7.3-86.7c-4.6-14.9-27.2-54.2-77.2-54.2c-87.2,0-159.5,73-159.5,170.8
	c0,23.2,4.7,44.9,13,64.4C64.4,270.5,103.2,263.1,112.3,253.4L112.3,253.4z"/>
<path fill="#FFCC2F" d="M138.5,104.4c0,22.3,18,40.3,40.3,40.3s40.3-18,40.3-40.3c0-22.3-18-40.3-40.3-40.3S138.5,82.2,138.5,104.4z
	"/>
<path fill="#543729" d="M154.7,104.4c0,13.3,10.8,24.1,24.1,24.1c13.3,0,24.1-10.8,24.1-24.1c0-13.3-10.8-24.1-24.1-24.1
	C165.5,80.3,154.7,91.1,154.7,104.4L154.7,104.4z"/>
<ellipse fill="#FFFFFF" cx="178.8" cy="93.7" rx="14.1" ry="8.7"/>
</svg>
