<?xml version="1.0" encoding="utf-8"?>
<!-- Generator: Adobe Illustrator 19.2.1, SVG Export Plug-In . SVG Version: 6.00 Build 0)  -->
<svg version="1.1" id="Layer_1" xmlns="http://www.w3.org/2000/svg" xmlns:xlink="http://www.w3.org/1999/xlink" x="0px" y="0px"
	 viewBox="0 0 298 420" enable-background="new 0 0 298 420" xml:space="preserve">
<g>
	<path fill="#131313" d="M233.2,15.7h-24.7l25.7,27.9v13.3h-52.9V41.3h25.7l-25.7-27.9V0.1h51.9L233.2,15.7L233.2,15.7z M170.8,15.7
		h-24.7l25.7,27.9v13.3h-52.9V41.3h25.7l-25.7-27.9V0.1h51.9L170.8,15.7L170.8,15.7z M109,16.3H82.4v24.3H109v16.2H63.4V0.1H109
		V16.3L109,16.3z"/>
	<path fill="#1572B6" d="M27.1,386.3L0.1,82.7h297.5l-27.1,303.6L148.6,420L27.1,386.3L27.1,386.3z"/>
	<path fill="#33A9DC" d="M148.8,394.2l98.4-27.3l23.2-259.4H148.8V394.2z"/>
	<path fill="#FFFFFF" d="M148.8,217.5h49.3l3.4-38.1h-52.7v-37.2h93.4l-0.9,10l-9.2,102.6h-83.3L148.8,217.5L148.8,217.5z"/>
	<path fill="#EBEBEB" d="M149,314.2l-0.2,0L107.4,303l-2.7-29.7H67.4l5.2,58.5l76.3,21.2l0.2,0L149,314.2L149,314.2z"/>
	<path fill="#FFFFFF" d="M194.9,253.2l-4.5,49.9l-41.5,11.2V353l76.3-21.2l0.6-6.3l6.5-72.4H194.9L194.9,253.2z"/>
	<path fill="#EBEBEB" d="M148.9,142.1v37.2H59l-0.7-8.4l-1.7-18.9l-0.9-10L148.9,142.1L148.9,142.1z M148.8,217.5v37.2h-40.9
		l-0.7-8.4l-1.7-18.9l-0.9-10L148.8,217.5L148.8,217.5z"/>
</g>
</svg>
