<?xml version="1.0" encoding="utf-8"?>
<!-- Generator: Adobe Illustrator 19.2.1, SVG Export Plug-In . SVG Version: 6.00 Build 0)  -->
<svg version="1.1" id="Layer_1" xmlns="http://www.w3.org/2000/svg" xmlns:xlink="http://www.w3.org/1999/xlink" x="0px" y="0px"
	 viewBox="0 0 343.9 463.2" enable-background="new 0 0 343.9 463.2" xml:space="preserve">
<title>grunt-logo</title>
<path fill="#FBA919" d="M22.3,112.6c0,0,7.9,30.6,9.1,40.8s-20.4,32.9-20.4,44.2s4.5,31.7,29.5,41.9c24.9,10.2,28.3,36.3,28.3,52.1
	s-9.1,46.5-9.1,46.5S54,414,84.6,427.6s23.8,13.6,30.6,13.6s56.7,20.4,86.1,12.5s37.4-17,37.4-17s29.5,2.3,38.5-23.8
	c9.1-26.1,14.7-80.5,11.3-105.4s-7.9-57.8,12.5-69.1s41.9-24.9,38.5-36.3S318,174.9,318,174.9s-4.5-28.3-1.1-35.1
	s23.8-23.8,12.5-36.3S297.7,91,297.7,91l-26.1,2.3c0,0-44.2-39.7-102-37.4S75.6,93.2,75.6,93.2s-19.3-6.8-36.3,0
	S18.9,93.2,22.3,112.6L22.3,112.6z"/>
<path fill="#E78724" d="M125.9,281.3c0,0-22.4,34.3-38.9,58.7c-2.5,3.8,16.5,4,16.5,4L125.9,281.3L125.9,281.3z M136.6,210.2
	c0,0-6.8,16.8-10.5,25.8c-4,9.7-19.4,14.6-19.4,14.6s8-8.3,8-29.5c0-8.9,11.4-12.4,11.4-12.4L136.6,210.2L136.6,210.2z"/>
<path fill="#E78724" d="M129.7,219.7c0,0-13.9,16.5-39.6,7.3s-28.4-42.2-28.4-51.5s48.8,9.2,55.4,13.2S136.3,208.5,129.7,219.7
	L129.7,219.7z M32.5,43.4c0,0,23.8-4.6,39.6,7.9s20.5,22.4,20.5,22.4L65.9,94.9c0,0-12.9-6-16.9-23.1S47.7,46.7,32.5,43.4z"/>
<path fill="#E78724" d="M122.8,172c-10.2-14.5-27.1-20.9-40.5-21.9c-23-1.8-33.9,6.3-33.9,6.3s37.6,1.6,48.4,15.8
	c20.2,26.5,49.6,28.6,54.3,22.8c-5.4,0.3-11.4-2.4-17.8-8.5C129.3,182.8,126,176.6,122.8,172L122.8,172z M59.4,223.4
	c0,0-41.7-14.3-33.8-28.9c7.9-14.5,1.6-22.4,1.6-22.4S3.9,189.5,9.8,208c3.6,11.3,9.8,19.6,43.4,35.3c16.1,29.9,3.3,83.8,4.1,84.1
	c1.3,0.4,22.6-10.5,21.2-61C78,250.9,76.8,229.7,59.4,223.4L59.4,223.4z M114,69.2c-17.5,8.9-41.4,21.3-41.4,21.3l9.4,4.7
	c-0.9,1.5-1.3,2.3-1.3,2.3l9.7,4.4c0,0,23.7,17.1,38.1,28.1c-4.8-14.9-19-38.2-19-38.2S105.4,81.1,114,69.2L114,69.2z M172.1,431.3
	c-53.8,0-72-27.3-72-27.3l8.4,20.5c3.2,8.9,37,36.4,63.5,36.4"/>
<path fill="#E78724" d="M106,385.6c0,0,5,30.2,24.8,30.2c16.8,0,21.8-25.5,21.8-30.8L106,385.6z M73.1,340
	c1.8-4.8,7.9-24.4,9.9-42.2c2.4-21.3,1.5-52.5,1.5-52.5s-5.3,20.5-9.9,23.8s-13.2,25.7-13.2,25.7s-4.6,33.4-6.8,44.6
	C60.7,340.6,65.8,337,73.1,340L73.1,340z M25.3,207.6c0,0,11.2-4,14.5-28.4c1.9-15.3,0.5-30.8-4-45.5c0,0,0.7,33.7-3.3,40.3
	s-7.3,8.6-11.9,17.2S22.6,205,25.3,207.6L25.3,207.6z"/>
<path fill="#FDC168" d="M38.7,49.2l-2.3-1.4C29.6,48,38.7,49.2,38.7,49.2z"/>
<path fill="#FBA919" d="M123.1,62c0,0-10.6-1.8-15.8-9.7S87.1,28.5,63.2,28.4s-47.4,6.3-47.4,6.3l20.6,13c2.2-0.1,6,0,12.3,0.2
	c25.8,0.9,29.8,26.4,29.8,26.4l91.1-12.5"/>
<path fill="#FFFFFF" d="M131.9,203.2c-8.5,7.6-20.1,10.7-31.2,8.4c-18.9-4-30.4-12.3-31.2-26.8s4-20.2,4-20.2s21.1,6.6,31.2,15.4
	S122.3,202.8,131.9,203.2L131.9,203.2z"/>
<path fill="#C9C9C9" d="M117,198.8c-7.2,2.9-15.2,3.2-22.6,0.9c-15.6-5.2-16.7-21.5-16.7-21.5s-9.6,28.1,17.3,33.6
	c21.6,4.4,34.3-8.1,34.3-8.1L117,198.8L117,198.8z"/>
<path fill="#463014" d="M124.6,56c-1.1-24.1,18.6-43.4,25.5-44.2c0.4,4.1-0.4,20,6.5,25c2-13,8.7-27.4,35.4-36.8
	c-5.7,15.1-0.8,27.8,1.6,33.7C211.8,17.2,224,19.9,224,19.9s-12.6,21.8-7.7,36.1C179.8,53.1,124.8,59.9,124.6,56L124.6,56z
	 M47.2,92.8c-8.7-7.2-2.2-13.9-2.9-22.2c-0.4-4.4-0.7-8.5-2.2-10.8c-8-12.7-26.9-16.5-27.1-16.6l-8.9-1.7l5.9-6.9
	c0.8-0.9,24.9-23.9,62.3-11.9c26.1,8.4,45.5,37,46.2,38.2l-13.1,6.2c-0.1-0.2-15.5-27.1-37.9-34.3c-18.1-5.8-34.8-0.3-42,3.4
	c7.6,3,17.5,8.6,23.5,18c2.8,4.5,3.3,10.1,3.8,15.5c0.6,7.2,1.2,14,6.5,18.4L47.2,92.8L47.2,92.8z M23.9,198.4
	c0,0,11-13.6,14.2-40.1c1.3-10.4-1-31-4.6-38.9c0.7,19.5-4.3,38.9-4.3,38.9S25.9,194.4,23.9,198.4z"/>
<path fill="#463014" d="M81.8,79c0,0-3.5-15.4-13.3-23.2C54.8,44.9,38,50.7,37.8,50.8l-2.4-7.5c0.8-0.3,20-6.3,37.7,6.1
	S93,73.2,93.2,74.4L81.8,79z M58.4,188.6c0,0-5.8-8.2-4.7-17.3c0.5-4.5,2.6-9.1,6.3-10.7c6.9-3,9.9,4.8,9.9,4.8
	S60.2,167.7,58.4,188.6L58.4,188.6z"/>
<path fill="#463014" d="M121.6,201.2c0.2,0.4,0.4,0.7,0.4,0.7s-18,13.5-36.4-0.2c-9.9-7.3-8.9-25.5-5.9-33.2
	c7.2,1.6,14,4.6,20.1,8.7c-7-6.3-13.2-10.9-13.2-11l-8-2.3l-15.5-5.3c-0.2,1.2-5.9,27.8,10.5,45.9c7.2,8,41.3,26,57.4-4.7
	L121.6,201.2L121.6,201.2z"/>
<path fill="#463014" d="M119.9,203.1c10.1,15.4,35.6,6.6,35.2-9.7c0,0-17.1,9.4-32.1-7.9c-8.8-10.1-37-38-75.2-28.8
	C74.2,162.6,109.1,186.7,119.9,203.1L119.9,203.1z"/>
<path fill="#463014" d="M44.2,246.6c2.4,1.4,11,10.3,11,23.6c0,6.7-0.7,40.2-4,60.6c5,3.2,8.4,3.9,13.4,7.2
	c2.5-23.7,4.2-58,3.4-71.9c-1-15.8-9.4-26.4-17.3-30.9c-2.5-1.4-5-2.8-7.6-4.2c-13.4-7.3-27.3-14.8-27.3-27.6c0-10,3.9-13.2,8-16.5
	l0.4-0.4c2.7-2.2,5.8-4.7,7.7-8.9c5-11.3,5.8-40,0-47.3c-2.9-3.6-10.7-15.9-8.5-24.1c0.9-3.1,3-5.7,6-7.1c3.4-1.7,8-2.6,13.6-2.6
	c11.1,0,23.4,3.4,29.8,5.4c22.7,7.2,50.1,27.9,58,34.1l0.4,0.3l5,3.5l-3.1-5.3c-0.2-0.3-20.1-33.1-55.7-45.1
	c-6.9-2.3-20.5-6.2-33.9-6.2c-8,0-14.7,1.4-20.1,4.1c-6.3,3-10.9,8.7-12.8,15.4c-4.5,16.5,10.1,34.8,10.6,35.4
	c1.7,3,2.4,25.2-1.5,34c-0.5,1.2-2,2.4-3.9,3.9c-0.6,0.5-1.2,1-1.9,1.5c-5.6,4.2-14,10.5-14,25.2c0,20,20.3,30.9,36.6,39.6
	c2.7,1.4,5.2,2.8,7.5,4.1L44.2,246.6z"/>
<path fill="#463014" d="M47.2,92.8c-8.7-7.2-2.2-13.9-2.9-22.2c-0.4-4.4-0.7-8.5-2.2-10.8c-8-12.7-26.9-16.5-27.1-16.6l-8.9-1.7
	l5.9-6.9c0.8-0.9,24.9-23.9,62.3-11.9c26.1,8.4,45.5,37,46.2,38.2l-13.1,6.2c-0.1-0.2-15.5-27.1-37.9-34.3
	c-18.1-5.8-34.8-0.3-42,3.4c7.6,3,17.5,8.6,23.5,18c2.8,4.5,3.3,10.1,3.8,15.5c0.6,7.2,1.2,14,6.5,18.4L47.2,92.8L47.2,92.8z"/>
<path fill="#463014" d="M46.9,94.3l-0.6-0.5C39.9,88.4,41,83.1,42.1,78c0.6-2.4,0.9-4.8,0.8-7.3c-0.4-4.2-0.7-8.2-2-10.2
	c-7.6-12.1-26.1-15.9-26.3-16L3.6,42.4l7.4-8.6C11,33.6,26.5,18,52.8,18c7.4,0,14.7,1.2,21.8,3.5c27.4,8.8,46.8,38.5,47,38.8
	l0.8,1.3l-15.5,7.3l-0.6-1c-1.7-2.8-16.4-27.1-37.2-33.8c-5.2-1.7-10.6-2.5-16-2.5c-7.7,0-15.3,1.6-22.3,4.5
	c7.2,3.2,15.9,8.7,21.4,17.4c3,4.7,3.5,10.5,4,16.1c0.6,7,1.1,13.5,6,17.5l1.8,1.5L46.9,94.3L46.9,94.3z"/>
<path fill="#463014" d="M81.8,79c0,0-3.5-15.4-13.3-23.2C54.8,44.9,38,50.7,37.8,50.8l-2.4-7.5c0.8-0.3,20-6.3,37.7,6.1
	S93,73.2,93.2,74.4L81.8,79z"/>
<path fill="#463014" d="M80.9,80.8l-0.3-1.5c0-0.1-3.5-15-12.8-22.4c-5.4-4.3-12.1-6.5-19-6.4c-3.5,0-7,0.5-10.4,1.5L37,52.5
	l-3.3-10.1l1.2-0.4c13.3-3.8,27.5-1.5,38.9,6.3c18.2,12.8,20.5,24.7,20.7,26l0.2,1L80.9,80.8L80.9,80.8z M48.7,47.9
	c7.5-0.1,14.8,2.3,20.7,6.9c8.3,6.6,12.2,18.2,13.4,22.4l9-3.6c-0.8-3.2-4.4-12.7-19.4-23.2c-7.2-5-15.7-7.7-24.5-7.6
	c-3.6,0-7.3,0.4-10.8,1.3l1.6,5C42,48.3,45.3,47.9,48.7,47.9L48.7,47.9z M129.9,408.6c-3.9,0-7.6-1.3-10.6-3.8
	c-2.1-1.8-9.2-8.4-12.4-16.4c-1.2-3-0.9-5.4,0.8-7.1c1.2-1.2,3.6-2.6,8.6-2.6h26.7c3.8,0,6.5,0.8,8,2.4c2,2,1.4,4.7,0.8,6
	c-3,6.4-7,12.3-11.8,17.5C137.3,407.2,133.7,408.7,129.9,408.6L129.9,408.6z M134,204l-14.1-0.9c2.5,4.6,4.5,9.5,5.9,14.6
	c2.6,9.3-2.4,22.9-2.4,22.9S142.2,219.3,134,204L134,204z M116.5,445.8c-50.1-3.9-67.8-51.2-67.8-61.1h13.1
	c0.1,4.3,13.4,44.8,55.7,48L116.5,445.8L116.5,445.8z"/>
<path fill="#FFFFFF" d="M102.4,360.9c-0.8-4.3-0.8-8.7,0.1-13c-3.8-2.9-10.6-3.9-15.8-5.6c-4.2-2.6-25.6,2.7-41.2-16.1
	c-19.5-23.6-15.4-37.7-15.4-37.7c-5,5.6-9.9,3.4-17.5,29.4s3.6,44,24.5,62.1c9.9,8.5,23.9,12.1,35.9,13.4c-4-4,6.9-4.4,14.4-7.2
	c-0.6-6.1,0.4-12,4.9-16.7c2.7-2.9,6.2-4.6,9.9-5.9c0.2-0.5,0.4-0.9,0.6-1.4C102.6,361.8,102.4,361.3,102.4,360.9L102.4,360.9z"/>
<path fill="#C9C9C9" d="M87.2,386c-0.4-1.3-0.8-2.6-1.1-3.9s-2.1-5.5,0.1-0.9c-0.5-1.2-0.9-2.4-1.2-3.6c-33.9,0-63.3-23.3-57.6-72.2
	c-4.4-5.9-10.6,11.9-10.6,11.9s-16.9,49.2,26.8,68.3c14.6,6.4,27.5,10.9,30.5,9.1c6.3,1.3,12-3.1,14.2-6
	C87.9,387.8,87.6,386.9,87.2,386L87.2,386z"/>
<path fill="#463014" d="M101.8,353.8c0-4.2,1-8.3,2.9-12.1c0.1-0.3,0.3-0.5,0.5-0.8c-13-0.1-28-1.4-40.8-6.5
	c-14-5.6-31.6-24.8-34.6-47.4c0,0-26.4,20.4-18.7,64.1c7.3,41,41.6,54.4,80.8,56.6c0-0.3-4.4-9.4-3-15c-22.2,1.6-47.1-7-59.1-26.7
	c-11-18.1-7.9-48.9-3.4-53.5C37.3,347.4,76.9,354.4,101.8,353.8L101.8,353.8z"/>
<path fill="#463014" d="M105.9,329c-7,20.7-21.4,37.4-21.4,37.4s19.8-0.9,20.9-4.4c0.8-2.6,17.9-42.5,24.4-89.3
	C123.6,282.8,106.5,327.2,105.9,329L105.9,329z"/>
<path fill="#E78724" d="M218,281.3c0,0,22.4,34.3,38.9,58.7c2.5,3.8-16.5,4-16.5,4L218,281.3L218,281.3z M207.3,210.2
	c0,0,6.8,16.8,10.5,25.8c4,9.7,19.4,14.6,19.4,14.6s-8-8.3-8-29.5c0-8.9-11.4-12.4-11.4-12.4L207.3,210.2L207.3,210.2z"/>
<path fill="#E78724" d="M214.2,219.7c0,0,13.9,16.5,39.6,7.3s28.4-42.2,28.4-51.5s-48.8,9.2-55.4,13.2S207.6,208.5,214.2,219.7
	L214.2,219.7z M311.4,43.4c0,0-23.8-4.6-39.6,7.9s-20.5,22.4-20.5,22.4L278,94.9c0,0,12.9-6,16.9-23.1S296.2,46.7,311.4,43.4
	L311.4,43.4z"/>
<path fill="#E78724" d="M221.1,172c10.2-14.5,27.1-20.9,40.5-21.9c23-1.8,33.8,6.3,33.8,6.3s-37.6,1.6-48.4,15.8
	c-20.2,26.5-49.6,28.6-54.3,22.8c5.4,0.3,11.4-2.4,17.8-8.5C214.6,182.8,217.8,176.6,221.1,172L221.1,172z M284.5,223.4
	c0,0,41.7-14.3,33.8-28.9s-1.6-22.4-1.6-22.4s23.2,17.4,17.3,35.9c-3.7,11.3-9.8,19.6-43.4,35.3c-16.1,29.9-3.3,83.8-4.1,84.1
	c-1.3,0.4-22.6-10.5-21.2-61C265.9,250.9,267.1,229.7,284.5,223.4L284.5,223.4z M229.9,69.2c17.5,8.9,41.4,21.3,41.4,21.3l-9.4,4.7
	c0.9,1.5,1.3,2.3,1.3,2.3l-9.7,4.4c0,0-23.7,17.1-38.1,28.1c4.8-14.9,19-38.2,19-38.2S238.5,81.1,229.9,69.2L229.9,69.2z
	 M171.8,431.3c53.7,0,71.9-27.3,71.9-27.3l-8.4,20.5c-3.2,8.9-37,36.4-63.5,36.4"/>
<path fill="#E78724" d="M237.9,385.6c0,0-5,30.2-24.8,30.2c-16.8,0-21.8-25.5-21.8-30.8L237.9,385.6z M270.8,340
	c-1.8-4.8-7.9-24.4-9.9-42.2c-2.4-21.3-1.5-52.5-1.5-52.5s5.3,20.5,9.9,23.8s13.2,25.7,13.2,25.7s4.6,33.4,6.8,44.6
	C283.2,340.6,278.2,337,270.8,340L270.8,340z M318.6,207.6c0,0-11.2-4-14.5-28.4c-1.9-15.3-0.5-30.8,4-45.5c0,0-0.7,33.7,3.3,40.3
	s7.3,8.6,11.9,17.2S321.3,205,318.6,207.6L318.6,207.6z"/>
<path fill="#FDC168" d="M305.2,49.2l2.3-1.4C314.3,48,305.2,49.2,305.2,49.2z"/>
<path fill="#FBA919" d="M220.8,62c0,0,10.6-1.8,15.8-9.7s20.2-23.8,44.1-23.9c23.8-0.2,47.4,6.3,47.4,6.3l-20.6,13
	c-2.2-0.1-6,0-12.3,0.2c-25.8,0.9-29.8,26.4-29.8,26.4l-91.1-12.5"/>
<path fill="#FFFFFF" d="M211.9,203.2c8.5,7.6,20.1,10.7,31.2,8.4c18.9-4,30.4-12.3,31.2-26.8s-4-20.2-4-20.2s-21.1,6.6-31.2,15.4
	S221.6,202.8,211.9,203.2L211.9,203.2z"/>
<path fill="#C9C9C9" d="M226.9,198.8c7.2,2.9,15.2,3.2,22.6,0.9c15.6-5.2,16.7-21.5,16.7-21.5s9.6,28.1-17.3,33.6
	c-21.6,4.4-34.3-8.1-34.3-8.1L226.9,198.8L226.9,198.8z"/>
<path fill="#463014" d="M296.7,92.8c8.7-7.2,2.2-13.9,2.9-22.2c0.4-4.4,0.7-8.5,2.2-10.8c8-12.7,26.9-16.5,27.1-16.6l8.9-1.7
	l-5.9-6.9c-0.8-0.9-24.9-23.9-62.3-11.9c-26.1,8.4-45.5,37-46.2,38.2l13.1,6.2c0.2-0.2,15.5-27.1,37.9-34.3
	c18.1-5.8,34.8-0.3,42,3.4c-7.6,3-17.5,8.6-23.5,18c-2.8,4.5-3.3,10.1-3.8,15.5c-0.6,7.2-1.2,14-6.5,18.4L296.7,92.8L296.7,92.8z
	 M319.9,198.4c0,0-11-13.6-14.2-40.1c-1.3-10.4,1-31,4.6-38.9c-0.7,19.5,4.3,38.9,4.3,38.9S318,194.4,319.9,198.4z"/>
<path fill="#463014" d="M262.1,79c0,0,3.5-15.4,13.3-23.2c13.8-10.9,30.6-5.1,30.7-5.1l2.5-7.5c-0.8-0.3-20-6.3-37.7,6.1
	s-19.9,23.9-20.1,25.1L262.1,79L262.1,79z M285.5,188.6c0,0,5.8-8.2,4.7-17.3c-0.5-4.5-2.6-9.1-6.3-10.7c-6.9-3-9.9,4.8-9.9,4.8
	S283.7,167.7,285.5,188.6L285.5,188.6z"/>
<path fill="#463014" d="M222.3,201.2c-0.2,0.4-0.4,0.7-0.4,0.7s18,13.5,36.4-0.2c9.9-7.3,8.9-25.5,5.9-33.2
	c-7.2,1.6-14,4.6-20.1,8.7c7-6.3,13.2-10.9,13.2-11l8-2.3l15.5-5.3c0.2,1.2,5.9,27.8-10.5,45.9c-7.2,8-41.3,26-57.4-4.7L222.3,201.2
	L222.3,201.2z"/>
<path fill="#463014" d="M223.9,203.1c-10.1,15.4-35.6,6.6-35.2-9.7c0,0,17,9.4,32.1-7.9c8.8-10.1,37-38,75.2-28.8
	C269.7,162.6,234.7,186.7,223.9,203.1L223.9,203.1z"/>
<path fill="#463014" d="M299.7,246.6c-2.4,1.4-11,10.3-11,23.6c0,6.7,0.7,40.2,4,60.6c-5,3.2-8.4,3.9-13.4,7.2
	c-2.5-23.7-4.2-58-3.4-71.9c0.9-15.8,9.4-26.4,17.3-30.9c2.5-1.4,5-2.8,7.6-4.2c13.4-7.3,27.3-14.8,27.3-27.6c0-10-3.9-13.2-8-16.5
	l-0.4-0.4c-2.7-2.2-5.8-4.7-7.7-8.9c-5-11.3-5.8-40,0-47.3c2.9-3.6,10.7-15.9,8.5-24.1c-0.9-3.1-3-5.7-6-7.1
	c-3.4-1.7-8-2.6-13.7-2.6c-11.1,0-23.4,3.4-29.8,5.4c-22.7,7.2-50.1,27.9-58,34.1l-0.4,0.3l-5,3.5l3.1-5.3
	c0.2-0.3,20.1-33.1,55.7-45.1c6.9-2.3,20.5-6.2,33.9-6.2c8,0,14.7,1.4,20.1,4.1c6.3,3,10.9,8.7,12.8,15.4
	c4.5,16.5-10.1,34.8-10.6,35.4c-1.7,3-2.4,25.2,1.5,34c0.5,1.2,2,2.4,3.9,3.9c0.6,0.5,1.2,1,2,1.5c5.6,4.2,14,10.5,14,25.2
	c0,20-20.3,30.9-36.6,39.6c-2.7,1.4-5.2,2.8-7.5,4.1L299.7,246.6z"/>
<path fill="#463014" d="M275.5,90.4c-3.2-5.4-11.5-16-30.5-25.3c-21.2-10.3-45.8-15.6-73-15.6h-0.1c-27.2,0-51.8,5.3-73,15.6
	c-19,9.3-27.2,19.8-30.5,25.3L67,92.3l16.3,3.6l0.5-0.6l0.3-0.6c0.2-1.1,2.4-6.9,20.6-15.7c19.4-9.5,42-14.3,67.2-14.3
	c25.2,0,47.9,4.8,67.2,14.3c18.1,8.8,20.3,14.7,20.6,15.7l0.3,0.6l0.5,0.7l16.3-3.6L275.5,90.4L275.5,90.4z"/>
<path fill="#463014" d="M296.7,92.8c8.7-7.2,2.2-13.9,2.9-22.2c0.4-4.4,0.7-8.5,2.2-10.8c8-12.7,26.9-16.5,27.1-16.6l8.9-1.7
	l-5.9-6.9c-0.8-0.9-24.9-23.9-62.3-11.9c-26.1,8.4-45.5,37-46.2,38.2l13.1,6.2c0.2-0.2,15.5-27.1,37.9-34.3
	c18.1-5.8,34.8-0.3,42,3.4c-7.6,3-17.5,8.6-23.5,18c-2.8,4.5-3.3,10.1-3.8,15.5c-0.6,7.2-1.2,14-6.5,18.4L296.7,92.8L296.7,92.8z"/>
<path fill="#463014" d="M279.9,88.7l1.8-1.5c4.9-4,5.4-10.6,6-17.5c0.5-5.6,1-11.4,4-16.1c5.5-8.7,14.2-14.1,21.4-17.4
	c-7.1-3-14.7-4.5-22.3-4.5c-5.4,0-10.8,0.8-16,2.5C254,40.8,239.3,65,237.7,67.9l-0.6,1l-15.5-7.3l0.8-1.3
	c0.2-0.3,19.6-29.9,46.9-38.7c7-2.3,14.4-3.5,21.8-3.6c26.2,0,41.8,15.7,41.9,15.8l7.3,8.6l-11.1,2.2c-0.2,0-18.6,3.9-26.3,16
	c-1.3,2-1.6,6-2,10.2c-0.1,2.5,0.2,4.9,0.8,7.3c1.1,5.1,2.2,10.4-4.2,15.8l-0.6,0.5L279.9,88.7L279.9,88.7z"/>
<path fill="#463014" d="M262.1,79c0,0,3.5-15.4,13.3-23.2c13.8-10.9,30.6-5.1,30.7-5.1l2.5-7.5c-0.8-0.3-20-6.3-37.7,6.1
	s-19.9,23.9-20.1,25.1L262.1,79L262.1,79z"/>
<path fill="#463014" d="M249.2,75.3l0.1-1c0.2-1.3,2.4-13.2,20.7-26c11.4-7.8,25.6-10.1,38.9-6.3l1.2,0.4l-3.2,10.1l-1.3-0.4
	c-3.4-1-6.9-1.5-10.4-1.5c-6.9-0.1-13.6,2.1-19,6.4c-9.3,7.4-12.8,22.3-12.8,22.4l-0.3,1.5L249.2,75.3L249.2,75.3z M305.2,49.2
	l1.6-5c-3.5-0.9-7.2-1.3-10.8-1.3c-8.8-0.1-17.3,2.5-24.5,7.6c-15,10.5-18.5,20-19.4,23.2l9,3.6c1.2-4.2,5.1-15.8,13.4-22.4
	c5.9-4.6,13.2-7.1,20.7-6.9C298.6,47.9,302,48.3,305.2,49.2L305.2,49.2z M203.9,404.5c-4.8-5.2-8.8-11.1-11.8-17.5
	c-0.6-1.4-1.2-4,0.8-6c1.5-1.6,4.2-2.4,8-2.4h26.6c5,0,7.4,1.4,8.6,2.6c1.7,1.7,2,4.1,0.8,7.1c-3.1,8-10.3,14.6-12.4,16.4
	c-3,2.5-6.7,3.8-10.6,3.8C210.2,408.7,206.6,407.3,203.9,404.5L203.9,404.5z M209.9,204l14.1-0.9c-2.5,4.6-4.5,9.5-5.9,14.6
	c-2.6,9.3,2.4,22.8,2.4,22.8S201.6,219.3,209.9,204L209.9,204z"/>
<path fill="#E78724" d="M171.9,153.8c-9,0-20.7-0.2-29.5-6.6c0,0,11.5,20.1,29.4,20.1v-2.6v2.6c17.9,0,29.4-20.1,29.4-20.1
	C192.6,153.5,180.9,153.8,171.9,153.8L171.9,153.8z"/>
<path fill="#463014" d="M196.7,153.7c-9,5.4-17,7.3-24.7,7.5c-7.7-0.2-15.7-2.1-24.7-7.5c0,0,13.1,16,24.6,16.1h0.1
	C183.5,169.7,196.6,153.7,196.7,153.7L196.7,153.7z M227.4,445.8l-1-13c42.3-3.2,55.6-43.8,55.7-48h13.1
	C295.2,394.6,277.6,442,227.4,445.8L227.4,445.8z"/>
<path fill="#FFFFFF" d="M241.5,360.9c0.8-4.3,0.8-8.7-0.1-13c3.8-2.9,10.6-3.9,15.8-5.6c4.2-2.6,25.7,2.7,41.2-16.1
	c19.5-23.6,15.4-37.7,15.4-37.7c5,5.6,9.8,3.4,17.5,29.4s-3.6,44-24.5,62.1c-9.8,8.5-23.8,12.1-35.8,13.4c4-4-6.9-4.4-14.4-7.2
	c0.6-6.1-0.4-12-4.9-16.7c-2.7-2.9-6.2-4.6-9.9-5.9c-0.2-0.5-0.4-0.9-0.6-1.4C241.3,361.8,241.4,361.3,241.5,360.9L241.5,360.9z"/>
<path fill="#C9C9C9" d="M256.7,386c0.4-1.3,0.8-2.6,1.1-3.9s2.1-5.5,0-0.9c0.5-1.2,0.9-2.4,1.2-3.6c33.9,0,63.3-23.3,57.6-72.2
	c4.4-5.9,10.6,11.9,10.6,11.9s17,49.2-26.8,68.3c-14.6,6.4-27.5,10.9-30.5,9.1c-6.3,1.3-12.1-3.1-14.2-6
	C256,387.8,256.3,386.9,256.7,386L256.7,386z"/>
<path fill="#463014" d="M242.1,353.8c0-4.2-1-8.3-2.9-12.1c-0.1-0.3-0.3-0.5-0.5-0.8c13-0.1,28-1.4,40.8-6.5
	c14-5.6,31.6-24.8,34.6-47.4c0,0,26.5,20.4,18.7,64.1c-7.3,41-41.6,54.4-80.8,56.6c0-0.3,4.4-9.4,3-15c22.2,1.6,47.1-7,59.1-26.7
	c11-18.1,7.9-48.9,3.4-53.5C306.6,347.4,267,354.4,242.1,353.8L242.1,353.8z"/>
<path fill="#463014" d="M257.9,364.1c-4.7-5.1-13.3-11.1-33.1-11.1H119.1c-19.8,0-28.4,6-33.1,11.1c-6.8,7.4-7.9,17.6-3.2,30.4
	c12.5,34.1,30.1,68.6,89.1,68.7h0.1c58.9,0,76.5-34.6,89.1-68.7C265.8,381.7,264.7,371.5,257.9,364.1L257.9,364.1z M248.8,392.1
	c-6,17.1-22,58.5-76.8,58.6s-70.8-41.5-76.8-58.6c-3.3-9.5-3-16.5,0.8-20.9c2.6-3,8.6-6.5,22.3-6.5h107.5c13.7,0,19.7,3.6,22.3,6.5
	C251.8,375.6,252.1,382.6,248.8,392.1L248.8,392.1z"/>
<path fill="#463014" d="M238,329c7,20.7,21.4,37.4,21.4,37.4s-19.8-0.9-20.9-4.4c-0.8-2.6-17.9-42.5-24.4-89.3
	C220.3,282.8,237.4,327.2,238,329L238,329z"/>
</svg>
