<?xml version="1.0" encoding="utf-8"?>
<!-- Generator: Adobe Illustrator 19.2.1, SVG Export Plug-In . SVG Version: 6.00 Build 0)  -->
<svg version="1.1" id="Layer_1" xmlns="http://www.w3.org/2000/svg" xmlns:xlink="http://www.w3.org/1999/xlink" x="0px" y="0px"
	 viewBox="0 0 362.7 512" enable-background="new 0 0 362.7 512" xml:space="preserve">
<title>HTML5 Logo</title>
<path fill="#E44D26" d="M33,470.9L0,100.6h362.7l-33,370.2L181.1,512L33,470.9z"/>
<path fill="#F16529" d="M181.4,480.5l120-33.3l28.2-316.4H181.4V480.5z"/>
<path fill="#EBEBEB" d="M181.4,268.2h-60.1l-4.1-46.5h64.2v-45.4H67.5l1.1,12.2l11.2,125.1h101.6V268.2z M181.4,386.2l-0.2,0.1
	l-50.6-13.7l-3.2-36.2H81.8l6.4,71.3l93,25.8l0.2-0.1L181.4,386.2z"/>
<path d="M33.7,0h23.1v22.8h21.1V0H101v69H77.9V45.9H56.8V69H33.8L33.7,0L33.7,0z M131.4,22.9H111V0h63.7v22.9h-20.3V69h-23.1
	L131.4,22.9L131.4,22.9z M184.9,0h24.1l14.8,24.3L238.5,0h24.1v69h-23V34.8l-15.9,24.5h-0.4l-15.9-24.5V69h-22.6V0z M274.1,0h23.1
	v46.2h32.5V69h-55.5V0z"/>
<path fill="#FFFFFF" d="M181.2,268.2v45.4h55.9l-5.3,58.9l-50.6,13.7v47.2l93.1-25.8l0.7-7.7l10.7-119.6l1.1-12.2h-12.2L181.2,268.2
	z M181.2,176.3v45.4h109.7l0.9-10.2l2.1-23l1.1-12.2L181.2,176.3z"/>
</svg>
