<?xml version="1.0" encoding="utf-8"?>
<!-- Generator: Adobe Illustrator 19.2.1, SVG Export Plug-In . SVG Version: 6.00 Build 0)  -->
<svg version="1.1" id="Layer_1" xmlns="http://www.w3.org/2000/svg" xmlns:xlink="http://www.w3.org/1999/xlink" x="0px" y="0px"
	 viewBox="0 0 380 380.7" enable-background="new 0 0 380 380.7" xml:space="preserve">
<path fill="#008CDB" d="M56.8,49.7c-0.2-0.1-0.5-0.3-0.7-0.4C46.1,63.1,36,76.8,26.2,90.6C9.4,114.3,0.6,140.7,0,169.8
	c-0.4,21.5,3.4,42.4,10.4,62.7C32.5,296,77.7,337.6,137.6,364.3c37,16.5,76.1,20.1,116,12.7c33.7-6.3,62.6-21.5,84.5-48.3
	c12.4-15.2,23.5-31.6,35.2-47.4c0.3-0.3,0.2-0.9,0.2-0.7c-8.3,6.8-16.4,14.5-25.6,20.6c-34,22.8-72.2,28.2-112.1,24.9
	c-24.1-2-47-8.7-68.8-19.3c-33.7-16.4-62.8-38.6-85.9-68.1c-22-28-35.4-59.9-40.5-95.2c-3.8-26.3-1.8-51.9,8.3-76.7
	C51.3,61,54.2,55.4,56.8,49.7L56.8,49.7z M378,180.4c-1.1,1.1-2.2,2.2-3.4,3.1c-5,4.1-9.8,8.7-15.2,12.2
	c-26.8,17.1-56.4,20.1-87.1,15.5c-18.9-2.8-36.5-9.9-52.7-19.9c-37.2-23-63.2-54.3-72.5-98c-4.4-20.7-4-41.1,3.9-61.1
	c1.7-4.2,3.6-8.4,5.4-12.5c-10.3,13.1-20.2,26.5-29.3,40.3c-9.2,14-13.5,29.9-14,46.6c-0.8,25.3,5,49.5,18.6,70.7
	c34,53.3,81.8,82.2,146.6,78c20.9-1.4,40.1-8.2,56.8-21.3C353.6,219.3,364.3,198.7,378,180.4L378,180.4z M380,104.9
	c-0.2-0.1-0.4-0.3-0.6-0.4c-3.4,2.5-6.6,5.3-10.1,7.5c-17.3,10.8-36.5,13.3-56,9.5c-33-6.5-58-24.8-73-55.2
	c-10.1-20.5-12.7-42-2.9-63.8c0.2-0.4,0-0.9,0-2.5c-6.3,8.9-12.1,16.8-17.5,24.9c-2.2,3.3-4.1,6.9-5.4,10.7
	c-8.4,23.8-4.2,46.4,8.6,67.1c17.9,28.9,44.1,45.9,78.2,49c19.2,1.8,37.8-2,52.7-15.1c7.5-6.5,13.2-15.1,19.5-22.9
	C376,110.9,377.9,107.8,380,104.9L380,104.9z"/>
</svg>
