<?xml version="1.0" encoding="utf-8"?>
<!-- Generator: Adobe Illustrator 19.2.1, SVG Export Plug-In . SVG Version: 6.00 Build 0)  -->
<svg version="1.1"
	 id="svg3355" xmlns:cc="http://creativecommons.org/ns#" xmlns:dc="http://purl.org/dc/elements/1.1/" xmlns:rdf="http://www.w3.org/1999/02/22-rdf-syntax-ns#" xmlns:svg="http://www.w3.org/2000/svg"
	 xmlns="http://www.w3.org/2000/svg" xmlns:xlink="http://www.w3.org/1999/xlink" x="0px" y="0px" viewBox="0 0 553 338.7"
	 style="enable-background:new 0 0 553 338.7;" xml:space="preserve">
<style type="text/css">
	.st0{clip-path:url(#SVGID_2_);}
	.st1{fill:url(#path3481_1_);}
	.st2{clip-path:url(#SVGID_4_);}
	.st3{fill:url(#path3541_1_);}
	.st4{clip-path:url(#SVGID_6_);}
	.st5{fill:#689F63;}
	.st6{fill:#333333;}
	.st7{fill:url(#path3421_1_);}
	.st8{fill:url(#path3447_1_);}
	.st9{fill:url(#path3507_1_);}
	.st10{clip-path:url(#SVGID_8_);}
	.st11{fill:url(#path3575_1_);}
	.st12{clip-path:url(#SVGID_10_);}
	.st13{fill:url(#path3605_1_);}
</style>
<g id="g3363" transform="matrix(1.25,0,0,-1.25,-97.88225,544.97881)">
	<g id="g3449">
		<g>
			<defs>
				<path id="SVGID_1_" d="M239,373.4l-42.1-24.3c-1.6-0.9-2.5-2.6-2.5-4.4V296c0-1.8,1-3.5,2.5-4.4l42.1-24.3
					c1.6-0.9,3.5-0.9,5.1,0l42.1,24.3c1.6,0.9,2.5,2.6,2.5,4.4v48.7c0,1.8-1,3.5-2.5,4.4l-42.1,24.3c-0.8,0.5-1.7,0.7-2.5,0.7
					C240.7,374.1,239.8,373.8,239,373.4"/>
			</defs>
			<clipPath id="SVGID_2_">
				<use xlink:href="#SVGID_1_"  style="overflow:visible;"/>
			</clipPath>
			<g id="g3451" class="st0">
				<g id="g3457">
					<g id="g3459">
						<g id="g3465">
							<g id="g3467">
								
									<linearGradient id="path3481_1_" gradientUnits="userSpaceOnUse" x1="55.2963" y1="-15.3322" x2="56.2963" y2="-15.3322" gradientTransform="matrix(121.7712 0 0 -121.7712 -6540.6392 -1484.8544)">
									<stop  offset="0" style="stop-color:#9BB48F"/>
									<stop  offset="9.191650e-02" style="stop-color:#9BB48F"/>
									<stop  offset="0.3026" style="stop-color:#9BB48F"/>
									<stop  offset="0.8624" style="stop-color:#687E67"/>
									<stop  offset="1" style="stop-color:#687E67"/>
								</linearGradient>
								<path id="path3481" class="st1" d="M237.6,382.3L237,382h0.8L237.6,382.3z"/>
							</g>
						</g>
					</g>
				</g>
			</g>
		</g>
	</g>
	<g id="g3509">
		<g>
			<defs>
				<path id="SVGID_3_" d="M239,373.4l-42.1-24.3c-1.6-0.9-2.5-2.6-2.5-4.4V296c0-1.8,1-3.5,2.5-4.4l42.1-24.3
					c1.6-0.9,3.5-0.9,5.1,0l42.1,24.3c1.6,0.9,2.5,2.6,2.5,4.4v48.7c0,1.8-1,3.5-2.5,4.4l-42.1,24.3c-0.8,0.5-1.7,0.7-2.5,0.7
					C240.7,374.1,239.8,373.8,239,373.4"/>
			</defs>
			<clipPath id="SVGID_4_">
				<use xlink:href="#SVGID_3_"  style="overflow:visible;"/>
			</clipPath>
			<g id="g3511" class="st2">
				<g id="g3517">
					<g id="g3519">
						<g id="g3525">
							<g id="g3527">
								
									<linearGradient id="path3541_1_" gradientUnits="userSpaceOnUse" x1="55.2963" y1="-15.3322" x2="56.2963" y2="-15.3322" gradientTransform="matrix(121.7712 0 0 -121.7712 -6540.6392 -1574.4822)">
									<stop  offset="0" style="stop-color:#9BB48F"/>
									<stop  offset="9.191650e-02" style="stop-color:#9BB48F"/>
									<stop  offset="0.3026" style="stop-color:#9BB48F"/>
									<stop  offset="0.8624" style="stop-color:#687E67"/>
									<stop  offset="1" style="stop-color:#687E67"/>
								</linearGradient>
								<path id="path3541" class="st3" d="M290.3,292.4l-0.3,0.5v-0.6L290.3,292.4L290.3,292.4z"/>
							</g>
						</g>
					</g>
				</g>
			</g>
		</g>
	</g>
	<g id="g3590">
		<g id="g3365">
			<g>
				<defs>
					<rect id="SVGID_5_" x="-75" y="-75" width="750" height="750"/>
				</defs>
				<clipPath id="SVGID_6_">
					<use xlink:href="#SVGID_5_"  style="overflow:visible;"/>
				</clipPath>
				<g id="g3367" class="st4">
					<g id="g3373" transform="translate(296.9532,165.0556)">
						<path id="path3375" class="st5" d="M0,0c-1.5,0-2.9,0.4-4.2,1.1L-17.5,9c-2,1.1-1,1.5-0.4,1.7c2.7,0.9,3.2,1.1,6,2.7
							c0.3,0.2,0.7,0.1,1-0.1l10.2-6.1c0.4-0.2,0.9-0.2,1.2,0l40,23.1c0.4,0.2,0.6,0.6,0.6,1.1v46.1c0,0.5-0.2,0.9-0.6,1.1l-39.9,23
							c-0.4,0.2-0.9,0.2-1.2,0l-39.9-23c-0.4-0.2-0.6-0.7-0.6-1.1V31.5c0-0.4,0.2-0.9,0.6-1.1l10.9-6.3c5.9-3,9.6,0.5,9.6,4v45.5
							c0,0.6,0.5,1.2,1.2,1.2h5.1c0.6,0,1.2-0.5,1.2-1.2V28.1c0-7.9-4.3-12.5-11.8-12.5c-2.3,0-4.1,0-9.2,2.5l-10.5,6
							c-2.6,1.5-4.2,4.3-4.2,7.3v46.1c0,3,1.6,5.8,4.2,7.3l39.9,23.1c2.5,1.4,5.9,1.4,8.4,0l39.9-23.1c2.6-1.5,4.2-4.3,4.2-7.3V31.5
							c0-3-1.6-5.8-4.2-7.3L4.2,1.1C2.9,0.4,1.5,0,0,0"/>
					</g>
					<g id="g3377" transform="translate(309.2934,196.8184)">
						<path id="path3379" class="st5" d="M0,0c-17.5,0-21.1,8-21.1,14.8c0,0.6,0.5,1.2,1.2,1.2h5.2c0.6,0,1.1-0.4,1.1-1
							C-12.9,9.7-10.6,7,0,7c8.4,0,12,1.9,12,6.4c0,2.6-1,4.5-14.1,5.8c-10.9,1.1-17.7,3.5-17.7,12.2c0,8.1,6.8,12.9,18.2,12.9
							c12.8,0,19.1-4.4,19.9-14c0-0.3-0.1-0.6-0.3-0.9c-0.2-0.2-0.5-0.4-0.8-0.4H12c-0.5,0-1,0.4-1.1,0.9c-1.2,5.5-4.3,7.3-12.5,7.3
							c-9.2,0-10.3-3.2-10.3-5.6c0-2.9,1.3-3.8,13.7-5.4c12.3-1.6,18.1-3.9,18.1-12.6C19.9,5,12.7,0,0,0"/>
					</g>
					<g id="g3381" transform="translate(357.9388,245.6999)">
						<path id="path3383" class="st5" d="M0,0h1.3c1.1,0,1.3,0.8,1.3,1.2c0,1.2-0.8,1.2-1.3,1.2L0,2.4V0z M-1.6,3.8h3c1,0,3,0,3-2.3
							c0-1.6-1-1.9-1.6-2.1c1.2-0.1,1.3-0.9,1.4-2c0.1-0.7,0.2-1.9,0.4-2.3H2.8c0,0.4-0.3,2.6-0.3,2.7C2.3-1.6,2.2-1.4,1.5-1.4H0
							v-3.5h-1.7C-1.6-4.8-1.6,3.8-1.6,3.8z M-5.2-0.5C-5.2-4.1-2.3-7,1.2-7c3.6,0,6.5,3,6.5,6.5c0,3.6-2.9,6.4-6.5,6.4
							C-2.3,5.9-5.2,3.1-5.2-0.5 M9-0.5c0-4.2-3.5-7.7-7.7-7.7c-4.2,0-7.7,3.4-7.7,7.7c0,4.4,3.6,7.7,7.7,7.7C5.4,7.2,9,3.8,9-0.5"
							/>
					</g>
					<g id="g3385" transform="translate(173.2428,345.4329)">
						<path id="path3387" class="st6" d="M0,0c0,1.8-1,3.5-2.6,4.4l-42.4,24.4c-0.7,0.4-1.5,0.6-2.3,0.7h-0.4
							c-0.8,0-1.6-0.3-2.3-0.7L-92.4,4.4C-94,3.5-94.9,1.8-94.9,0l0.1-65.6c0-0.9,0.5-1.8,1.3-2.2c0.8-0.5,1.8-0.5,2.5,0l25.2,14.4
							c1.6,0.9,2.6,2.6,2.6,4.4v30.7c0,1.8,1,3.5,2.6,4.4L-50-7.7c0.8,0.5,1.7,0.7,2.6,0.7c0.9,0,1.8-0.2,2.5-0.7l10.7-6.2
							c1.6-0.9,2.6-2.6,2.6-4.4V-49c0-1.8,1-3.5,2.6-4.4l25.2-14.4c0.8-0.5,1.8-0.5,2.6,0c0.8,0.4,1.3,1.3,1.3,2.2L0,0z"/>
					</g>
					<g id="g3389" transform="translate(373.1093,311.2569)">
						<path id="path3391" class="st6" d="M0,0c0-0.5-0.2-0.9-0.6-1.1l-14.5-8.4c-0.4-0.2-0.9-0.2-1.3,0L-31-1.1
							c-0.4,0.2-0.6,0.6-0.6,1.1v16.8c0,0.5,0.2,0.9,0.6,1.1l14.5,8.4c0.4,0.2,0.9,0.2,1.3,0l14.5-8.4c0.4-0.2,0.6-0.7,0.6-1.1V0z
							 M3.9,124.4c-0.8,0.4-1.8,0.4-2.5,0c-0.8-0.5-1.3-1.3-1.3-2.2v-65c0-0.6-0.3-1.2-0.9-1.6c-0.6-0.3-1.2-0.3-1.8,0l-10.6,6.1
							c-1.6,0.9-3.5,0.9-5.1,0l-42.4-24.5c-1.6-0.9-2.6-2.6-2.6-4.4v-48.9c0-1.8,1-3.5,2.6-4.4L-18.3-45c1.6-0.9,3.5-0.9,5.1,0
							l42.4,24.5c1.6,0.9,2.6,2.6,2.6,4.4v121.9c0,1.9-1,3.6-2.6,4.5L3.9,124.4z"/>
					</g>
					<g id="g3393" transform="translate(518.131,328.495)">
						<path id="path3395" class="st6" d="M0,0c1.6,0.9,2.5,2.6,2.5,4.4v11.9c0,1.8-1,3.5-2.5,4.4l-42.1,24.4c-1.6,0.9-3.5,0.9-5.1,0
							l-42.4-24.5c-1.6-0.9-2.6-2.6-2.6-4.4v-48.9c0-1.8,1-3.5,2.6-4.4l42.1-24c1.6-0.9,3.5-0.9,5,0L-17-46.9
							c0.8,0.5,1.3,1.3,1.3,2.2c0,0.9-0.5,1.8-1.3,2.2L-59.6-18c-0.8,0.5-1.3,1.3-1.3,2.2v15.3c0,0.9,0.5,1.8,1.3,2.2l13.3,7.6
							c0.8,0.5,1.8,0.5,2.6,0l13.3-7.6c0.8-0.5,1.3-1.3,1.3-2.2v-12.1c0-0.9,0.5-1.8,1.3-2.2c0.8-0.5,1.8-0.5,2.6,0L0,0z"/>
					</g>
					<g id="g3397" transform="translate(472.8422,330.7856)">
						<path id="path3399" class="st5" d="M0,0c0.3,0.2,0.7,0.2,1,0l8.1-4.7c0.3-0.2,0.5-0.5,0.5-0.9v-9.4c0-0.4-0.2-0.7-0.5-0.9
							L1-20.5c-0.3-0.2-0.7-0.2-1,0l-8.1,4.7c-0.3,0.2-0.5,0.5-0.5,0.9v9.4c0,0.4,0.2,0.7,0.5,0.9L0,0z"/>
					</g>
				</g>
			</g>
		</g>
		<g id="g3401">
			<g id="g3403">
				<g id="g3409">
					<g id="g3411">
						
							<linearGradient id="path3421_1_" gradientUnits="userSpaceOnUse" x1="56.5131" y1="-17.7458" x2="57.5131" y2="-17.7458" gradientTransform="matrix(-47.5811 -97.0654 -97.0654 47.5811 1225.152 6685.1226)">
							<stop  offset="0" style="stop-color:#687E67"/>
							<stop  offset="0.5288" style="stop-color:#687E67"/>
							<stop  offset="1" style="stop-color:#83A178"/>
						</linearGradient>
						<path id="path3421" class="st7" d="M239,373.4l-42.1-24.3c-1.6-0.9-2.5-2.6-2.5-4.4l0,0V296c0-1.8,1-3.5,2.5-4.4l0,0
							l42.1-24.3c1.6-0.9,3.5-0.9,5.1,0l0,0l42.1,24.3c1.6,0.9,2.5,2.6,2.5,4.4l0,0v48.7c0,1.8-1,3.5-2.5,4.4l0,0l-42.1,24.3
							c-0.8,0.5-1.7,0.7-2.5,0.7l0,0C240.7,374.1,239.8,373.8,239,373.4"/>
					</g>
				</g>
			</g>
		</g>
		<g id="g3423">
			<g id="g3425">
				<g id="g3431">
					<g id="g3433">
						
							<linearGradient id="path3447_1_" gradientUnits="userSpaceOnUse" x1="54.571" y1="-15.8579" x2="55.571" y2="-15.8579" gradientTransform="matrix(133.5091 98.6436 98.6436 -133.5091 -5486.2817 -7185.6035)">
							<stop  offset="0" style="stop-color:#687E67"/>
							<stop  offset="0.1376" style="stop-color:#687E67"/>
							<stop  offset="0.6974" style="stop-color:#9BB48F"/>
							<stop  offset="0.9081" style="stop-color:#9BB48F"/>
							<stop  offset="1" style="stop-color:#9BB48F"/>
						</linearGradient>
						<path id="path3447" class="st8" d="M195.4,292.9c0.4-0.5,0.9-1,1.5-1.3l0,0l36.1-20.9l6-3.5c0.9-0.5,1.9-0.7,2.9-0.7l0,0
							c0.3,0,0.7,0.1,1,0.2l0,0l44.4,81.4c-0.3,0.4-0.7,0.7-1.2,0.9l0,0L258.7,365l-14.6,8.4c-0.4,0.2-0.9,0.4-1.3,0.5l0,0
							L195.4,292.9L195.4,292.9z"/>
					</g>
				</g>
			</g>
		</g>
		<g id="g3483">
			<g id="g3485">
				<g id="g3491">
					<g id="g3493">
						
							<linearGradient id="path3507_1_" gradientUnits="userSpaceOnUse" x1="55.2963" y1="-15.3322" x2="56.2963" y2="-15.3322" gradientTransform="matrix(121.7712 0 0 -121.7712 -6540.6392 -1546.6715)">
							<stop  offset="0" style="stop-color:#9BB48F"/>
							<stop  offset="9.191650e-02" style="stop-color:#9BB48F"/>
							<stop  offset="0.3026" style="stop-color:#9BB48F"/>
							<stop  offset="0.8624" style="stop-color:#687E67"/>
							<stop  offset="1" style="stop-color:#687E67"/>
						</linearGradient>
						<path id="path3507" class="st9" d="M241.1,374c-0.7-0.1-1.4-0.3-2-0.7l0,0l-42-24.2l45.3-82.5c0.6,0.1,1.2,0.3,1.8,0.6l0,0
							l42.1,24.3c1.3,0.8,2.2,2,2.5,3.5l0,0L242.5,374c-0.3,0.1-0.7,0.1-1,0.1l0,0C241.3,374.1,241.2,374.1,241.1,374"/>
					</g>
				</g>
			</g>
		</g>
		<g id="g3543">
			<g>
				<defs>
					<path id="SVGID_7_" d="M239,373.4l-42.1-24.3c-1.6-0.9-2.5-2.6-2.5-4.4V296c0-1.8,1-3.5,2.5-4.4l42.1-24.3
						c1.6-0.9,3.5-0.9,5.1,0l42.1,24.3c1.6,0.9,2.5,2.6,2.5,4.4v48.7c0,1.8-1,3.5-2.5,4.4l-42.1,24.3c-0.8,0.5-1.7,0.7-2.5,0.7
						C240.7,374.1,239.8,373.8,239,373.4"/>
				</defs>
				<clipPath id="SVGID_8_">
					<use xlink:href="#SVGID_7_"  style="overflow:visible;"/>
				</clipPath>
				<g id="g3545" class="st10">
					<g id="g3551">
						<g id="g3553">
							<g id="g3559">
								<g id="g3561">
									
										<linearGradient id="path3575_1_" gradientUnits="userSpaceOnUse" x1="55.2963" y1="-15.3322" x2="56.2963" y2="-15.3322" gradientTransform="matrix(121.7712 0 0 -121.7712 -6540.6392 -1587.0519)">
										<stop  offset="0" style="stop-color:#9BB48F"/>
										<stop  offset="9.191650e-02" style="stop-color:#9BB48F"/>
										<stop  offset="0.3026" style="stop-color:#9BB48F"/>
										<stop  offset="0.8624" style="stop-color:#687E67"/>
										<stop  offset="1" style="stop-color:#687E67"/>
									</linearGradient>
									<path id="path3575" class="st11" d="M286.4,291.6l-42.2-24.3c-0.6-0.3-1.2-0.5-1.9-0.6l0.8-1.5l46.8,27.1v0.6l-1.2,2
										C288.5,293.5,287.6,292.3,286.4,291.6"/>
								</g>
							</g>
						</g>
					</g>
				</g>
			</g>
		</g>
		<g id="g3577">
			<g>
				<defs>
					<path id="SVGID_9_" d="M239,373.4l-42.1-24.3c-1.6-0.9-2.5-2.6-2.5-4.4V296c0-1.8,1-3.5,2.5-4.4l42.1-24.3
						c1.6-0.9,3.5-0.9,5.1,0l42.1,24.3c1.6,0.9,2.5,2.6,2.5,4.4v48.7c0,1.8-1,3.5-2.5,4.4l-42.1,24.3c-0.8,0.5-1.7,0.7-2.5,0.7
						C240.7,374.1,239.8,373.8,239,373.4"/>
				</defs>
				<clipPath id="SVGID_10_">
					<use xlink:href="#SVGID_9_"  style="overflow:visible;"/>
				</clipPath>
				<g id="g3579" class="st12">
					<g id="g3585">
						<g id="g3587">
							<g id="g3593">
								<g id="g3595">
									
										<linearGradient id="path3605_1_" gradientUnits="userSpaceOnUse" x1="55.9974" y1="-17.4054" x2="56.9974" y2="-17.4054" gradientTransform="matrix(-75.1008 -153.2056 -153.2056 75.1008 1843.3099 10243.8672)">
										<stop  offset="0" style="stop-color:#687E67"/>
										<stop  offset="0.5288" style="stop-color:#687E67"/>
										<stop  offset="1" style="stop-color:#83A178"/>
									</linearGradient>
									<path id="path3605" class="st13" d="M286.4,291.6l-42.2-24.3c-0.6-0.3-1.2-0.5-1.9-0.6l0.8-1.5l46.8,27.1v0.6l-1.2,2
										C288.5,293.5,287.6,292.3,286.4,291.6"/>
								</g>
							</g>
						</g>
					</g>
				</g>
			</g>
		</g>
	</g>
</g>
</svg>
