<svg id="Layer_1" data-name="Layer 1" xmlns="http://www.w3.org/2000/svg" viewBox="0 0 78.58 74.6"><defs><style>.cls-1{fill:#764abc;}</style></defs><title>redux-new</title><path class="cls-1" d="M54.45,52.1a5.62,5.62,0,0,0-.6-11.2h-0.2a5.59,5.59,0,0,0-5.4,5.8,5.74,5.74,0,0,0,1.6,3.7c-3.4,6.7-8.6,11.6-16.4,15.7a27,27,0,0,1-16.3,3.1c-4.5-.6-8-2.6-10.2-5.9a14.69,14.69,0,0,1-.8-15.5,23.54,23.54,0,0,1,6.8-8c-0.4-1.3-1-3.5-1.3-5.1C-2.85,45.2-1.35,59.4,3,66.1c3.3,5,10,8.1,17.4,8.1a24.58,24.58,0,0,0,6-.7A38.38,38.38,0,0,0,54.45,52.1Z"/><path class="cls-1" d="M72,39.7c-7.6-8.9-18.8-13.8-31.6-13.8h-1.6a5.49,5.49,0,0,0-4.9-3h-0.2a5.6,5.6,0,0,0,.2,11.2h0.2A5.63,5.63,0,0,0,39,30.7h1.8a38.11,38.11,0,0,1,21.3,6.5A26.79,26.79,0,0,1,72.75,50a13.86,13.86,0,0,1-.2,11.8A14.68,14.68,0,0,1,58.85,70,25.58,25.58,0,0,1,49,67.9c-1.1,1-3.1,2.6-4.5,3.6a30.87,30.87,0,0,0,12.9,3.1c9.6,0,16.7-5.3,19.4-10.6C79.75,58.2,79.55,48.2,72,39.7Z"/><path class="cls-1" d="M21.25,53.8a5.62,5.62,0,0,0,5.6,5.4H27a5.6,5.6,0,0,0-.2-11.2h-0.2a1.7,1.7,0,0,0-.7.1,36.64,36.64,0,0,1-5.2-22.2,26.83,26.83,0,0,1,5.9-15.5c2.9-3.7,8.5-5.5,12.3-5.6,10.6-.2,15.1,13,15.4,18.3,1.3,0.3,3.5,1,5,1.5C58.15,8.4,48.15,0,38.55,0c-9,0-17.3,6.5-20.6,16.1-4.6,12.8-1.6,25.1,4,34.8A4.49,4.49,0,0,0,21.25,53.8Z"/></svg>