<?xml version="1.0" standalone="no"?>
<!DOCTYPE svg PUBLIC "-//W3C//DTD SVG 1.1//EN" "http://www.w3.org/Graphics/SVG/1.1/DTD/svg11.dtd" >
<svg xmlns="http://www.w3.org/2000/svg" width="100%" height="100%">
<metadata>
Created by FontXChange 20110222 at Sun Mar 10 15:42:16 2013
 By James Beall
Copyright (c) 2011 by GM. All rights reserved.
</metadata>
<defs>
<font id="Louis-CondensedDemi" horiz-adv-x="438" >
  <font-face 
    font-family="Louis"
    font-weight="650"
    font-stretch="normal"
    units-per-em="1000"
    panose-1="2 0 0 0 0 0 0 0 0 0"
    ascent="750"
    descent="-250"
    x-height="560"
    cap-height="750"
    bbox="-82 -284 906 1055"
    underline-thickness="50"
    underline-position="-50"
    stemh="111"
    stemv="115"
    unicode-range="U+0020-FB02"
  />
<missing-glyph horiz-adv-x="496" 
d="M456 0h-416v750h416v-750zM88 92l133 282l-133 279v-561zM408 92v561l-133 -279zM248 428l130 272h-260zM376 50l-128 269l-128 -269h256z" />
    <glyph glyph-name="fi" unicode="fi" horiz-adv-x="479" 
d="M418 0h-111v461h-119s1 -33 1 -58v-403h-111v461h-66v99h66v43c0 132 66 193 166 193c29 0 54 -3 73 -6v-106c-21 3 -41 6 -62 6c-45 0 -66 -23 -66 -90v-40h229v-560z" />
    <glyph glyph-name="fl" unicode="fl" horiz-adv-x="500" 
d="M439 0h-111v688c-26 2 -47 3 -63 3c-55 0 -76 -23 -76 -90v-41h95v-103h-96s1 -33 1 -58v-399h-111v457h-66v103h66v43c0 132 66 193 186 193c44 0 118 -5 175 -11v-785z" />
    <glyph glyph-name=".notdef" horiz-adv-x="496" 
d="M456 0h-416v750h416v-750zM88 92l133 282l-133 279v-561zM408 92v561l-133 -279zM248 428l130 272h-260zM376 50l-128 269l-128 -269h256z" />
    <glyph glyph-name="space" unicode=" " horiz-adv-x="175" 
 />
    <glyph glyph-name="exclam" unicode="!" horiz-adv-x="232" 
d="M165 236h-98l-12 514h122zM178 0h-124v134h124v-134z" />
    <glyph glyph-name="quotedbl" unicode="&#x22;" horiz-adv-x="335" 
d="M135 452h-97v298h114zM297 452h-97v298h113z" />
    <glyph glyph-name="numbersign" unicode="#" horiz-adv-x="466" 
d="M333 0h-88l15 188h-80l-14 -188h-88l14 188h-72v73h78l14 178h-79v73h84l15 188h88l-15 -188h80l14 188h88l-14 -188h73v-73h-79l-14 -178h80v-73h-85zM265 261l14 178h-79l-14 -178h79z" />
    <glyph glyph-name="dollar" unicode="$" horiz-adv-x="445" 
d="M257 -70h-60v99c-105 13 -162 100 -165 207h108c1 -52 24 -92 57 -107v215l-14 7c-76 37 -136 78 -136 191c0 104 62 167 150 177v91h60v-91c90 -13 154 -79 150 -201h-107c0 48 -14 85 -43 100v-192l5 -2c86 -39 151 -93 151 -203c0 -106 -65 -178 -156 -191v-100z
M257 311v-181c29 13 49 45 49 93c0 39 -19 66 -49 88zM197 458v163c-31 -12 -43 -45 -43 -78c0 -40 16 -66 43 -85z" />
    <glyph glyph-name="percent" unicode="%" horiz-adv-x="563" 
d="M185 0h-78l277 750h78zM185 590v22c0 58 -18 78 -41 78s-41 -20 -41 -78v-22c0 -57 18 -78 41 -78s41 21 41 78zM260 610v-18c0 -99 -49 -150 -116 -150s-116 51 -116 150v18c0 100 49 150 116 150s116 -50 116 -150zM460 138v22c0 58 -18 78 -41 78s-41 -20 -41 -78v-22
c0 -57 18 -78 41 -78s41 21 41 78zM535 158v-18c0 -99 -49 -150 -116 -150s-116 51 -116 150v18c0 100 49 150 116 150s116 -50 116 -150z" />
    <glyph glyph-name="ampersand" unicode="&#x26;" horiz-adv-x="504" 
d="M509 0h-123l-34 52c-33 -39 -76 -61 -131 -61c-108 0 -191 80 -191 214c0 94 50 157 102 200c-35 49 -61 101 -61 172c0 123 76 183 155 183c93 0 158 -65 158 -169c0 -72 -38 -147 -117 -211l79 -123c9 36 15 78 17 111h105c-4 -67 -19 -145 -51 -221l92 -139v-8z
M299 138l-115 179c-24 -26 -43 -58 -43 -112c0 -74 34 -115 81 -115c34 0 60 17 77 48zM217 464c40 33 58 76 58 124c0 38 -15 71 -46 71c-34 0 -49 -33 -49 -78c0 -41 15 -79 37 -117z" />
    <glyph glyph-name="quotesingle" unicode="'" horiz-adv-x="171" 
d="M132 452h-94v298h111z" />
    <glyph glyph-name="parenleft" unicode="(" horiz-adv-x="285" 
d="M287 -182h-98c-104 178 -138 351 -138 517s34 338 138 516h98c-87 -168 -123 -339 -123 -516s36 -349 123 -517z" />
    <glyph glyph-name="parenright" unicode=")" horiz-adv-x="285" 
d="M96 -182h-98c87 168 123 340 123 517s-36 348 -123 516h98c104 -178 138 -350 138 -516s-34 -339 -138 -517z" />
    <glyph glyph-name="asterisk" unicode="*" horiz-adv-x="379" 
d="M330 430l-71 -54l-70 112l-69 -112l-71 54l89 114l-124 31l29 88l107 -46l-8 135h95l-8 -135l107 46l29 -88l-124 -31z" />
    <glyph glyph-name="plus" unicode="+" horiz-adv-x="499" 
d="M300 20h-101v232h-171v96h171v232h101v-232h171v-96h-171v-232z" />
    <glyph glyph-name="comma" unicode="," horiz-adv-x="204" 
d="M28 -165v52c60 19 74 62 74 101c0 9 -5 12 -11 12h-55v141h135v-119c0 -83 -33 -172 -143 -187z" />
    <glyph glyph-name="hyphen" unicode="-" horiz-adv-x="359" 
d="M331 342h-303v96h303v-96z" />
    <glyph glyph-name="period" unicode="." horiz-adv-x="204" 
d="M167 0h-130v141h130v-141z" />
    <glyph glyph-name="slash" unicode="/" horiz-adv-x="334" 
d="M110 -77h-104l219 881h103z" />
    <glyph glyph-name="zero" unicode="0" horiz-adv-x="488" 
d="M435 517v-284c0 -42 -4 -73 -11 -100c-26 -94 -95 -143 -180 -143s-154 49 -180 143c-7 27 -11 58 -11 100v284c0 42 4 73 11 100c26 94 95 143 180 143s154 -49 180 -143c7 -27 11 -58 11 -100zM320 238v274c0 38 -3 64 -9 82c-12 37 -36 53 -67 53s-55 -16 -67 -53
c-6 -18 -9 -44 -9 -82v-274c0 -38 3 -64 9 -82c12 -37 36 -53 67 -53s55 16 67 53c6 18 9 44 9 82z" />
    <glyph glyph-name="one" unicode="1" horiz-adv-x="322" 
d="M248 0h-115v585l-121 -123h-2v150l133 138h105v-750z" />
    <glyph glyph-name="two" unicode="2" horiz-adv-x="444" 
d="M406 0h-366v45c0 158 70 241 136 312l14 15c52 54 98 103 98 192c0 63 -26 88 -64 88c-40 0 -67 -27 -67 -108v-19h-114v19c0 138 75 216 181 216c100 0 181 -66 181 -196c0 -112 -65 -188 -139 -269l-10 -11c-39 -42 -91 -100 -95 -174h245v-110z" />
    <glyph glyph-name="three" unicode="3" horiz-adv-x="453" 
d="M317 399v-1c77 -42 103 -116 103 -184c0 -137 -85 -224 -197 -224c-121 0 -196 79 -196 217h114c1 -77 30 -108 82 -108c47 0 82 37 82 123c0 71 -33 122 -113 122h-50v102h50c71 0 100 50 100 118c0 66 -30 90 -66 90c-48 0 -71 -37 -71 -103h-114c0 125 75 209 185 209
c102 0 180 -67 180 -195c0 -62 -24 -123 -89 -166z" />
    <glyph glyph-name="four" unicode="4" horiz-adv-x="459" 
d="M371 0h-111v189h-238v99l209 472h140v-468h78v-103h-78v-189zM260 292v295h-1l-126 -295h127z" />
    <glyph glyph-name="five" unicode="5" horiz-adv-x="468" 
d="M425 286v-57c0 -39 -3 -65 -8 -88c-22 -100 -91 -151 -181 -151c-105 0 -185 85 -186 232h115c0 -82 29 -120 71 -120c32 0 55 14 67 56c5 17 7 41 7 76v44c0 32 -2 54 -5 70c-9 43 -30 56 -63 56c-31 0 -60 -23 -76 -58h-108v404h337v-112h-222v-162c25 25 59 37 90 37
c80 0 136 -44 155 -137c5 -23 7 -52 7 -90z" />
    <glyph glyph-name="six" unicode="6" horiz-adv-x="479" 
d="M320 238v8c0 30 -1 47 -3 62c-8 51 -30 72 -65 72c-45 0 -84 -49 -84 -129v-13c0 -38 3 -64 9 -82c12 -37 36 -53 67 -53s55 16 67 53c6 18 9 44 9 82zM435 256v-23c0 -42 -4 -73 -11 -100c-26 -94 -95 -143 -180 -143s-154 49 -180 143c-7 27 -11 58 -11 100v284
c0 42 4 73 11 100c26 94 95 143 180 143c109 0 178 -82 189 -193h-116c-8 61 -42 80 -73 80s-55 -16 -67 -53c-6 -18 -9 -44 -9 -82v-79c29 45 77 55 112 55c67 0 123 -39 145 -130c6 -26 10 -57 10 -102z" />
    <glyph glyph-name="seven" unicode="7" horiz-adv-x="406" 
d="M213 0h-121c13 198 93 436 173 640h-249v110h370v-98c-90 -223 -159 -434 -173 -652z" />
    <glyph glyph-name="eight" unicode="8" horiz-adv-x="470" 
d="M337 399c65 -40 98 -114 98 -186c0 -127 -81 -223 -200 -223s-200 96 -200 223c0 72 33 146 98 186c-56 42 -83 105 -83 166c0 124 77 195 185 195s185 -71 185 -195c0 -61 -27 -124 -83 -166zM235 96c52 0 85 46 85 125c0 60 -27 120 -85 120s-85 -60 -85 -120
c0 -79 33 -125 85 -125zM235 454c45 0 71 50 71 108c0 62 -28 98 -71 98s-71 -36 -71 -98c0 -58 26 -108 71 -108z" />
    <glyph glyph-name="nine" unicode="9" horiz-adv-x="479" 
d="M311 499v13c0 38 -3 64 -9 82c-12 37 -36 53 -67 53s-55 -16 -67 -53c-6 -18 -9 -44 -9 -82v-8c0 -30 1 -47 3 -62c8 -51 30 -72 65 -72c45 0 84 49 84 129zM311 238v79c-29 -45 -77 -55 -112 -55c-67 0 -123 39 -145 130c-6 26 -10 57 -10 102v23c0 42 4 73 11 100
c26 94 95 143 180 143s154 -49 180 -143c7 -27 11 -58 11 -100v-284c0 -42 -4 -73 -11 -100c-26 -94 -95 -143 -180 -143c-109 0 -178 82 -189 193h116c8 -61 42 -80 73 -80s55 16 67 53c6 18 9 44 9 82z" />
    <glyph glyph-name="colon" unicode=":" horiz-adv-x="231" 
d="M180 0h-130v141h130v-141zM180 408h-130v141h130v-141z" />
    <glyph glyph-name="semicolon" unicode=";" horiz-adv-x="231" 
d="M183 408h-130v141h130v-141zM44 -165v52c60 19 74 62 74 101c0 9 -5 12 -11 12h-55v141h135v-119c0 -83 -33 -172 -143 -187z" />
    <glyph glyph-name="less" unicode="&#x3c;" 
d="M402 25l-366 226v98l366 226v-113l-273 -162l273 -162v-113z" />
    <glyph glyph-name="equal" unicode="=" horiz-adv-x="450" 
d="M410 358h-370v96h370v-96zM410 146h-370v96h370v-96z" />
    <glyph glyph-name="greater" unicode="&#x3e;" 
d="M402 251l-366 -226v113l273 162l-273 162v113l366 -226v-98z" />
    <glyph glyph-name="question" unicode="?" horiz-adv-x="398" 
d="M238 236h-106c-1 14 -2 27 -2 40c0 98 42 148 79 191c27 31 50 64 50 115c0 48 -26 75 -62 75c-42 0 -66 -42 -66 -103v-19h-109v19c0 128 74 206 174 206c104 0 175 -63 175 -174c0 -79 -36 -127 -71 -167c-36 -42 -71 -83 -62 -183zM249 0h-124v134h124v-134z" />
    <glyph glyph-name="at" unicode="@" horiz-adv-x="735" 
d="M420 244l10 97c7 62 -5 123 -45 123c-36 0 -58 -34 -66 -119l-10 -104c-4 -45 -7 -116 36 -116c35 0 69 63 75 119zM512 -28l21 -59c-48 -36 -129 -63 -201 -63h-14c-205 0 -287 181 -266 375l14 132c29 275 161 393 321 393h16c171 0 288 -91 283 -358
c-4 -183 -63 -371 -170 -362c-37 3 -69 32 -79 76c-27 -50 -68 -72 -105 -72c-103 0 -134 103 -123 203l12 109c15 140 73 210 158 210c38 0 69 -21 86 -56l12 43h73l-38 -359c-5 -46 -8 -89 14 -92c47 -6 92 166 95 300c5 223 -79 295 -218 295h-16
c-124 0 -227 -111 -249 -330l-13 -132c-14 -141 27 -313 197 -313h13c58 0 132 23 177 60z" />
    <glyph glyph-name="A" unicode="A" horiz-adv-x="466" 
d="M284 329l-50 260h-2l-50 -260h102zM464 0h-117l-42 219h-144l-42 -219h-117l158 750h146z" />
    <glyph glyph-name="B" unicode="B" horiz-adv-x="494" 
d="M240 0h-176v750h159c40 0 67 -4 91 -10c82 -22 127 -83 127 -185c0 -66 -27 -125 -85 -161c73 -36 103 -107 103 -176c0 -123 -61 -204 -178 -216c-10 -1 -21 -2 -41 -2zM179 111h61c18 0 29 1 37 3c46 11 66 53 66 106c0 52 -18 90 -60 104c-11 4 -26 6 -49 6h-55v-219z
M179 439h47c21 0 35 2 46 6c36 13 55 47 55 102c0 47 -17 75 -50 86c-11 4 -29 6 -50 6h-48v-200z" />
    <glyph glyph-name="C" unicode="C" horiz-adv-x="481" 
d="M253 -10h-4c-112 0 -172 75 -189 172c-5 27 -7 58 -7 86v254c0 28 2 59 7 86c17 97 77 172 189 172h4c112 0 172 -75 189 -172c5 -26 7 -56 7 -83h-115c0 17 -2 40 -5 62c-7 42 -29 82 -76 82h-4c-47 0 -69 -40 -76 -82c-4 -23 -5 -48 -5 -66v-252c0 -18 1 -43 5 -66
c7 -42 29 -82 76 -82h4c47 0 69 40 76 82c3 22 5 47 5 67h115c0 -30 -2 -62 -7 -88c-17 -97 -77 -172 -189 -172z" />
    <glyph glyph-name="D" unicode="D" horiz-adv-x="507" 
d="M339 260v230c0 18 -1 43 -5 66c-5 32 -19 63 -55 76c-11 4 -25 6 -49 6h-51v-526h51c24 0 38 2 49 6c36 13 50 44 55 76c4 23 5 48 5 66zM228 0h-164v750h164c28 0 49 -2 66 -5c94 -18 139 -85 153 -167c5 -27 7 -58 7 -86v-234c0 -28 -2 -59 -7 -86
c-14 -82 -59 -149 -153 -167c-17 -3 -38 -5 -66 -5z" />
    <glyph glyph-name="E" unicode="E" horiz-adv-x="452" 
d="M424 0h-360v750h360v-111h-245v-199h203v-111h-203v-218h245v-111z" />
    <glyph glyph-name="F" unicode="F" horiz-adv-x="447" 
d="M179 0h-115v750h360v-111h-245v-199h203v-111h-203v-329z" />
    <glyph glyph-name="G" unicode="G" horiz-adv-x="504" 
d="M449 0h-67l-16 67c-30 -53 -71 -77 -125 -77c-113 0 -170 84 -184 188c-3 23 -4 47 -4 70v254c0 28 2 59 7 86c17 97 77 172 189 172h4c112 0 172 -75 189 -172c5 -26 7 -56 7 -83h-115c0 17 -2 40 -5 62c-7 42 -29 82 -76 82h-4c-47 0 -69 -40 -76 -82
c-4 -23 -5 -48 -5 -66v-252c0 -18 1 -43 5 -66c7 -42 29 -82 76 -82h4c49 0 71 40 78 82c3 22 5 47 5 67v26h-100v107h213v-383z" />
    <glyph glyph-name="H" unicode="H" horiz-adv-x="533" 
d="M469 0h-115v335h-175v-335h-115v750h115v-304h175v304h115v-750z" />
    <glyph glyph-name="I" unicode="I" horiz-adv-x="243" 
d="M179 0h-115v750h115v-750z" />
    <glyph glyph-name="J" unicode="J" horiz-adv-x="447" 
d="M272 216v534h115v-534c0 -25 -1 -41 -3 -57c-13 -98 -69 -169 -174 -169c-101 0 -158 63 -173 165c-2 17 -4 34 -4 62v59h115v-60c0 -22 2 -37 4 -50c6 -39 27 -65 58 -65c30 0 51 22 58 63c2 12 4 28 4 52z" />
    <glyph glyph-name="K" unicode="K" horiz-adv-x="494" 
d="M501 0h-126l-141 348l-55 -90v-258h-115v750h115v-307l1 -1s19 35 28 49l153 259h126l-180 -287z" />
    <glyph glyph-name="L" unicode="L" horiz-adv-x="445" 
d="M427 0h-363v750h115v-638h248v-112z" />
    <glyph glyph-name="M" unicode="M" horiz-adv-x="628" 
d="M564 0h-109v425c0 25 1 58 1 58h-1l-98 -344h-86l-98 344h-1s1 -33 1 -58v-425h-109v750h128l122 -423l122 423h128v-750z" />
    <glyph glyph-name="N" unicode="N" horiz-adv-x="532" 
d="M468 0h-127l-168 497h-1s1 -33 1 -58v-439h-109v750h127l168 -496h1s-1 33 -1 58v438h109v-750z" />
    <glyph glyph-name="O" unicode="O" horiz-adv-x="502" 
d="M249 101h4c47 0 69 40 76 82c4 23 5 48 5 66v252c0 18 -1 43 -5 66c-7 42 -29 82 -76 82h-4c-47 0 -69 -40 -76 -82c-4 -23 -5 -48 -5 -66v-252c0 -18 1 -43 5 -66c7 -42 29 -82 76 -82zM253 -10h-4c-112 0 -172 75 -189 172c-5 27 -7 58 -7 86v254c0 28 2 59 7 86
c17 97 77 172 189 172h4c112 0 172 -75 189 -172c5 -27 7 -58 7 -86v-254c0 -28 -2 -59 -7 -86c-17 -97 -77 -172 -189 -172z" />
    <glyph glyph-name="P" unicode="P" horiz-adv-x="490" 
d="M179 399h52c23 0 36 2 47 6c46 16 64 62 64 112c0 46 -15 99 -63 116c-11 4 -23 6 -48 6h-52v-240zM179 0h-115v750h168c32 0 55 -3 75 -8c97 -26 150 -113 150 -225c0 -106 -51 -200 -159 -224c-17 -4 -37 -6 -65 -6h-54v-287z" />
    <glyph glyph-name="Q" unicode="Q" horiz-adv-x="502" 
d="M499 17v-102c-110 5 -176 26 -227 76c-6 -1 -13 -1 -19 -1h-4c-112 0 -172 75 -189 172c-5 27 -7 58 -7 86v254c0 28 2 59 7 86c17 97 77 172 189 172h4c112 0 172 -75 189 -172c5 -27 7 -58 7 -86v-254c0 -28 -2 -59 -7 -86c-9 -51 -30 -96 -64 -127
c31 -13 73 -17 121 -18zM249 101h4c47 0 69 40 76 82c4 23 5 48 5 66v252c0 18 -1 43 -5 66c-7 42 -29 82 -76 82h-4c-47 0 -69 -40 -76 -82c-4 -23 -5 -48 -5 -66v-252c0 -18 1 -43 5 -66c7 -42 29 -82 76 -82z" />
    <glyph glyph-name="R" unicode="R" horiz-adv-x="488" 
d="M474 0h-119c-16 22 -23 56 -25 90l-9 132c-4 53 -19 81 -51 91c-11 3 -23 5 -47 5h-44v-318h-115v750h157c26 0 49 -2 67 -5c96 -17 154 -80 154 -194c0 -72 -32 -134 -99 -171v-1c59 -28 87 -68 92 -142l8 -138c3 -44 10 -78 31 -97v-2zM179 427h41c20 0 33 1 42 4
c44 13 65 56 65 111c0 57 -23 85 -66 93c-10 2 -24 4 -44 4h-38v-212z" />
    <glyph glyph-name="S" unicode="S" horiz-adv-x="470" 
d="M429 534h-115c0 70 -24 120 -77 120c-55 0 -73 -46 -73 -92c0 -60 30 -90 77 -113l35 -17c91 -44 159 -106 159 -228c0 -131 -84 -214 -198 -214c-128 0 -200 102 -203 231h116c2 -74 38 -125 87 -125c48 0 83 39 83 110c0 62 -35 93 -96 124l-31 16
c-80 41 -143 89 -143 215c0 127 80 199 187 199c112 0 197 -75 192 -226z" />
    <glyph glyph-name="T" unicode="T" horiz-adv-x="441" 
d="M278 0h-115v639h-151v111h417v-111h-151v-639z" />
    <glyph glyph-name="U" unicode="U" horiz-adv-x="516" 
d="M260 -10h-4c-112 0 -172 75 -189 172c-5 27 -7 58 -7 86v502h115v-501c0 -18 1 -43 5 -66c7 -42 29 -82 76 -82h4c47 0 69 40 76 82c4 23 5 48 5 66v501h115v-502c0 -28 -2 -59 -7 -86c-17 -97 -77 -172 -189 -172z" />
    <glyph glyph-name="V" unicode="V" horiz-adv-x="460" 
d="M300 0h-140l-158 750h117l110 -582h2l110 582h117z" />
    <glyph glyph-name="W" unicode="W" horiz-adv-x="688" 
d="M560 0h-140l-75 519h-2l-75 -519h-140l-114 750h120l66 -548h2l77 548h130l77 -548h2l66 548h120z" />
    <glyph glyph-name="X" unicode="X" horiz-adv-x="459" 
d="M459 0h-125l-104 264c-35 -84 -69 -180 -104 -264h-126l170 391l-152 359h126l86 -228l86 228h126l-152 -359z" />
    <glyph glyph-name="Y" unicode="Y" horiz-adv-x="455" 
d="M285 0h-115v327l-175 423h123l109 -288h1l109 288h123l-175 -423v-327z" />
    <glyph glyph-name="Z" unicode="Z" horiz-adv-x="464" 
d="M431 0h-401v98l261 541h-251v111h386v-97l-262 -542h267v-111z" />
    <glyph glyph-name="bracketleft" unicode="[" horiz-adv-x="322" 
d="M312 -190h-239v1049h239v-78h-130v-893h130v-78z" />
    <glyph glyph-name="backslash" unicode="\" horiz-adv-x="334" 
d="M328 -77h-104l-218 881h103z" />
    <glyph glyph-name="bracketright" unicode="]" horiz-adv-x="322" 
d="M249 -190h-239v78h130v893h-130v78h239v-1049z" />
    <glyph glyph-name="asciicircum" unicode="^" horiz-adv-x="382" 
d="M364 397h-99l-74 243l-74 -243h-99l122 363h102z" />
    <glyph glyph-name="underscore" unicode="_" horiz-adv-x="359" 
d="M361 -143h-363v82h363v-82z" />
    <glyph glyph-name="grave" unicode="`" 
d="M298 657h-82l-127 175v6h121z" />
    <glyph glyph-name="a" unicode="a" horiz-adv-x="443" 
d="M385 0h-77l-9 65c-27 -50 -67 -75 -117 -75c-79 0 -144 64 -144 186c0 91 48 157 141 172c14 2 30 4 56 4h39v21c0 22 -2 37 -4 48c-7 34 -24 50 -51 50c-28 0 -48 -23 -54 -61h-109c14 98 76 160 167 160s146 -56 158 -160c2 -20 4 -48 4 -76v-334zM275 241v19h-43
c-21 0 -33 -2 -42 -6c-27 -12 -42 -39 -42 -76c0 -58 18 -90 55 -90c36 0 57 37 66 81c4 20 6 44 6 72z" />
    <glyph glyph-name="b" unicode="b" horiz-adv-x="463" 
d="M309 223v117c0 11 -1 37 -3 52c-5 35 -20 72 -59 72c-36 0 -57 -32 -67 -68c-5 -18 -8 -38 -8 -72v-104c0 -39 14 -125 71 -125c38 0 55 33 62 69c3 17 4 34 4 59zM138 0h-77v785h111v-217c0 -25 -1 -50 -1 -50h1c24 33 58 52 101 52c82 0 125 -58 140 -137
c5 -26 7 -54 7 -91v-120c0 -28 -1 -51 -4 -72c-13 -83 -54 -160 -150 -160c-52 0 -98 26 -119 73z" />
    <glyph glyph-name="c" unicode="c" horiz-adv-x="425" 
d="M283 180h110c-3 -34 -11 -65 -18 -82c-26 -65 -77 -108 -156 -108c-100 0 -155 68 -171 164c-3 20 -5 41 -5 73v106c0 32 2 53 5 73c16 96 71 164 171 164c81 0 132 -45 157 -112c10 -28 16 -57 18 -88h-110c-1 10 -2 19 -4 28c-8 42 -27 67 -61 67s-54 -25 -61 -67
c-3 -17 -4 -36 -4 -67v-102c0 -31 1 -50 4 -67c7 -42 27 -67 61 -67s53 25 61 67c1 5 3 18 3 18z" />
    <glyph glyph-name="d" unicode="d" horiz-adv-x="463" 
d="M291 234v105c0 39 -14 125 -71 125c-38 0 -55 -33 -62 -69c-3 -17 -4 -34 -4 -59v-117c0 -11 1 -37 3 -52c5 -35 20 -72 59 -72c36 0 57 32 67 68c5 18 8 43 8 71zM402 0h-77l-9 73c-24 -55 -67 -83 -119 -83c-100 0 -139 77 -150 160c-3 21 -4 44 -4 72v120
c0 37 3 66 8 91c16 75 57 137 139 137c43 0 77 -16 101 -42h1s-1 25 -1 50v207h111v-785z" />
    <glyph glyph-name="e" unicode="e" horiz-adv-x="437" 
d="M395 253h-241v-27c0 -31 1 -50 4 -67c7 -42 27 -67 61 -67c40 0 59 38 62 75h110c-14 -109 -72 -177 -172 -177s-155 68 -171 164c-3 20 -5 41 -5 73v106c0 32 2 53 5 73c16 96 71 164 171 164s155 -68 170 -164c5 -29 6 -51 6 -103v-50zM154 347h130c0 16 -1 36 -4 53
c-7 42 -27 68 -61 68s-54 -26 -61 -68c-2 -15 -4 -30 -4 -53z" />
    <glyph glyph-name="f" unicode="f" horiz-adv-x="295" 
d="M189 0h-111v457h-66v103h66v43c0 132 66 193 166 193c21 0 40 -2 53 -4v-106c-14 2 -28 4 -42 4c-45 0 -66 -23 -66 -90v-40h97v-103h-98s1 -33 1 -58v-399z" />
    <glyph glyph-name="g" unicode="g" horiz-adv-x="463" 
d="M291 246v94c0 39 -14 125 -71 125c-38 0 -55 -33 -62 -69c-3 -17 -4 -34 -4 -59v-107c0 -11 1 -37 3 -52c5 -35 20 -72 59 -72c36 0 57 32 67 68c5 18 8 38 8 72zM291 -10v12c0 25 1 50 1 50h-1c-24 -33 -58 -52 -101 -52c-82 0 -125 58 -140 137c-5 26 -7 54 -7 91v110
c0 28 1 51 4 72c13 83 54 160 150 160c52 0 98 -26 119 -73l9 63h77v-569c0 -37 -3 -62 -8 -85c-21 -88 -81 -144 -168 -144c-90 0 -162 58 -174 175h110c8 -51 35 -73 64 -73c33 0 55 25 62 74c2 12 3 30 3 52z" />
    <glyph glyph-name="h" unicode="h" horiz-adv-x="478" 
d="M420 0h-111v340c0 11 -1 37 -3 52c-5 35 -20 72 -59 72c-36 0 -57 -32 -67 -68c-5 -18 -8 -38 -8 -72v-324h-111v785h111v-217c0 -25 -1 -50 -1 -50h1c24 33 58 52 101 52c82 0 125 -58 140 -137c5 -26 7 -54 7 -91v-342z" />
    <glyph glyph-name="i" unicode="i" horiz-adv-x="233" 
d="M172 0h-111v560h111v-560zM174 645h-115v120h115v-120z" />
    <glyph glyph-name="j" unicode="j" horiz-adv-x="236" 
d="M177 645h-115v120h115v-120zM-44 -233v106c14 -2 28 -4 42 -4c45 0 66 23 66 90v601h111v-604c0 -132 -66 -193 -166 -193c-21 0 -40 2 -53 4z" />
    <glyph glyph-name="k" unicode="k" 
d="M438 0h-124l-108 265l-34 -47v-218h-111v785h111v-409l129 184h125l-145 -198z" />
    <glyph glyph-name="l" unicode="l" horiz-adv-x="233" 
d="M172 0h-111v785h111v-785z" />
    <glyph glyph-name="m" unicode="m" horiz-adv-x="690" 
d="M632 0h-111v346c0 26 0 48 -4 67c-6 27 -19 51 -49 51c-37 0 -55 -34 -62 -73c-3 -17 -4 -40 -4 -61v-330h-111v346c0 26 0 48 -4 67c-6 27 -19 51 -49 51c-37 0 -55 -34 -62 -73c-3 -17 -4 -40 -4 -61v-330h-111v560h77l9 -68c24 53 70 78 117 78c60 0 94 -31 114 -75
c25 51 72 75 118 75c72 0 109 -43 125 -102c9 -33 11 -72 11 -120v-348z" />
    <glyph glyph-name="n" unicode="n" horiz-adv-x="478" 
d="M420 0h-111v340c0 11 -1 37 -3 52c-5 39 -20 72 -59 72c-36 0 -57 -32 -67 -68c-5 -18 -8 -38 -8 -72v-324h-111v560h77l10 -75c24 55 73 85 125 85c82 0 125 -57 140 -137c5 -26 7 -57 7 -91v-342z" />
    <glyph glyph-name="o" unicode="o" 
d="M284 229v102c0 31 -1 50 -4 67c-7 42 -27 67 -61 67s-54 -25 -61 -67c-3 -17 -4 -36 -4 -67v-102c0 -31 1 -50 4 -67c7 -42 27 -67 61 -67s54 25 61 67c3 17 4 36 4 67zM395 333v-106c0 -32 -2 -53 -5 -73c-16 -96 -71 -164 -171 -164s-155 68 -171 164
c-3 20 -5 41 -5 73v106c0 32 2 53 5 73c16 96 71 164 171 164s155 -68 171 -164c3 -20 5 -41 5 -73z" />
    <glyph glyph-name="p" unicode="p" horiz-adv-x="463" 
d="M309 224v117c0 11 -1 37 -3 52c-5 35 -20 72 -59 72c-36 0 -57 -32 -67 -68c-5 -18 -8 -43 -8 -71v-105c0 -39 14 -125 71 -125c38 0 55 33 62 69c3 17 4 34 4 59zM172 -244h-111v804h77l9 -73c24 55 67 83 119 83c100 0 139 -77 150 -160c3 -21 4 -44 4 -72v-120
c0 -37 -3 -66 -8 -91c-16 -75 -57 -137 -139 -137c-43 0 -77 16 -101 42h-1s1 -25 1 -50v-226z" />
    <glyph glyph-name="q" unicode="q" horiz-adv-x="463" 
d="M291 236v104c0 39 -14 125 -71 125c-38 0 -55 -33 -62 -69c-3 -17 -4 -34 -4 -59v-117c0 -11 1 -37 3 -52c5 -35 20 -72 59 -72c36 0 57 32 67 68c5 18 8 38 8 72zM402 -244h-111v236c0 25 1 50 1 50h-1c-24 -33 -58 -52 -101 -52c-82 0 -125 58 -140 137
c-5 26 -7 54 -7 91v120c0 28 1 51 4 72c13 83 54 160 150 160c52 0 98 -26 119 -73l9 63h77v-804z" />
    <glyph glyph-name="r" unicode="r" horiz-adv-x="348" 
d="M172 0h-111v560h77l10 -81c26 64 73 91 125 91c22 0 46 -4 64 -10l-2 -112c-21 9 -43 16 -68 16c-58 0 -83 -51 -91 -112c-3 -26 -4 -55 -4 -86v-266z" />
    <glyph glyph-name="s" unicode="s" horiz-adv-x="393" 
d="M356 411h-110c-4 42 -21 65 -52 65c-32 0 -48 -23 -48 -59c0 -41 18 -63 70 -82c75 -28 147 -76 147 -177c0 -105 -62 -168 -161 -168c-104 0 -169 59 -176 177h110c5 -54 26 -82 64 -82c33 0 54 28 54 72c0 48 -27 71 -82 90c-91 32 -133 82 -133 166
c0 96 60 157 155 157c94 0 152 -52 162 -159z" />
    <glyph glyph-name="t" unicode="t" horiz-adv-x="307" 
d="M287 103v-103c-13 -2 -29 -3 -41 -3c-95 0 -144 38 -161 130c-4 22 -6 53 -6 86v244h-67v103h67v140h110v-140h97v-103h-97v-241c0 -30 2 -49 5 -64c9 -40 27 -51 64 -51c9 0 20 1 29 2z" />
    <glyph glyph-name="u" unicode="u" horiz-adv-x="478" 
d="M417 0h-77l-10 75c-24 -55 -73 -85 -125 -85c-82 0 -125 57 -140 137c-5 26 -7 57 -7 91v342h111v-340c0 -11 1 -37 3 -52c5 -39 20 -72 59 -72c36 0 57 32 67 68c5 18 8 38 8 72v324h111v-560z" />
    <glyph glyph-name="v" unicode="v" horiz-adv-x="400" 
d="M259 0h-118l-139 560h116l81 -394h2l81 394h116z" />
    <glyph glyph-name="w" unicode="w" horiz-adv-x="583" 
d="M470 0h-115l-63 363h-1l-63 -363h-115l-106 560h111l58 -375h1l63 375h103l63 -375h1l58 375h111z" />
    <glyph glyph-name="x" unicode="x" horiz-adv-x="404" 
d="M401 0h-118l-81 188l-80 -188h-119l144 293l-132 267h119l68 -162l67 162h120l-132 -267z" />
    <glyph glyph-name="y" unicode="y" horiz-adv-x="408" 
d="M2 -203v102c17 -5 34 -9 55 -9c34 0 59 21 76 81l18 65c-48 170 -101 353 -148 524h116l87 -353h1l83 353h116l-158 -576c-40 -145 -87 -200 -171 -200c-28 0 -51 5 -75 13z" />
    <glyph glyph-name="z" unicode="z" horiz-adv-x="404" 
d="M378 0h-351v87l210 368h-201v105h331v-89l-209 -366h220v-105z" />
    <glyph glyph-name="braceleft" unicode="{" horiz-adv-x="353" 
d="M343 -190h-68c-131 0 -188 77 -174 210l14 130c5 43 13 139 -65 139h-30v90h30c78 0 70 96 65 139l-14 130c-14 133 43 210 174 210h68v-78h-55c-66 0 -87 -46 -77 -133l13 -114c10 -81 0 -161 -90 -199c90 -38 100 -118 90 -199l-13 -114c-10 -87 11 -133 77 -133h55
v-78z" />
    <glyph glyph-name="bar" unicode="|" horiz-adv-x="300" 
d="M202 -190h-104v1049h104v-1049z" />
    <glyph glyph-name="braceright" unicode="}" horiz-adv-x="353" 
d="M78 -190h-68v78h55c66 0 87 46 77 133l-13 114c-10 81 0 161 90 199c-90 38 -100 118 -90 199l13 114c10 87 -11 133 -77 133h-55v78h68c131 0 188 -77 174 -210l-14 -130c-5 -43 -13 -139 65 -139h30v-90h-30c-78 0 -70 -96 -65 -139l14 -130
c14 -133 -43 -210 -174 -210z" />
    <glyph glyph-name="asciitilde" unicode="~" horiz-adv-x="439" 
d="M334 480h75c-5 -99 -44 -168 -117 -168c-31 0 -56 12 -82 40c-33 35 -49 50 -67 50c-20 0 -34 -17 -38 -74h-75c5 99 44 168 117 168c31 0 56 -12 82 -40c33 -35 49 -50 67 -50c20 0 34 17 38 74z" />
    <glyph glyph-name="uni00A0" unicode="&#xa0;" horiz-adv-x="175" 
 />
    <glyph glyph-name="exclamdown" unicode="&#xa1;" horiz-adv-x="232" 
d="M177 -190h-122l12 514h98zM178 426h-124v134h124v-134z" />
    <glyph glyph-name="cent" unicode="&#xa2;" horiz-adv-x="428" 
d="M252 -70h-60v102c-82 12 -128 76 -142 162c-3 20 -5 41 -5 73v106c0 32 2 53 5 73c14 86 60 150 142 162v93h60v-94c63 -9 104 -49 126 -107c10 -28 16 -57 18 -88h-106c-1 10 -2 19 -4 28c-5 28 -16 49 -34 59v-359c18 10 29 31 34 60l3 18h106c-3 -34 -11 -65 -18 -82
c-23 -56 -64 -95 -125 -104v-102zM192 139v361c-20 -10 -31 -31 -36 -60c-3 -17 -4 -36 -4 -67v-106c0 -31 1 -50 4 -67c5 -30 16 -51 36 -61z" />
    <glyph glyph-name="sterling" unicode="&#xa3;" horiz-adv-x="468" 
d="M273 0h-235v99c37 3 51 31 51 111v131h-61v68h61v138c0 140 72 213 169 213c93 0 167 -63 169 -207h-107c-4 82 -28 108 -61 108c-38 0 -62 -33 -62 -112v-140h138v-68h-138v-122c0 -71 -17 -100 -44 -118v-2h118c48 1 69 11 72 90h103c0 -155 -60 -189 -173 -189z" />
    <glyph glyph-name="yen" unicode="&#xa5;" horiz-adv-x="480" 
d="M295 0h-110v182h-147v71h147v94h-147v71h129l-147 332h118l102 -255l102 255h118l-147 -332h129v-71h-147v-94h147v-71h-147v-182z" />
    <glyph glyph-name="brokenbar" unicode="&#xa6;" horiz-adv-x="300" 
d="M202 -190h-104v449h104v-449zM202 410h-104v449h104v-449z" />
    <glyph glyph-name="section" unicode="&#xa7;" horiz-adv-x="425" 
d="M201 245l43 -19c25 7 49 43 49 82c0 43 -27 73 -67 90l-36 16c-27 -7 -57 -42 -57 -80c0 -45 27 -71 68 -89zM197 147l-21 9c-116 50 -138 119 -138 165c0 57 29 102 86 136c-53 37 -71 83 -71 136c0 103 69 157 154 157c87 0 156 -45 162 -158h-101c-5 45 -30 68 -60 68
c-32 0 -57 -25 -57 -64c0 -45 27 -74 76 -96l22 -10c82 -37 138 -82 138 -170c0 -56 -29 -103 -74 -138c43 -34 62 -79 62 -129c0 -115 -69 -172 -160 -172c-98 0 -169 53 -176 173h101c6 -63 35 -84 70 -84c34 0 64 26 64 76c0 52 -28 82 -77 101z" />
    <glyph glyph-name="dieresis" unicode="&#xa8;" 
d="M190 674h-110v116h110v-116zM358 674h-110v116h110v-116z" />
    <glyph glyph-name="copyright" unicode="&#xa9;" horiz-adv-x="858" 
d="M508 254c6 14 9 33 9 55h78c-1 -34 -5 -59 -12 -77c-23 -63 -85 -97 -148 -97h-7c-63 0 -123 35 -148 96c-8 20 -12 44 -12 76v138c0 32 4 55 12 75c25 62 85 97 148 97h7c63 0 125 -35 148 -97c7 -18 11 -41 12 -73h-78c-1 21 -4 39 -9 51c-13 30 -44 44 -73 44h-7
c-29 0 -59 -14 -73 -44c-7 -15 -9 -32 -9 -53v-138c0 -21 2 -38 9 -53c14 -30 44 -44 73 -44h7c29 0 60 14 73 44zM60 375c0 213 146 385 369 385s369 -172 369 -385s-146 -385 -369 -385s-369 172 -369 385zM111 375c0 -185 123 -336 318 -336s318 151 318 336
s-123 336 -318 336s-318 -151 -318 -336z" />
    <glyph glyph-name="ordfeminine" unicode="&#xaa;" horiz-adv-x="273" 
d="M237 418h-47l-5 39c-16 -30 -40 -45 -70 -45c-48 0 -87 38 -87 112c0 54 29 94 85 103c8 1 18 2 34 2h23v13c0 13 -1 21 -2 28c-4 21 -15 31 -31 31c-17 0 -30 -14 -33 -37h-65c9 59 46 96 100 96c61 0 87 -39 95 -89c2 -14 3 -38 3 -53v-200zM171 563v11h-26
c-13 0 -20 -2 -25 -4c-16 -7 -26 -23 -26 -45c0 -35 11 -54 33 -54s35 22 40 48c2 12 4 27 4 44z" />
    <glyph glyph-name="guillemotleft" unicode="&#xab;" horiz-adv-x="436" 
d="M215 36l-195 274l195 274v-145l-92 -129l92 -129v-145zM398 36l-195 274l195 274v-145l-92 -129l92 -129v-145z" />
    <glyph glyph-name="logicalnot" unicode="&#xac;" horiz-adv-x="496" 
d="M456 0h-416v750h416v-750zM88 92l133 282l-133 279v-561zM408 92v561l-133 -279zM248 428l130 272h-260zM376 50l-128 269l-128 -269h256z" />
    <glyph glyph-name="registered" unicode="&#xae;" horiz-adv-x="466" 
d="M36 583c0 111 81 202 197 202s197 -91 197 -202s-81 -202 -197 -202s-197 91 -197 202zM66 583c0 -95 67 -174 167 -174s167 79 167 174s-67 174 -167 174s-167 -79 -167 -174zM329 469h-44l-48 96h-38v-96h-39v233h79c46 0 82 -22 82 -66c0 -33 -17 -56 -46 -65z
M239 667h-41v-67h45c20 0 37 12 37 36c0 22 -17 31 -41 31z" />
    <glyph glyph-name="macron" unicode="&#xaf;" 
d="M351 675h-264v72h264v-72z" />
    <glyph glyph-name="degree" unicode="&#xb0;" horiz-adv-x="258" 
d="M129 529c-64 0 -101 51 -101 116c0 64 37 116 101 116s101 -52 101 -116c0 -65 -37 -116 -101 -116zM129 578c30 0 48 29 48 67c0 37 -18 67 -48 67s-48 -30 -48 -67c0 -38 18 -67 48 -67z" />
    <glyph glyph-name="plusminus" unicode="&#xb1;" horiz-adv-x="513" 
d="M307 160h-101v222h-171v96h171v222h101v-222h171v-96h-171v-222zM478 -3h-443v96h443v-96z" />
    <glyph glyph-name="twosuperior" unicode="&#xb2;" horiz-adv-x="496" 
d="M456 0h-416v750h416v-750zM88 92l133 282l-133 279v-561zM408 92v561l-133 -279zM248 428l130 272h-260zM376 50l-128 269l-128 -269h256z" />
    <glyph glyph-name="threesuperior" unicode="&#xb3;" horiz-adv-x="496" 
d="M456 0h-416v750h416v-750zM88 92l133 282l-133 279v-561zM408 92v561l-133 -279zM248 428l130 272h-260zM376 50l-128 269l-128 -269h256z" />
    <glyph glyph-name="acute" unicode="&#xb4;" 
d="M215 657h-82l88 181h121v-6z" />
    <glyph glyph-name="mu" unicode="&#xb5;" horiz-adv-x="481" 
d="M420 0h-77l-7 61c-29 -51 -66 -71 -109 -71c-20 0 -43 8 -59 23c1 -15 2 -42 2 -60v-197h-109v804h111v-340c0 -11 1 -37 3 -52c5 -39 20 -72 59 -72c36 0 57 32 67 68c5 18 8 38 8 72v324h111v-560z" />
    <glyph glyph-name="mu" unicode="&#x3bc;" horiz-adv-x="481" 
d="M420 0h-77l-7 61c-29 -51 -66 -71 -109 -71c-20 0 -43 8 -59 23c1 -15 2 -42 2 -60v-197h-109v804h111v-340c0 -11 1 -37 3 -52c5 -39 20 -72 59 -72c36 0 57 32 67 68c5 18 8 38 8 72v324h111v-560z" />
    <glyph glyph-name="paragraph" unicode="&#xb6;" horiz-adv-x="512" 
d="M442 -175h-87v857h-65v-857h-88v532c-89 2 -159 89 -159 195c0 110 72 198 182 198h217v-925z" />
    <glyph glyph-name="periodcentered" unicode="&#xb7;" horiz-adv-x="208" 
d="M169 325h-130v141h130v-141z" />
    <glyph glyph-name="cedilla" unicode="&#xb8;" 
d="M202 -93l-20 6c-18 5 -25 15 -18 35l27 79l55 -8l-18 -65c45 -13 88 -44 88 -99c0 -57 -43 -94 -91 -94c-56 0 -94 35 -96 93h58c3 -24 15 -37 35 -37c19 0 29 17 29 38c0 22 -14 41 -49 52z" />
    <glyph glyph-name="onesuperior" unicode="&#xb9;" horiz-adv-x="496" 
d="M456 0h-416v750h416v-750zM88 92l133 282l-133 279v-561zM408 92v561l-133 -279zM248 428l130 272h-260zM376 50l-128 269l-128 -269h256z" />
    <glyph glyph-name="ordmasculine" unicode="&#xba;" horiz-adv-x="272" 
d="M175 555v62c0 18 -1 30 -2 40c-4 25 -17 40 -37 40s-33 -15 -37 -40c-1 -10 -2 -22 -2 -40v-62c0 -18 1 -30 2 -40c4 -25 17 -40 37 -40s33 15 37 40c1 10 2 22 2 40zM242 618v-64c0 -19 -1 -32 -3 -44c-7 -57 -43 -98 -103 -98s-96 41 -103 98c-2 12 -3 25 -3 44v64
c0 19 1 32 3 44c7 57 43 98 103 98s96 -41 103 -98c2 -12 3 -25 3 -44z" />
    <glyph glyph-name="guillemotright" unicode="&#xbb;" horiz-adv-x="436" 
d="M221 36v145l92 129l-92 129v145l195 -274zM38 36v145l92 129l-92 129v145l195 -274z" />
    <glyph glyph-name="onequarter" unicode="&#xbc;" horiz-adv-x="496" 
d="M456 0h-416v750h416v-750zM88 92l133 282l-133 279v-561zM408 92v561l-133 -279zM248 428l130 272h-260zM376 50l-128 269l-128 -269h256z" />
    <glyph glyph-name="onehalf" unicode="&#xbd;" horiz-adv-x="496" 
d="M456 0h-416v750h416v-750zM88 92l133 282l-133 279v-561zM408 92v561l-133 -279zM248 428l130 272h-260zM376 50l-128 269l-128 -269h256z" />
    <glyph glyph-name="threequarters" unicode="&#xbe;" horiz-adv-x="496" 
d="M456 0h-416v750h416v-750zM88 92l133 282l-133 279v-561zM408 92v561l-133 -279zM248 428l130 272h-260zM376 50l-128 269l-128 -269h256z" />
    <glyph glyph-name="questiondown" unicode="&#xbf;" horiz-adv-x="399" 
d="M375 25v-19c0 -128 -74 -206 -174 -206c-104 0 -175 63 -175 174c0 79 36 127 71 167c36 42 71 83 62 183h106c1 -14 2 -27 2 -40c0 -98 -42 -148 -79 -191c-27 -31 -50 -64 -50 -115c0 -48 26 -75 62 -75c42 0 66 42 66 103v19h109zM272 426h-124v134h124v-134z" />
    <glyph glyph-name="Agrave" unicode="&#xc0;" horiz-adv-x="466" 
d="M284 329l-50 260h-2l-50 -260h102zM464 0h-117l-42 219h-144l-42 -219h-117l158 750h146zM298 807h-82l-127 175v6h121z" />
    <glyph glyph-name="Aacute" unicode="&#xc1;" horiz-adv-x="466" 
d="M284 329l-50 260h-2l-50 -260h102zM464 0h-117l-42 219h-144l-42 -219h-117l158 750h146zM248 807h-82l88 181h121v-6z" />
    <glyph glyph-name="Acircumflex" unicode="&#xc2;" horiz-adv-x="466" 
d="M284 329l-50 260h-2l-50 -260h102zM464 0h-117l-42 219h-144l-42 -219h-117l158 750h146zM395 808h-92l-70 108l-70 -108h-92l118 194h88z" />
    <glyph glyph-name="Atilde" unicode="&#xc3;" horiz-adv-x="466" 
d="M284 329l-50 260h-2l-50 -260h102zM464 0h-117l-42 219h-144l-42 -219h-117l158 750h146zM333 948h65c-4 -84 -38 -143 -102 -143c-27 0 -49 10 -71 34c-29 30 -43 43 -59 43c-17 0 -29 -15 -33 -63h-65c4 84 38 143 102 143c27 0 49 -10 71 -34c29 -30 43 -43 59 -43
c17 0 29 15 33 63z" />
    <glyph glyph-name="Adieresis" unicode="&#xc4;" horiz-adv-x="466" 
d="M284 329l-50 260h-2l-50 -260h102zM464 0h-117l-42 219h-144l-42 -219h-117l158 750h146zM204 824h-110v116h110v-116zM372 824h-110v116h110v-116z" />
    <glyph glyph-name="Aring" unicode="&#xc5;" horiz-adv-x="466" 
d="M284 329l-50 260h-2l-50 -260h102zM464 0h-117l-42 219h-144l-42 -219h-117l158 750h146zM233 794c-60 0 -105 49 -105 116s45 116 105 116s105 -49 105 -116s-45 -116 -105 -116zM233 846c26 0 46 26 46 64s-20 64 -46 64s-46 -26 -46 -64s20 -64 46 -64z" />
    <glyph glyph-name="AE" unicode="&#xc6;" horiz-adv-x="696" 
d="M668 0h-334v227h-159l-73 -227h-120l246 750h440v-111h-219v-199h177v-111h-177v-218h219v-111zM334 338v302h-26l-97 -302h123z" />
    <glyph glyph-name="Ccedilla" unicode="&#xc7;" horiz-adv-x="481" 
d="M222 -93l-20 6c-18 5 -25 15 -18 35l16 48c-81 18 -126 84 -140 166c-5 27 -7 58 -7 86v254c0 28 2 59 7 86c17 97 77 172 189 172h4c112 0 172 -75 189 -172c5 -26 7 -56 7 -83h-115c0 17 -2 40 -5 62c-7 42 -29 82 -76 82h-4c-47 0 -69 -40 -76 -82
c-4 -23 -5 -48 -5 -66v-252c0 -18 1 -43 5 -66c7 -42 29 -82 76 -82h4c47 0 69 40 76 82c3 22 5 47 5 67h115c0 -30 -2 -62 -7 -88c-17 -96 -75 -170 -184 -172l-10 -36c45 -13 88 -44 88 -99c0 -57 -43 -94 -91 -94c-56 0 -94 35 -96 93h58c3 -24 15 -37 35 -37
c19 0 29 17 29 38c0 22 -14 41 -49 52z" />
    <glyph glyph-name="Egrave" unicode="&#xc8;" horiz-adv-x="452" 
d="M424 0h-360v750h360v-111h-245v-199h203v-111h-203v-218h245v-111zM311 807h-82l-127 175v6h121z" />
    <glyph glyph-name="Eacute" unicode="&#xc9;" horiz-adv-x="452" 
d="M424 0h-360v750h360v-111h-245v-199h203v-111h-203v-218h245v-111zM238 807h-82l88 181h121v-6z" />
    <glyph glyph-name="Ecircumflex" unicode="&#xca;" horiz-adv-x="452" 
d="M424 0h-360v750h360v-111h-245v-199h203v-111h-203v-218h245v-111zM400 808h-92l-70 108l-70 -108h-92l118 194h88z" />
    <glyph glyph-name="Edieresis" unicode="&#xcb;" horiz-adv-x="452" 
d="M424 0h-360v750h360v-111h-245v-199h203v-111h-203v-218h245v-111zM209 824h-110v116h110v-116zM377 824h-110v116h110v-116z" />
    <glyph glyph-name="Igrave" unicode="&#xcc;" horiz-adv-x="243" 
d="M179 0h-115v750h115v-750zM179 807h-82l-127 175v6h121z" />
    <glyph glyph-name="Iacute" unicode="&#xcd;" horiz-adv-x="243" 
d="M179 0h-115v750h115v-750zM146 807h-82l88 181h121v-6z" />
    <glyph glyph-name="Icircumflex" unicode="&#xce;" horiz-adv-x="243" 
d="M179 0h-115v750h115v-750zM283 808h-92l-70 108l-70 -108h-92l118 194h88z" />
    <glyph glyph-name="Idieresis" unicode="&#xcf;" horiz-adv-x="243" 
d="M179 0h-115v750h115v-750zM92 824h-110v116h110v-116zM260 824h-110v116h110v-116z" />
    <glyph glyph-name="Eth" unicode="&#xd0;" horiz-adv-x="535" 
d="M256 0h-164v353h-78v83h78v314h164c28 0 49 -2 66 -5c94 -18 139 -85 153 -167c5 -27 7 -58 7 -86v-234c0 -28 -2 -59 -7 -86c-14 -82 -59 -149 -153 -167c-17 -3 -38 -5 -66 -5zM367 260v230c0 18 -1 43 -5 66c-5 32 -19 63 -55 76c-11 4 -25 6 -49 6h-51v-202h91v-83
h-91v-241h51c24 0 38 2 49 6c36 13 50 44 55 76c4 23 5 48 5 66z" />
    <glyph glyph-name="Ntilde" unicode="&#xd1;" horiz-adv-x="532" 
d="M468 0h-127l-168 497h-1s1 -33 1 -58v-439h-109v750h127l168 -496h1s-1 33 -1 58v438h109v-750zM366 948h65c-4 -84 -38 -143 -102 -143c-27 0 -49 10 -71 34c-29 30 -43 43 -59 43c-17 0 -29 -15 -33 -63h-65c4 84 38 143 102 143c27 0 49 -10 71 -34
c29 -30 43 -43 59 -43c17 0 29 15 33 63z" />
    <glyph glyph-name="Ograve" unicode="&#xd2;" horiz-adv-x="502" 
d="M249 101h4c47 0 69 40 76 82c4 23 5 48 5 66v252c0 18 -1 43 -5 66c-7 42 -29 82 -76 82h-4c-47 0 -69 -40 -76 -82c-4 -23 -5 -48 -5 -66v-252c0 -18 1 -43 5 -66c7 -42 29 -82 76 -82zM253 -10h-4c-112 0 -172 75 -189 172c-5 27 -7 58 -7 86v254c0 28 2 59 7 86
c17 97 77 172 189 172h4c112 0 172 -75 189 -172c5 -27 7 -58 7 -86v-254c0 -28 -2 -59 -7 -86c-17 -97 -77 -172 -189 -172zM336 807h-82l-127 175v6h121z" />
    <glyph glyph-name="Oacute" unicode="&#xd3;" horiz-adv-x="502" 
d="M249 101h4c47 0 69 40 76 82c4 23 5 48 5 66v252c0 18 -1 43 -5 66c-7 42 -29 82 -76 82h-4c-47 0 -69 -40 -76 -82c-4 -23 -5 -48 -5 -66v-252c0 -18 1 -43 5 -66c7 -42 29 -82 76 -82zM253 -10h-4c-112 0 -172 75 -189 172c-5 27 -7 58 -7 86v254c0 28 2 59 7 86
c17 97 77 172 189 172h4c112 0 172 -75 189 -172c5 -27 7 -58 7 -86v-254c0 -28 -2 -59 -7 -86c-17 -97 -77 -172 -189 -172zM239 807h-82l88 181h121v-6z" />
    <glyph glyph-name="Ocircumflex" unicode="&#xd4;" horiz-adv-x="502" 
d="M249 101h4c47 0 69 40 76 82c4 23 5 48 5 66v252c0 18 -1 43 -5 66c-7 42 -29 82 -76 82h-4c-47 0 -69 -40 -76 -82c-4 -23 -5 -48 -5 -66v-252c0 -18 1 -43 5 -66c7 -42 29 -82 76 -82zM253 -10h-4c-112 0 -172 75 -189 172c-5 27 -7 58 -7 86v254c0 28 2 59 7 86
c17 97 77 172 189 172h4c112 0 172 -75 189 -172c5 -27 7 -58 7 -86v-254c0 -28 -2 -59 -7 -86c-17 -97 -77 -172 -189 -172zM413 798h-92l-70 108l-70 -108h-92l118 194h88z" />
    <glyph glyph-name="Otilde" unicode="&#xd5;" horiz-adv-x="502" 
d="M249 101h4c47 0 69 40 76 82c4 23 5 48 5 66v252c0 18 -1 43 -5 66c-7 42 -29 82 -76 82h-4c-47 0 -69 -40 -76 -82c-4 -23 -5 -48 -5 -66v-252c0 -18 1 -43 5 -66c7 -42 29 -82 76 -82zM253 -10h-4c-112 0 -172 75 -189 172c-5 27 -7 58 -7 86v254c0 28 2 59 7 86
c17 97 77 172 189 172h4c112 0 172 -75 189 -172c5 -27 7 -58 7 -86v-254c0 -28 -2 -59 -7 -86c-17 -97 -77 -172 -189 -172zM351 948h65c-4 -84 -38 -143 -102 -143c-27 0 -49 10 -71 34c-29 30 -43 43 -59 43c-17 0 -29 -15 -33 -63h-65c4 84 38 143 102 143
c27 0 49 -10 71 -34c29 -30 43 -43 59 -43c17 0 29 15 33 63z" />
    <glyph glyph-name="Odieresis" unicode="&#xd6;" horiz-adv-x="502" 
d="M249 101h4c47 0 69 40 76 82c4 23 5 48 5 66v252c0 18 -1 43 -5 66c-7 42 -29 82 -76 82h-4c-47 0 -69 -40 -76 -82c-4 -23 -5 -48 -5 -66v-252c0 -18 1 -43 5 -66c7 -42 29 -82 76 -82zM253 -10h-4c-112 0 -172 75 -189 172c-5 27 -7 58 -7 86v254c0 28 2 59 7 86
c17 97 77 172 189 172h4c112 0 172 -75 189 -172c5 -27 7 -58 7 -86v-254c0 -28 -2 -59 -7 -86c-17 -97 -77 -172 -189 -172zM222 824h-110v116h110v-116zM390 824h-110v116h110v-116z" />
    <glyph glyph-name="multiply" unicode="&#xd7;" horiz-adv-x="446" 
d="M422 115l-73 -61l-126 170l-126 -170l-73 61l141 184l-141 185l72 62l127 -171l127 171l72 -62l-142 -185z" />
    <glyph glyph-name="Oslash" unicode="&#xd8;" horiz-adv-x="502" 
d="M253 -10h-4c-37 0 -68 8 -94 22l-18 -47h-76l37 99c-19 27 -32 61 -38 98c-5 27 -7 58 -7 86v254c0 28 2 59 7 86c17 97 77 172 189 172h4c37 0 68 -8 94 -23l18 48h76l-37 -100c19 -27 31 -61 38 -97c5 -27 7 -58 7 -86v-254c0 -28 -2 -59 -7 -86
c-17 -97 -77 -172 -189 -172zM168 234l137 390c-12 15 -29 25 -52 25h-4c-47 0 -69 -40 -76 -82c-4 -23 -5 -48 -5 -66v-267zM249 101h4c47 0 69 40 76 82c4 23 5 48 5 66v265l-137 -389c12 -14 29 -24 52 -24z" />
    <glyph glyph-name="Ugrave" unicode="&#xd9;" horiz-adv-x="516" 
d="M260 -10h-4c-112 0 -172 75 -189 172c-5 27 -7 58 -7 86v502h115v-501c0 -18 1 -43 5 -66c7 -42 29 -82 76 -82h4c47 0 69 40 76 82c4 23 5 48 5 66v501h115v-502c0 -28 -2 -59 -7 -86c-17 -97 -77 -172 -189 -172zM333 807h-82l-127 175v6h121z" />
    <glyph glyph-name="Uacute" unicode="&#xda;" horiz-adv-x="516" 
d="M260 -10h-4c-112 0 -172 75 -189 172c-5 27 -7 58 -7 86v502h115v-501c0 -18 1 -43 5 -66c7 -42 29 -82 76 -82h4c47 0 69 40 76 82c4 23 5 48 5 66v501h115v-502c0 -28 -2 -59 -7 -86c-17 -97 -77 -172 -189 -172zM266 807h-82l88 181h121v-6z" />
    <glyph glyph-name="Ucircumflex" unicode="&#xdb;" horiz-adv-x="516" 
d="M260 -10h-4c-112 0 -172 75 -189 172c-5 27 -7 58 -7 86v502h115v-501c0 -18 1 -43 5 -66c7 -42 29 -82 76 -82h4c47 0 69 40 76 82c4 23 5 48 5 66v501h115v-502c0 -28 -2 -59 -7 -86c-17 -97 -77 -172 -189 -172zM420 808h-92l-70 108l-70 -108h-92l118 194h88z" />
    <glyph glyph-name="Udieresis" unicode="&#xdc;" horiz-adv-x="516" 
d="M260 -10h-4c-112 0 -172 75 -189 172c-5 27 -7 58 -7 86v502h115v-501c0 -18 1 -43 5 -66c7 -42 29 -82 76 -82h4c47 0 69 40 76 82c4 23 5 48 5 66v501h115v-502c0 -28 -2 -59 -7 -86c-17 -97 -77 -172 -189 -172zM229 824h-110v116h110v-116zM397 824h-110v116h110
v-116z" />
    <glyph glyph-name="Yacute" unicode="&#xdd;" horiz-adv-x="455" 
d="M285 0h-115v327l-175 423h123l109 -288h1l109 288h123l-175 -423v-327zM244 807h-82l88 181h121v-6z" />
    <glyph glyph-name="Thorn" unicode="&#xde;" horiz-adv-x="493" 
d="M179 259h52c23 0 36 2 47 6c46 16 64 62 64 112c0 46 -15 99 -63 116c-11 4 -23 6 -48 6h-52v-240zM179 0h-115v750h115v-140h53c32 0 55 -3 75 -8c97 -26 150 -113 150 -225c0 -106 -51 -200 -159 -224c-17 -4 -37 -6 -65 -6h-54v-147z" />
    <glyph glyph-name="germandbls" unicode="&#xdf;" horiz-adv-x="489" 
d="M201 1v96c18 -5 35 -8 55 -8c54 0 85 42 85 122c0 89 -47 135 -122 135h-10v91h16c57 0 95 44 95 120c0 68 -30 99 -72 99c-35 0 -60 -21 -71 -58c-4 -13 -6 -30 -6 -55v-543h-110v538c0 31 2 52 6 71c20 95 89 151 182 151c102 0 182 -67 182 -195
c0 -74 -29 -129 -86 -166c53 -22 106 -92 106 -190c0 -148 -78 -218 -176 -218c-27 0 -51 3 -74 10z" />
    <glyph glyph-name="agrave" unicode="&#xe0;" horiz-adv-x="443" 
d="M385 0h-77l-9 65c-27 -50 -67 -75 -117 -75c-79 0 -144 64 -144 186c0 91 48 157 141 172c14 2 30 4 56 4h39v21c0 22 -2 37 -4 48c-7 34 -24 50 -51 50c-28 0 -48 -23 -54 -61h-109c14 98 76 160 167 160s146 -56 158 -160c2 -20 4 -48 4 -76v-334zM275 241v19h-43
c-21 0 -33 -2 -42 -6c-27 -12 -42 -39 -42 -76c0 -58 18 -90 55 -90c36 0 57 37 66 81c4 20 6 44 6 72zM303 627h-82l-127 175v6h121z" />
    <glyph glyph-name="aacute" unicode="&#xe1;" horiz-adv-x="443" 
d="M385 0h-77l-9 65c-27 -50 -67 -75 -117 -75c-79 0 -144 64 -144 186c0 91 48 157 141 172c14 2 30 4 56 4h39v21c0 22 -2 37 -4 48c-7 34 -24 50 -51 50c-28 0 -48 -23 -54 -61h-109c14 98 76 160 167 160s146 -56 158 -160c2 -20 4 -48 4 -76v-334zM275 241v19h-43
c-21 0 -33 -2 -42 -6c-27 -12 -42 -39 -42 -76c0 -58 18 -90 55 -90c36 0 57 37 66 81c4 20 6 44 6 72zM214 627h-82l88 181h121v-6z" />
    <glyph glyph-name="acircumflex" unicode="&#xe2;" horiz-adv-x="443" 
d="M385 0h-77l-9 65c-27 -50 -67 -75 -117 -75c-79 0 -144 64 -144 186c0 91 48 157 141 172c14 2 30 4 56 4h39v21c0 22 -2 37 -4 48c-7 34 -24 50 -51 50c-28 0 -48 -23 -54 -61h-109c14 98 76 160 167 160s146 -56 158 -160c2 -20 4 -48 4 -76v-334zM275 241v19h-43
c-21 0 -33 -2 -42 -6c-27 -12 -42 -39 -42 -76c0 -58 18 -90 55 -90c36 0 57 37 66 81c4 20 6 44 6 72zM383 618h-92l-70 108l-70 -108h-92l118 194h88z" />
    <glyph glyph-name="atilde" unicode="&#xe3;" horiz-adv-x="443" 
d="M385 0h-77l-9 65c-27 -50 -67 -75 -117 -75c-79 0 -144 64 -144 186c0 91 48 157 141 172c14 2 30 4 56 4h39v21c0 22 -2 37 -4 48c-7 34 -24 50 -51 50c-28 0 -48 -23 -54 -61h-109c14 98 76 160 167 160s146 -56 158 -160c2 -20 4 -48 4 -76v-334zM275 241v19h-43
c-21 0 -33 -2 -42 -6c-27 -12 -42 -39 -42 -76c0 -58 18 -90 55 -90c36 0 57 37 66 81c4 20 6 44 6 72zM323 768h65c-4 -84 -38 -143 -102 -143c-27 0 -49 10 -71 34c-29 30 -43 43 -59 43c-17 0 -29 -15 -33 -63h-65c4 84 38 143 102 143c27 0 49 -10 71 -34
c29 -30 43 -43 59 -43c17 0 29 15 33 63z" />
    <glyph glyph-name="adieresis" unicode="&#xe4;" horiz-adv-x="443" 
d="M385 0h-77l-9 65c-27 -50 -67 -75 -117 -75c-79 0 -144 64 -144 186c0 91 48 157 141 172c14 2 30 4 56 4h39v21c0 22 -2 37 -4 48c-7 34 -24 50 -51 50c-28 0 -48 -23 -54 -61h-109c14 98 76 160 167 160s146 -56 158 -160c2 -20 4 -48 4 -76v-334zM275 241v19h-43
c-21 0 -33 -2 -42 -6c-27 -12 -42 -39 -42 -76c0 -58 18 -90 55 -90c36 0 57 37 66 81c4 20 6 44 6 72zM192 644h-110v116h110v-116zM360 644h-110v116h110v-116z" />
    <glyph glyph-name="aring" unicode="&#xe5;" horiz-adv-x="443" 
d="M385 0h-77l-9 65c-27 -50 -67 -75 -117 -75c-79 0 -144 64 -144 186c0 91 48 157 141 172c14 2 30 4 56 4h39v21c0 22 -2 37 -4 48c-7 34 -24 50 -51 50c-28 0 -48 -23 -54 -61h-109c14 98 76 160 167 160s146 -56 158 -160c2 -20 4 -48 4 -76v-334zM275 241v19h-43
c-21 0 -33 -2 -42 -6c-27 -12 -42 -39 -42 -76c0 -58 18 -90 55 -90c36 0 57 37 66 81c4 20 6 44 6 72zM222 614c-60 0 -105 49 -105 116s45 116 105 116s105 -49 105 -116s-45 -116 -105 -116zM222 666c26 0 46 26 46 64s-20 64 -46 64s-46 -26 -46 -64s20 -64 46 -64z" />
    <glyph glyph-name="ae" unicode="&#xe6;" horiz-adv-x="669" 
d="M627 257h-241v-31c0 -31 1 -50 4 -67c7 -42 27 -67 61 -67c40 0 59 38 62 75h110c-14 -109 -72 -177 -172 -177c-67 0 -109 30 -134 78c-29 -53 -85 -78 -135 -78c-79 0 -144 64 -144 186c0 91 48 154 141 169c14 2 30 4 56 4h39v24c0 22 -2 37 -4 48
c-7 34 -24 50 -51 50c-28 0 -48 -23 -54 -61h-109c14 98 76 160 167 160c53 0 89 -20 111 -57c24 35 61 57 117 57c100 0 155 -68 170 -164c5 -29 6 -48 6 -100v-49zM275 241v16h-43c-21 0 -33 -2 -42 -6c-27 -12 -42 -36 -42 -73c0 -58 18 -90 55 -90c36 0 57 37 66 81
c4 20 6 44 6 72zM386 349h130c0 16 -1 34 -4 51c-7 42 -27 68 -61 68s-54 -26 -61 -68c-2 -15 -4 -28 -4 -51z" />
    <glyph glyph-name="ccedilla" unicode="&#xe7;" horiz-adv-x="425" 
d="M192 -93l-20 6c-18 5 -25 15 -18 35l16 48c-69 18 -109 79 -122 158c-3 20 -5 41 -5 73v106c0 32 2 53 5 73c16 96 71 164 171 164c81 0 132 -45 157 -112c10 -28 16 -57 18 -88h-110c-1 10 -2 19 -4 28c-7 42 -27 67 -61 67s-54 -25 -61 -67c-3 -17 -4 -36 -4 -67v-102
c0 -31 1 -50 4 -67c7 -42 27 -67 61 -67s54 25 61 67l3 18h110c-3 -34 -11 -65 -18 -82c-25 -63 -73 -105 -147 -108l-10 -36c45 -13 88 -44 88 -99c0 -57 -43 -94 -91 -94c-56 0 -94 35 -96 93h58c3 -24 15 -37 35 -37c19 0 29 17 29 38c0 22 -14 41 -49 52z" />
    <glyph glyph-name="egrave" unicode="&#xe8;" horiz-adv-x="437" 
d="M395 253h-241v-27c0 -31 1 -50 4 -67c7 -42 27 -67 61 -67c40 0 59 38 62 75h110c-14 -109 -72 -177 -172 -177s-155 68 -171 164c-3 20 -5 41 -5 73v106c0 32 2 53 5 73c16 96 71 164 171 164s155 -68 170 -164c5 -29 6 -51 6 -103v-50zM154 347h130c0 16 -1 36 -4 53
c-7 42 -27 68 -61 68s-54 -26 -61 -68c-2 -15 -4 -30 -4 -53zM303 627h-82l-127 175v6h121z" />
    <glyph glyph-name="eacute" unicode="&#xe9;" horiz-adv-x="437" 
d="M395 253h-241v-27c0 -31 1 -50 4 -67c7 -42 27 -67 61 -67c40 0 59 38 62 75h110c-14 -109 -72 -177 -172 -177s-155 68 -171 164c-3 20 -5 41 -5 73v106c0 32 2 53 5 73c16 96 71 164 171 164s155 -68 170 -164c5 -29 6 -51 6 -103v-50zM154 347h130c0 16 -1 36 -4 53
c-7 42 -27 68 -61 68s-54 -26 -61 -68c-2 -15 -4 -30 -4 -53zM216 627h-82l88 181h121v-6z" />
    <glyph glyph-name="ecircumflex" unicode="&#xea;" horiz-adv-x="437" 
d="M395 253h-241v-27c0 -31 1 -50 4 -67c7 -42 27 -67 61 -67c40 0 59 38 62 75h110c-14 -109 -72 -177 -172 -177s-155 68 -171 164c-3 20 -5 41 -5 73v106c0 32 2 53 5 73c16 96 71 164 171 164s155 -68 170 -164c5 -29 6 -51 6 -103v-50zM154 347h130c0 16 -1 36 -4 53
c-7 42 -27 68 -61 68s-54 -26 -61 -68c-2 -15 -4 -30 -4 -53zM380 618h-92l-70 108l-70 -108h-92l118 194h88z" />
    <glyph glyph-name="edieresis" unicode="&#xeb;" horiz-adv-x="437" 
d="M395 253h-241v-27c0 -31 1 -50 4 -67c7 -42 27 -67 61 -67c40 0 59 38 62 75h110c-14 -109 -72 -177 -172 -177s-155 68 -171 164c-3 20 -5 41 -5 73v106c0 32 2 53 5 73c16 96 71 164 171 164s155 -68 170 -164c5 -29 6 -51 6 -103v-50zM154 347h130c0 16 -1 36 -4 53
c-7 42 -27 68 -61 68s-54 -26 -61 -68c-2 -15 -4 -30 -4 -53zM189 644h-110v116h110v-116zM357 644h-110v116h110v-116z" />
    <glyph glyph-name="igrave" unicode="&#xec;" horiz-adv-x="233" 
d="M172 627h-82l-127 175v6h121zM172 0h-111v560h111v-560z" />
    <glyph glyph-name="iacute" unicode="&#xed;" horiz-adv-x="233" 
d="M143 627h-82l88 181h121v-6zM172 0h-111v560h111v-560z" />
    <glyph glyph-name="icircumflex" unicode="&#xee;" horiz-adv-x="233" 
d="M268 628h-92l-60 108l-60 -108h-92l108 194h88zM172 0h-111v560h111v-560z" />
    <glyph glyph-name="idieresis" unicode="&#xef;" horiz-adv-x="233" 
d="M87 644h-110v116h110v-116zM255 644h-110v116h110v-116zM172 0h-111v560h111v-560z" />
    <glyph glyph-name="eth" unicode="&#xf0;" 
d="M395 295v-68c0 -32 -2 -53 -5 -73c-16 -96 -71 -164 -171 -164s-155 68 -171 164c-3 20 -5 41 -5 73v54c0 42 4 78 11 108c21 86 82 129 140 129c21 0 45 -6 63 -16c-7 27 -22 68 -37 99l-90 -46l-31 67l89 44l-1 3c-13 25 -28 50 -45 74l86 52c22 -32 39 -61 51 -82
l80 41l32 -67l-78 -39c24 -51 43 -106 55 -153c17 -64 27 -132 27 -200zM284 229v50c0 31 -1 50 -4 67c-7 42 -27 67 -61 67s-54 -25 -61 -67c-3 -17 -4 -36 -4 -67v-50c0 -31 1 -50 4 -67c7 -42 27 -67 61 -67s54 25 61 67c3 17 4 36 4 67z" />
    <glyph glyph-name="ntilde" unicode="&#xf1;" horiz-adv-x="478" 
d="M420 0h-111v340c0 11 -1 37 -3 52c-5 39 -20 72 -59 72c-36 0 -57 -32 -67 -68c-5 -18 -8 -38 -8 -72v-324h-111v560h77l10 -75c24 55 73 85 125 85c82 0 125 -57 140 -137c5 -26 7 -57 7 -91v-342zM339 769h65c-4 -84 -38 -143 -102 -143c-27 0 -49 10 -71 34
c-29 30 -43 43 -59 43c-17 0 -29 -15 -33 -63h-65c4 84 38 143 102 143c27 0 49 -10 71 -34c29 -30 43 -43 59 -43c17 0 29 15 33 63z" />
    <glyph glyph-name="ograve" unicode="&#xf2;" 
d="M284 229v102c0 31 -1 50 -4 67c-7 42 -27 67 -61 67s-54 -25 -61 -67c-3 -17 -4 -36 -4 -67v-102c0 -31 1 -50 4 -67c7 -42 27 -67 61 -67s54 25 61 67c3 17 4 36 4 67zM395 333v-106c0 -32 -2 -53 -5 -73c-16 -96 -71 -164 -171 -164s-155 68 -171 164
c-3 20 -5 41 -5 73v106c0 32 2 53 5 73c16 96 71 164 171 164s155 -68 171 -164c3 -20 5 -41 5 -73zM304 627h-82l-127 175v6h121z" />
    <glyph glyph-name="oacute" unicode="&#xf3;" 
d="M284 229v102c0 31 -1 50 -4 67c-7 42 -27 67 -61 67s-54 -25 -61 -67c-3 -17 -4 -36 -4 -67v-102c0 -31 1 -50 4 -67c7 -42 27 -67 61 -67s54 25 61 67c3 17 4 36 4 67zM395 333v-106c0 -32 -2 -53 -5 -73c-16 -96 -71 -164 -171 -164s-155 68 -171 164
c-3 20 -5 41 -5 73v106c0 32 2 53 5 73c16 96 71 164 171 164s155 -68 171 -164c3 -20 5 -41 5 -73zM214 627h-82l88 181h121v-6z" />
    <glyph glyph-name="ocircumflex" unicode="&#xf4;" 
d="M284 229v102c0 31 -1 50 -4 67c-7 42 -27 67 -61 67s-54 -25 -61 -67c-3 -17 -4 -36 -4 -67v-102c0 -31 1 -50 4 -67c7 -42 27 -67 61 -67s54 25 61 67c3 17 4 36 4 67zM395 333v-106c0 -32 -2 -53 -5 -73c-16 -96 -71 -164 -171 -164s-155 68 -171 164
c-3 20 -5 41 -5 73v106c0 32 2 53 5 73c16 96 71 164 171 164s155 -68 171 -164c3 -20 5 -41 5 -73zM381 618h-92l-70 108l-70 -108h-92l118 194h88z" />
    <glyph glyph-name="otilde" unicode="&#xf5;" 
d="M284 229v102c0 31 -1 50 -4 67c-7 42 -27 67 -61 67s-54 -25 -61 -67c-3 -17 -4 -36 -4 -67v-102c0 -31 1 -50 4 -67c7 -42 27 -67 61 -67s54 25 61 67c3 17 4 36 4 67zM395 333v-106c0 -32 -2 -53 -5 -73c-16 -96 -71 -164 -171 -164s-155 68 -171 164
c-3 20 -5 41 -5 73v106c0 32 2 53 5 73c16 96 71 164 171 164s155 -68 171 -164c3 -20 5 -41 5 -73zM319 768h65c-4 -84 -38 -143 -102 -143c-27 0 -49 10 -71 34c-29 30 -43 43 -59 43c-17 0 -29 -15 -33 -63h-65c4 84 38 143 102 143c27 0 49 -10 71 -34
c29 -30 43 -43 59 -43c17 0 29 15 33 63z" />
    <glyph glyph-name="odieresis" unicode="&#xf6;" 
d="M284 229v102c0 31 -1 50 -4 67c-7 42 -27 67 -61 67s-54 -25 -61 -67c-3 -17 -4 -36 -4 -67v-102c0 -31 1 -50 4 -67c7 -42 27 -67 61 -67s54 25 61 67c3 17 4 36 4 67zM395 333v-106c0 -32 -2 -53 -5 -73c-16 -96 -71 -164 -171 -164s-155 68 -171 164
c-3 20 -5 41 -5 73v106c0 32 2 53 5 73c16 96 71 164 171 164s155 -68 171 -164c3 -20 5 -41 5 -73zM190 644h-110v116h110v-116zM358 644h-110v116h110v-116z" />
    <glyph glyph-name="divide" unicode="&#xf7;" horiz-adv-x="472" 
d="M457 252h-442v96h442v-96zM292 436h-117v126h117v-126zM292 37h-117v127h117v-127z" />
    <glyph glyph-name="oslash" unicode="&#xf8;" 
d="M141 -35h-70l27 75c-26 29 -43 68 -50 114c-3 20 -5 41 -5 73v106c0 32 2 53 5 73c16 96 71 164 171 164c24 0 46 -4 65 -12l13 37h70l-27 -76c26 -28 42 -68 50 -113c3 -20 5 -41 5 -73v-106c0 -32 -2 -53 -5 -73c-16 -96 -71 -164 -171 -164c-25 0 -46 4 -65 11z
M154 189l93 268c-8 5 -17 8 -28 8c-34 0 -54 -25 -61 -67c-3 -17 -4 -36 -4 -67v-142zM284 229v141l-94 -268c8 -5 18 -7 29 -7c34 0 54 25 61 67c3 17 4 36 4 67z" />
    <glyph glyph-name="ugrave" unicode="&#xf9;" horiz-adv-x="478" 
d="M417 0h-77l-10 75c-24 -55 -73 -85 -125 -85c-82 0 -125 57 -140 137c-5 26 -7 57 -7 91v342h111v-340c0 -11 1 -37 3 -52c5 -39 20 -72 59 -72c36 0 57 32 67 68c5 18 8 38 8 72v324h111v-560zM324 627h-82l-127 175v6h121z" />
    <glyph glyph-name="uacute" unicode="&#xfa;" horiz-adv-x="478" 
d="M237 627h-82l88 181h121v-6zM417 0h-77l-10 75c-24 -55 -73 -85 -125 -85c-82 0 -125 57 -140 137c-5 26 -7 57 -7 91v342h111v-340c0 -11 1 -37 3 -52c5 -39 20 -72 59 -72c36 0 57 32 67 68c5 18 8 38 8 72v324h111v-560z" />
    <glyph glyph-name="ucircumflex" unicode="&#xfb;" horiz-adv-x="478" 
d="M417 0h-77l-10 75c-24 -55 -73 -85 -125 -85c-82 0 -125 57 -140 137c-5 26 -7 57 -7 91v342h111v-340c0 -11 1 -37 3 -52c5 -39 20 -72 59 -72c36 0 57 32 67 68c5 18 8 38 8 72v324h111v-560zM401 628h-92l-70 108l-70 -108h-92l118 194h88z" />
    <glyph glyph-name="udieresis" unicode="&#xfc;" horiz-adv-x="478" 
d="M417 0h-77l-10 75c-24 -55 -73 -85 -125 -85c-82 0 -125 57 -140 137c-5 26 -7 57 -7 91v342h111v-340c0 -11 1 -37 3 -52c5 -39 20 -72 59 -72c36 0 57 32 67 68c5 18 8 38 8 72v324h111v-560zM210 644h-110v116h110v-116zM378 644h-110v116h110v-116z" />
    <glyph glyph-name="yacute" unicode="&#xfd;" horiz-adv-x="408" 
d="M2 -203v102c17 -5 34 -9 55 -9c34 0 59 21 76 81l18 65c-48 170 -101 353 -148 524h116l87 -353h1l83 353h116l-158 -576c-40 -145 -87 -200 -171 -200c-28 0 -51 5 -75 13zM212 627h-82l88 181h121v-6z" />
    <glyph glyph-name="thorn" unicode="&#xfe;" horiz-adv-x="466" 
d="M312 224v117c0 11 -1 37 -3 52c-5 35 -20 72 -59 72c-36 0 -57 -32 -67 -68c-5 -18 -8 -43 -8 -71v-105c0 -39 14 -125 71 -125c38 0 55 33 62 69c3 17 4 34 4 59zM175 -244h-111v1029h111v-217c0 -25 -1 -50 -1 -50h1c24 33 58 52 97 52c97 0 136 -77 147 -160
c3 -21 4 -44 4 -72v-120c0 -37 -3 -66 -8 -91c-16 -75 -57 -137 -139 -137c-43 0 -77 16 -101 42h-1s1 -25 1 -50v-226z" />
    <glyph glyph-name="ydieresis" unicode="&#xff;" horiz-adv-x="408" 
d="M2 -203v102c17 -5 34 -9 55 -9c34 0 59 21 76 81l18 65c-48 170 -101 353 -148 524h116l87 -353h1l83 353h116l-158 -576c-40 -145 -87 -200 -171 -200c-28 0 -51 5 -75 13zM175 644h-110v116h110v-116zM343 644h-110v116h110v-116z" />
    <glyph glyph-name="Amacron" unicode="&#x100;" horiz-adv-x="466" 
d="M284 329l-50 260h-2l-50 -260h102zM464 0h-117l-42 219h-144l-42 -219h-117l158 750h146zM365 825h-264v72h264v-72z" />
    <glyph glyph-name="amacron" unicode="&#x101;" horiz-adv-x="443" 
d="M385 0h-77l-9 65c-27 -50 -67 -75 -117 -75c-79 0 -144 64 -144 186c0 91 48 157 141 172c14 2 30 4 56 4h39v21c0 22 -2 37 -4 48c-7 34 -24 50 -51 50c-28 0 -48 -23 -54 -61h-109c14 98 76 160 167 160s146 -56 158 -160c2 -20 4 -48 4 -76v-334zM275 241v19h-43
c-21 0 -33 -2 -42 -6c-27 -12 -42 -39 -42 -76c0 -58 18 -90 55 -90c36 0 57 37 66 81c4 20 6 44 6 72zM353 645h-264v72h264v-72z" />
    <glyph glyph-name="Abreve" unicode="&#x102;" horiz-adv-x="466" 
d="M284 329l-50 260h-2l-50 -260h102zM464 0h-117l-42 219h-144l-42 -219h-117l158 750h146zM299 974h77c-5 -114 -62 -171 -143 -171s-138 57 -143 171h77c6 -68 31 -96 66 -96s60 28 66 96z" />
    <glyph glyph-name="abreve" unicode="&#x103;" horiz-adv-x="443" 
d="M385 0h-77l-9 65c-27 -50 -67 -75 -117 -75c-79 0 -144 64 -144 186c0 91 48 157 141 172c14 2 30 4 56 4h39v21c0 22 -2 37 -4 48c-7 34 -24 50 -51 50c-28 0 -48 -23 -54 -61h-109c14 98 76 160 167 160s146 -56 158 -160c2 -20 4 -48 4 -76v-334zM275 241v19h-43
c-21 0 -33 -2 -42 -6c-27 -12 -42 -39 -42 -76c0 -58 18 -90 55 -90c36 0 57 37 66 81c4 20 6 44 6 72zM287 794h77c-5 -114 -62 -171 -143 -171s-138 57 -143 171h77c6 -68 31 -96 66 -96s60 28 66 96z" />
    <glyph glyph-name="Aogonek" unicode="&#x104;" horiz-adv-x="466" 
d="M466 -147l23 -53c-22 -19 -58 -31 -87 -31c-56 0 -105 31 -105 98c0 42 20 79 55 111l-47 241h-144l-42 -219h-117l158 750h146l158 -750c-64 -49 -91 -89 -91 -124c0 -25 13 -42 39 -42c20 0 35 6 54 19zM284 329l-50 260h-2l-50 -260h102z" />
    <glyph glyph-name="aogonek" unicode="&#x105;" horiz-adv-x="443" 
d="M387 -147l23 -53c-22 -19 -58 -31 -87 -31c-56 0 -105 31 -105 98c0 54 34 100 89 139l-8 59c-27 -50 -67 -75 -117 -75c-79 0 -144 64 -144 186c0 91 48 157 141 172c14 2 30 4 56 4h39v21c0 22 -2 37 -4 48c-7 34 -24 50 -51 50c-28 0 -48 -23 -54 -61h-109
c14 98 76 160 167 160s146 -56 158 -160c2 -20 4 -48 4 -76v-334c-64 -49 -91 -89 -91 -124c0 -25 13 -42 39 -42c20 0 35 6 54 19zM275 241v19h-43c-21 0 -33 -2 -42 -6c-27 -12 -42 -39 -42 -76c0 -58 18 -90 55 -90c36 0 57 37 66 81c4 20 6 44 6 72z" />
    <glyph glyph-name="Cacute" unicode="&#x106;" horiz-adv-x="481" 
d="M253 -10h-4c-112 0 -172 75 -189 172c-5 27 -7 58 -7 86v254c0 28 2 59 7 86c17 97 77 172 189 172h4c112 0 172 -75 189 -172c5 -26 7 -56 7 -83h-115c0 17 -2 40 -5 62c-7 42 -29 82 -76 82h-4c-47 0 -69 -40 -76 -82c-4 -23 -5 -48 -5 -66v-252c0 -18 1 -43 5 -66
c7 -42 29 -82 76 -82h4c47 0 69 40 76 82c3 22 5 47 5 67h115c0 -30 -2 -62 -7 -88c-17 -97 -77 -172 -189 -172zM243 807h-82l88 181h121v-6z" />
    <glyph glyph-name="cacute" unicode="&#x107;" horiz-adv-x="425" 
d="M283 180h110c-3 -34 -11 -65 -18 -82c-26 -65 -77 -108 -156 -108c-100 0 -155 68 -171 164c-3 20 -5 41 -5 73v106c0 32 2 53 5 73c16 96 71 164 171 164c81 0 132 -45 157 -112c10 -28 16 -57 18 -88h-110c-1 10 -2 19 -4 28c-8 42 -27 67 -61 67s-54 -25 -61 -67
c-3 -17 -4 -36 -4 -67v-102c0 -31 1 -50 4 -67c7 -42 27 -67 61 -67s53 25 61 67c1 5 3 18 3 18zM210 627h-82l88 181h121v-6z" />
    <glyph glyph-name="Ccircumflex" unicode="&#x108;" horiz-adv-x="481" 
d="M253 -10h-4c-112 0 -172 75 -189 172c-5 27 -7 58 -7 86v254c0 28 2 59 7 86c17 97 77 172 189 172h4c112 0 172 -75 189 -172c5 -26 7 -56 7 -83h-115c0 17 -2 40 -5 62c-7 42 -29 82 -76 82h-4c-47 0 -69 -40 -76 -82c-4 -23 -5 -48 -5 -66v-252c0 -18 1 -43 5 -66
c7 -42 29 -82 76 -82h4c47 0 69 40 76 82c3 22 5 47 5 67h115c0 -30 -2 -62 -7 -88c-17 -97 -77 -172 -189 -172zM414 808h-92l-70 108l-70 -108h-92l118 194h88z" />
    <glyph glyph-name="ccircumflex" unicode="&#x109;" horiz-adv-x="425" 
d="M283 180h110c-3 -34 -11 -65 -18 -82c-26 -65 -77 -108 -156 -108c-100 0 -155 68 -171 164c-3 20 -5 41 -5 73v106c0 32 2 53 5 73c16 96 71 164 171 164c81 0 132 -45 157 -112c10 -28 16 -57 18 -88h-110c-1 10 -2 19 -4 28c-8 42 -27 67 -61 67s-54 -25 -61 -67
c-3 -17 -4 -36 -4 -67v-102c0 -31 1 -50 4 -67c7 -42 27 -67 61 -67s53 25 61 67c1 5 3 18 3 18zM380 628h-92l-70 108l-70 -108h-92l118 194h88z" />
    <glyph glyph-name="Cdotaccent" unicode="&#x10a;" horiz-adv-x="481" 
d="M253 -10h-4c-112 0 -172 75 -189 172c-5 27 -7 58 -7 86v254c0 28 2 59 7 86c17 97 77 172 189 172h4c112 0 172 -75 189 -172c5 -26 7 -56 7 -83h-115c0 17 -2 40 -5 62c-7 42 -29 82 -76 82h-4c-47 0 -69 -40 -76 -82c-4 -23 -5 -48 -5 -66v-252c0 -18 1 -43 5 -66
c7 -42 29 -82 76 -82h4c47 0 69 40 76 82c3 22 5 47 5 67h115c0 -30 -2 -62 -7 -88c-17 -97 -77 -172 -189 -172zM309 823h-117v120h117v-120z" />
    <glyph glyph-name="cdotaccent" unicode="&#x10b;" horiz-adv-x="425" 
d="M283 180h110c-3 -34 -11 -65 -18 -82c-26 -65 -77 -108 -156 -108c-100 0 -155 68 -171 164c-3 20 -5 41 -5 73v106c0 32 2 53 5 73c16 96 71 164 171 164c81 0 132 -45 157 -112c10 -28 16 -57 18 -88h-110c-1 10 -2 19 -4 28c-8 42 -27 67 -61 67s-54 -25 -61 -67
c-3 -17 -4 -36 -4 -67v-102c0 -31 1 -50 4 -67c7 -42 27 -67 61 -67s53 25 61 67c1 5 3 18 3 18zM278 643h-117v120h117v-120z" />
    <glyph glyph-name="Ccaron" unicode="&#x10c;" horiz-adv-x="481" 
d="M253 -10h-4c-112 0 -172 75 -189 172c-5 27 -7 58 -7 86v254c0 28 2 59 7 86c17 97 77 172 189 172h4c112 0 172 -75 189 -172c5 -26 7 -56 7 -83h-115c0 17 -2 40 -5 62c-7 42 -29 82 -76 82h-4c-47 0 -69 -40 -76 -82c-4 -23 -5 -48 -5 -66v-252c0 -18 1 -43 5 -66
c7 -42 29 -82 76 -82h4c47 0 69 40 76 82c3 22 5 47 5 67h115c0 -30 -2 -62 -7 -88c-17 -97 -77 -172 -189 -172zM294 808h-88l-118 194h92l70 -108l70 108h92z" />
    <glyph glyph-name="ccaron" unicode="&#x10d;" horiz-adv-x="425" 
d="M283 180h110c-3 -34 -11 -65 -18 -82c-26 -65 -77 -108 -156 -108c-100 0 -155 68 -171 164c-3 20 -5 41 -5 73v106c0 32 2 53 5 73c16 96 71 164 171 164c81 0 132 -45 157 -112c10 -28 16 -57 18 -88h-110c-1 10 -2 19 -4 28c-8 42 -27 67 -61 67s-54 -25 -61 -67
c-3 -17 -4 -36 -4 -67v-102c0 -31 1 -50 4 -67c7 -42 27 -67 61 -67s53 25 61 67c1 5 3 18 3 18zM261 628h-88l-118 194h92l70 -108l70 108h92z" />
    <glyph glyph-name="Dcaron" unicode="&#x10e;" horiz-adv-x="507" 
d="M339 260v230c0 18 -1 43 -5 66c-5 32 -19 63 -55 76c-11 4 -25 6 -49 6h-51v-526h51c24 0 38 2 49 6c36 13 50 44 55 76c4 23 5 48 5 66zM228 0h-164v750h164c28 0 49 -2 66 -5c94 -18 139 -85 153 -167c5 -27 7 -58 7 -86v-234c0 -28 -2 -59 -7 -86
c-14 -82 -59 -149 -153 -167c-17 -3 -38 -5 -66 -5zM279 808h-88l-118 194h92l70 -108l70 108h92z" />
    <glyph glyph-name="dcaron" unicode="&#x10f;" horiz-adv-x="560" 
d="M291 234v105c0 39 -14 125 -71 125c-38 0 -55 -33 -62 -69c-3 -17 -4 -34 -4 -59v-117c0 -11 1 -37 3 -52c5 -35 20 -72 59 -72c36 0 57 32 67 68c5 18 8 43 8 71zM402 0h-77l-9 73c-24 -55 -67 -83 -119 -83c-100 0 -139 77 -150 160c-3 21 -4 44 -4 72v120
c0 37 3 66 8 91c16 75 57 137 139 137c43 0 77 -16 101 -42h1s-1 25 -1 50v207h111v-785zM455 551v41c48 15 59 48 59 71c0 7 -4 10 -8 10h-44v112h108v-95c0 -62 -27 -127 -115 -139z" />
    <glyph glyph-name="Dcroat" unicode="&#x110;" horiz-adv-x="535" 
d="M256 0h-164v353h-78v83h78v314h164c28 0 49 -2 66 -5c94 -18 139 -85 153 -167c5 -27 7 -58 7 -86v-234c0 -28 -2 -59 -7 -86c-14 -82 -59 -149 -153 -167c-17 -3 -38 -5 -66 -5zM367 260v230c0 18 -1 43 -5 66c-5 32 -19 63 -55 76c-11 4 -25 6 -49 6h-51v-202h91v-83
h-91v-241h51c24 0 38 2 49 6c36 13 50 44 55 76c4 23 5 48 5 66z" />
    <glyph glyph-name="dcroat" unicode="&#x111;" horiz-adv-x="474" 
d="M402 0h-77l-9 73c-24 -55 -67 -83 -119 -83c-100 0 -139 77 -150 160c-3 21 -4 44 -4 72v120c0 37 3 66 8 91c16 75 57 137 139 137c43 0 77 -16 101 -42h1s-1 25 -1 50v64h-128v71h128v72h111v-72h72v-71h-72v-642zM291 234v105c0 39 -14 125 -71 125
c-38 0 -55 -33 -62 -69c-3 -17 -4 -34 -4 -59v-117c0 -11 1 -37 3 -52c5 -35 20 -72 59 -72c36 0 57 32 67 68c5 18 8 43 8 71z" />
    <glyph glyph-name="Emacron" unicode="&#x112;" horiz-adv-x="452" 
d="M424 0h-360v750h360v-111h-245v-199h203v-111h-203v-218h245v-111zM373 825h-264v72h264v-72z" />
    <glyph glyph-name="emacron" unicode="&#x113;" horiz-adv-x="437" 
d="M395 253h-241v-27c0 -31 1 -50 4 -67c7 -42 27 -67 61 -67c40 0 59 38 62 75h110c-14 -109 -72 -177 -172 -177s-155 68 -171 164c-3 20 -5 41 -5 73v106c0 32 2 53 5 73c16 96 71 164 171 164s155 -68 170 -164c5 -29 6 -51 6 -103v-50zM154 347h130c0 16 -1 36 -4 53
c-7 42 -27 68 -61 68s-54 -26 -61 -68c-2 -15 -4 -30 -4 -53zM350 645h-264v72h264v-72z" />
    <glyph glyph-name="Ebreve" unicode="&#x114;" horiz-adv-x="452" 
d="M424 0h-360v750h360v-111h-245v-199h203v-111h-203v-218h245v-111zM304 974h77c-5 -114 -62 -171 -143 -171s-138 57 -143 171h77c6 -68 31 -96 66 -96s60 28 66 96z" />
    <glyph glyph-name="ebreve" unicode="&#x115;" horiz-adv-x="437" 
d="M395 253h-241v-27c0 -31 1 -50 4 -67c7 -42 27 -67 61 -67c40 0 59 38 62 75h110c-14 -109 -72 -177 -172 -177s-155 68 -171 164c-3 20 -5 41 -5 73v106c0 32 2 53 5 73c16 96 71 164 171 164s155 -68 170 -164c5 -29 6 -51 6 -103v-50zM154 347h130c0 16 -1 36 -4 53
c-7 42 -27 68 -61 68s-54 -26 -61 -68c-2 -15 -4 -30 -4 -53zM284 794h77c-5 -114 -62 -171 -143 -171s-138 57 -143 171h77c6 -68 31 -96 66 -96s60 28 66 96z" />
    <glyph glyph-name="Edotaccent" unicode="&#x116;" horiz-adv-x="452" 
d="M424 0h-360v750h360v-111h-245v-199h203v-111h-203v-218h245v-111zM301 823h-117v120h117v-120z" />
    <glyph glyph-name="edotaccent" unicode="&#x117;" horiz-adv-x="437" 
d="M395 253h-241v-27c0 -31 1 -50 4 -67c7 -42 27 -67 61 -67c40 0 59 38 62 75h110c-14 -109 -72 -177 -172 -177s-155 68 -171 164c-3 20 -5 41 -5 73v106c0 32 2 53 5 73c16 96 71 164 171 164s155 -68 170 -164c5 -29 6 -51 6 -103v-50zM154 347h130c0 16 -1 36 -4 53
c-7 42 -27 68 -61 68s-54 -26 -61 -68c-2 -15 -4 -30 -4 -53zM277 643h-117v120h117v-120z" />
    <glyph glyph-name="Eogonek" unicode="&#x118;" horiz-adv-x="452" 
d="M426 -147l23 -53c-22 -19 -58 -31 -87 -31c-56 0 -105 31 -105 98c0 51 31 95 81 133h-274v750h360v-111h-245v-199h203v-111h-203v-218h245v-111c-64 -49 -91 -89 -91 -124c0 -25 13 -42 39 -42c20 0 35 6 54 19z" />
    <glyph glyph-name="eogonek" unicode="&#x119;" horiz-adv-x="437" 
d="M296 -147l23 -53c-22 -19 -58 -31 -87 -31c-56 0 -105 31 -105 98c0 47 27 88 70 124c-86 9 -134 74 -149 163c-3 20 -5 41 -5 73v106c0 32 2 53 5 73c16 96 71 164 171 164s155 -68 170 -164c5 -29 6 -51 6 -103v-50h-241v-27c0 -31 1 -50 4 -67c7 -42 27 -67 61 -67
c40 0 59 38 62 75h110c-8 -60 -30 -105 -62 -137c-46 -46 -126 -88 -126 -154c0 -25 13 -42 39 -42c20 0 35 6 54 19zM154 347h130c0 16 -1 36 -4 53c-7 42 -27 68 -61 68s-54 -26 -61 -68c-2 -15 -4 -30 -4 -53z" />
    <glyph glyph-name="Ecaron" unicode="&#x11a;" horiz-adv-x="452" 
d="M424 0h-360v750h360v-111h-245v-199h203v-111h-203v-218h245v-111zM280 808h-88l-118 194h92l70 -108l70 108h92z" />
    <glyph glyph-name="ecaron" unicode="&#x11b;" horiz-adv-x="437" 
d="M395 253h-241v-27c0 -31 1 -50 4 -67c7 -42 27 -67 61 -67c40 0 59 38 62 75h110c-14 -109 -72 -177 -172 -177s-155 68 -171 164c-3 20 -5 41 -5 73v106c0 32 2 53 5 73c16 96 71 164 171 164s155 -68 170 -164c5 -29 6 -51 6 -103v-50zM154 347h130c0 16 -1 36 -4 53
c-7 42 -27 68 -61 68s-54 -26 -61 -68c-2 -15 -4 -30 -4 -53zM262 628h-88l-118 194h92l70 -108l70 108h92z" />
    <glyph glyph-name="Gcircumflex" unicode="&#x11c;" horiz-adv-x="504" 
d="M449 0h-67l-16 67c-30 -53 -71 -77 -125 -77c-113 0 -170 84 -184 188c-3 23 -4 47 -4 70v254c0 28 2 59 7 86c17 97 77 172 189 172h4c112 0 172 -75 189 -172c5 -26 7 -56 7 -83h-115c0 17 -2 40 -5 62c-7 42 -29 82 -76 82h-4c-47 0 -69 -40 -76 -82
c-4 -23 -5 -48 -5 -66v-252c0 -18 1 -43 5 -66c7 -42 29 -82 76 -82h4c49 0 71 40 78 82c3 22 5 47 5 67v26h-100v107h213v-383zM414 808h-92l-70 108l-70 -108h-92l118 194h88z" />
    <glyph glyph-name="gcircumflex" unicode="&#x11d;" horiz-adv-x="463" 
d="M291 246v94c0 39 -14 125 -71 125c-38 0 -55 -33 -62 -69c-3 -17 -4 -34 -4 -59v-107c0 -11 1 -37 3 -52c5 -35 20 -72 59 -72c36 0 57 32 67 68c5 18 8 38 8 72zM291 -10v12c0 25 1 50 1 50h-1c-24 -33 -58 -52 -101 -52c-82 0 -125 58 -140 137c-5 26 -7 54 -7 91v110
c0 28 1 51 4 72c13 83 54 160 150 160c52 0 98 -26 119 -73l9 63h77v-569c0 -37 -3 -62 -8 -85c-21 -88 -81 -144 -168 -144c-90 0 -162 58 -174 175h110c8 -51 35 -73 64 -73c33 0 55 25 62 74c2 12 3 30 3 52zM393 628h-92l-70 108l-70 -108h-92l118 194h88z" />
    <glyph glyph-name="Gbreve" unicode="&#x11e;" horiz-adv-x="504" 
d="M449 0h-67l-16 67c-30 -53 -71 -77 -125 -77c-113 0 -170 84 -184 188c-3 23 -4 47 -4 70v254c0 28 2 59 7 86c17 97 77 172 189 172h4c112 0 172 -75 189 -172c5 -26 7 -56 7 -83h-115c0 17 -2 40 -5 62c-7 42 -29 82 -76 82h-4c-47 0 -69 -40 -76 -82
c-4 -23 -5 -48 -5 -66v-252c0 -18 1 -43 5 -66c7 -42 29 -82 76 -82h4c49 0 71 40 78 82c3 22 5 47 5 67v26h-100v107h213v-383zM318 974h77c-5 -114 -62 -171 -143 -171s-138 57 -143 171h77c6 -68 31 -96 66 -96s60 28 66 96z" />
    <glyph glyph-name="gbreve" unicode="&#x11f;" horiz-adv-x="463" 
d="M291 246v94c0 39 -14 125 -71 125c-38 0 -55 -33 -62 -69c-3 -17 -4 -34 -4 -59v-107c0 -11 1 -37 3 -52c5 -35 20 -72 59 -72c36 0 57 32 67 68c5 18 8 38 8 72zM291 -10v12c0 25 1 50 1 50h-1c-24 -33 -58 -52 -101 -52c-82 0 -125 58 -140 137c-5 26 -7 54 -7 91v110
c0 28 1 51 4 72c13 83 54 160 150 160c52 0 98 -26 119 -73l9 63h77v-569c0 -37 -3 -62 -8 -85c-21 -88 -81 -144 -168 -144c-90 0 -162 58 -174 175h110c8 -51 35 -73 64 -73c33 0 55 25 62 74c2 12 3 30 3 52zM293 794h77c-5 -114 -62 -171 -143 -171s-138 57 -143 171h77
c6 -68 31 -96 66 -96s60 28 66 96z" />
    <glyph glyph-name="Gdotaccent" unicode="&#x120;" horiz-adv-x="504" 
d="M449 0h-67l-16 67c-30 -53 -71 -77 -125 -77c-113 0 -170 84 -184 188c-3 23 -4 47 -4 70v254c0 28 2 59 7 86c17 97 77 172 189 172h4c112 0 172 -75 189 -172c5 -26 7 -56 7 -83h-115c0 17 -2 40 -5 62c-7 42 -29 82 -76 82h-4c-47 0 -69 -40 -76 -82
c-4 -23 -5 -48 -5 -66v-252c0 -18 1 -43 5 -66c7 -42 29 -82 76 -82h4c49 0 71 40 78 82c3 22 5 47 5 67v26h-100v107h213v-383zM311 823h-117v120h117v-120z" />
    <glyph glyph-name="gdotaccent" unicode="&#x121;" horiz-adv-x="463" 
d="M291 246v94c0 39 -14 125 -71 125c-38 0 -55 -33 -62 -69c-3 -17 -4 -34 -4 -59v-107c0 -11 1 -37 3 -52c5 -35 20 -72 59 -72c36 0 57 32 67 68c5 18 8 38 8 72zM291 -10v12c0 25 1 50 1 50h-1c-24 -33 -58 -52 -101 -52c-82 0 -125 58 -140 137c-5 26 -7 54 -7 91v110
c0 28 1 51 4 72c13 83 54 160 150 160c52 0 98 -26 119 -73l9 63h77v-569c0 -37 -3 -62 -8 -85c-21 -88 -81 -144 -168 -144c-90 0 -162 58 -174 175h110c8 -51 35 -73 64 -73c33 0 55 25 62 74c2 12 3 30 3 52zM290 643h-117v120h117v-120z" />
    <glyph glyph-name="Gcommaaccent" unicode="&#x122;" horiz-adv-x="504" 
d="M449 0h-67l-16 67c-30 -53 -71 -77 -125 -77c-113 0 -170 84 -184 188c-3 23 -4 47 -4 70v254c0 28 2 59 7 86c17 97 77 172 189 172h4c112 0 172 -75 189 -172c5 -26 7 -56 7 -83h-115c0 17 -2 40 -5 62c-7 42 -29 82 -76 82h-4c-47 0 -69 -40 -76 -82
c-4 -23 -5 -48 -5 -66v-252c0 -18 1 -43 5 -66c7 -42 29 -82 76 -82h4c49 0 71 40 78 82c3 22 5 47 5 67v26h-100v107h213v-383zM195 -284v41c48 15 59 48 59 71c0 7 -4 10 -8 10h-44v112h108v-95c0 -62 -27 -127 -115 -139z" />
    <glyph glyph-name="gcommaaccent" unicode="&#x123;" horiz-adv-x="463" 
d="M247 641h-108v95c0 62 27 127 115 139v-41c-48 -15 -59 -48 -59 -71c0 -7 4 -10 8 -10h44v-112zM291 246v94c0 39 -14 125 -71 125c-38 0 -55 -33 -62 -69c-3 -17 -4 -34 -4 -59v-107c0 -11 1 -37 3 -52c5 -35 20 -72 59 -72c36 0 57 32 67 68c5 18 8 38 8 72zM291 -10
v12c0 25 1 50 1 50h-1c-24 -33 -58 -52 -101 -52c-82 0 -125 58 -140 137c-5 26 -7 54 -7 91v110c0 28 1 51 4 72c13 83 54 160 150 160c52 0 98 -26 119 -73l9 63h77v-569c0 -37 -3 -62 -8 -85c-21 -88 -81 -144 -168 -144c-90 0 -162 58 -174 175h110c8 -51 35 -73 64 -73
c33 0 55 25 62 74c2 12 3 30 3 52z" />
    <glyph glyph-name="Hcircumflex" unicode="&#x124;" horiz-adv-x="533" 
d="M469 0h-115v335h-175v-335h-115v750h115v-304h175v304h115v-750zM428 818h-92l-70 108l-70 -108h-92l118 194h88z" />
    <glyph glyph-name="hcircumflex" unicode="&#x125;" horiz-adv-x="478" 
d="M420 0h-111v340c0 11 -1 37 -3 52c-5 35 -20 72 -59 72c-36 0 -57 -32 -67 -68c-5 -18 -8 -38 -8 -72v-324h-111v785h111v-217c0 -25 -1 -50 -1 -50h1c24 33 58 52 101 52c82 0 125 -58 140 -137c5 -26 7 -54 7 -91v-342zM391 828h-92l-70 108l-70 -108h-92l118 194h88z
" />
    <glyph glyph-name="Hbar" unicode="&#x126;" horiz-adv-x="549" 
d="M477 0h-115v334h-175v-334h-115v560h-71v71h71v119h115v-119h175v119h115v-119h71v-71h-71v-560zM362 447v113h-175v-113h175z" />
    <glyph glyph-name="hbar" unicode="&#x127;" horiz-adv-x="489" 
d="M431 0h-111v340c0 11 -1 37 -3 52c-5 35 -20 72 -59 72c-36 0 -57 -32 -67 -68c-5 -18 -8 -38 -8 -72v-324h-111v642h-72v71h72v72h111v-72h128v-71h-128v-74c0 -25 -1 -50 -1 -50h1c24 33 58 52 101 52c82 0 125 -58 140 -137c5 -26 7 -54 7 -91v-342z" />
    <glyph glyph-name="Itilde" unicode="&#x128;" horiz-adv-x="243" 
d="M179 0h-115v750h115v-750zM224 948h65c-4 -84 -38 -143 -102 -143c-27 0 -49 10 -71 34c-29 30 -43 43 -59 43c-17 0 -29 -15 -33 -63h-65c4 84 38 143 102 143c27 0 49 -10 71 -34c29 -30 43 -43 59 -43c17 0 29 15 33 63z" />
    <glyph glyph-name="itilde" unicode="&#x129;" horiz-adv-x="233" 
d="M216 768h65c-4 -84 -38 -143 -102 -143c-27 0 -49 10 -71 34c-29 30 -43 43 -59 43c-17 0 -29 -15 -33 -63h-65c4 84 38 143 102 143c27 0 49 -10 71 -34c29 -30 43 -43 59 -43c17 0 29 15 33 63zM172 0h-111v560h111v-560z" />
    <glyph glyph-name="uni012A" unicode="&#x12a;" horiz-adv-x="243" 
d="M179 0h-115v750h115v-750zM253 825h-264v72h264v-72z" />
    <glyph glyph-name="imacron" unicode="&#x12b;" horiz-adv-x="233" 
d="M248 645h-264v72h264v-72zM172 0h-111v560h111v-560z" />
    <glyph glyph-name="Ibreve" unicode="&#x12c;" horiz-adv-x="243" 
d="M179 0h-115v750h115v-750zM187 974h77c-5 -114 -62 -171 -143 -171s-138 57 -143 171h77c6 -68 31 -96 66 -96s60 28 66 96z" />
    <glyph glyph-name="uni012D" unicode="&#x12d;" horiz-adv-x="233" 
d="M182 794h77c-5 -114 -62 -171 -143 -171s-138 57 -143 171h77c6 -68 31 -96 66 -96s60 28 66 96zM172 0h-111v560h111v-560z" />
    <glyph glyph-name="Iogonek" unicode="&#x12e;" horiz-adv-x="243" 
d="M181 -147l23 -53c-22 -19 -58 -31 -87 -31c-56 0 -105 31 -105 98c0 40 19 76 52 108v775h115v-750c-64 -49 -91 -89 -91 -124c0 -25 13 -42 39 -42c20 0 35 6 54 19z" />
    <glyph glyph-name="iogonek" unicode="&#x12f;" horiz-adv-x="233" 
d="M174 -147l23 -53c-22 -19 -58 -31 -87 -31c-56 0 -105 31 -105 98c0 42 21 79 56 112v581h111v-560c-64 -49 -91 -89 -91 -124c0 -25 13 -42 39 -42c20 0 35 6 54 19zM174 645h-115v120h115v-120z" />
    <glyph glyph-name="Idotaccent" unicode="&#x130;" horiz-adv-x="243" 
d="M179 0h-115v750h115v-750zM180 823h-117v120h117v-120z" />
    <glyph glyph-name="dotlessi" unicode="&#x131;" horiz-adv-x="233" 
d="M172 0h-111v560h111v-560z" />
    <glyph glyph-name="IJ" unicode="&#x132;" horiz-adv-x="680" 
d="M179 0h-115v750h115v-750zM505 216v534h115v-534c0 -25 -1 -41 -3 -57c-13 -98 -69 -169 -174 -169c-101 0 -158 63 -173 165c-2 17 -4 34 -4 62v59h115v-60c0 -22 2 -37 4 -50c6 -39 27 -65 58 -65c30 0 51 22 58 63c2 12 4 28 4 52z" />
    <glyph glyph-name="ij" unicode="&#x133;" horiz-adv-x="469" 
d="M172 0h-111v560h111v-560zM174 645h-115v120h115v-120zM410 645h-115v120h115v-120zM189 -233v106c14 -2 28 -4 42 -4c45 0 66 23 66 90v601h111v-604c0 -132 -66 -193 -166 -193c-21 0 -40 2 -53 4z" />
    <glyph glyph-name="Jcircumflex" unicode="&#x134;" horiz-adv-x="447" 
d="M272 216v534h115v-534c0 -25 -1 -41 -3 -57c-13 -98 -69 -169 -174 -169c-101 0 -158 63 -173 165c-2 17 -4 34 -4 62v59h115v-60c0 -22 2 -37 4 -50c6 -39 27 -65 58 -65c30 0 51 22 58 63c2 12 4 28 4 52zM488 808h-92l-70 108l-70 -108h-92l118 194h88z" />
    <glyph glyph-name="jcircumflex" unicode="&#x135;" horiz-adv-x="236" 
d="M-44 -233v106c14 -2 28 -4 42 -4c45 0 66 23 66 90v601h111v-604c0 -132 -66 -193 -166 -193c-21 0 -40 2 -53 4zM281 628h-92l-70 108l-70 -108h-92l118 194h88z" />
    <glyph glyph-name="Kcommaaccent" unicode="&#x136;" horiz-adv-x="494" 
d="M501 0h-126l-141 348l-55 -90v-258h-115v750h115v-307l1 -1s19 35 28 49l153 259h126l-180 -287zM210 -284v41c48 15 59 48 59 71c0 7 -4 10 -8 10h-44v112h108v-95c0 -62 -27 -127 -115 -139z" />
    <glyph glyph-name="kcommaaccent" unicode="&#x137;" 
d="M438 0h-124l-108 265l-34 -47v-218h-111v785h111v-409l129 184h125l-145 -198zM180 -284v41c48 15 59 48 59 71c0 7 -4 10 -8 10h-44v112h108v-95c0 -62 -27 -127 -115 -139z" />
    <glyph glyph-name="kgreenlandic" unicode="&#x138;" 
d="M438 0h-124l-108 265l-34 -47v-218h-111v560h111v-184l129 184h125l-145 -198z" />
    <glyph glyph-name="Lacute" unicode="&#x139;" horiz-adv-x="445" 
d="M427 0h-363v750h115v-638h248v-112zM146 807h-82l88 181h121v-6z" />
    <glyph glyph-name="lacute" unicode="&#x13a;" horiz-adv-x="233" 
d="M172 0h-111v785h111v-785zM143 837h-82l88 181h121v-6z" />
    <glyph glyph-name="Lcommaaccent" unicode="&#x13b;" horiz-adv-x="445" 
d="M427 0h-363v750h115v-638h248v-112zM185 -284v41c48 15 59 48 59 71c0 7 -4 10 -8 10h-44v112h108v-95c0 -62 -27 -127 -115 -139z" />
    <glyph glyph-name="lcommaaccent" unicode="&#x13c;" horiz-adv-x="233" 
d="M172 0h-111v785h111v-785zM56 -284v41c48 15 59 48 59 71c0 7 -4 10 -8 10h-44v112h108v-95c0 -62 -27 -127 -115 -139z" />
    <glyph glyph-name="Lcaron" unicode="&#x13d;" horiz-adv-x="445" 
d="M427 0h-363v750h115v-638h248v-112zM307 551v41c48 15 59 48 59 71c0 7 -4 10 -8 10h-44v112h108v-95c0 -62 -27 -127 -115 -139z" />
    <glyph glyph-name="lcaron" unicode="&#x13e;" horiz-adv-x="330" 
d="M172 0h-111v785h111v-785zM225 551v41c48 15 59 48 59 71c0 7 -4 10 -8 10h-44v112h108v-95c0 -62 -27 -127 -115 -139z" />
    <glyph glyph-name="Ldot" unicode="&#x13f;" horiz-adv-x="445" 
d="M427 0h-363v750h115v-638h248v-112zM401 348h-117v120h117v-120z" />
    <glyph glyph-name="ldot" unicode="&#x140;" horiz-adv-x="359" 
d="M172 0h-111v785h111v-785zM359 348h-117v120h117v-120z" />
    <glyph glyph-name="Lslash" unicode="&#x141;" horiz-adv-x="477" 
d="M459 0h-363v268l-82 -65v110l82 64v373h115v-286l126 98v-108l-126 -98v-244h248v-112z" />
    <glyph glyph-name="lslash" unicode="&#x142;" horiz-adv-x="305" 
d="M208 0h-111v313l-83 -78v110l83 78v362h111v-262l83 78v-110l-83 -78v-413z" />
    <glyph glyph-name="Nacute" unicode="&#x143;" horiz-adv-x="532" 
d="M468 0h-127l-168 497h-1s1 -33 1 -58v-439h-109v750h127l168 -496h1s-1 33 -1 58v438h109v-750zM274 807h-82l88 181h121v-6z" />
    <glyph glyph-name="nacute" unicode="&#x144;" horiz-adv-x="478" 
d="M420 0h-111v340c0 11 -1 37 -3 52c-5 39 -20 72 -59 72c-36 0 -57 -32 -67 -68c-5 -18 -8 -38 -8 -72v-324h-111v560h77l10 -75c24 55 73 85 125 85c82 0 125 -57 140 -137c5 -26 7 -57 7 -91v-342zM227 627h-82l88 181h121v-6z" />
    <glyph glyph-name="Ncommaaccent" unicode="&#x145;" horiz-adv-x="532" 
d="M468 0h-127l-168 497h-1s1 -33 1 -58v-439h-109v750h127l168 -496h1s-1 33 -1 58v438h109v-750zM204 -284v41c48 15 59 48 59 71c0 7 -4 10 -8 10h-44v112h108v-95c0 -62 -27 -127 -115 -139z" />
    <glyph glyph-name="ncommaaccent" unicode="&#x146;" horiz-adv-x="478" 
d="M420 0h-111v340c0 11 -1 37 -3 52c-5 39 -20 72 -59 72c-36 0 -57 -32 -67 -68c-5 -18 -8 -38 -8 -72v-324h-111v560h77l10 -75c24 55 73 85 125 85c82 0 125 -57 140 -137c5 -26 7 -57 7 -91v-342zM182 -284v41c48 15 59 48 59 71c0 7 -4 10 -8 10h-44v112h108v-95
c0 -62 -27 -127 -115 -139z" />
    <glyph glyph-name="Ncaron" unicode="&#x147;" horiz-adv-x="532" 
d="M468 0h-127l-168 497h-1s1 -33 1 -58v-439h-109v750h127l168 -496h1s-1 33 -1 58v438h109v-750zM310 808h-88l-118 194h92l70 -108l70 108h92z" />
    <glyph glyph-name="ncaron" unicode="&#x148;" horiz-adv-x="478" 
d="M420 0h-111v340c0 11 -1 37 -3 52c-5 39 -20 72 -59 72c-36 0 -57 -32 -67 -68c-5 -18 -8 -38 -8 -72v-324h-111v560h77l10 -75c24 55 73 85 125 85c82 0 125 -57 140 -137c5 -26 7 -57 7 -91v-342zM283 628h-88l-118 194h92l70 -108l70 108h92z" />
    <glyph glyph-name="napostrophe" unicode="&#x149;" horiz-adv-x="581" 
d="M523 0h-111v340c0 11 -1 37 -3 52c-5 39 -20 72 -59 72c-36 0 -57 -32 -67 -68c-5 -18 -8 -38 -8 -72v-324h-111v560h77l10 -75c24 55 73 85 125 85c82 0 125 -57 140 -137c5 -26 7 -57 7 -91v-342zM20 551v41c48 15 59 48 59 71c0 7 -4 10 -8 10h-44v112h108v-95
c0 -62 -27 -127 -115 -139z" />
    <glyph glyph-name="Eng" unicode="&#x14a;" horiz-adv-x="532" 
d="M249 -233v106c14 -2 28 -4 42 -4c45 0 66 23 66 90v41h-16l-168 497h-1s1 -33 1 -58v-439h-109v750h127l168 -496h1s-1 33 -1 58v438h109v-794c0 -132 -66 -193 -166 -193c-21 0 -40 2 -53 4z" />
    <glyph glyph-name="eng" unicode="&#x14b;" horiz-adv-x="478" 
d="M201 -233v106c14 -2 28 -4 42 -4c45 0 66 23 66 90v381c0 11 -1 37 -3 52c-5 39 -20 72 -59 72c-36 0 -57 -32 -67 -68c-5 -18 -8 -38 -8 -72v-324h-111v560h77l10 -75c24 55 73 85 125 85c82 0 125 -57 140 -137c5 -26 7 -57 7 -91v-386c0 -132 -66 -193 -166 -193
c-21 0 -40 2 -53 4z" />
    <glyph glyph-name="Omacron" unicode="&#x14c;" horiz-adv-x="502" 
d="M249 101h4c47 0 69 40 76 82c4 23 5 48 5 66v252c0 18 -1 43 -5 66c-7 42 -29 82 -76 82h-4c-47 0 -69 -40 -76 -82c-4 -23 -5 -48 -5 -66v-252c0 -18 1 -43 5 -66c7 -42 29 -82 76 -82zM253 -10h-4c-112 0 -172 75 -189 172c-5 27 -7 58 -7 86v254c0 28 2 59 7 86
c17 97 77 172 189 172h4c112 0 172 -75 189 -172c5 -27 7 -58 7 -86v-254c0 -28 -2 -59 -7 -86c-17 -97 -77 -172 -189 -172zM383 825h-264v72h264v-72z" />
    <glyph glyph-name="omacron" unicode="&#x14d;" 
d="M284 229v102c0 31 -1 50 -4 67c-7 42 -27 67 -61 67s-54 -25 -61 -67c-3 -17 -4 -36 -4 -67v-102c0 -31 1 -50 4 -67c7 -42 27 -67 61 -67s54 25 61 67c3 17 4 36 4 67zM395 333v-106c0 -32 -2 -53 -5 -73c-16 -96 -71 -164 -171 -164s-155 68 -171 164
c-3 20 -5 41 -5 73v106c0 32 2 53 5 73c16 96 71 164 171 164s155 -68 171 -164c3 -20 5 -41 5 -73zM351 645h-264v72h264v-72z" />
    <glyph glyph-name="Obreve" unicode="&#x14e;" horiz-adv-x="502" 
d="M249 101h4c47 0 69 40 76 82c4 23 5 48 5 66v252c0 18 -1 43 -5 66c-7 42 -29 82 -76 82h-4c-47 0 -69 -40 -76 -82c-4 -23 -5 -48 -5 -66v-252c0 -18 1 -43 5 -66c7 -42 29 -82 76 -82zM253 -10h-4c-112 0 -172 75 -189 172c-5 27 -7 58 -7 86v254c0 28 2 59 7 86
c17 97 77 172 189 172h4c112 0 172 -75 189 -172c5 -27 7 -58 7 -86v-254c0 -28 -2 -59 -7 -86c-17 -97 -77 -172 -189 -172zM317 974h77c-5 -114 -62 -171 -143 -171s-138 57 -143 171h77c6 -68 31 -96 66 -96s60 28 66 96z" />
    <glyph glyph-name="obreve" unicode="&#x14f;" 
d="M284 229v102c0 31 -1 50 -4 67c-7 42 -27 67 -61 67s-54 -25 -61 -67c-3 -17 -4 -36 -4 -67v-102c0 -31 1 -50 4 -67c7 -42 27 -67 61 -67s54 25 61 67c3 17 4 36 4 67zM395 333v-106c0 -32 -2 -53 -5 -73c-16 -96 -71 -164 -171 -164s-155 68 -171 164
c-3 20 -5 41 -5 73v106c0 32 2 53 5 73c16 96 71 164 171 164s155 -68 171 -164c3 -20 5 -41 5 -73zM285 794h77c-5 -114 -62 -171 -143 -171s-138 57 -143 171h77c6 -68 31 -96 66 -96s60 28 66 96z" />
    <glyph glyph-name="Ohungarumlaut" unicode="&#x150;" horiz-adv-x="502" 
d="M249 101h4c47 0 69 40 76 82c4 23 5 48 5 66v252c0 18 -1 43 -5 66c-7 42 -29 82 -76 82h-4c-47 0 -69 -40 -76 -82c-4 -23 -5 -48 -5 -66v-252c0 -18 1 -43 5 -66c7 -42 29 -82 76 -82zM253 -10h-4c-112 0 -172 75 -189 172c-5 27 -7 58 -7 86v254c0 28 2 59 7 86
c17 97 77 172 189 172h4c112 0 172 -75 189 -172c5 -27 7 -58 7 -86v-254c0 -28 -2 -59 -7 -86c-17 -97 -77 -172 -189 -172zM181 807h-82l86 182h116v-3zM345 807h-82l86 182h116v-3z" />
    <glyph glyph-name="ohungarumlaut" unicode="&#x151;" 
d="M284 229v102c0 31 -1 50 -4 67c-7 42 -27 67 -61 67s-54 -25 -61 -67c-3 -17 -4 -36 -4 -67v-102c0 -31 1 -50 4 -67c7 -42 27 -67 61 -67s54 25 61 67c3 17 4 36 4 67zM395 333v-106c0 -32 -2 -53 -5 -73c-16 -96 -71 -164 -171 -164s-155 68 -171 164
c-3 20 -5 41 -5 73v106c0 32 2 53 5 73c16 96 71 164 171 164s155 -68 171 -164c3 -20 5 -41 5 -73zM159 627h-82l86 182h116v-3zM323 627h-82l86 182h116v-3z" />
    <glyph glyph-name="OE" unicode="&#x152;" horiz-adv-x="687" 
d="M659 0h-410c-112 0 -172 75 -189 172c-5 27 -7 58 -7 86v234c0 28 2 59 7 86c17 97 77 172 189 172h410v-111h-220v-199h179v-111h-179v-218h220v-111zM324 111v528h-75c-47 0 -69 -40 -76 -82c-4 -23 -5 -48 -5 -66v-232c0 -18 1 -43 5 -66c7 -42 29 -82 76 -82h75z" />
    <glyph glyph-name="oe" unicode="&#x153;" horiz-adv-x="678" 
d="M636 253h-241v-27c0 -31 1 -50 4 -67c7 -42 27 -67 61 -67c40 0 59 38 62 75h110c-14 -109 -72 -177 -172 -177c-60 0 -97 24 -121 61c-23 -37 -60 -61 -120 -61c-100 0 -155 68 -171 164c-3 20 -5 41 -5 73v106c0 32 2 53 5 73c16 96 71 164 171 164
c59 0 97 -24 120 -62c23 37 61 62 121 62c100 0 155 -68 170 -164c5 -29 6 -51 6 -103v-50zM284 229v102c0 31 -1 50 -4 67c-7 42 -27 67 -61 67s-54 -25 -61 -67c-3 -17 -4 -36 -4 -67v-102c0 -31 1 -50 4 -67c7 -42 27 -67 61 -67s54 25 61 67c3 17 4 36 4 67zM395 347
h130c0 16 -1 36 -4 53c-7 42 -27 68 -61 68s-54 -26 -61 -68c-2 -15 -4 -30 -4 -53z" />
    <glyph glyph-name="Racute" unicode="&#x154;" horiz-adv-x="488" 
d="M474 0h-119c-16 22 -23 56 -25 90l-9 132c-4 53 -19 81 -51 91c-11 3 -23 5 -47 5h-44v-318h-115v750h157c26 0 49 -2 67 -5c96 -17 154 -80 154 -194c0 -72 -32 -134 -99 -171v-1c59 -28 87 -68 92 -142l8 -138c3 -44 10 -78 31 -97v-2zM179 427h41c20 0 33 1 42 4
c44 13 65 56 65 111c0 57 -23 85 -66 93c-10 2 -24 4 -44 4h-38v-212zM234 807h-82l88 181h121v-6z" />
    <glyph glyph-name="racute" unicode="&#x155;" horiz-adv-x="348" 
d="M172 0h-111v560h77l10 -81c26 64 73 91 125 91c22 0 46 -4 64 -10l-2 -112c-21 9 -43 16 -68 16c-58 0 -83 -51 -91 -112c-3 -26 -4 -55 -4 -86v-266zM196 627h-82l88 181h121v-6z" />
    <glyph glyph-name="Rcommaaccent" unicode="&#x156;" horiz-adv-x="488" 
d="M474 0h-119c-16 22 -23 56 -25 90l-9 132c-4 53 -19 81 -51 91c-11 3 -23 5 -47 5h-44v-318h-115v750h157c26 0 49 -2 67 -5c96 -17 154 -80 154 -194c0 -72 -32 -134 -99 -171v-1c59 -28 87 -68 92 -142l8 -138c3 -44 10 -78 31 -97v-2zM179 427h41c20 0 33 1 42 4
c44 13 65 56 65 111c0 57 -23 85 -66 93c-10 2 -24 4 -44 4h-38v-212zM202 -284v41c48 15 59 48 59 71c0 7 -4 10 -8 10h-44v112h108v-95c0 -62 -27 -127 -115 -139z" />
    <glyph glyph-name="rcommaaccent" unicode="&#x157;" horiz-adv-x="348" 
d="M172 0h-111v560h77l10 -81c26 64 73 91 125 91c22 0 46 -4 64 -10l-2 -112c-21 9 -43 16 -68 16c-58 0 -83 -51 -91 -112c-3 -26 -4 -55 -4 -86v-266zM55 -284v41c48 15 59 48 59 71c0 7 -4 10 -8 10h-44v112h108v-95c0 -62 -27 -127 -115 -139z" />
    <glyph glyph-name="Rcaron" unicode="&#x158;" horiz-adv-x="488" 
d="M474 0h-119c-16 22 -23 56 -25 90l-9 132c-4 53 -19 81 -51 91c-11 3 -23 5 -47 5h-44v-318h-115v750h157c26 0 49 -2 67 -5c96 -17 154 -80 154 -194c0 -72 -32 -134 -99 -171v-1c59 -28 87 -68 92 -142l8 -138c3 -44 10 -78 31 -97v-2zM179 427h41c20 0 33 1 42 4
c44 13 65 56 65 111c0 57 -23 85 -66 93c-10 2 -24 4 -44 4h-38v-212zM270 808h-88l-118 194h92l70 -108l70 108h92z" />
    <glyph glyph-name="rcaron" unicode="&#x159;" horiz-adv-x="348" 
d="M172 0h-111v560h77l10 -81c26 64 73 91 125 91c22 0 46 -4 64 -10l-2 -112c-21 9 -43 16 -68 16c-58 0 -83 -51 -91 -112c-3 -26 -4 -55 -4 -86v-266zM237 628h-88l-118 194h92l70 -108l70 108h92z" />
    <glyph glyph-name="Sacute" unicode="&#x15a;" horiz-adv-x="470" 
d="M429 534h-115c0 70 -24 120 -77 120c-55 0 -73 -46 -73 -92c0 -60 30 -90 77 -113l35 -17c91 -44 159 -106 159 -228c0 -131 -84 -214 -198 -214c-128 0 -200 102 -203 231h116c2 -74 38 -125 87 -125c48 0 83 39 83 110c0 62 -35 93 -96 124l-31 16
c-80 41 -143 89 -143 215c0 127 80 199 187 199c112 0 197 -75 192 -226zM230 807h-82l88 181h121v-6z" />
    <glyph glyph-name="sacute" unicode="&#x15b;" horiz-adv-x="393" 
d="M356 411h-110c-4 42 -21 65 -52 65c-32 0 -48 -23 -48 -59c0 -41 18 -63 70 -82c75 -28 147 -76 147 -177c0 -105 -62 -168 -161 -168c-104 0 -169 59 -176 177h110c5 -54 26 -82 64 -82c33 0 54 28 54 72c0 48 -27 71 -82 90c-91 32 -133 82 -133 166
c0 96 60 157 155 157c94 0 152 -52 162 -159zM184 627h-82l88 181h121v-6z" />
    <glyph glyph-name="Scircumflex" unicode="&#x15c;" horiz-adv-x="470" 
d="M429 534h-115c0 70 -24 120 -77 120c-55 0 -73 -46 -73 -92c0 -60 30 -90 77 -113l35 -17c91 -44 159 -106 159 -228c0 -131 -84 -214 -198 -214c-128 0 -200 102 -203 231h116c2 -74 38 -125 87 -125c48 0 83 39 83 110c0 62 -35 93 -96 124l-31 16
c-80 41 -143 89 -143 215c0 127 80 199 187 199c112 0 197 -75 192 -226zM399 808h-92l-70 108l-70 -108h-92l118 194h88z" />
    <glyph glyph-name="scircumflex" unicode="&#x15d;" horiz-adv-x="393" 
d="M356 411h-110c-4 42 -21 65 -52 65c-32 0 -48 -23 -48 -59c0 -41 18 -63 70 -82c75 -28 147 -76 147 -177c0 -105 -62 -168 -161 -168c-104 0 -169 59 -176 177h110c5 -54 26 -82 64 -82c33 0 54 28 54 72c0 48 -27 71 -82 90c-91 32 -133 82 -133 166
c0 96 60 157 155 157c94 0 152 -52 162 -159zM359 628h-92l-70 108l-70 -108h-92l118 194h88z" />
    <glyph glyph-name="Scedilla" unicode="&#x15e;" horiz-adv-x="470" 
d="M202 -93l-20 6c-18 5 -25 15 -18 35l17 49c-93 25 -145 115 -147 224h116c2 -74 38 -125 87 -125c48 0 83 39 83 110c0 62 -35 93 -96 124l-31 16c-80 41 -143 89 -143 215c0 127 80 199 187 199c112 0 197 -75 192 -226h-115c0 70 -24 120 -77 120
c-55 0 -73 -46 -73 -92c0 -60 30 -90 77 -113l35 -17c91 -44 159 -106 159 -228c0 -131 -84 -213 -197 -214l-10 -36c45 -13 88 -44 88 -99c0 -57 -43 -94 -91 -94c-56 0 -94 35 -96 93h58c3 -24 15 -37 35 -37c19 0 29 17 29 38c0 22 -14 41 -49 52z" />
    <glyph glyph-name="scedilla" unicode="&#x15f;" horiz-adv-x="393" 
d="M167 -93l-20 6c-18 5 -25 15 -18 35l16 49c-70 18 -114 75 -119 170h111c5 -54 24 -82 63 -82c34 0 54 28 54 72c0 50 -25 72 -82 90c-91 29 -133 79 -133 166c0 96 60 157 155 157c94 0 152 -52 162 -159h-111c-4 42 -19 65 -51 65c-33 0 -48 -23 -48 -59
c0 -43 18 -64 70 -82c75 -26 147 -73 147 -177c0 -105 -62 -167 -160 -168l-10 -36c45 -13 88 -44 88 -99c0 -57 -43 -94 -91 -94c-56 0 -94 35 -96 93h58c3 -24 15 -37 35 -37c19 0 29 17 29 38c0 22 -14 41 -49 52z" />
    <glyph glyph-name="Scaron" unicode="&#x160;" horiz-adv-x="470" 
d="M429 534h-115c0 70 -24 120 -77 120c-55 0 -73 -46 -73 -92c0 -60 30 -90 77 -113l35 -17c91 -44 159 -106 159 -228c0 -131 -84 -214 -198 -214c-128 0 -200 102 -203 231h116c2 -74 38 -125 87 -125c48 0 83 39 83 110c0 62 -35 93 -96 124l-31 16
c-80 41 -143 89 -143 215c0 127 80 199 187 199c112 0 197 -75 192 -226zM279 808h-88l-118 194h92l70 -108l70 108h92z" />
    <glyph glyph-name="scaron" unicode="&#x161;" horiz-adv-x="393" 
d="M356 411h-110c-4 42 -21 65 -52 65c-32 0 -48 -23 -48 -59c0 -41 18 -63 70 -82c75 -28 147 -76 147 -177c0 -105 -62 -168 -161 -168c-104 0 -169 59 -176 177h110c5 -54 26 -82 64 -82c33 0 54 28 54 72c0 48 -27 71 -82 90c-91 32 -133 82 -133 166
c0 96 60 157 155 157c94 0 152 -52 162 -159zM240 628h-88l-118 194h92l70 -108l70 108h92z" />
    <glyph glyph-name="Tcommaaccent" unicode="&#x162;" horiz-adv-x="441" 
d="M278 0h-115v639h-151v111h417v-111h-151v-639zM161 -284v41c48 15 59 48 59 71c0 7 -4 10 -8 10h-44v112h108v-95c0 -62 -27 -127 -115 -139z" />
    <glyph glyph-name="tcommaaccent" unicode="&#x163;" horiz-adv-x="307" 
d="M287 103v-103c-13 -2 -29 -3 -41 -3c-95 0 -144 38 -161 130c-4 22 -6 53 -6 86v244h-67v103h67v140h110v-140h97v-103h-97v-241c0 -30 2 -49 5 -64c9 -40 27 -51 64 -51c9 0 20 1 29 2zM125 -284v41c48 15 59 48 59 71c0 7 -4 10 -8 10h-44v112h108v-95
c0 -62 -27 -127 -115 -139z" />
    <glyph glyph-name="Tcaron" unicode="&#x164;" horiz-adv-x="441" 
d="M278 0h-115v639h-151v111h417v-111h-151v-639zM264 808h-88l-118 194h92l70 -108l70 108h92z" />
    <glyph glyph-name="tcaron" unicode="&#x165;" horiz-adv-x="436" 
d="M287 103v-103c-13 -2 -29 -3 -41 -3c-95 0 -144 38 -161 130c-4 22 -6 53 -6 86v244h-67v103h67v140h110v-140h97v-103h-97v-241c0 -30 2 -49 5 -64c9 -40 27 -51 64 -51c9 0 20 1 29 2zM331 551v41c48 15 59 48 59 71c0 7 -4 10 -8 10h-44v112h108v-95
c0 -62 -27 -127 -115 -139z" />
    <glyph glyph-name="Tbar" unicode="&#x166;" horiz-adv-x="441" 
d="M278 0h-115v369h-127v71h127v199h-151v111h417v-111h-151v-199h127v-71h-127v-369z" />
    <glyph glyph-name="tbar" unicode="&#x167;" horiz-adv-x="323" 
d="M297 103v-103c-13 -2 -29 -3 -41 -3c-95 0 -144 38 -161 130c-4 22 -6 53 -6 86v69h-67v71h67v104h-67v103h67v140h110v-140h97v-103h-97v-104h97v-71h-97v-66c0 -30 2 -49 5 -64c9 -40 27 -51 64 -51c9 0 20 1 29 2z" />
    <glyph glyph-name="Utilde" unicode="&#x168;" horiz-adv-x="516" 
d="M260 -10h-4c-112 0 -172 75 -189 172c-5 27 -7 58 -7 86v502h115v-501c0 -18 1 -43 5 -66c7 -42 29 -82 76 -82h4c47 0 69 40 76 82c4 23 5 48 5 66v501h115v-502c0 -28 -2 -59 -7 -86c-17 -97 -77 -172 -189 -172zM358 948h65c-4 -84 -38 -143 -102 -143
c-27 0 -49 10 -71 34c-29 30 -43 43 -59 43c-17 0 -29 -15 -33 -63h-65c4 84 38 143 102 143c27 0 49 -10 71 -34c29 -30 43 -43 59 -43c17 0 29 15 33 63z" />
    <glyph glyph-name="utilde" unicode="&#x169;" horiz-adv-x="478" 
d="M417 0h-77l-10 75c-24 -55 -73 -85 -125 -85c-82 0 -125 57 -140 137c-5 26 -7 57 -7 91v342h111v-340c0 -11 1 -37 3 -52c5 -39 20 -72 59 -72c36 0 57 32 67 68c5 18 8 38 8 72v324h111v-560zM339 768h65c-4 -84 -38 -143 -102 -143c-27 0 -49 10 -71 34
c-29 30 -43 43 -59 43c-17 0 -29 -15 -33 -63h-65c4 84 38 143 102 143c27 0 49 -10 71 -34c29 -30 43 -43 59 -43c17 0 29 15 33 63z" />
    <glyph glyph-name="Umacron" unicode="&#x16a;" horiz-adv-x="516" 
d="M260 -10h-4c-112 0 -172 75 -189 172c-5 27 -7 58 -7 86v502h115v-501c0 -18 1 -43 5 -66c7 -42 29 -82 76 -82h4c47 0 69 40 76 82c4 23 5 48 5 66v501h115v-502c0 -28 -2 -59 -7 -86c-17 -97 -77 -172 -189 -172zM390 825h-264v72h264v-72z" />
    <glyph glyph-name="umacron" unicode="&#x16b;" horiz-adv-x="478" 
d="M417 0h-77l-10 75c-24 -55 -73 -85 -125 -85c-82 0 -125 57 -140 137c-5 26 -7 57 -7 91v342h111v-340c0 -11 1 -37 3 -52c5 -39 20 -72 59 -72c36 0 57 32 67 68c5 18 8 38 8 72v324h111v-560zM371 645h-264v72h264v-72z" />
    <glyph glyph-name="Ubreve" unicode="&#x16c;" horiz-adv-x="516" 
d="M260 -10h-4c-112 0 -172 75 -189 172c-5 27 -7 58 -7 86v502h115v-501c0 -18 1 -43 5 -66c7 -42 29 -82 76 -82h4c47 0 69 40 76 82c4 23 5 48 5 66v501h115v-502c0 -28 -2 -59 -7 -86c-17 -97 -77 -172 -189 -172zM324 974h77c-5 -114 -62 -171 -143 -171
s-138 57 -143 171h77c6 -68 31 -96 66 -96s60 28 66 96z" />
    <glyph glyph-name="ubreve" unicode="&#x16d;" horiz-adv-x="478" 
d="M417 0h-77l-10 75c-24 -55 -73 -85 -125 -85c-82 0 -125 57 -140 137c-5 26 -7 57 -7 91v342h111v-340c0 -11 1 -37 3 -52c5 -39 20 -72 59 -72c36 0 57 32 67 68c5 18 8 38 8 72v324h111v-560zM305 794h77c-5 -114 -62 -171 -143 -171s-138 57 -143 171h77
c6 -68 31 -96 66 -96s60 28 66 96z" />
    <glyph glyph-name="Uring" unicode="&#x16e;" horiz-adv-x="516" 
d="M260 -10h-4c-112 0 -172 75 -189 172c-5 27 -7 58 -7 86v502h115v-501c0 -18 1 -43 5 -66c7 -42 29 -82 76 -82h4c47 0 69 40 76 82c4 23 5 48 5 66v501h115v-502c0 -28 -2 -59 -7 -86c-17 -97 -77 -172 -189 -172zM258 794c-60 0 -105 49 -105 116s45 116 105 116
s105 -49 105 -116s-45 -116 -105 -116zM258 846c26 0 46 26 46 64s-20 64 -46 64s-46 -26 -46 -64s20 -64 46 -64z" />
    <glyph glyph-name="uring" unicode="&#x16f;" horiz-adv-x="478" 
d="M417 0h-77l-10 75c-24 -55 -73 -85 -125 -85c-82 0 -125 57 -140 137c-5 26 -7 57 -7 91v342h111v-340c0 -11 1 -37 3 -52c5 -39 20 -72 59 -72c36 0 57 32 67 68c5 18 8 38 8 72v324h111v-560zM239 614c-60 0 -105 49 -105 116s45 116 105 116s105 -49 105 -116
s-45 -116 -105 -116zM239 666c26 0 46 26 46 64s-20 64 -46 64s-46 -26 -46 -64s20 -64 46 -64z" />
    <glyph glyph-name="Uhungarumlaut" unicode="&#x170;" horiz-adv-x="516" 
d="M260 -10h-4c-112 0 -172 75 -189 172c-5 27 -7 58 -7 86v502h115v-501c0 -18 1 -43 5 -66c7 -42 29 -82 76 -82h4c47 0 69 40 76 82c4 23 5 48 5 66v501h115v-502c0 -28 -2 -59 -7 -86c-17 -97 -77 -172 -189 -172zM187 807h-82l86 182h116v-3zM351 807h-82l86 182h116
v-3z" />
    <glyph glyph-name="uhungarumlaut" unicode="&#x171;" horiz-adv-x="478" 
d="M417 0h-77l-10 75c-24 -55 -73 -85 -125 -85c-82 0 -125 57 -140 137c-5 26 -7 57 -7 91v342h111v-340c0 -11 1 -37 3 -52c5 -39 20 -72 59 -72c36 0 57 32 67 68c5 18 8 38 8 72v324h111v-560zM170 627h-82l86 182h116v-3zM334 627h-82l86 182h116v-3z" />
    <glyph glyph-name="Uogonek" unicode="&#x172;" horiz-adv-x="516" 
d="M347 -147l23 -53c-22 -19 -58 -31 -87 -31c-56 0 -105 31 -105 98c0 46 26 87 68 123c-106 4 -163 77 -179 172c-5 27 -7 58 -7 86v502h115v-501c0 -18 1 -43 5 -66c7 -42 29 -82 76 -82h4c47 0 69 40 76 82c4 23 5 48 5 66v501h115v-502c0 -28 -2 -59 -7 -86
c-8 -42 -24 -79 -47 -109c-41 -53 -148 -102 -148 -177c0 -25 13 -42 39 -42c20 0 35 6 54 19z" />
    <glyph glyph-name="uogonek" unicode="&#x173;" horiz-adv-x="478" 
d="M419 -147l23 -53c-22 -19 -58 -31 -87 -31c-56 0 -105 31 -105 98c0 54 34 100 89 139l-9 69c-24 -55 -73 -85 -125 -85c-82 0 -125 57 -140 137c-5 26 -7 57 -7 91v342h111v-340c0 -11 1 -37 3 -52c5 -39 20 -72 59 -72c36 0 57 32 67 68c5 18 8 38 8 72v324h111v-560
c-64 -49 -91 -89 -91 -124c0 -25 13 -42 39 -42c20 0 35 6 54 19z" />
    <glyph glyph-name="Wcircumflex" unicode="&#x174;" horiz-adv-x="688" 
d="M560 0h-140l-75 519h-2l-75 -519h-140l-114 750h120l66 -548h2l77 548h130l77 -548h2l66 548h120zM506 808h-92l-70 108l-70 -108h-92l118 194h88z" />
    <glyph glyph-name="wcircumflex" unicode="&#x175;" horiz-adv-x="583" 
d="M470 0h-115l-63 363h-1l-63 -363h-115l-106 560h111l58 -375h1l63 375h103l63 -375h1l58 375h111zM453 628h-92l-70 108l-70 -108h-92l118 194h88z" />
    <glyph glyph-name="Ycircumflex" unicode="&#x176;" horiz-adv-x="455" 
d="M285 0h-115v327l-175 423h123l109 -288h1l109 288h123l-175 -423v-327zM389 808h-92l-70 108l-70 -108h-92l118 194h88z" />
    <glyph glyph-name="ycircumflex" unicode="&#x177;" horiz-adv-x="408" 
d="M2 -203v102c17 -5 34 -9 55 -9c34 0 59 21 76 81l18 65c-48 170 -101 353 -148 524h116l87 -353h1l83 353h116l-158 -576c-40 -145 -87 -200 -171 -200c-28 0 -51 5 -75 13zM366 628h-92l-70 108l-70 -108h-92l118 194h88z" />
    <glyph glyph-name="Ydieresis" unicode="&#x178;" horiz-adv-x="455" 
d="M285 0h-115v327l-175 423h123l109 -288h1l109 288h123l-175 -423v-327zM198 824h-110v116h110v-116zM366 824h-110v116h110v-116z" />
    <glyph glyph-name="Zacute" unicode="&#x179;" horiz-adv-x="464" 
d="M431 0h-401v98l261 541h-251v111h386v-97l-262 -542h267v-111zM235 807h-82l88 181h121v-6z" />
    <glyph glyph-name="zacute" unicode="&#x17a;" horiz-adv-x="404" 
d="M378 0h-351v87l210 368h-201v105h331v-89l-209 -366h220v-105zM212 627h-82l88 181h121v-6z" />
    <glyph glyph-name="Zdotaccent" unicode="&#x17b;" horiz-adv-x="464" 
d="M431 0h-401v98l261 541h-251v111h386v-97l-262 -542h267v-111zM291 823h-117v120h117v-120z" />
    <glyph glyph-name="zdotaccent" unicode="&#x17c;" horiz-adv-x="404" 
d="M378 0h-351v87l210 368h-201v105h331v-89l-209 -366h220v-105zM259 643h-117v120h117v-120z" />
    <glyph glyph-name="Zcaron" unicode="&#x17d;" horiz-adv-x="464" 
d="M431 0h-401v98l261 541h-251v111h386v-97l-262 -542h267v-111zM276 808h-88l-118 194h92l70 -108l70 108h92z" />
    <glyph glyph-name="zcaron" unicode="&#x17e;" horiz-adv-x="404" 
d="M378 0h-351v87l210 368h-201v105h331v-89l-209 -366h220v-105zM245 628h-88l-118 194h92l70 -108l70 108h92z" />
    <glyph glyph-name="longs" unicode="&#x17f;" horiz-adv-x="257" 
d="M189 0h-111v457h-66v103h66v43c0 132 66 193 166 193c21 0 40 -2 53 -4v-106c-14 2 -28 4 -42 4c-45 0 -66 -23 -66 -90v-600z" />
    <glyph glyph-name="florin" unicode="&#x192;" horiz-adv-x="496" 
d="M456 0h-416v750h416v-750zM88 92l133 282l-133 279v-561zM408 92v561l-133 -279zM248 428l130 272h-260zM376 50l-128 269l-128 -269h256z" />
    <glyph glyph-name="dotlessj" unicode="&#x237;" horiz-adv-x="236" 
d="M-44 -233v106c14 -2 28 -4 42 -4c45 0 66 23 66 90v601h111v-604c0 -132 -66 -193 -166 -193c-21 0 -40 2 -53 4z" />
    <glyph glyph-name="circumflex" unicode="&#x2c6;" 
d="M381 658h-92l-70 108l-70 -108h-92l118 194h88z" />
    <glyph glyph-name="caron" unicode="&#x2c7;" 
d="M263 658h-88l-118 194h92l70 -108l70 108h92z" />
    <glyph glyph-name="breve" unicode="&#x2d8;" 
d="M285 824h77c-5 -114 -62 -171 -143 -171s-138 57 -143 171h77c6 -68 31 -96 66 -96s60 28 66 96z" />
    <glyph glyph-name="dotaccent" unicode="&#x2d9;" 
d="M277 673h-117v120h117v-120z" />
    <glyph glyph-name="ring" unicode="&#x2da;" 
d="M219 644c-60 0 -105 49 -105 116s45 116 105 116s105 -49 105 -116s-45 -116 -105 -116zM219 696c26 0 46 26 46 64s-20 64 -46 64s-46 -26 -46 -64s20 -64 46 -64z" />
    <glyph glyph-name="ogonek" unicode="&#x2db;" 
d="M294 -147l23 -53c-22 -19 -58 -31 -87 -31c-56 0 -105 31 -105 98c0 63 49 116 121 160l46 -27c-64 -49 -91 -89 -91 -124c0 -25 13 -42 39 -42c20 0 35 6 54 19z" />
    <glyph glyph-name="tilde" unicode="&#x2dc;" 
d="M319 798h65c-4 -84 -38 -143 -102 -143c-27 0 -49 10 -71 34c-29 30 -43 43 -59 43c-17 0 -29 -15 -33 -63h-65c4 84 38 143 102 143c27 0 49 -10 71 -34c29 -30 43 -43 59 -43c17 0 29 15 33 63z" />
    <glyph glyph-name="hungarumlaut" unicode="&#x2dd;" 
d="M160 657h-82l86 182h116v-3zM324 657h-82l86 182h116v-3z" />
    <glyph glyph-name="Delta" unicode="&#x394;" horiz-adv-x="496" 
d="M456 0h-416v750h416v-750zM88 92l133 282l-133 279v-561zM408 92v561l-133 -279zM248 428l130 272h-260zM376 50l-128 269l-128 -269h256z" />
    <glyph glyph-name="Delta" unicode="&#x2206;" horiz-adv-x="496" 
d="M456 0h-416v750h416v-750zM88 92l133 282l-133 279v-561zM408 92v561l-133 -279zM248 428l130 272h-260zM376 50l-128 269l-128 -269h256z" />
    <glyph glyph-name="Omega" unicode="&#x3a9;" horiz-adv-x="496" 
d="M456 0h-416v750h416v-750zM88 92l133 282l-133 279v-561zM408 92v561l-133 -279zM248 428l130 272h-260zM376 50l-128 269l-128 -269h256z" />
    <glyph glyph-name="Omega" unicode="&#x2126;" horiz-adv-x="496" 
d="M456 0h-416v750h416v-750zM88 92l133 282l-133 279v-561zM408 92v561l-133 -279zM248 428l130 272h-260zM376 50l-128 269l-128 -269h256z" />
    <glyph glyph-name="pi" unicode="&#x3c0;" horiz-adv-x="496" 
d="M456 0h-416v750h416v-750zM88 92l133 282l-133 279v-561zM408 92v561l-133 -279zM248 428l130 272h-260zM376 50l-128 269l-128 -269h256z" />
    <glyph glyph-name="uni0400" unicode="&#x400;" horiz-adv-x="452" 
d="M310 807h-82l-127 175v6h121zM424 0h-360v750h360v-111h-245v-199h203v-111h-203v-218h245v-111z" />
    <glyph glyph-name="afii10023" unicode="&#x401;" horiz-adv-x="452" 
d="M424 0h-360v750h360v-111h-245v-199h203v-111h-203v-218h245v-111zM212 813h-110v116h110v-116zM380 813h-110v116h110v-116z" />
    <glyph glyph-name="afii10051" unicode="&#x402;" horiz-adv-x="579" 
d="M303 0v110c28 -1 53 3 64 7c48 17 64 66 64 110c0 49 -19 85 -65 104c-11 4 -27 7 -46 7h-68v-338h-115v639h-125v111h380v-111h-140v-191h70c26 0 48 -2 66 -6c107 -24 158 -109 158 -215c0 -112 -53 -195 -150 -219c-20 -5 -49 -8 -93 -8z" />
    <glyph glyph-name="afii10052" unicode="&#x403;" horiz-adv-x="436" 
d="M179 0h-115v750h354v-111h-239v-639zM248 807h-82l88 181h121v-6z" />
    <glyph glyph-name="afii10053" unicode="&#x404;" horiz-adv-x="485" 
d="M253 -10h-4c-112 0 -172 75 -189 172c-5 27 -7 58 -7 86v254c0 28 2 59 7 86c17 97 77 172 189 172h4c112 0 173 -74 193 -172c3 -15 6 -32 7 -47h-115c-1 9 -2 17 -4 26c-9 42 -34 82 -81 82h-4c-47 0 -69 -40 -76 -82c-4 -23 -5 -48 -5 -66v-60h175v-111h-175v-81
c0 -18 1 -43 5 -66c7 -42 29 -82 76 -82h4c47 0 71 40 80 82c2 11 3 21 4 32l115 1c-1 -19 -3 -38 -6 -54c-17 -97 -81 -172 -193 -172z" />
    <glyph glyph-name="afii10054" unicode="&#x405;" horiz-adv-x="470" 
d="M429 534h-115c0 70 -24 120 -77 120c-55 0 -73 -46 -73 -92c0 -60 30 -90 77 -113l35 -17c91 -44 159 -106 159 -228c0 -131 -84 -214 -198 -214c-128 0 -200 102 -203 231h116c2 -74 38 -125 87 -125c48 0 83 39 83 110c0 62 -35 93 -96 124l-31 16
c-80 41 -143 89 -143 215c0 127 80 199 187 199c112 0 197 -75 192 -226z" />
    <glyph glyph-name="afii10055" unicode="&#x406;" horiz-adv-x="243" 
d="M179 0h-115v750h115v-750z" />
    <glyph glyph-name="afii10056" unicode="&#x407;" horiz-adv-x="243" 
d="M179 0h-115v750h115v-750zM92 824h-110v116h110v-116zM260 824h-110v116h110v-116z" />
    <glyph glyph-name="afii10057" unicode="&#x408;" horiz-adv-x="447" 
d="M272 216v534h115v-534c0 -25 -1 -41 -3 -57c-13 -98 -69 -169 -174 -169c-101 0 -158 63 -173 165c-2 17 -4 34 -4 62v59h115v-60c0 -22 2 -37 4 -50c6 -39 27 -65 58 -65c30 0 51 22 58 63c2 12 4 28 4 52z" />
    <glyph glyph-name="afii10058" unicode="&#x409;" horiz-adv-x="750" 
d="M492 0h-165v639h-100l-12 -288c-6 -152 -22 -339 -211 -353v115c81 10 92 128 96 242l14 395h328v-287h51c23 0 48 -2 65 -6c108 -25 159 -118 159 -224c0 -112 -53 -199 -150 -225c-20 -5 -46 -8 -75 -8zM442 111h49c22 0 37 2 48 6c48 17 63 70 63 116
c0 50 -18 96 -64 112c-11 4 -27 6 -47 6h-49v-240z" />
    <glyph glyph-name="afii10059" unicode="&#x40a;" horiz-adv-x="745" 
d="M487 0h-165v351h-143v-351h-115v750h115v-287h143v287h115v-287h51c24 0 48 -2 65 -6c108 -25 159 -118 159 -224c0 -112 -53 -199 -150 -225c-20 -5 -47 -8 -75 -8zM437 111h49c21 0 37 2 48 6c48 17 63 70 63 116c0 50 -18 96 -64 112c-11 4 -28 6 -47 6h-49v-240z" />
    <glyph glyph-name="afii10060" unicode="&#x40b;" horiz-adv-x="594" 
d="M530 0h-115v180c0 25 -1 52 -3 67c-8 53 -34 91 -103 91h-57v-338h-115v639h-125v111h380v-111h-140v-191h58c141 0 202 -73 217 -189c2 -19 3 -50 3 -80v-179z" />
    <glyph glyph-name="afii10061" unicode="&#x40c;" horiz-adv-x="523" 
d="M513 0h-125l-143 335h-66v-335h-115v750h115v-304h57c50 0 70 33 81 107l8 53c15 96 46 148 128 148c16 0 41 -2 57 -6v-101c-9 2 -15 3 -25 3c-35 0 -42 -21 -50 -71l-6 -38c-13 -83 -27 -137 -83 -171zM299 807h-82l88 181h121v-6z" />
    <glyph glyph-name="uni040D" unicode="&#x40d;" horiz-adv-x="532" 
d="M468 0h-109v451c0 25 2 62 2 62h-1l-172 -513h-124v750h109v-450c0 -25 -2 -62 -2 -62h1l172 512h124v-750zM333 807h-82l-127 175v6h121z" />
    <glyph glyph-name="afii10062" unicode="&#x40e;" horiz-adv-x="470" 
d="M43 3v109c19 -6 37 -10 57 -10c47 0 69 21 83 77l-167 571h119l107 -414h2l98 414h118l-165 -596c-33 -121 -89 -164 -171 -164c-35 0 -59 6 -81 13zM305 979h79c-6 -114 -62 -171 -143 -171s-137 57 -143 171h79c3 -69 29 -100 64 -100s61 31 64 100z" />
    <glyph glyph-name="afii10145" unicode="&#x40f;" horiz-adv-x="529" 
d="M318 -247h-107v247h-147v750h115v-639h171v639h115v-750h-147v-247z" />
    <glyph glyph-name="afii10017" unicode="&#x410;" horiz-adv-x="474" 
d="M288 329l-50 260h-2l-50 -260h102zM468 0h-117l-42 219h-144l-42 -219h-117l158 750h146z" />
    <glyph glyph-name="afii10018" unicode="&#x411;" horiz-adv-x="489" 
d="M229 0h-165v750h348v-111h-233v-176h49c28 0 50 -2 67 -6c108 -24 159 -118 159 -224c0 -112 -53 -199 -150 -225c-20 -5 -43 -8 -75 -8zM179 111h49c25 0 37 2 48 6c48 17 63 70 63 116c0 50 -18 96 -64 112c-11 4 -24 6 -47 6h-49v-240z" />
    <glyph glyph-name="afii10019" unicode="&#x412;" horiz-adv-x="494" 
d="M240 0h-176v750h159c40 0 67 -4 91 -10c82 -22 127 -83 127 -185c0 -66 -27 -125 -85 -161c73 -36 103 -107 103 -176c0 -123 -61 -204 -178 -216c-10 -1 -21 -2 -41 -2zM179 111h61c18 0 29 1 37 3c46 11 66 53 66 106c0 52 -18 90 -60 104c-11 4 -26 6 -49 6h-55v-219z
M179 439h47c21 0 35 2 46 6c36 13 55 47 55 102c0 47 -17 75 -50 86c-11 4 -29 6 -50 6h-48v-200z" />
    <glyph glyph-name="afii10020" unicode="&#x413;" horiz-adv-x="436" 
d="M179 0h-115v750h354v-111h-239v-639z" />
    <glyph glyph-name="afii10021" unicode="&#x414;" horiz-adv-x="581" 
d="M573 -247h-107v247h-351v-247h-107v358h29c64 0 83 129 87 244l14 395h352v-639h83v-358zM375 111v528h-124l-12 -288c-4 -87 -10 -176 -52 -240h188z" />
    <glyph glyph-name="afii10022" unicode="&#x415;" horiz-adv-x="452" 
d="M424 0h-360v750h360v-111h-245v-199h203v-111h-203v-218h245v-111z" />
    <glyph glyph-name="afii10024" unicode="&#x416;" horiz-adv-x="753" 
d="M743 0h-125l-143 335h-43v-335h-111v335h-43l-143 -335h-125l167 370c-56 34 -70 88 -83 171l-6 38c-8 50 -15 71 -50 71c-10 0 -16 -1 -25 -3v101c16 4 41 6 57 6c82 0 113 -52 128 -148l8 -53c11 -74 31 -107 81 -107h34v304h111v-304h34c50 0 70 33 81 107l8 53
c15 96 46 148 128 148c16 0 41 -2 57 -6v-101c-9 2 -15 3 -25 3c-35 0 -42 -21 -50 -71l-6 -38c-13 -83 -27 -137 -83 -171z" />
    <glyph glyph-name="afii10025" unicode="&#x417;" horiz-adv-x="465" 
d="M209 327h-73v103h73c74 0 102 57 102 115c0 70 -35 105 -79 105c-54 0 -84 -41 -85 -111h-114c0 129 75 221 199 221c111 0 194 -77 194 -205c0 -75 -28 -134 -91 -176c65 -42 95 -105 95 -175c0 -125 -84 -214 -198 -214c-124 0 -199 92 -199 221h114
c1 -70 31 -111 85 -111c47 0 83 38 83 108c0 60 -31 119 -106 119z" />
    <glyph glyph-name="afii10026" unicode="&#x418;" horiz-adv-x="532" 
d="M468 0h-109v451c0 25 2 62 2 62h-1l-172 -513h-124v750h109v-450c0 -25 -2 -62 -2 -62h1l172 512h124v-750z" />
    <glyph glyph-name="afii10027" unicode="&#x419;" horiz-adv-x="532" 
d="M468 0h-109v451c0 25 2 62 2 62h-1l-172 -513h-124v750h109v-450c0 -25 -2 -62 -2 -62h1l172 512h124v-750zM332 979h79c-6 -114 -62 -171 -143 -171s-137 57 -143 171h79c3 -69 29 -100 64 -100s61 31 64 100z" />
    <glyph glyph-name="afii10028" unicode="&#x41a;" horiz-adv-x="523" 
d="M513 0h-125l-143 335h-66v-335h-115v750h115v-304h57c50 0 70 33 81 107l8 53c15 96 46 148 128 148c16 0 41 -2 57 -6v-101c-9 2 -15 3 -25 3c-35 0 -42 -21 -50 -71l-6 -38c-13 -83 -27 -137 -83 -171z" />
    <glyph glyph-name="afii10029" unicode="&#x41b;" horiz-adv-x="536" 
d="M472 0h-115v639h-130l-12 -288c-6 -152 -22 -339 -211 -353v115c81 10 92 128 96 242l14 395h358v-750z" />
    <glyph glyph-name="afii10030" unicode="&#x41c;" horiz-adv-x="628" 
d="M564 0h-109v425c0 25 1 58 1 58h-1l-98 -344h-86l-98 344h-1s1 -33 1 -58v-425h-109v750h128l122 -423l122 423h128v-750z" />
    <glyph glyph-name="afii10031" unicode="&#x41d;" horiz-adv-x="533" 
d="M469 0h-115v335h-175v-335h-115v750h115v-304h175v304h115v-750z" />
    <glyph glyph-name="afii10032" unicode="&#x41e;" horiz-adv-x="502" 
d="M249 101h4c47 0 69 40 76 82c4 23 5 48 5 66v252c0 18 -1 43 -5 66c-7 42 -29 82 -76 82h-4c-47 0 -69 -40 -76 -82c-4 -23 -5 -48 -5 -66v-252c0 -18 1 -43 5 -66c7 -42 29 -82 76 -82zM253 -10h-4c-112 0 -172 75 -189 172c-5 27 -7 58 -7 86v254c0 28 2 59 7 86
c17 97 77 172 189 172h4c112 0 172 -75 189 -172c5 -27 7 -58 7 -86v-254c0 -28 -2 -59 -7 -86c-17 -97 -77 -172 -189 -172z" />
    <glyph glyph-name="afii10033" unicode="&#x41f;" horiz-adv-x="529" 
d="M465 0h-115v639h-171v-639h-115v750h401v-750z" />
    <glyph glyph-name="afii10034" unicode="&#x420;" horiz-adv-x="490" 
d="M179 399h52c23 0 36 2 47 6c46 16 64 62 64 112c0 46 -15 99 -63 116c-11 4 -23 6 -48 6h-52v-240zM179 0h-115v750h168c32 0 55 -3 75 -8c97 -26 150 -113 150 -225c0 -106 -51 -200 -159 -224c-17 -4 -37 -6 -65 -6h-54v-287z" />
    <glyph glyph-name="afii10035" unicode="&#x421;" horiz-adv-x="481" 
d="M253 -10h-4c-112 0 -172 75 -189 172c-5 27 -7 58 -7 86v254c0 28 2 59 7 86c17 97 77 172 189 172h4c112 0 172 -75 189 -172c5 -26 7 -56 7 -83h-115c0 17 -2 40 -5 62c-7 42 -29 82 -76 82h-4c-47 0 -69 -40 -76 -82c-4 -23 -5 -48 -5 -66v-252c0 -18 1 -43 5 -66
c7 -42 29 -82 76 -82h4c47 0 69 40 76 82c3 22 5 47 5 67h115c0 -30 -2 -62 -7 -88c-17 -97 -77 -172 -189 -172z" />
    <glyph glyph-name="afii10036" unicode="&#x422;" horiz-adv-x="441" 
d="M278 0h-115v639h-151v111h417v-111h-151v-639z" />
    <glyph glyph-name="afii10037" unicode="&#x423;" horiz-adv-x="470" 
d="M43 3v109c19 -6 37 -10 57 -10c47 0 69 21 83 77l-167 571h119l107 -414h2l98 414h118l-165 -596c-33 -121 -89 -164 -171 -164c-35 0 -59 6 -81 13z" />
    <glyph glyph-name="afii10038" unicode="&#x424;" horiz-adv-x="621" 
d="M368 202h14c32 0 63 16 78 64c7 21 10 51 10 84v50c0 33 -3 63 -10 84c-15 48 -46 64 -78 64h-14v-346zM368 -40h-115v131h-14c-87 0 -161 52 -189 144c-9 30 -14 66 -14 115v50c0 49 5 85 14 115c28 92 102 144 189 144h14v131h115v-131h14c87 0 161 -52 189 -144
c9 -30 14 -66 14 -115v-50c0 -49 -5 -85 -14 -115c-28 -92 -102 -144 -189 -144h-14v-131zM253 202v346h-14c-32 0 -63 -16 -78 -64c-7 -21 -10 -51 -10 -84v-50c0 -33 3 -63 10 -84c15 -48 46 -64 78 -64h14z" />
    <glyph glyph-name="afii10039" unicode="&#x425;" horiz-adv-x="459" 
d="M459 0h-125l-104 264c-35 -84 -69 -180 -104 -264h-126l170 391l-152 359h126l86 -228l86 228h126l-152 -359z" />
    <glyph glyph-name="afii10040" unicode="&#x426;" horiz-adv-x="569" 
d="M560 -247h-107v247h-389v750h115v-639h171v639h115v-639h95v-358z" />
    <glyph glyph-name="afii10041" unicode="&#x427;" horiz-adv-x="509" 
d="M445 0h-115v283c-25 -3 -47 -4 -70 -4c-130 0 -198 77 -212 190c-2 19 -3 50 -3 80v201h115v-201c0 -25 1 -50 3 -64c8 -56 36 -97 100 -97c23 0 47 2 67 5v357h115v-750z" />
    <glyph glyph-name="afii10042" unicode="&#x428;" horiz-adv-x="701" 
d="M637 0h-573v750h115v-639h114v639h115v-639h114v639h115v-750z" />
    <glyph glyph-name="afii10043" unicode="&#x429;" horiz-adv-x="741" 
d="M732 -247h-107v247h-561v750h115v-639h114v639h115v-639h114v639h115v-639h95v-358z" />
    <glyph glyph-name="afii10044" unicode="&#x42a;" horiz-adv-x="597" 
d="M339 0h-174v639h-153v111h268v-287h60c25 0 48 -2 65 -6c108 -24 159 -118 159 -224c0 -112 -53 -199 -150 -225c-20 -5 -45 -8 -75 -8zM280 111h58c25 0 37 2 48 6c48 17 63 70 63 116c0 50 -18 96 -64 112c-11 4 -24 6 -47 6h-58v-240z" />
    <glyph glyph-name="afii10045" unicode="&#x42b;" horiz-adv-x="695" 
d="M179 111h36c25 0 37 2 48 6c48 17 63 70 63 116c0 50 -18 96 -64 112c-11 4 -24 6 -47 6h-36v-240zM216 0h-152v750h115v-287h38c28 0 48 -2 65 -6c108 -24 159 -118 159 -224c0 -112 -53 -199 -150 -225c-20 -5 -43 -8 -75 -8zM631 0h-115v750h115v-750z" />
    <glyph glyph-name="afii10046" unicode="&#x42c;" horiz-adv-x="496" 
d="M179 111h58c22 0 37 2 48 6c48 17 63 70 63 116c0 50 -18 96 -64 112c-11 4 -27 6 -47 6h-58v-240zM238 0h-174v750h115v-287h60c25 0 48 -2 65 -6c108 -24 159 -118 159 -224c0 -112 -53 -199 -150 -225c-20 -5 -46 -8 -75 -8z" />
    <glyph glyph-name="afii10047" unicode="&#x42d;" horiz-adv-x="485" 
d="M236 -10h-4c-112 0 -176 75 -193 172c-3 16 -5 35 -6 54l115 -1c1 -11 2 -21 4 -32c9 -42 33 -82 80 -82h4c47 0 69 40 76 82c4 23 5 48 5 66v81h-175v111h175v60c0 18 -1 43 -5 66c-7 42 -29 82 -76 82h-4c-47 0 -72 -40 -81 -82c-2 -9 -3 -17 -4 -26h-115
c1 16 4 32 7 47c20 98 81 172 193 172h4c112 0 172 -75 189 -172c5 -27 7 -58 7 -86v-254c0 -28 -2 -59 -7 -86c-17 -97 -77 -172 -189 -172z" />
    <glyph glyph-name="afii10048" unicode="&#x42e;" horiz-adv-x="708" 
d="M462 -10h-4c-112 0 -169 75 -186 172c-5 27 -7 58 -7 86v87h-86v-335h-115v750h115v-305h86v57c0 28 2 59 7 86c17 97 74 172 186 172h4c112 0 169 -75 186 -172c5 -27 7 -58 7 -86v-254c0 -28 -2 -59 -7 -86c-17 -97 -74 -172 -186 -172zM458 101h4c47 0 66 40 73 82
c4 23 5 48 5 66v252c0 18 -1 43 -5 66c-7 42 -26 82 -73 82h-4c-47 0 -66 -40 -73 -82c-4 -23 -5 -48 -5 -66v-252c0 -18 1 -43 5 -66c7 -42 26 -82 73 -82z" />
    <glyph glyph-name="afii10049" unicode="&#x42f;" horiz-adv-x="501" 
d="M437 0h-115v318h-49c-24 0 -36 -2 -47 -5c-32 -10 -46 -38 -50 -91l-9 -132c-2 -34 -9 -68 -25 -90h-120v2c21 19 28 53 31 97l8 138c5 74 33 114 92 142v1c-68 35 -101 99 -101 171c0 114 58 177 154 194c18 3 41 5 67 5h164v-750zM322 427v212h-45c-20 0 -34 -2 -44 -4
c-43 -8 -66 -36 -66 -93c0 -55 21 -98 65 -111c9 -3 22 -4 42 -4h48z" />
    <glyph glyph-name="afii10065" unicode="&#x430;" horiz-adv-x="443" 
d="M385 0h-77l-9 65c-27 -50 -67 -75 -117 -75c-79 0 -144 64 -144 186c0 91 48 157 141 172c14 2 30 4 56 4h39v21c0 22 -2 37 -4 48c-7 34 -24 50 -51 50c-28 0 -48 -23 -54 -61h-109c14 98 76 160 167 160s146 -56 158 -160c2 -20 4 -48 4 -76v-334zM275 241v19h-43
c-21 0 -33 -2 -42 -6c-27 -12 -42 -39 -42 -76c0 -58 18 -90 55 -90c36 0 57 37 66 81c4 20 6 44 6 72z" />
    <glyph glyph-name="afii10066" unicode="&#x431;" horiz-adv-x="441" 
d="M287 229v64c0 29 -2 50 -4 66c-6 43 -21 67 -54 67c-47 0 -72 -62 -72 -133v-64c0 -31 1 -50 4 -67c7 -42 27 -67 61 -67s54 25 61 67c3 17 4 36 4 67zM398 300v-73c0 -32 -2 -53 -5 -73c-16 -96 -71 -164 -171 -164s-155 68 -171 164c-3 20 -5 41 -5 73v262
c0 171 58 264 200 283l127 17v-102l-106 -17c-78 -12 -110 -54 -110 -159v-25c21 29 55 44 88 44c88 0 135 -63 148 -157c3 -19 5 -46 5 -73z" />
    <glyph glyph-name="afii10067" unicode="&#x432;" horiz-adv-x="431" 
d="M214 0h-153v560h136c34 0 59 -3 79 -7c71 -15 111 -63 111 -136c0 -51 -19 -92 -68 -123c61 -32 83 -83 83 -130c0 -90 -57 -151 -154 -163c-8 -1 -19 -1 -34 -1zM172 101h43c11 0 21 2 26 3c31 6 49 32 49 66c0 31 -15 54 -44 63c-9 3 -21 5 -35 5h-39v-137zM172 339h32
c15 0 26 2 33 4c25 7 40 28 40 62c0 28 -13 43 -35 50c-7 2 -21 4 -36 4h-34v-120z" />
    <glyph glyph-name="afii10068" unicode="&#x433;" horiz-adv-x="375" 
d="M172 0h-111v560h300v-105h-189v-455z" />
    <glyph glyph-name="afii10069" unicode="&#x434;" horiz-adv-x="505" 
d="M493 -203h-101v203h-279v-203h-101v308h42c37 0 51 85 54 161l11 294h305v-455h69v-308zM315 105v352h-92l-9 -195c-3 -63 -12 -114 -40 -157h141z" />
    <glyph glyph-name="afii10070" unicode="&#x435;" horiz-adv-x="437" 
d="M395 253h-241v-27c0 -31 1 -50 4 -67c7 -42 27 -67 61 -67c40 0 59 38 62 75h110c-14 -109 -72 -177 -172 -177s-155 68 -171 164c-3 20 -5 41 -5 73v106c0 32 2 53 5 73c16 96 71 164 171 164s155 -68 170 -164c5 -29 6 -51 6 -103v-50zM154 347h130c0 16 -1 36 -4 53
c-7 42 -27 68 -61 68s-54 -26 -61 -68c-2 -15 -4 -30 -4 -53z" />
    <glyph glyph-name="afii10072" unicode="&#x436;" horiz-adv-x="629" 
d="M619 0h-119l-107 245h-25v-245h-107v245h-25l-107 -245h-119l131 276c-38 28 -47 57 -57 119l-4 25c-5 34 -16 49 -38 49c-9 0 -17 -2 -24 -4l-2 93c15 4 39 7 59 7c71 0 98 -43 109 -117l6 -41c6 -43 21 -66 55 -66h16v219h107v-219h16c34 0 49 23 55 66l6 41
c11 74 38 117 109 117c20 0 44 -3 59 -7l-2 -93c-7 2 -15 4 -24 4c-22 0 -33 -15 -38 -49l-4 -25c-10 -62 -19 -91 -57 -119z" />
    <glyph glyph-name="afii10073" unicode="&#x437;" horiz-adv-x="394" 
d="M176 237h-56v92h56c61 0 79 36 79 74c0 44 -23 67 -61 67c-42 0 -65 -23 -65 -73h-104c0 104 65 173 175 173c95 0 162 -61 162 -151c0 -53 -22 -103 -74 -136c57 -29 77 -78 77 -131c0 -86 -60 -162 -165 -162c-110 0 -175 71 -175 174h105c0 -48 22 -74 67 -74
c37 0 61 27 61 70c0 39 -23 77 -82 77z" />
    <glyph glyph-name="afii10074" unicode="&#x438;" horiz-adv-x="469" 
d="M408 0h-104v298c0 18 2 40 3 60h-1l-132 -358h-113v560h104v-298c0 -18 -2 -40 -3 -60h1l132 358h113v-560z" />
    <glyph glyph-name="afii10075" unicode="&#x439;" horiz-adv-x="469" 
d="M408 0h-104v298c0 18 2 40 3 60h-1l-132 -358h-113v560h104v-298c0 -18 -2 -40 -3 -60h1l132 358h113v-560zM298 799h79c-6 -114 -62 -171 -143 -171s-137 57 -143 171h79c3 -69 29 -100 64 -100s61 31 64 100z" />
    <glyph glyph-name="afii10076" unicode="&#x43a;" horiz-adv-x="445" 
d="M437 0h-121l-109 243h-35v-243h-111v560h111v-219h28c34 0 49 23 55 66l6 41c11 74 38 117 109 117c20 0 44 -3 59 -7l-2 -93c-7 2 -15 4 -24 4c-22 0 -33 -15 -38 -49l-4 -25c-10 -62 -21 -93 -59 -121z" />
    <glyph glyph-name="afii10077" unicode="&#x43b;" horiz-adv-x="461" 
d="M400 0h-111v455h-92l-9 -193c-7 -128 -27 -251 -184 -264v107c59 3 73 76 76 161l11 294h309v-560z" />
    <glyph glyph-name="afii10078" unicode="&#x43c;" horiz-adv-x="542" 
d="M481 0h-104v286c0 20 1 43 3 66h-2l-71 -236h-72l-71 236h-2c2 -23 3 -46 3 -66v-286h-104v560h120l90 -301l90 301h120v-560z" />
    <glyph glyph-name="afii10079" unicode="&#x43d;" horiz-adv-x="470" 
d="M409 0h-111v239h-126v-239h-111v560h111v-216h126v216h111v-560z" />
    <glyph glyph-name="afii10080" unicode="&#x43e;" 
d="M284 229v102c0 31 -1 50 -4 67c-7 42 -27 67 -61 67s-54 -25 -61 -67c-3 -17 -4 -36 -4 -67v-102c0 -31 1 -50 4 -67c7 -42 27 -67 61 -67s54 25 61 67c3 17 4 36 4 67zM395 333v-106c0 -32 -2 -53 -5 -73c-16 -96 -71 -164 -171 -164s-155 68 -171 164
c-3 20 -5 41 -5 73v106c0 32 2 53 5 73c16 96 71 164 171 164s155 -68 171 -164c3 -20 5 -41 5 -73z" />
    <glyph glyph-name="afii10081" unicode="&#x43f;" horiz-adv-x="465" 
d="M404 0h-111v455h-121v-455h-111v560h343v-560z" />
    <glyph glyph-name="afii10082" unicode="&#x440;" horiz-adv-x="463" 
d="M309 224v117c0 11 -1 37 -3 52c-5 35 -20 72 -59 72c-36 0 -57 -32 -67 -68c-5 -18 -8 -43 -8 -71v-105c0 -39 14 -125 71 -125c38 0 55 33 62 69c3 17 4 34 4 59zM172 -244h-111v804h77l9 -68c24 52 67 78 119 78c100 0 139 -77 150 -160c3 -21 4 -44 4 -72v-120
c0 -37 -3 -66 -8 -91c-16 -75 -57 -137 -139 -137c-43 0 -78 15 -101 37h-1s1 -20 1 -45v-226z" />
    <glyph glyph-name="afii10083" unicode="&#x441;" horiz-adv-x="425" 
d="M283 180h110c-3 -34 -11 -65 -18 -82c-26 -65 -77 -108 -156 -108c-100 0 -155 68 -171 164c-3 20 -5 41 -5 73v106c0 32 2 53 5 73c16 96 71 164 171 164c81 0 132 -45 157 -112c10 -28 16 -57 18 -88h-110c-1 10 -2 19 -4 28c-8 42 -27 67 -61 67s-54 -25 -61 -67
c-3 -17 -4 -36 -4 -67v-102c0 -31 1 -50 4 -67c7 -42 27 -67 61 -67s53 25 61 67c1 5 3 18 3 18z" />
    <glyph glyph-name="afii10084" unicode="&#x442;" horiz-adv-x="382" 
d="M247 0h-111v455h-124v105h358v-105h-123v-455z" />
    <glyph glyph-name="afii10085" unicode="&#x443;" horiz-adv-x="408" 
d="M2 -203v102c17 -5 34 -9 55 -9c34 0 59 21 76 81l18 65c-48 170 -101 353 -148 524h116l87 -353h1l83 353h116l-158 -576c-40 -145 -87 -200 -171 -200c-28 0 -51 5 -75 13z" />
    <glyph glyph-name="afii10086" unicode="&#x444;" horiz-adv-x="562" 
d="M230 95v370h-16c-30 0 -50 -25 -56 -65c-3 -17 -4 -37 -4 -67v-106c0 -30 1 -50 4 -67c6 -40 26 -65 56 -65h16zM332 -248h-102v238h-15c-94 0 -153 74 -167 164c-3 20 -5 42 -5 73v106c0 31 2 53 5 73c14 90 73 164 167 164h15v218h102v-218h15c94 0 153 -74 167 -164
c3 -20 5 -42 5 -73v-106c0 -31 -2 -53 -5 -73c-14 -90 -73 -164 -167 -164h-15v-238zM332 95h16c30 0 50 25 56 65c3 17 4 37 4 67v106c0 30 -1 50 -4 67c-6 40 -26 65 -56 65h-16v-370z" />
    <glyph glyph-name="afii10087" unicode="&#x445;" horiz-adv-x="404" 
d="M401 0h-118l-81 188l-80 -188h-119l144 293l-132 267h119l68 -162l67 162h120l-132 -267z" />
    <glyph glyph-name="afii10088" unicode="&#x446;" horiz-adv-x="497" 
d="M485 -203h-101v203h-323v560h111v-455h121v455h111v-455h81v-308z" />
    <glyph glyph-name="afii10089" unicode="&#x447;" horiz-adv-x="434" 
d="M373 0h-111v201c-18 -3 -41 -5 -62 -5c-100 0 -150 53 -163 136c-3 18 -5 39 -5 67v161h111v-157c0 -15 1 -32 2 -43c4 -35 25 -60 71 -60c16 0 32 2 46 4v256h111v-560z" />
    <glyph glyph-name="afii10090" unicode="&#x448;" horiz-adv-x="631" 
d="M570 0h-509v560h111v-455h88v455h111v-455h88v455h111v-560z" />
    <glyph glyph-name="afii10091" unicode="&#x449;" horiz-adv-x="663" 
d="M651 -203h-101v203h-489v560h111v-455h88v455h111v-455h88v455h111v-455h81v-308z" />
    <glyph glyph-name="afii10092" unicode="&#x44a;" horiz-adv-x="503" 
d="M278 0h-148v455h-122v105h233v-198h37c22 0 40 -2 55 -5c90 -19 134 -91 134 -175c0 -87 -45 -156 -127 -176c-17 -4 -38 -6 -62 -6zM241 102h39c12 0 24 1 33 4c32 9 43 45 43 76c0 33 -13 63 -44 74c-6 2 -19 4 -32 4h-39v-158z" />
    <glyph glyph-name="afii10093" unicode="&#x44b;" horiz-adv-x="629" 
d="M202 0h-141v560h111v-198h30c22 0 40 -2 55 -5c90 -19 134 -91 134 -175c0 -87 -45 -156 -127 -176c-17 -4 -38 -6 -62 -6zM172 102h32c12 0 24 1 33 4c32 9 43 45 43 76c0 33 -13 63 -44 74c-6 2 -19 4 -32 4h-32v-158zM568 0h-111v560h111v-560z" />
    <glyph glyph-name="afii10094" unicode="&#x44c;" horiz-adv-x="440" 
d="M215 0h-154v560h111v-198h43c22 0 40 -2 55 -5c90 -19 134 -91 134 -175c0 -87 -45 -156 -127 -176c-17 -4 -38 -6 -62 -6zM172 102h45c12 0 24 1 33 4c32 9 43 45 43 76c0 33 -13 63 -44 74c-6 2 -19 4 -32 4h-45v-158z" />
    <glyph glyph-name="afii10095" unicode="&#x44d;" horiz-adv-x="425" 
d="M382 333v-106c0 -27 -2 -53 -5 -73c-15 -95 -71 -164 -170 -164c-103 0 -166 82 -176 184h111c4 -44 27 -79 65 -79c33 0 54 25 60 67c3 17 4 36 4 66h-135v104h135c0 29 -1 49 -4 66c-6 42 -27 67 -60 67c-34 0 -59 -25 -65 -87h-111c15 124 74 192 176 192
c99 0 155 -69 170 -164c3 -20 5 -46 5 -73z" />
    <glyph glyph-name="afii10096" unicode="&#x44e;" horiz-adv-x="614" 
d="M460 229v102c0 28 -1 50 -3 67c-6 42 -24 67 -54 67s-48 -25 -54 -67c-2 -17 -3 -39 -3 -67v-102c0 -28 1 -50 3 -67c6 -42 24 -67 54 -67s48 25 54 67c2 17 3 39 3 67zM571 333v-106c0 -29 -2 -53 -5 -73c-14 -96 -65 -164 -163 -164s-149 68 -163 164
c-3 20 -5 46 -5 74h-63v-228h-111v560h111v-228h63c0 28 2 54 5 74c14 96 65 164 163 164s149 -68 163 -164c3 -20 5 -44 5 -73z" />
    <glyph glyph-name="afii10097" unicode="&#x44f;" horiz-adv-x="436" 
d="M375 0h-111v229h-52c-31 0 -46 -21 -48 -63l-5 -75c-2 -38 -7 -70 -28 -91h-111v1c24 25 28 57 30 94l4 76c3 48 17 84 64 104c-51 32 -69 82 -69 129c0 83 46 135 110 150c14 3 42 6 62 6h154v-560zM264 328v134h-50c-27 0 -53 -17 -53 -64c0 -42 17 -70 53 -70h50z" />
    <glyph glyph-name="uni0450" unicode="&#x450;" horiz-adv-x="437" 
d="M298 627h-82l-127 175v6h121zM395 253h-241v-27c0 -31 1 -50 4 -67c7 -42 27 -67 61 -67c40 0 59 38 62 75h110c-14 -109 -72 -177 -172 -177s-155 68 -171 164c-3 20 -5 41 -5 73v106c0 32 2 53 5 73c16 96 71 164 171 164s155 -68 170 -164c5 -29 6 -51 6 -103v-50z
M154 347h130c0 16 -1 36 -4 53c-7 42 -27 68 -61 68s-54 -26 -61 -68c-2 -15 -4 -30 -4 -53z" />
    <glyph glyph-name="afii10071" unicode="&#x451;" horiz-adv-x="437" 
d="M395 253h-241v-27c0 -31 1 -50 4 -67c7 -42 27 -67 61 -67c40 0 59 38 62 75h110c-14 -109 -72 -177 -172 -177s-155 68 -171 164c-3 20 -5 41 -5 73v106c0 32 2 53 5 73c16 96 71 164 171 164s155 -68 170 -164c5 -29 6 -51 6 -103v-50zM154 347h130c0 16 -1 36 -4 53
c-7 42 -27 68 -61 68s-54 -26 -61 -68c-2 -15 -4 -30 -4 -53zM191 644h-110v116h110v-116zM359 644h-110v116h110v-116z" />
    <glyph glyph-name="afii10099" unicode="&#x452;" horiz-adv-x="486" 
d="M209 -233v106c14 -2 28 -4 42 -4c45 0 66 23 66 90v381c0 11 -1 37 -3 52c-5 35 -20 72 -59 72c-36 0 -57 -32 -67 -68c-5 -18 -8 -38 -8 -72v-324h-111v644h-74v71h74v70h111v-70h124v-71h-124v-76c0 -25 -1 -50 -1 -50h1c24 33 58 52 101 52c82 0 125 -58 140 -137
c5 -26 7 -54 7 -91v-388c0 -132 -66 -191 -166 -191c-21 0 -40 2 -53 4z" />
    <glyph glyph-name="afii10100" unicode="&#x453;" horiz-adv-x="375" 
d="M172 0h-111v560h300v-105h-189v-455zM219 627h-82l88 181h121v-6z" />
    <glyph glyph-name="afii10101" unicode="&#x454;" horiz-adv-x="425" 
d="M283 174h111c-10 -102 -73 -184 -176 -184c-99 0 -155 69 -170 164c-3 20 -5 46 -5 73v106c0 27 2 53 5 73c15 95 71 164 170 164c102 0 161 -68 176 -192h-111c-6 62 -31 87 -65 87c-33 0 -54 -25 -60 -67c-3 -17 -4 -37 -4 -66h135v-104h-135c0 -30 1 -49 4 -66
c6 -42 27 -67 60 -67c38 0 61 35 65 79z" />
    <glyph glyph-name="afii10102" unicode="&#x455;" horiz-adv-x="393" 
d="M356 411h-110c-4 42 -21 65 -52 65c-32 0 -48 -23 -48 -59c0 -41 18 -63 70 -82c75 -28 147 -76 147 -177c0 -105 -62 -168 -161 -168c-104 0 -169 59 -176 177h110c5 -54 26 -82 64 -82c33 0 54 28 54 72c0 48 -27 71 -82 90c-91 32 -133 82 -133 166
c0 96 60 157 155 157c94 0 152 -52 162 -159z" />
    <glyph glyph-name="afii10103" unicode="&#x456;" horiz-adv-x="233" 
d="M172 0h-111v560h111v-560zM174 645h-115v120h115v-120z" />
    <glyph glyph-name="afii10104" unicode="&#x457;" horiz-adv-x="233" 
d="M87 644h-110v116h110v-116zM255 644h-110v116h110v-116zM172 0h-111v560h111v-560z" />
    <glyph glyph-name="afii10105" unicode="&#x458;" horiz-adv-x="236" 
d="M177 645h-115v120h115v-120zM-44 -233v106c14 -2 28 -4 42 -4c45 0 66 23 66 90v601h111v-604c0 -132 -66 -193 -166 -193c-21 0 -40 2 -53 4z" />
    <glyph glyph-name="afii10106" unicode="&#x459;" horiz-adv-x="638" 
d="M413 0h-140v455h-76l-9 -193c-6 -124 -28 -250 -184 -264v107c59 3 73 76 76 161l11 294h293v-198h29c21 0 40 -2 55 -5c90 -19 134 -91 134 -175c0 -87 -45 -156 -127 -176c-17 -4 -39 -6 -62 -6zM384 102h31c11 0 24 1 33 4c32 9 43 45 43 76c0 33 -13 63 -44 74
c-6 2 -20 4 -32 4h-31v-158z" />
    <glyph glyph-name="afii10107" unicode="&#x45a;" horiz-adv-x="634" 
d="M409 0h-140v258h-97v-258h-111v560h111v-198h97v198h111v-198h29c22 0 40 -2 55 -5c90 -19 134 -91 134 -175c0 -87 -45 -156 -127 -176c-17 -4 -39 -6 -62 -6zM380 102h31c11 0 24 1 33 4c32 9 43 45 43 76c0 33 -13 63 -44 74c-6 2 -20 4 -32 4h-31v-158z" />
    <glyph glyph-name="afii10108" unicode="&#x45b;" horiz-adv-x="489" 
d="M431 0h-111v340c0 11 -1 37 -3 52c-5 35 -20 72 -59 72c-36 0 -57 -32 -67 -68c-5 -18 -8 -38 -8 -72v-324h-111v642h-72v71h72v72h111v-72h128v-71h-128v-74c0 -25 -1 -50 -1 -50h1c24 33 58 52 101 52c82 0 125 -58 140 -137c5 -26 7 -54 7 -91v-342z" />
    <glyph glyph-name="afii10109" unicode="&#x45c;" horiz-adv-x="445" 
d="M253 627h-82l88 181h121v-6zM437 0h-121l-109 243h-35v-243h-111v560h111v-219h28c34 0 49 23 55 66l6 41c11 74 38 117 109 117c20 0 44 -3 59 -7l-2 -93c-7 2 -15 4 -24 4c-22 0 -33 -15 -38 -49l-4 -25c-10 -62 -21 -93 -59 -121z" />
    <glyph glyph-name="uni045D" unicode="&#x45d;" horiz-adv-x="469" 
d="M408 0h-104v298c0 18 2 40 3 60h-1l-132 -358h-113v560h104v-298c0 -18 -2 -40 -3 -60h1l132 358h113v-560zM303 627h-82l-127 175v6h121z" />
    <glyph glyph-name="afii10110" unicode="&#x45e;" horiz-adv-x="408" 
d="M271 799h79c-6 -114 -62 -171 -143 -171s-137 57 -143 171h79c3 -69 29 -100 64 -100s61 31 64 100zM2 -203v102c17 -5 34 -9 55 -9c34 0 59 21 76 81l18 65c-48 170 -101 353 -148 524h116l87 -353h1l83 353h116l-158 -576c-40 -145 -87 -200 -171 -200
c-28 0 -51 5 -75 13z" />
    <glyph glyph-name="afii10193" unicode="&#x45f;" horiz-adv-x="465" 
d="M283 -203h-101v203h-121v560h111v-455h121v455h111v-560h-121v-203z" />
    <glyph glyph-name="uni0460" unicode="&#x460;" horiz-adv-x="683" 
d="M284 281v233h115v-233c0 -117 21 -174 56 -174c34 0 63 73 63 289c0 104 -19 251 -46 354h119c27 -100 44 -244 44 -353c0 -303 -79 -407 -172 -407c-56 0 -98 30 -121 92c-24 -58 -69 -92 -121 -92c-94 0 -173 104 -173 407c0 109 17 253 44 353h119
c-26 -103 -46 -250 -46 -354c0 -216 30 -289 64 -289c35 0 55 57 55 174z" />
    <glyph glyph-name="uni0461" unicode="&#x461;" horiz-adv-x="584" 
d="M237 215v178h110v-178c0 -80 15 -117 39 -117s44 50 44 196c0 74 -15 184 -39 266h112c27 -80 38 -186 38 -265c0 -226 -71 -305 -146 -305c-45 0 -83 25 -103 71c-20 -46 -58 -71 -103 -71c-75 0 -146 79 -146 305c0 79 11 185 38 265h112c-24 -82 -39 -192 -39 -266
c0 -146 20 -196 44 -196s39 37 39 117z" />
    <glyph glyph-name="afii10146" unicode="&#x462;" horiz-adv-x="559" 
d="M298 0h-174v556h-120v81h120v113h115v-113h146v-81h-146v-93h60c24 0 48 -2 65 -6c108 -24 159 -118 159 -224c0 -112 -53 -199 -150 -225c-20 -5 -47 -8 -75 -8zM239 111h58c22 0 37 2 48 6c48 17 63 70 63 116c0 50 -18 96 -64 112c-11 4 -27 6 -47 6h-58v-240z" />
    <glyph glyph-name="afii10194" unicode="&#x463;" horiz-adv-x="488" 
d="M263 0h-154v420h-99v71h99v69h111v-69h121v-71h-121v-58h43c21 0 40 -2 55 -5c90 -19 134 -91 134 -175c0 -87 -45 -156 -127 -176c-17 -4 -39 -6 -62 -6zM220 102h45c11 0 24 1 33 4c32 9 43 45 43 76c0 33 -13 63 -44 74c-6 2 -20 4 -32 4h-45v-158z" />
    <glyph glyph-name="uni0464" unicode="&#x464;" horiz-adv-x="692" 
d="M462 -10h-4c-112 0 -172 75 -189 172c-5 27 -7 58 -7 86v87h-83v-335h-115v750h115v-304h83v56c0 28 2 59 7 86c17 97 77 172 189 172h4c112 0 173 -74 193 -172c3 -15 6 -32 7 -47h-115c-1 9 -2 17 -4 26c-9 42 -34 82 -81 82h-4c-47 0 -69 -40 -76 -82
c-4 -23 -5 -48 -5 -66v-60h175v-111h-175v-81c0 -18 1 -43 5 -66c7 -42 29 -82 76 -82h4c47 0 71 40 80 82c2 11 3 21 4 32l115 1c-1 -19 -3 -38 -6 -54c-17 -97 -81 -172 -193 -172z" />
    <glyph glyph-name="uni0465" unicode="&#x465;" horiz-adv-x="625" 
d="M483 174h111c-10 -102 -73 -184 -176 -184c-99 0 -155 69 -170 164c-3 20 -5 46 -5 74h-71v-228h-111v560h111v-228h71c0 28 2 54 5 74c15 95 71 164 170 164c102 0 161 -68 176 -192h-111c-6 62 -31 87 -65 87c-33 0 -54 -25 -60 -67c-3 -17 -4 -37 -4 -66h135v-104
h-135c0 -30 1 -49 4 -66c6 -42 27 -67 60 -67c38 0 61 35 65 79z" />
    <glyph glyph-name="uni0466" unicode="&#x466;" horiz-adv-x="532" 
d="M526 0h-110l-68 283h-37v-283h-90v283h-36l-69 -283h-110l186 750h148zM323 383l-56 242h-2l-56 -242h114z" />
    <glyph glyph-name="uni0467" unicode="&#x467;" horiz-adv-x="454" 
d="M452 0h-104l-53 203h-27v-203h-81v203h-28l-53 -203h-104l155 560h141zM273 289l-46 180h-2l-44 -180h92z" />
    <glyph glyph-name="uni0468" unicode="&#x468;" horiz-adv-x="747" 
d="M741 0h-110l-68 283h-37v-283h-90v283h-36l-69 -283h-110l70 283h-118v-283h-109v750h109v-367h143l91 367h148zM538 383l-56 242h-2l-56 -242h114z" />
    <glyph glyph-name="uni0469" unicode="&#x469;" horiz-adv-x="658" 
d="M656 0h-104l-52 203h-28v-203h-81v203h-29l-52 -203h-104l56 203h-96v-203h-105v560h105v-271h120l75 271h141zM477 289l-46 180h-2l-44 -180h92z" />
    <glyph glyph-name="uni046A" unicode="&#x46a;" horiz-adv-x="578" 
d="M289 460l85 195h-170zM534 0h-105v198c0 34 -3 64 -9 83c-14 42 -44 62 -79 66v-347h-104v347c-35 -4 -65 -24 -79 -66c-6 -19 -9 -49 -9 -83v-198h-105v196c0 46 4 83 13 114c20 67 66 113 131 132l-140 308h482l-140 -308c65 -19 111 -65 131 -132
c9 -31 13 -68 13 -114v-196z" />
    <glyph glyph-name="uni046B" unicode="&#x46b;" horiz-adv-x="503" 
d="M460 0h-98v157c0 21 -2 41 -6 55c-8 27 -29 42 -58 43v-255h-92v255c-30 -1 -51 -16 -59 -43c-4 -14 -6 -34 -6 -55v-157h-98v154c0 34 3 63 12 86c17 46 47 74 102 92l-115 228h419l-115 -228c57 -18 86 -46 103 -92c9 -23 11 -52 11 -86v-154zM252 351l59 124h-117z
" />
    <glyph glyph-name="uni046C" unicode="&#x46c;" horiz-adv-x="794" 
d="M750 0h-105v198c0 34 -3 64 -9 83c-14 42 -44 62 -79 66v-347h-104v347c-35 -4 -65 -24 -79 -66c-6 -19 -9 -49 -9 -83v-198h-105v196c0 49 8 105 37 147h-124v-343h-109v750h109v-308h231l-140 308h482l-140 -308c65 -19 111 -65 131 -132c9 -31 13 -68 13 -114v-196z
M505 460l85 195h-170z" />
    <glyph glyph-name="uni046D" unicode="&#x46d;" horiz-adv-x="700" 
d="M657 0h-98v157c0 21 -2 41 -6 55c-8 27 -29 42 -58 43v-255h-92v255c-30 -1 -51 -16 -59 -43c-4 -14 -6 -34 -6 -55v-157h-98v154c0 40 5 67 27 93h-101v-247h-105v560h105v-228h188l-115 228h419l-115 -228c57 -18 86 -46 103 -92c9 -23 11 -52 11 -86v-154zM449 351
l59 124h-117z" />
    <glyph glyph-name="uni046E" unicode="&#x46e;" horiz-adv-x="462" 
d="M372 -104v-106c-16 3 -29 5 -44 5c-56 0 -99 -41 -156 -41c-86 0 -154 53 -154 163c0 90 39 162 168 177l42 5c46 5 84 41 84 109c0 60 -31 119 -106 119h-73v103h73c74 0 102 57 102 115c0 70 -35 105 -79 105c-54 0 -84 -41 -85 -111h-114c0 110 54 193 148 215
l-119 194h99l70 -124l36 67c26 49 50 62 91 62c15 0 28 -3 39 -6l-2 -69c-5 1 -14 2 -22 2c-15 0 -24 -5 -37 -28l-57 -97c87 -19 147 -91 147 -200c0 -75 -28 -134 -91 -176c65 -42 95 -105 95 -177c0 -123 -75 -196 -185 -208l-43 -5c-54 -6 -71 -34 -71 -74
c0 -39 19 -57 44 -57c54 0 99 42 156 42c14 0 27 -1 44 -4z" />
    <glyph glyph-name="uni046F" unicode="&#x46f;" horiz-adv-x="396" 
d="M318 -70v-96c-23 4 -31 4 -39 4c-45 0 -84 -30 -132 -30c-74 0 -133 50 -133 136c0 71 33 135 143 147l37 4c34 4 58 27 58 65c0 37 -20 75 -79 75h-52v96h52c58 0 76 36 76 72c0 42 -23 64 -58 64c-39 0 -62 -24 -62 -72h-107c0 82 41 144 113 166l-94 153h93l56 -102
l27 51c25 46 47 58 85 58c15 0 27 -3 37 -6l-2 -64c-5 1 -13 2 -20 2c-15 0 -24 -5 -36 -27l-36 -62c69 -17 114 -72 114 -145c0 -53 -22 -103 -69 -136c52 -29 72 -76 72 -129c0 -92 -64 -148 -157 -158l-39 -4c-38 -4 -48 -27 -48 -49c0 -20 12 -41 35 -41
c42 0 80 33 127 33c8 0 19 0 38 -5z" />
    <glyph glyph-name="uni0470" unicode="&#x470;" horiz-adv-x="610" 
d="M361 0h-112v280h-8c-98 0 -157 63 -180 135c-10 30 -13 76 -13 115v220h111v-218c0 -33 4 -62 10 -83c12 -47 43 -66 74 -66h6v367h112v-367h6c31 0 62 19 74 66c6 21 10 50 10 83v218h111v-220c0 -39 -3 -85 -13 -115c-23 -72 -82 -135 -180 -135h-8v-280z" />
    <glyph glyph-name="uni0471" unicode="&#x471;" horiz-adv-x="577" 
d="M345 -248h-106v238h-9c-85 0 -145 54 -167 133c-7 27 -11 64 -11 104v333h111v-329c0 -31 3 -55 7 -73c9 -41 29 -62 57 -62h12v692h106v-692h4c64 0 72 96 72 225c0 82 -19 239 -19 239h110s20 -125 20 -241c0 -210 -42 -325 -179 -329h-8v-238z" />
    <glyph glyph-name="afii10147" unicode="&#x472;" horiz-adv-x="502" 
d="M253 -10h-4c-112 0 -172 75 -189 172c-5 27 -7 58 -7 86v254c0 28 2 59 7 86c17 97 77 172 189 172h4c112 0 172 -75 189 -172c5 -27 7 -58 7 -86v-254c0 -28 -2 -59 -7 -86c-17 -97 -77 -172 -189 -172zM249 101h4c47 0 69 40 76 82c4 23 5 48 5 66v76
c-10 -13 -23 -18 -39 -18c-49 0 -65 66 -104 66c-8 0 -17 -5 -23 -15v-109c0 -18 1 -43 5 -66c7 -42 29 -82 76 -82zM334 411v90c0 18 -1 43 -5 66c-7 42 -29 82 -76 82h-4c-47 0 -69 -40 -76 -82c-4 -23 -5 -48 -5 -66v-56c8 10 20 15 35 15c50 0 66 -65 105 -65
c8 0 19 4 26 16z" />
    <glyph glyph-name="afii10195" unicode="&#x473;" 
d="M395 333v-106c0 -32 -2 -53 -5 -73c-16 -96 -71 -164 -171 -164s-155 68 -171 164c-3 20 -5 41 -5 73v106c0 32 2 53 5 73c16 96 71 164 171 164s155 -68 171 -164c3 -20 5 -41 5 -73zM284 304v27c0 31 -1 50 -4 67c-7 42 -27 67 -61 67s-54 -25 -61 -67
c-3 -17 -4 -35 -4 -65c6 7 15 11 26 11c40 0 53 -52 85 -52c6 0 13 3 19 12zM154 255v-26c0 -31 1 -50 4 -67c7 -42 27 -67 61 -67s54 25 61 67c3 16 4 34 4 63c-8 -8 -18 -12 -30 -12c-39 0 -52 52 -83 52c-7 0 -13 -4 -17 -10z" />
    <glyph glyph-name="afii10148" unicode="&#x474;" horiz-adv-x="512" 
d="M299 0h-139l-158 750h117l110 -582h2l81 425c21 109 70 157 150 157c15 0 35 -1 54 -4v-105c-12 2 -24 3 -34 3c-36 0 -51 -25 -65 -89z" />
    <glyph glyph-name="afii10196" unicode="&#x475;" horiz-adv-x="437" 
d="M259 0h-118l-139 560h116l81 -397h2l52 255c19 93 63 144 138 144c14 0 32 -1 50 -4v-98c-11 2 -21 3 -32 3c-33 0 -43 -21 -57 -80z" />
    <glyph glyph-name="uni0476" unicode="&#x476;" horiz-adv-x="512" 
d="M391 806h-82l-120 179v3h116zM227 806h-82l-120 179v3h116zM299 6h-139l-158 750h117l110 -582h2l81 425c21 109 70 157 150 157c15 0 35 -1 54 -4v-105c-12 2 -24 3 -34 3c-36 0 -51 -25 -65 -89z" />
    <glyph glyph-name="uni0477" unicode="&#x477;" horiz-adv-x="437" 
d="M350 617h-82l-120 179v3h116zM186 617h-82l-120 179v3h116zM259 6h-118l-139 560h116l81 -397h2l52 255c19 93 63 144 138 144c14 0 32 -1 50 -4v-98c-11 2 -21 3 -32 3c-33 0 -43 -21 -57 -80z" />
    <glyph glyph-name="uni0478" unicode="&#x478;" horiz-adv-x="908" 
d="M249 101h4c47 0 69 40 76 82c4 23 5 48 5 66v252c0 18 -1 43 -5 66c-7 42 -29 82 -76 82h-4c-47 0 -69 -40 -76 -82c-4 -23 -5 -48 -5 -66v-252c0 -18 1 -43 5 -66c7 -42 29 -82 76 -82zM253 -10h-4c-112 0 -172 75 -189 172c-5 27 -7 58 -7 86v254c0 28 2 59 7 86
c17 97 77 172 189 172h4c112 0 172 -75 189 -172c5 -27 7 -58 7 -86v-254c0 -28 -2 -59 -7 -86c-17 -97 -77 -172 -189 -172zM502 -203v102c17 -5 34 -9 55 -9c34 0 59 21 76 81l18 65c-48 170 -101 353 -148 524h116l87 -353h1l83 353h116l-158 -576
c-40 -145 -87 -200 -171 -200c-28 0 -51 5 -75 13z" />
    <glyph glyph-name="uni0479" unicode="&#x479;" horiz-adv-x="834" 
d="M284 229v102c0 31 -1 50 -4 67c-7 42 -27 67 -61 67s-54 -25 -61 -67c-3 -17 -4 -36 -4 -67v-102c0 -31 1 -50 4 -67c7 -42 27 -67 61 -67s54 25 61 67c3 17 4 36 4 67zM395 333v-106c0 -32 -2 -53 -5 -73c-16 -96 -71 -164 -171 -164s-155 68 -171 164
c-3 20 -5 41 -5 73v106c0 32 2 53 5 73c16 96 71 164 171 164s155 -68 171 -164c3 -20 5 -41 5 -73zM428 -203v102c17 -5 34 -9 55 -9c34 0 59 21 76 81l18 65c-48 170 -101 353 -148 524h116l87 -353h1l83 353h116l-158 -576c-40 -145 -87 -200 -171 -200
c-28 0 -51 5 -75 13z" />
    <glyph glyph-name="uni047A" unicode="&#x47a;" horiz-adv-x="502" 
d="M449 502v-254c0 -28 -2 -59 -7 -86c-14 -79 -57 -144 -132 -164c-6 -32 -28 -53 -60 -53c-31 0 -54 21 -61 53c-74 22 -116 86 -129 164c-5 27 -7 58 -7 86v254c0 28 2 59 7 86c13 78 55 142 130 164c6 32 29 53 61 53c31 0 53 -21 60 -53c75 -21 117 -86 131 -164
c5 -27 7 -58 7 -86zM334 249v252c0 18 -1 43 -5 66c-4 24 -14 48 -30 63c-11 -17 -28 -24 -48 -24s-37 9 -49 24c-16 -16 -25 -39 -29 -63c-4 -23 -5 -48 -5 -66v-252c0 -18 1 -43 5 -66c4 -24 13 -48 29 -63c11 16 27 23 48 23c19 0 37 -9 49 -24c16 15 26 39 30 64
c4 23 5 48 5 66z" />
    <glyph glyph-name="uni047B" unicode="&#x47b;" 
d="M395 333v-106c0 -32 -2 -53 -5 -73c-13 -75 -49 -132 -111 -154c-6 -34 -28 -56 -60 -56s-54 22 -60 56c-63 22 -99 79 -111 154c-3 20 -5 41 -5 73v106c0 32 2 53 5 73c12 74 48 132 111 154c6 34 28 56 60 56s54 -22 60 -56c62 -22 98 -80 111 -154c3 -20 5 -41 5 -73z
M284 229v102c0 31 -1 50 -4 67c-3 16 -7 30 -14 41c-12 -16 -26 -22 -47 -22c-20 0 -34 6 -47 23c-7 -11 -11 -25 -14 -42s-4 -36 -4 -67v-102c0 -31 1 -50 4 -67s7 -31 14 -42c13 17 27 23 47 23c21 0 35 -6 47 -22c7 11 11 24 14 41s4 36 4 67z" />
    <glyph glyph-name="uni047C" unicode="&#x47c;" horiz-adv-x="683" 
d="M284 281v233h115v-233c0 -117 21 -174 56 -174c34 0 63 73 63 289c0 104 -19 251 -46 354h119c27 -100 44 -244 44 -353c0 -303 -79 -407 -172 -407c-56 0 -98 30 -121 92c-24 -58 -69 -92 -121 -92c-94 0 -173 104 -173 407c0 109 17 253 44 353h119
c-26 -103 -46 -250 -46 -354c0 -216 30 -289 64 -289c35 0 55 57 55 174zM478 847h-190v-41h-90v109h191v40h89v-108z" />
    <glyph glyph-name="uni047D" unicode="&#x47d;" horiz-adv-x="584" 
d="M237 215v178h110v-178c0 -80 15 -117 39 -117s44 50 44 196c0 74 -15 184 -39 266h112c27 -80 38 -186 38 -265c0 -226 -71 -305 -146 -305c-45 0 -83 25 -103 71c-20 -46 -58 -71 -103 -71c-75 0 -146 79 -146 305c0 79 11 185 38 265h112c-24 -82 -39 -192 -39 -266
c0 -146 20 -196 44 -196s39 37 39 117zM432 697h-190v-41h-90v109h191v40h89v-108z" />
    <glyph glyph-name="uni047E" unicode="&#x47e;" horiz-adv-x="683" 
d="M483 816h-59l-7 46h-44l-6 -46h-52l-7 46h-45l-6 -46h-58v103h284v-103zM284 287v233h115v-233c0 -117 21 -174 56 -174c34 0 63 73 63 289c0 104 -19 251 -46 354h119c27 -100 44 -244 44 -353c0 -303 -79 -407 -172 -407c-56 0 -98 30 -121 92
c-24 -58 -69 -92 -121 -92c-94 0 -173 104 -173 407c0 109 17 253 44 353h119c-26 -103 -46 -250 -46 -354c0 -216 30 -289 64 -289c35 0 55 57 55 174z" />
    <glyph glyph-name="uni047F" unicode="&#x47f;" horiz-adv-x="584" 
d="M425 646h-59l-7 46h-44l-6 -46h-52l-7 46h-45l-6 -46h-58v103h284v-103zM237 221v178h110v-178c0 -80 15 -117 39 -117s44 50 44 196c0 74 -15 184 -39 266h112c27 -80 38 -186 38 -265c0 -226 -71 -305 -146 -305c-45 0 -83 25 -103 71c-20 -46 -58 -71 -103 -71
c-75 0 -146 79 -146 305c0 79 11 185 38 265h112c-24 -82 -39 -192 -39 -266c0 -146 20 -196 44 -196s39 37 39 117z" />
    <glyph glyph-name="uni0480" unicode="&#x480;" horiz-adv-x="498" 
d="M450 -247h-110v280c-26 -31 -61 -43 -99 -43c-102 0 -164 73 -181 171c-5 27 -7 59 -7 87v254c0 28 2 59 7 86c17 97 77 172 189 172h4c112 0 172 -75 189 -172c5 -26 7 -56 7 -83h-115c0 17 -2 40 -5 62c-7 42 -29 82 -76 82h-4c-47 0 -69 -40 -76 -82
c-4 -23 -5 -48 -5 -66v-252c0 -18 1 -43 5 -66c7 -42 29 -82 76 -82h4c47 0 69 40 76 82c3 22 5 49 5 69h116v-499z" />
    <glyph glyph-name="uni0481" unicode="&#x481;" horiz-adv-x="432" 
d="M391 -203h-105v228c-20 -25 -56 -35 -83 -35c-86 0 -140 69 -156 164c-3 20 -4 42 -4 73v106c0 32 2 53 5 73c16 96 71 164 171 164c81 0 132 -45 157 -112c10 -28 16 -57 18 -88h-110c-1 10 -2 19 -4 28c-8 42 -27 67 -61 67s-54 -25 -61 -67c-3 -17 -4 -36 -4 -67v-102
c0 -31 1 -50 4 -67c7 -42 27 -67 61 -67s53 25 61 67l3 21h108v-386z" />
    <glyph glyph-name="uni0482" unicode="&#x482;" horiz-adv-x="505" 
d="M370 132l-139 48l-72 -210l-81 28l71 210l-139 48l26 78l140 -47l72 205l-140 47l27 79l139 -47l72 209l82 -28l-72 -209l139 -48l-26 -79l-140 48l-72 -205l140 -48z" />
    <glyph glyph-name="uni0483" unicode="&#x483;" horiz-adv-x="416" 
d="M348 697h-190v-41h-90v109h191v40h89v-108z" />
    <glyph glyph-name="uni0484" unicode="&#x484;" horiz-adv-x="400" 
d="M366 677h-81c-6 43 -19 61 -38 61c-16 0 -30 -13 -45 -28c-15 -13 -28 -26 -47 -34c-15 -8 -38 -12 -68 -12h-50v68h48c16 0 32 3 43 10c12 9 22 20 33 30c23 24 46 50 91 50c63 0 110 -53 114 -145z" />
    <glyph glyph-name="uni0485" unicode="&#x485;" horiz-adv-x="414" 
d="M351 695h-210v-42h-73v150h73v-41h210v-67z" />
    <glyph glyph-name="uni0486" unicode="&#x486;" horiz-adv-x="414" 
d="M346 653h-72v41h-210v68h210v41h72v-150z" />
    <glyph glyph-name="uni0487" unicode="&#x487;" horiz-adv-x="400" 
d="M364 664h-50c-29 0 -53 4 -68 12c-18 8 -33 21 -46 34c-16 15 -30 28 -46 28c-19 0 -32 -18 -37 -61h-82c4 92 51 145 114 145c43 0 69 -27 91 -50c9 -9 23 -23 33 -30c12 -7 26 -10 43 -10h48v-68z" />
    <glyph glyph-name="uni0488" unicode="&#x488;" horiz-adv-x="724" 
d="M450 563h-48c-3 34 -17 52 -40 52c-22 0 -37 -18 -40 -52h-48c3 57 39 94 88 94s85 -37 88 -94zM278 448h-48c-3 34 -17 52 -40 52c-22 0 -37 -18 -40 -52h-48c3 57 39 94 88 94s85 -37 88 -94zM622 448h-48c-3 34 -17 52 -40 52c-22 0 -37 -18 -40 -52h-48
c3 57 39 94 88 94s85 -37 88 -94zM700 285h-48c-3 34 -17 52 -40 52c-22 0 -37 -18 -40 -52h-48c3 57 39 94 88 94s85 -37 88 -94zM200 285h-48c-3 34 -17 52 -40 52c-22 0 -37 -18 -40 -52h-48c3 57 39 94 88 94s85 -37 88 -94zM622 118h-48c-3 34 -17 52 -40 52
c-22 0 -37 -18 -40 -52h-48c3 57 39 94 88 94s85 -37 88 -94zM278 118h-48c-3 34 -17 52 -40 52c-22 0 -37 -18 -40 -52h-48c3 57 39 94 88 94s85 -37 88 -94zM450 6h-48c-3 34 -17 52 -40 52c-22 0 -37 -18 -40 -52h-48c3 57 39 94 88 94s85 -37 88 -94z" />
    <glyph glyph-name="uni0489" unicode="&#x489;" horiz-adv-x="765" 
d="M339 -33v32c37 11 40 38 40 61c0 6 -3 8 -7 8h-33v86h87v-73c0 -50 -20 -105 -87 -114zM426 529h-87v73c0 50 20 105 87 114v-32c-37 -11 -40 -38 -40 -61c0 -6 3 -8 7 -8h33v-86zM737 298h-32c-11 37 -38 40 -61 40c-6 0 -8 -3 -8 -7v-33h-86v87h73
c50 0 105 -20 114 -87zM215 298h-73c-50 0 -105 20 -114 87h32c11 -37 38 -40 61 -40c6 0 8 3 8 7v33h86v-87zM607 46l-23 23c18 33 1 55 -15 71c-4 4 -8 4 -11 1l-23 -24l-61 61l62 62l51 -52c36 -35 61 -88 20 -142zM229 443l-51 52c-36 35 -61 88 -20 142l23 -23
c-18 -33 -1 -55 15 -71c4 -4 8 -4 11 -1l23 24l61 -61zM536 443l-62 62l52 51c35 36 88 61 142 20l-23 -23c-33 18 -55 1 -71 -15c-4 -4 -4 -8 -1 -11l24 -23zM291 178l-52 -51c-35 -36 -88 -61 -142 -20l23 23c33 -18 55 -1 71 15c4 4 4 8 1 11l-24 23l61 61z" />
    <glyph glyph-name="uni048A" unicode="&#x48a;" horiz-adv-x="571" 
d="M509 -247h-110l40 247h-80v451c0 25 2 62 2 62h-1l-172 -513h-124v750h109v-450c0 -25 -2 -62 -2 -62h1l172 512h124v-639h98zM330 979h79c-6 -114 -62 -171 -143 -171s-137 57 -143 171h79c3 -69 29 -100 64 -100s61 31 64 100z" />
    <glyph glyph-name="uni048B" unicode="&#x48b;" horiz-adv-x="497" 
d="M444 -203h-103l33 203h-70v298c0 18 2 40 3 60h-1l-132 -358h-113v560h104v-298c0 -18 -2 -40 -3 -60h1l132 358h113v-455h85zM291 799h79c-6 -114 -62 -171 -143 -171s-137 57 -143 171h79c3 -69 29 -100 64 -100s61 31 64 100z" />
    <glyph glyph-name="uni048C" unicode="&#x48c;" horiz-adv-x="540" 
d="M279 0h-174v556h-95v81h95v113h115v-113h114v-81h-114v-93h60c24 0 48 -2 65 -6c108 -24 159 -118 159 -224c0 -112 -53 -199 -150 -225c-20 -5 -47 -8 -75 -8zM220 111h58c22 0 37 2 48 6c48 17 63 70 63 116c0 50 -18 96 -64 112c-11 4 -27 6 -47 6h-58v-240z" />
    <glyph glyph-name="uni048D" unicode="&#x48d;" horiz-adv-x="470" 
d="M245 0h-154v420h-81v71h81v69h111v-69h85v-71h-85v-58h43c21 0 40 -2 55 -5c90 -19 134 -91 134 -175c0 -87 -45 -156 -127 -176c-17 -4 -39 -6 -62 -6zM202 102h45c11 0 24 1 33 4c32 9 43 45 43 76c0 33 -13 63 -44 74c-6 2 -20 4 -32 4h-45v-158z" />
    <glyph glyph-name="uni048E" unicode="&#x48e;" horiz-adv-x="493" 
d="M179 0h-115v750h168c32 0 55 -3 75 -8c97 -26 150 -113 150 -225c0 -83 -31 -158 -96 -199l39 -75l-53 -28l-41 80c-21 -6 -44 -8 -73 -8h-54v-287zM254 399l-34 68l52 28l36 -72c24 22 34 57 34 94c0 46 -15 99 -63 116c-11 4 -23 6 -48 6h-52v-240h75z" />
    <glyph glyph-name="uni048F" unicode="&#x48f;" horiz-adv-x="463" 
d="M392 -65l-54 -26l-39 84c-8 -2 -17 -3 -26 -3c-43 0 -77 16 -101 42h-1s1 -25 1 -50v-226h-111v804h77l9 -73c24 55 67 83 119 83c100 0 139 -77 150 -160c3 -21 4 -44 4 -72v-120c0 -37 -3 -66 -8 -91c-10 -45 -28 -85 -58 -110zM252 96l-36 80l53 26l28 -63
c9 24 12 50 12 85v117c0 11 -1 37 -3 52c-5 35 -20 72 -59 72c-36 0 -57 -32 -67 -68c-5 -18 -8 -43 -8 -71v-105c0 -39 14 -125 71 -125h9z" />
    <glyph glyph-name="afii10050" unicode="&#x490;" horiz-adv-x="436" 
d="M179 0h-115v750h245v206h107v-317h-237v-639z" />
    <glyph glyph-name="afii10098" unicode="&#x491;" horiz-adv-x="375" 
d="M172 0h-111v560h197v172h101v-277h-187v-455z" />
    <glyph glyph-name="uni0492" unicode="&#x492;" horiz-adv-x="458" 
d="M201 0h-115v352h-83v86h83v312h354v-111h-239v-201h138v-86h-138v-352z" />
    <glyph glyph-name="uni0493" unicode="&#x493;" horiz-adv-x="393" 
d="M190 0h-111v238h-73v80h73v242h300v-105h-189v-137h117v-80h-117v-238z" />
    <glyph glyph-name="uni0494" unicode="&#x494;" horiz-adv-x="514" 
d="M351 -1v200c0 28 0 52 -2 68c-5 53 -38 92 -106 92c-20 0 -46 -1 -64 -3v-356h-115v750h354v-111h-239v-172c19 2 47 3 69 3c134 0 204 -76 215 -189c2 -21 3 -50 3 -80v-203c0 -148 -60 -242 -184 -242c-59 0 -117 30 -150 78l72 78c21 -31 49 -45 77 -45
c40 0 70 37 70 132z" />
    <glyph glyph-name="uni0495" unicode="&#x495;" horiz-adv-x="436" 
d="M175 -233v106c14 -2 28 -4 42 -4c45 0 66 23 66 90v187c0 14 -1 35 -3 47c-5 31 -27 57 -72 57c-17 0 -36 -1 -51 -4v-246h-111v560h301v-105h-190v-105c19 2 46 4 67 4c96 0 154 -51 167 -145c2 -13 3 -40 3 -62v-191c0 -132 -66 -193 -166 -193c-21 0 -40 2 -53 4z" />
    <glyph glyph-name="uni0496" unicode="&#x496;" horiz-adv-x="787" 
d="M778 -247h-107v247h-53l-143 335h-43v-335h-111v335h-43l-143 -335h-125l167 370c-56 34 -70 88 -83 171l-6 38c-8 50 -15 71 -50 71c-10 0 -16 -1 -25 -3v101c16 4 41 6 57 6c82 0 113 -52 128 -148l8 -53c11 -74 31 -107 81 -107h34v304h111v-304h34c50 0 70 33 81 107
l8 53c15 96 46 148 128 148c16 0 41 -2 57 -6v-101c-9 2 -15 3 -25 3c-35 0 -42 -21 -50 -71l-6 -38c-13 -83 -27 -137 -83 -171l117 -259h85v-358z" />
    <glyph glyph-name="uni0497" unicode="&#x497;" horiz-adv-x="658" 
d="M646 -203h-101v203h-45l-107 245h-25v-245h-107v245h-25l-107 -245h-119l131 276c-38 28 -47 57 -57 119l-4 25c-5 34 -16 49 -38 49c-9 0 -17 -2 -24 -4l-2 93c15 4 39 7 59 7c71 0 98 -43 109 -117l6 -41c6 -43 21 -66 55 -66h16v219h107v-219h16c34 0 49 23 55 66
l6 41c11 74 38 117 109 117c20 0 44 -3 59 -7l-2 -93c-7 2 -15 4 -24 4c-22 0 -33 -15 -38 -49l-4 -25c-10 -62 -19 -91 -57 -119l80 -171h78v-308z" />
    <glyph glyph-name="uni0498" unicode="&#x498;" horiz-adv-x="465" 
d="M134 -203l23 66c15 -11 34 -18 49 -18c21 0 34 12 34 42c0 24 -11 64 -32 104c-110 11 -175 99 -175 220h114c1 -70 31 -111 85 -111c47 0 83 38 83 108c0 60 -31 119 -106 119h-73v103h73c74 0 102 57 102 115c0 70 -35 105 -79 105c-54 0 -84 -41 -85 -111h-114
c0 129 75 221 199 221c111 0 194 -77 194 -205c0 -75 -28 -134 -91 -176c65 -42 95 -105 95 -175c0 -105 -59 -184 -145 -207c23 -40 41 -84 40 -124c-1 -63 -45 -103 -107 -103c-33 0 -65 12 -84 27z" />
    <glyph glyph-name="uni0499" unicode="&#x499;" horiz-adv-x="394" 
d="M97 -203l23 66c15 -11 34 -18 49 -18c21 0 34 12 34 42c0 24 -11 64 -32 105c-93 11 -146 80 -146 174h108c0 -46 22 -73 64 -73c34 0 58 26 58 67c0 37 -20 75 -79 75h-52v96h52c58 0 76 36 76 72c0 42 -23 64 -58 64c-39 0 -62 -24 -62 -72h-107c0 104 65 175 175 175
c95 0 162 -61 162 -151c0 -53 -22 -103 -69 -136c52 -29 72 -78 72 -131c0 -72 -42 -137 -117 -156c23 -40 41 -83 40 -123c-1 -63 -45 -103 -107 -103c-33 0 -65 12 -84 27z" />
    <glyph glyph-name="uni049A" unicode="&#x49a;" horiz-adv-x="564" 
d="M555 -247h-107v247h-60l-143 335h-66v-335h-115v750h115v-304h57c50 0 70 33 81 107l8 53c15 96 46 148 128 148c16 0 41 -2 57 -6v-101c-9 2 -15 3 -25 3c-35 0 -42 -21 -50 -71l-6 -38c-13 -83 -27 -137 -83 -171l117 -259h92v-358z" />
    <glyph glyph-name="uni049B" unicode="&#x49b;" horiz-adv-x="474" 
d="M462 -203h-101v203h-45l-109 243h-35v-243h-111v560h111v-219h28c34 0 49 23 55 66l6 41c11 74 38 117 109 117c20 0 44 -3 59 -7l-2 -93c-7 2 -15 4 -24 4c-22 0 -33 -15 -38 -49l-4 -25c-10 -62 -21 -93 -59 -121l83 -169h77v-308z" />
    <glyph glyph-name="uni049C" unicode="&#x49c;" horiz-adv-x="543" 
d="M533 0h-125l-132 316v-152h-56v171h-41v-335h-115v750h115v-304h41v169h56v-167c35 8 51 42 61 105l8 53c15 96 46 148 128 148c16 0 41 -2 57 -6v-101c-9 2 -15 3 -25 3c-35 0 -42 -21 -50 -71l-6 -38c-13 -83 -27 -137 -83 -171z" />
    <glyph glyph-name="uni049D" unicode="&#x49d;" horiz-adv-x="485" 
d="M477 0h-121l-100 227v-135h-51v151h-33v-243h-111v560h111v-219h33v148h51v-146c23 6 34 28 39 64l6 41c11 74 38 117 109 117c20 0 44 -3 59 -7l-2 -93c-7 2 -15 4 -24 4c-22 0 -33 -15 -38 -49l-4 -25c-10 -62 -21 -93 -59 -121z" />
    <glyph glyph-name="uni049E" unicode="&#x49e;" horiz-adv-x="550" 
d="M540 0h-125l-143 335h-66v-335h-115v563h-85v81h85v106h115v-106h83v-81h-83v-117h57c50 0 70 33 81 107l8 53c15 96 46 148 128 148c16 0 41 -2 57 -6v-101c-9 2 -15 3 -25 3c-35 0 -42 -21 -50 -71l-6 -38c-13 -83 -27 -137 -83 -171z" />
    <glyph glyph-name="uni049F" unicode="&#x49f;" horiz-adv-x="465" 
d="M457 0h-121l-109 243h-45v-243h-111v420h-65v71h65v69h111v-69h62v-71h-62v-79h38c34 0 49 23 55 66l6 41c11 74 38 117 109 117c20 0 44 -3 59 -7l-2 -93c-7 2 -15 4 -24 4c-22 0 -33 -15 -38 -49l-4 -25c-10 -62 -21 -93 -59 -121z" />
    <glyph glyph-name="uni04A0" unicode="&#x4a0;" horiz-adv-x="624" 
d="M614 0h-125l-143 335h-66v-335h-115v639h-153v111h268v-304h57c50 0 70 33 81 107l8 53c15 96 46 148 128 148c16 0 41 -2 57 -6v-101c-9 2 -15 3 -25 3c-35 0 -42 -21 -50 -71l-6 -38c-13 -83 -27 -137 -83 -171z" />
    <glyph glyph-name="uni04A1" unicode="&#x4a1;" horiz-adv-x="515" 
d="M507 0h-121l-109 243h-35v-243h-111v455h-123v105h234v-219h28c34 0 49 23 55 66l6 41c11 74 38 117 109 117c20 0 44 -3 59 -7l-2 -93c-7 2 -15 4 -24 4c-22 0 -33 -15 -38 -49l-4 -25c-10 -62 -21 -93 -59 -121z" />
    <glyph glyph-name="uni04A2" unicode="&#x4a2;" horiz-adv-x="573" 
d="M564 -247h-107v247h-103v335h-175v-335h-115v750h115v-304h175v304h115v-639h95v-358z" />
    <glyph glyph-name="uni04A3" unicode="&#x4a3;" horiz-adv-x="502" 
d="M490 -203h-101v203h-91v239h-126v-239h-111v560h111v-216h126v216h111v-455h81v-308z" />
    <glyph glyph-name="uni04A4" unicode="&#x4a4;" horiz-adv-x="632" 
d="M469 0h-115v335h-175v-335h-115v750h115v-304h175v304h268v-111h-153v-639z" />
    <glyph glyph-name="uni04A5" unicode="&#x4a5;" horiz-adv-x="540" 
d="M409 0h-111v239h-126v-239h-111v560h111v-216h126v216h234v-105h-123v-455z" />
    <glyph glyph-name="uni04A6" unicode="&#x4a6;" horiz-adv-x="786" 
d="M623 -1v200c0 28 0 52 -2 68c-5 53 -38 92 -106 92c-20 0 -46 -1 -64 -3v-356h-115v639h-157v-639h-115v750h387v-283c19 2 47 3 69 3c134 0 204 -76 215 -189c2 -21 3 -50 3 -80v-203c0 -148 -60 -242 -184 -242c-59 0 -117 30 -150 78l72 78c21 -31 49 -45 77 -45
c40 0 70 37 70 132z" />
    <glyph glyph-name="uni04A7" unicode="&#x4a7;" horiz-adv-x="674" 
d="M413 -233v106c14 -2 28 -4 42 -4c45 0 66 23 66 90v187c0 14 -1 35 -3 47c-5 31 -27 57 -72 57c-17 0 -36 -1 -51 -4v-246h-111v455h-112v-455h-111v560h334v-210c19 2 46 4 67 4c96 0 154 -51 167 -145c2 -13 3 -40 3 -62v-191c0 -132 -66 -193 -166 -193
c-21 0 -40 2 -53 4z" />
    <glyph glyph-name="uni04A8" unicode="&#x4a8;" horiz-adv-x="545" 
d="M540 -7v-102c-29 -17 -65 -27 -102 -27c-89 0 -148 48 -172 126h-15c-113 0 -174 73 -191 171c-5 27 -7 59 -7 87v254c0 28 2 60 7 87c17 98 78 171 188 171h4c125 0 185 -99 197 -210h-119c-4 45 -28 99 -78 99h-4c-44 0 -69 -42 -76 -83c-4 -21 -4 -51 -4 -67v-248
c0 -16 0 -45 4 -66c7 -41 33 -89 78 -89h3v228c0 109 40 179 130 179c83 0 128 -61 128 -179v-108c0 -113 -38 -192 -134 -220c13 -23 35 -35 69 -35c28 0 60 10 94 32zM407 218v110c0 45 -5 69 -24 69c-18 0 -25 -17 -25 -69v-227c33 15 49 50 49 117z" />
    <glyph glyph-name="uni04A9" unicode="&#x4a9;" horiz-adv-x="460" 
d="M456 15v-95c-29 -16 -63 -22 -90 -22c-74 0 -120 37 -140 94h-9c-101 0 -156 66 -170 161c-3 20 -4 43 -4 74v106c0 32 2 53 5 73c16 96 72 164 169 164c101 0 148 -74 164 -160h-111c-8 34 -22 55 -53 55c-34 0 -52 -25 -59 -67c-3 -17 -4 -36 -4 -67v-104
c0 -30 1 -50 4 -67c7 -41 23 -70 53 -72v150c0 83 35 137 110 137c71 0 110 -45 110 -132v-69c0 -76 -29 -142 -105 -169c9 -11 30 -16 49 -16c21 0 48 6 81 26zM341 158v91c0 24 -7 38 -20 38c-10 0 -18 -10 -18 -38v-155c26 9 38 33 38 64z" />
    <glyph glyph-name="uni04AA" unicode="&#x4aa;" horiz-adv-x="481" 
d="M151 -203l23 66c15 -11 34 -18 49 -18c21 0 34 12 34 42c0 24 -11 64 -32 104c-97 10 -149 81 -165 171c-5 27 -7 58 -7 86v254c0 28 2 59 7 86c17 97 77 172 189 172h4c112 0 172 -75 189 -172c5 -26 7 -56 7 -83h-115c0 17 -2 40 -5 62c-7 42 -29 82 -76 82h-4
c-47 0 -69 -40 -76 -82c-4 -23 -5 -48 -5 -66v-252c0 -18 1 -43 5 -66c7 -42 29 -82 76 -82h4c47 0 69 40 76 82c3 22 5 47 5 67h115c0 -30 -2 -62 -7 -88c-15 -82 -59 -148 -140 -166c23 -40 41 -84 40 -123c-1 -63 -45 -103 -107 -103c-33 0 -65 12 -84 27z" />
    <glyph glyph-name="uni04AB" unicode="&#x4ab;" horiz-adv-x="425" 
d="M114 -203l23 66c15 -11 34 -18 49 -18c21 0 34 12 34 42c0 24 -11 65 -33 106c-80 12 -125 75 -139 161c-3 20 -5 41 -5 73v106c0 32 2 53 5 73c16 96 71 164 171 164c81 0 132 -45 157 -112c10 -28 16 -57 18 -88h-110c-1 10 -2 19 -4 28c-8 42 -27 67 -61 67
s-54 -25 -61 -67c-3 -17 -4 -36 -4 -67v-102c0 -31 1 -50 4 -67c7 -42 27 -67 61 -67s53 25 61 67c1 5 3 18 3 18h110c-3 -34 -11 -65 -18 -82c-21 -51 -57 -89 -110 -102c23 -40 41 -84 40 -123c-1 -63 -45 -103 -107 -103c-33 0 -65 12 -84 27z" />
    <glyph glyph-name="uni04AC" unicode="&#x4ac;" horiz-adv-x="437" 
d="M371 -247h-107v247h-103v639h-151v111h417v-111h-151v-528h95v-358z" />
    <glyph glyph-name="uni04AD" unicode="&#x4ad;" horiz-adv-x="374" 
d="M324 -203h-101v203h-91v455h-124v105h358v-105h-123v-350h81v-308z" />
    <glyph glyph-name="uni04AE" unicode="&#x4ae;" horiz-adv-x="455" 
d="M285 0h-115v327l-175 423h123l109 -288h1l109 288h123l-175 -423v-327z" />
    <glyph glyph-name="uni04AF" unicode="&#x4af;" horiz-adv-x="400" 
d="M259 -244h-118v244l-139 560h116l81 -394h2l81 394h116l-139 -560v-244z" />
    <glyph glyph-name="uni04B0" unicode="&#x4b0;" horiz-adv-x="455" 
d="M285 0h-115v220h-126v81h126v26l-175 423h123l109 -288h1l109 288h123l-175 -423v-26h126v-81h-126v-220z" />
    <glyph glyph-name="uni04B1" unicode="&#x4b1;" horiz-adv-x="400" 
d="M259 -244h-118v163h-97v81h97l-139 560h116l81 -394h2l81 394h116l-139 -560h98v-81h-98v-163z" />
    <glyph glyph-name="uni04B2" unicode="&#x4b2;" horiz-adv-x="510" 
d="M502 -247h-107v247h-64l-104 264l-104 -264h-126l170 391l-152 359h126l86 -228l86 228h126l-152 -359l120 -280h95v-358z" />
    <glyph glyph-name="uni04B3" unicode="&#x4b3;" 
d="M426 -203h-101v203h-42l-81 188l-80 -188h-119l144 293l-132 267h119l68 -162l67 162h120l-132 -267l92 -188h77v-308z" />
    <glyph glyph-name="uni04B4" unicode="&#x4b4;" horiz-adv-x="637" 
d="M625 -247h-107v247h-399v639h-109v111h333v-111h-109v-528h181v639h115v-639h95v-358z" />
    <glyph glyph-name="uni04B5" unicode="&#x4b5;" horiz-adv-x="545" 
d="M533 -203h-101v203h-337v455h-87v105h285v-105h-87v-350h135v455h111v-455h81v-308z" />
    <glyph glyph-name="uni04B6" unicode="&#x4b6;" horiz-adv-x="555" 
d="M543 -247h-107v247h-103v283c-25 -3 -47 -4 -70 -4c-130 0 -198 77 -212 190c-2 19 -3 50 -3 80v201h115v-201c0 -25 1 -50 3 -64c8 -56 36 -97 100 -97c23 0 47 2 67 5v357h115v-639h95v-358z" />
    <glyph glyph-name="uni04B7" unicode="&#x4b7;" horiz-adv-x="466" 
d="M454 -203h-101v203h-91v201c-18 -3 -41 -5 -62 -5c-100 0 -150 53 -163 136c-3 18 -5 39 -5 67v161h111v-157c0 -15 1 -32 2 -43c4 -35 25 -60 71 -60c16 0 32 2 46 4v256h111v-455h81v-308z" />
    <glyph glyph-name="uni04B8" unicode="&#x4b8;" horiz-adv-x="523" 
d="M459 0h-115v283c-20 -2 -43 -4 -62 -4v-153h-62v156c-102 15 -157 87 -169 187c-2 19 -3 50 -3 80v201h115v-201c0 -25 1 -50 3 -64c5 -40 21 -73 54 -88v148h62v-157c20 0 43 2 62 5v357h115v-750z" />
    <glyph glyph-name="uni04B9" unicode="&#x4b9;" horiz-adv-x="449" 
d="M388 0h-111v201c-10 -2 -24 -3 -39 -4v-111h-56v110c-88 6 -133 58 -145 136c-3 18 -5 39 -5 67v161h111v-157c0 -15 1 -32 2 -43c3 -25 14 -45 37 -54v131h56v-137c14 1 30 2 39 4v256h111v-560z" />
    <glyph glyph-name="uni04BA" unicode="&#x4ba;" horiz-adv-x="512" 
d="M464 0h-115v201c0 25 -1 50 -3 64c-8 56 -36 97 -100 97c-23 0 -47 -2 -67 -5v-357h-115v750h115v-283c25 3 47 4 70 4c130 0 198 -77 212 -190c2 -19 3 -50 3 -80v-201z" />
    <glyph glyph-name="uni04BB" unicode="&#x4bb;" horiz-adv-x="434" 
d="M402 0h-111v157c0 15 -1 32 -2 43c-4 35 -25 60 -71 60c-16 0 -32 -2 -46 -4v-256h-111v560h111v-201c18 3 41 5 62 5c100 0 150 -53 163 -136c3 -18 5 -39 5 -67v-161z" />
    <glyph glyph-name="uni04BC" unicode="&#x4bc;" horiz-adv-x="602" 
d="M356 -10h-4c-112 0 -172 75 -189 172c-5 27 -7 58 -7 86v90h-1c-108 0 -149 73 -149 159c0 16 0 27 3 48h105c-2 -13 -4 -28 -4 -39c0 -32 7 -58 42 -58h4v54c0 28 2 59 7 86c17 97 77 172 189 172h4c112 0 172 -75 189 -172c5 -27 7 -58 7 -86v-164h-281v-89
c0 -18 1 -43 5 -66c7 -42 29 -82 76 -82h4c63 0 78 72 80 125h116c-5 -115 -52 -236 -196 -236zM437 448v53c0 18 -1 43 -5 66c-7 42 -29 82 -76 82h-4c-47 0 -69 -40 -76 -82c-4 -23 -5 -48 -5 -66v-53h166z" />
    <glyph glyph-name="uni04BD" unicode="&#x4bd;" horiz-adv-x="523" 
d="M481 253h-241v-27c0 -31 1 -50 4 -67c7 -42 27 -67 61 -67c40 0 59 38 62 75h110c-14 -109 -72 -177 -172 -177s-155 68 -171 164c-3 20 -5 41 -5 73v24c-90 7 -126 70 -126 143c0 14 0 24 3 43h89c-1 -8 -2 -20 -2 -32c0 -27 7 -49 36 -57c1 24 2 41 5 58
c16 96 71 164 171 164s154 -68 170 -164c5 -29 6 -61 6 -103v-50zM240 347h130c0 16 -1 36 -4 53c-7 42 -27 68 -61 68s-54 -26 -61 -68c-2 -15 -4 -30 -4 -53z" />
    <glyph glyph-name="uni04BE" unicode="&#x4be;" horiz-adv-x="602" 
d="M406 -202h-104v198c-81 19 -125 85 -139 166c-5 27 -7 58 -7 86v90h-1c-108 0 -149 73 -149 159c0 16 0 27 3 48h105c-2 -13 -4 -28 -4 -39c0 -32 7 -58 42 -58h4v54c0 28 2 59 7 86c17 97 77 172 189 172h4c112 0 172 -75 189 -172c5 -27 7 -58 7 -86v-164h-281v-89
c0 -18 1 -43 5 -66c7 -42 29 -82 76 -82h4c63 0 78 72 80 125h116c-5 -100 -41 -204 -146 -230v-198zM437 448v53c0 18 -1 43 -5 66c-7 42 -29 82 -76 82h-4c-47 0 -69 -40 -76 -82c-4 -23 -5 -48 -5 -66v-53h166z" />
    <glyph glyph-name="uni04BF" unicode="&#x4bf;" horiz-adv-x="523" 
d="M354 -203h-101v201c-68 20 -106 79 -119 156c-3 20 -5 41 -5 73v24c-90 7 -126 70 -126 143c0 14 0 24 3 43h89c-1 -8 -2 -20 -2 -32c0 -27 7 -49 36 -57c1 24 2 41 5 58c16 96 71 164 171 164s154 -68 170 -164c5 -29 6 -61 6 -103v-50h-241v-27c0 -31 1 -50 4 -67
c7 -42 27 -67 61 -67c40 0 59 38 62 75h110c-12 -89 -52 -151 -123 -170v-200zM240 347h130c0 16 -1 36 -4 53c-7 42 -27 68 -61 68s-54 -26 -61 -68c-2 -15 -4 -30 -4 -53z" />
    <glyph glyph-name="uni04C0" unicode="&#x4c0;" horiz-adv-x="243" 
d="M179 0h-115v750h115v-750z" />
    <glyph glyph-name="uni04C1" unicode="&#x4c1;" horiz-adv-x="753" 
d="M445 979h79c-6 -114 -62 -171 -143 -171s-137 57 -143 171h79c3 -69 29 -100 64 -100s61 31 64 100zM743 0h-125l-143 335h-43v-335h-111v335h-43l-143 -335h-125l167 370c-56 34 -70 88 -83 171l-6 38c-8 50 -15 71 -50 71c-10 0 -16 -1 -25 -3v101c16 4 41 6 57 6
c82 0 113 -52 128 -148l8 -53c11 -74 31 -107 81 -107h34v304h111v-304h34c50 0 70 33 81 107l8 53c15 96 46 148 128 148c16 0 41 -2 57 -6v-101c-9 2 -15 3 -25 3c-35 0 -42 -21 -50 -71l-6 -38c-13 -83 -27 -137 -83 -171z" />
    <glyph glyph-name="uni04C2" unicode="&#x4c2;" horiz-adv-x="629" 
d="M619 0h-119l-107 245h-25v-245h-107v245h-25l-107 -245h-119l131 276c-38 28 -47 57 -57 119l-4 25c-5 34 -16 49 -38 49c-9 0 -17 -2 -24 -4l-2 93c15 4 39 7 59 7c71 0 98 -43 109 -117l6 -41c6 -43 21 -66 55 -66h16v219h107v-219h16c34 0 49 23 55 66l6 41
c11 74 38 117 109 117c20 0 44 -3 59 -7l-2 -93c-7 2 -15 4 -24 4c-22 0 -33 -15 -38 -49l-4 -25c-10 -62 -19 -91 -57 -119zM374 799h79c-6 -114 -62 -171 -143 -171s-137 57 -143 171h79c3 -69 29 -100 64 -100s61 31 64 100z" />
    <glyph glyph-name="uni04C3" unicode="&#x4c3;" horiz-adv-x="528" 
d="M167 -166l72 78c21 -31 49 -45 77 -45c36 0 75 44 75 140c0 104 -48 233 -121 328h-91v-335h-115v750h115v-304h57c50 0 70 33 81 107l8 53c15 96 46 148 128 148c16 0 41 -2 57 -6v-101c-9 2 -15 3 -25 3c-35 0 -42 -21 -50 -71l-6 -38c-11 -68 -22 -117 -56 -151
c87 -129 135 -260 135 -376c0 -159 -71 -258 -191 -258c-59 0 -117 30 -150 78z" />
    <glyph glyph-name="uni04C4" unicode="&#x4c4;" horiz-adv-x="454" 
d="M139 -114l58 77c20 -24 43 -35 65 -35c31 0 55 28 55 89c0 67 -32 156 -88 224h-57v-241h-111v560h111v-219h28c34 0 49 23 55 66l6 41c11 74 38 117 109 117c20 0 44 -3 59 -7l-2 -93c-7 2 -15 4 -24 4c-22 0 -33 -15 -38 -49l-4 -25c-8 -49 -17 -79 -38 -103
c71 -95 104 -182 104 -271c0 -115 -57 -197 -161 -197c-46 0 -97 23 -127 62z" />
    <glyph glyph-name="uni04C5" unicode="&#x4c5;" horiz-adv-x="575" 
d="M511 -247h-106l40 247h-88v639h-130l-12 -288c-6 -152 -22 -339 -211 -353v115c81 10 92 128 96 242l14 395h358v-639h96z" />
    <glyph glyph-name="uni04C6" unicode="&#x4c6;" horiz-adv-x="491" 
d="M438 -203h-103l33 203h-79v455h-92l-9 -193c-6 -128 -27 -251 -184 -264v107c59 3 73 76 76 161l11 294h309v-455h87z" />
    <glyph glyph-name="uni04C7" unicode="&#x4c7;" horiz-adv-x="533" 
d="M249 -233v105c13 -2 26 -3 42 -3c46 0 63 24 63 92v374h-175v-335h-115v750h115v-304h175v304h115v-792c0 -133 -66 -195 -167 -195c-17 0 -34 1 -53 4z" />
    <glyph glyph-name="uni04C8" unicode="&#x4c8;" horiz-adv-x="470" 
d="M190 -233v106c14 -2 28 -4 42 -4c45 0 66 23 66 90v280h-126v-239h-111v560h111v-216h126v216h111v-604c0 -132 -66 -193 -166 -193c-21 0 -40 2 -53 4z" />
    <glyph glyph-name="uni04C9" unicode="&#x4c9;" horiz-adv-x="572" 
d="M508 -247h-106l40 247h-88v335h-175v-335h-115v750h115v-304h175v304h115v-639h96z" />
    <glyph glyph-name="uni04CA" unicode="&#x4ca;" horiz-adv-x="500" 
d="M447 -203h-103l33 203h-79v239h-126v-239h-111v560h111v-216h126v216h111v-455h87z" />
    <glyph glyph-name="uni04CB" unicode="&#x4cb;" horiz-adv-x="512" 
d="M353 -247h-107v358h87v172c-25 -3 -47 -4 -70 -4c-130 0 -198 77 -212 190c-2 19 -3 50 -3 80v201h115v-201c0 -25 1 -50 3 -64c8 -56 36 -97 100 -97c23 0 47 2 67 5v357h115v-750h-95v-247z" />
    <glyph glyph-name="uni04CC" unicode="&#x4cc;" horiz-adv-x="434" 
d="M282 -203h-101v308h81v96c-18 -3 -41 -5 -62 -5c-100 0 -150 53 -163 136c-3 18 -5 41 -5 67v161h111v-157c0 -15 1 -32 2 -43c4 -35 25 -60 71 -60c16 0 32 2 46 4v256h111v-560h-91v-203z" />
    <glyph glyph-name="uni04CD" unicode="&#x4cd;" horiz-adv-x="667" 
d="M603 -247h-106l40 247h-82v425c0 25 1 58 1 58h-1l-98 -344h-86l-98 344h-1s1 -33 1 -58v-425h-109v750h128l122 -423l122 423h128v-639h96z" />
    <glyph glyph-name="uni04CE" unicode="&#x4ce;" horiz-adv-x="572" 
d="M519 -203h-103l33 203h-72v286c0 20 1 43 3 66h-2l-71 -236h-72l-71 236h-2c2 -23 3 -46 3 -66v-286h-104v560h120l90 -301l90 301h120v-455h87z" />
    <glyph glyph-name="uni04CF" unicode="&#x4cf;" horiz-adv-x="233" 
d="M172 0h-111v560h111v-560z" />
    <glyph glyph-name="uni04D0" unicode="&#x4d0;" horiz-adv-x="466" 
d="M297 969h79c-6 -114 -62 -171 -143 -171s-137 57 -143 171h79c3 -69 29 -100 64 -100s61 31 64 100zM284 329l-50 260h-2l-50 -260h102zM464 0h-117l-42 219h-144l-42 -219h-117l158 750h146z" />
    <glyph glyph-name="uni04D1" unicode="&#x4d1;" horiz-adv-x="443" 
d="M282 799h79c-6 -114 -62 -171 -143 -171s-137 57 -143 171h79c3 -69 29 -100 64 -100s61 31 64 100zM385 0h-77l-9 65c-27 -50 -67 -75 -117 -75c-79 0 -144 64 -144 186c0 91 48 157 141 172c14 2 30 4 56 4h39v21c0 22 -2 37 -4 48c-7 34 -24 50 -51 50
c-28 0 -48 -23 -54 -61h-109c14 98 76 160 167 160s146 -56 158 -160c2 -20 4 -48 4 -76v-334zM275 241v19h-43c-21 0 -33 -2 -42 -6c-27 -12 -42 -39 -42 -76c0 -58 18 -90 55 -90c36 0 57 37 66 81c4 20 6 44 6 72z" />
    <glyph glyph-name="uni04D2" unicode="&#x4d2;" horiz-adv-x="466" 
d="M284 329l-50 260h-2l-50 -260h102zM464 0h-117l-42 219h-144l-42 -219h-117l158 750h146zM204 824h-110v116h110v-116zM372 824h-110v116h110v-116z" />
    <glyph glyph-name="uni04D3" unicode="&#x4d3;" horiz-adv-x="443" 
d="M385 0h-77l-9 65c-27 -50 -67 -75 -117 -75c-79 0 -144 64 -144 186c0 91 48 157 141 172c14 2 30 4 56 4h39v21c0 22 -2 37 -4 48c-7 34 -24 50 -51 50c-28 0 -48 -23 -54 -61h-109c14 98 76 160 167 160s146 -56 158 -160c2 -20 4 -48 4 -76v-334zM275 241v19h-43
c-21 0 -33 -2 -42 -6c-27 -12 -42 -39 -42 -76c0 -58 18 -90 55 -90c36 0 57 37 66 81c4 20 6 44 6 72zM192 644h-110v116h110v-116zM360 644h-110v116h110v-116z" />
    <glyph glyph-name="uni04D4" unicode="&#x4d4;" horiz-adv-x="696" 
d="M668 0h-334v227h-159l-73 -227h-120l246 750h440v-111h-219v-199h177v-111h-177v-218h219v-111zM334 338v302h-26l-97 -302h123z" />
    <glyph glyph-name="uni04D5" unicode="&#x4d5;" horiz-adv-x="669" 
d="M627 257h-241v-31c0 -31 1 -50 4 -67c7 -42 27 -67 61 -67c40 0 59 38 62 75h110c-14 -109 -72 -177 -172 -177c-67 0 -109 30 -134 78c-29 -53 -85 -78 -135 -78c-79 0 -144 64 -144 186c0 91 48 154 141 169c14 2 30 4 56 4h39v24c0 22 -2 37 -4 48
c-7 34 -24 50 -51 50c-28 0 -48 -23 -54 -61h-109c14 98 76 160 167 160c53 0 89 -20 111 -57c24 35 61 57 117 57c100 0 155 -68 170 -164c5 -29 6 -48 6 -100v-49zM275 241v16h-43c-21 0 -33 -2 -42 -6c-27 -12 -42 -36 -42 -73c0 -58 18 -90 55 -90c36 0 57 37 66 81
c4 20 6 44 6 72zM386 349h130c0 16 -1 34 -4 51c-7 42 -27 68 -61 68s-54 -26 -61 -68c-2 -15 -4 -28 -4 -51z" />
    <glyph glyph-name="uni04D6" unicode="&#x4d6;" horiz-adv-x="452" 
d="M305 979h79c-6 -114 -62 -171 -143 -171s-137 57 -143 171h79c3 -69 29 -100 64 -100s61 31 64 100zM424 0h-360v750h360v-111h-245v-199h203v-111h-203v-218h245v-111z" />
    <glyph glyph-name="uni04D7" unicode="&#x4d7;" horiz-adv-x="437" 
d="M282 799h79c-6 -114 -62 -171 -143 -171s-137 57 -143 171h79c3 -69 29 -100 64 -100s61 31 64 100zM395 253h-241v-27c0 -31 1 -50 4 -67c7 -42 27 -67 61 -67c40 0 59 38 62 75h110c-14 -109 -72 -177 -172 -177s-155 68 -171 164c-3 20 -5 41 -5 73v106
c0 32 2 53 5 73c16 96 71 164 171 164s155 -68 170 -164c5 -29 6 -51 6 -103v-50zM154 347h130c0 16 -1 36 -4 53c-7 42 -27 68 -61 68s-54 -26 -61 -68c-2 -15 -4 -30 -4 -53z" />
    <glyph glyph-name="uni04D8" unicode="&#x4d8;" horiz-adv-x="499" 
d="M250 -10h-4c-112 0 -172 75 -189 172c-5 27 -7 58 -7 86v164h281v89c0 18 -1 43 -5 66c-7 42 -29 82 -76 82h-4c-63 0 -78 -72 -80 -125h-116c5 115 52 236 196 236h4c112 0 172 -75 189 -172c5 -27 7 -58 7 -86v-254c0 -28 -2 -59 -7 -86c-17 -97 -77 -172 -189 -172z
M246 101h4c47 0 69 40 76 82c4 23 5 48 5 66v53h-166v-53c0 -18 1 -43 5 -66c7 -42 29 -82 76 -82z" />
    <glyph glyph-name="afii10846" unicode="&#x4d9;" horiz-adv-x="437" 
d="M394 333v-106c0 -32 -2 -53 -5 -73c-16 -96 -71 -164 -171 -164s-155 68 -170 164c-5 29 -6 51 -6 103v50h241v27c0 31 -1 50 -4 67c-7 42 -27 67 -61 67c-40 0 -59 -38 -62 -75h-110c14 109 72 177 172 177s155 -68 171 -164c3 -20 5 -41 5 -73zM283 213h-130
c0 -16 1 -36 4 -53c7 -42 27 -68 61 -68s54 26 61 68c2 15 4 30 4 53z" />
    <glyph glyph-name="uni04DA" unicode="&#x4da;" horiz-adv-x="499" 
d="M250 -10h-4c-112 0 -172 75 -189 172c-5 27 -7 58 -7 86v164h281v89c0 18 -1 43 -5 66c-7 42 -29 82 -76 82h-4c-63 0 -78 -72 -80 -125h-116c5 115 52 236 196 236h4c112 0 172 -75 189 -172c5 -27 7 -58 7 -86v-254c0 -28 -2 -59 -7 -86c-17 -97 -77 -172 -189 -172z
M246 101h4c47 0 69 40 76 82c4 23 5 48 5 66v53h-166v-53c0 -18 1 -43 5 -66c7 -42 29 -82 76 -82zM220 824h-110v116h110v-116zM388 824h-110v116h110v-116z" />
    <glyph glyph-name="uni04DB" unicode="&#x4db;" horiz-adv-x="437" 
d="M394 333v-106c0 -32 -2 -53 -5 -73c-16 -96 -71 -164 -171 -164s-155 68 -170 164c-5 29 -6 51 -6 103v50h241v27c0 31 -1 50 -4 67c-7 42 -27 67 -61 67c-40 0 -59 -38 -62 -75h-110c14 109 72 177 172 177s155 -68 171 -164c3 -20 5 -41 5 -73zM283 213h-130
c0 -16 1 -36 4 -53c7 -42 27 -68 61 -68s54 26 61 68c2 15 4 30 4 53zM189 644h-110v116h110v-116zM357 644h-110v116h110v-116z" />
    <glyph glyph-name="uni04DC" unicode="&#x4dc;" horiz-adv-x="753" 
d="M743 0h-125l-143 335h-43v-335h-111v335h-43l-143 -335h-125l167 370c-56 34 -70 88 -83 171l-6 38c-8 50 -15 71 -50 71c-10 0 -16 -1 -25 -3v101c16 4 41 6 57 6c82 0 113 -52 128 -148l8 -53c11 -74 31 -107 81 -107h34v304h111v-304h34c50 0 70 33 81 107l8 53
c15 96 46 148 128 148c16 0 41 -2 57 -6v-101c-9 2 -15 3 -25 3c-35 0 -42 -21 -50 -71l-6 -38c-13 -83 -27 -137 -83 -171zM347 824h-110v116h110v-116zM515 824h-110v116h110v-116z" />
    <glyph glyph-name="uni04DD" unicode="&#x4dd;" horiz-adv-x="629" 
d="M619 0h-119l-107 245h-25v-245h-107v245h-25l-107 -245h-119l131 276c-38 28 -47 57 -57 119l-4 25c-5 34 -16 49 -38 49c-9 0 -17 -2 -24 -4l-2 93c15 4 39 7 59 7c71 0 98 -43 109 -117l6 -41c6 -43 21 -66 55 -66h16v219h107v-219h16c34 0 49 23 55 66l6 41
c11 74 38 117 109 117c20 0 44 -3 59 -7l-2 -93c-7 2 -15 4 -24 4c-22 0 -33 -15 -38 -49l-4 -25c-10 -62 -19 -91 -57 -119zM285 644h-110v116h110v-116zM453 644h-110v116h110v-116z" />
    <glyph glyph-name="uni04DE" unicode="&#x4de;" horiz-adv-x="465" 
d="M209 327h-73v103h73c74 0 102 57 102 115c0 70 -35 105 -79 105c-54 0 -84 -41 -85 -111h-114c0 129 75 221 199 221c111 0 194 -77 194 -205c0 -75 -28 -134 -91 -176c65 -42 95 -105 95 -175c0 -125 -84 -214 -198 -214c-124 0 -199 92 -199 221h114
c1 -70 31 -111 85 -111c47 0 83 38 83 108c0 60 -31 119 -106 119zM203 824h-110v116h110v-116zM371 824h-110v116h110v-116z" />
    <glyph glyph-name="uni04DF" unicode="&#x4df;" horiz-adv-x="394" 
d="M176 237h-56v92h56c61 0 79 36 79 74c0 44 -23 67 -61 67c-42 0 -65 -23 -65 -73h-104c0 104 65 173 175 173c95 0 162 -61 162 -151c0 -53 -22 -103 -74 -136c57 -29 77 -78 77 -131c0 -86 -60 -162 -165 -162c-110 0 -175 71 -175 174h105c0 -48 22 -74 67 -74
c37 0 61 27 61 70c0 39 -23 77 -82 77zM168 644h-110v116h110v-116zM336 644h-110v116h110v-116z" />
    <glyph glyph-name="uni04E0" unicode="&#x4e0;" horiz-adv-x="465" 
d="M430 244v-12c0 -132 -72 -242 -201 -242c-116 0 -198 94 -198 237h114c0 -82 31 -126 84 -126c58 0 86 59 86 134v5c0 69 -23 125 -96 125h-59l-18 90l139 184h-230v111h375v-95l-149 -195c93 -16 153 -91 153 -216z" />
    <glyph glyph-name="uni04E1" unicode="&#x4e1;" horiz-adv-x="414" 
d="M14 3h107c4 -62 28 -123 82 -123c57 0 76 64 77 137c0 68 -24 144 -118 144h-36l-21 78l149 220h-225v101h357v-89l-153 -226c98 -20 157 -100 157 -230c0 -126 -62 -240 -187 -240c-115 0 -183 96 -189 228z" />
    <glyph glyph-name="uni04E2" unicode="&#x4e2;" horiz-adv-x="532" 
d="M468 0h-109v451c0 25 2 62 2 62h-1l-172 -513h-124v750h109v-450c0 -25 -2 -62 -2 -62h1l172 512h124v-750zM398 835h-264v72h264v-72z" />
    <glyph glyph-name="uni04E3" unicode="&#x4e3;" horiz-adv-x="469" 
d="M408 0h-104v298c0 18 2 40 3 60h-1l-132 -358h-113v560h104v-298c0 -18 -2 -40 -3 -60h1l132 358h113v-560zM366 655h-264v72h264v-72z" />
    <glyph glyph-name="uni04E4" unicode="&#x4e4;" horiz-adv-x="532" 
d="M468 0h-109v451c0 25 2 62 2 62h-1l-172 -513h-124v750h109v-450c0 -25 -2 -62 -2 -62h1l172 512h124v-750zM237 864h-110v116h110v-116zM405 864h-110v116h110v-116z" />
    <glyph glyph-name="uni04E5" unicode="&#x4e5;" horiz-adv-x="469" 
d="M408 0h-104v298c0 18 2 40 3 60h-1l-132 -358h-113v560h104v-298c0 -18 -2 -40 -3 -60h1l132 358h113v-560zM205 644h-110v116h110v-116zM373 644h-110v116h110v-116z" />
    <glyph glyph-name="uni04E6" unicode="&#x4e6;" horiz-adv-x="502" 
d="M249 101h4c47 0 69 40 76 82c4 23 5 48 5 66v252c0 18 -1 43 -5 66c-7 42 -29 82 -76 82h-4c-47 0 -69 -40 -76 -82c-4 -23 -5 -48 -5 -66v-252c0 -18 1 -43 5 -66c7 -42 29 -82 76 -82zM253 -10h-4c-112 0 -172 75 -189 172c-5 27 -7 58 -7 86v254c0 28 2 59 7 86
c17 97 77 172 189 172h4c112 0 172 -75 189 -172c5 -27 7 -58 7 -86v-254c0 -28 -2 -59 -7 -86c-17 -97 -77 -172 -189 -172zM222 824h-110v116h110v-116zM390 824h-110v116h110v-116z" />
    <glyph glyph-name="uni04E7" unicode="&#x4e7;" 
d="M284 229v102c0 31 -1 50 -4 67c-7 42 -27 67 -61 67s-54 -25 -61 -67c-3 -17 -4 -36 -4 -67v-102c0 -31 1 -50 4 -67c7 -42 27 -67 61 -67s54 25 61 67c3 17 4 36 4 67zM395 333v-106c0 -32 -2 -53 -5 -73c-16 -96 -71 -164 -171 -164s-155 68 -171 164
c-3 20 -5 41 -5 73v106c0 32 2 53 5 73c16 96 71 164 171 164s155 -68 171 -164c3 -20 5 -41 5 -73zM190 643h-110v116h110v-116zM358 643h-110v116h110v-116z" />
    <glyph glyph-name="uni04E8" unicode="&#x4e8;" horiz-adv-x="502" 
d="M253 -10h-4c-112 0 -172 75 -189 172c-5 27 -7 58 -7 86v254c0 28 2 59 7 86c17 97 77 172 189 172h4c112 0 172 -75 189 -172c5 -27 7 -58 7 -86v-254c0 -28 -2 -59 -7 -86c-17 -97 -77 -172 -189 -172zM249 101h4c47 0 69 40 76 82c4 23 5 48 5 66v73h-166v-73
c0 -18 1 -43 5 -66c7 -42 29 -82 76 -82zM334 432v69c0 18 -1 43 -5 66c-7 42 -29 82 -76 82h-4c-47 0 -69 -40 -76 -82c-4 -23 -5 -48 -5 -66v-69h166z" />
    <glyph glyph-name="uni04E9" unicode="&#x4e9;" 
d="M395 333v-106c0 -32 -2 -53 -5 -73c-15 -96 -71 -164 -171 -164s-156 68 -171 164c-3 20 -5 41 -5 73v106c0 32 2 53 5 73c15 96 71 164 171 164s156 -68 171 -164c3 -20 5 -41 5 -73zM284 229v6h-130v-6c0 -31 1 -50 4 -67c7 -42 27 -67 61 -67s54 25 61 67
c3 17 4 36 4 67zM284 329v2c0 31 -1 50 -4 67c-7 42 -27 67 -61 67s-54 -25 -61 -67c-3 -17 -4 -36 -4 -67v-2h130z" />
    <glyph glyph-name="uni04EA" unicode="&#x4ea;" horiz-adv-x="502" 
d="M253 -10h-4c-112 0 -172 75 -189 172c-5 27 -7 58 -7 86v254c0 28 2 59 7 86c17 97 77 172 189 172h4c112 0 172 -75 189 -172c5 -27 7 -58 7 -86v-254c0 -28 -2 -59 -7 -86c-17 -97 -77 -172 -189 -172zM249 101h4c47 0 69 40 76 82c4 23 5 48 5 66v73h-166v-73
c0 -18 1 -43 5 -66c7 -42 29 -82 76 -82zM334 432v69c0 18 -1 43 -5 66c-7 42 -29 82 -76 82h-4c-47 0 -69 -40 -76 -82c-4 -23 -5 -48 -5 -66v-69h166zM222 824h-110v116h110v-116zM390 824h-110v116h110v-116z" />
    <glyph glyph-name="uni04EB" unicode="&#x4eb;" 
d="M395 333v-106c0 -32 -2 -53 -5 -73c-15 -96 -71 -164 -171 -164s-156 68 -171 164c-3 20 -5 41 -5 73v106c0 32 2 53 5 73c15 96 71 164 171 164s156 -68 171 -164c3 -20 5 -41 5 -73zM284 229v6h-130v-6c0 -31 1 -50 4 -67c7 -42 27 -67 61 -67s54 25 61 67
c3 17 4 36 4 67zM284 329v2c0 31 -1 50 -4 67c-7 42 -27 67 -61 67s-54 -25 -61 -67c-3 -17 -4 -36 -4 -67v-2h130zM190 644h-110v116h110v-116zM358 644h-110v116h110v-116z" />
    <glyph glyph-name="uni04EC" unicode="&#x4ec;" horiz-adv-x="485" 
d="M236 -10h-4c-112 0 -176 75 -193 172c-3 16 -5 35 -6 54l115 -1c1 -11 2 -21 4 -32c9 -42 33 -82 80 -82h4c47 0 69 40 76 82c4 23 5 48 5 66v81h-175v111h175v60c0 18 -1 43 -5 66c-7 42 -29 82 -76 82h-4c-47 0 -72 -40 -81 -82c-2 -9 -3 -17 -4 -26h-115
c1 16 4 32 7 47c20 98 81 172 193 172h4c112 0 172 -75 189 -172c5 -27 7 -58 7 -86v-254c0 -28 -2 -59 -7 -86c-17 -97 -77 -172 -189 -172zM202 824h-110v116h110v-116zM370 824h-110v116h110v-116z" />
    <glyph glyph-name="uni04ED" unicode="&#x4ed;" horiz-adv-x="425" 
d="M382 333v-106c0 -27 -2 -53 -5 -73c-15 -95 -71 -164 -170 -164c-103 0 -166 82 -176 184h111c4 -44 27 -79 65 -79c33 0 54 25 60 67c3 17 4 36 4 66h-135v104h135c0 29 -1 49 -4 66c-6 42 -27 67 -60 67c-34 0 -59 -25 -65 -87h-111c15 124 74 192 176 192
c99 0 155 -69 170 -164c3 -20 5 -46 5 -73zM175 644h-110v116h110v-116zM343 644h-110v116h110v-116z" />
    <glyph glyph-name="uni04EE" unicode="&#x4ee;" horiz-adv-x="470" 
d="M43 3v109c19 -6 37 -10 57 -10c47 0 69 21 83 77l-167 571h119l107 -414h2l98 414h118l-165 -596c-33 -121 -89 -164 -171 -164c-35 0 -59 6 -81 13zM375 833h-264v72h264v-72z" />
    <glyph glyph-name="uni04EF" unicode="&#x4ef;" horiz-adv-x="408" 
d="M338 653h-264v72h264v-72zM2 -203v102c17 -5 34 -9 55 -9c34 0 59 21 76 81l18 65c-48 170 -101 353 -148 524h116l87 -353h1l83 353h116l-158 -576c-40 -145 -87 -200 -171 -200c-28 0 -51 5 -75 13z" />
    <glyph glyph-name="uni04F0" unicode="&#x4f0;" horiz-adv-x="470" 
d="M43 3v109c19 -6 37 -10 57 -10c47 0 69 21 83 77l-167 571h119l107 -414h2l98 414h118l-165 -596c-33 -121 -89 -164 -171 -164c-35 0 -59 6 -81 13zM206 824h-110v116h110v-116zM374 824h-110v116h110v-116z" />
    <glyph glyph-name="uni04F1" unicode="&#x4f1;" horiz-adv-x="408" 
d="M177 644h-110v116h110v-116zM345 644h-110v116h110v-116zM2 -203v102c17 -5 34 -9 55 -9c34 0 59 21 76 81l18 65c-48 170 -101 353 -148 524h116l87 -353h1l83 353h116l-158 -576c-40 -145 -87 -200 -171 -200c-28 0 -51 5 -75 13z" />
    <glyph glyph-name="uni04F2" unicode="&#x4f2;" horiz-adv-x="470" 
d="M43 3v109c19 -6 37 -10 57 -10c47 0 69 21 83 77l-167 571h119l107 -414h2l98 414h118l-165 -596c-33 -121 -89 -164 -171 -164c-35 0 -59 6 -81 13zM171 824h-82l86 182h116v-3zM335 824h-82l86 182h116v-3z" />
    <glyph glyph-name="uni04F3" unicode="&#x4f3;" horiz-adv-x="408" 
d="M149 644h-82l86 182h116v-3zM313 644h-82l86 182h116v-3zM2 -203v102c17 -5 34 -9 55 -9c34 0 59 21 76 81l18 65c-48 170 -101 353 -148 524h116l87 -353h1l83 353h116l-158 -576c-40 -145 -87 -200 -171 -200c-28 0 -51 5 -75 13z" />
    <glyph glyph-name="uni04F4" unicode="&#x4f4;" horiz-adv-x="509" 
d="M445 0h-115v283c-25 -3 -47 -4 -70 -4c-130 0 -198 77 -212 190c-2 19 -3 50 -3 80v201h115v-201c0 -25 1 -50 3 -64c8 -56 36 -97 100 -97c23 0 47 2 67 5v357h115v-750zM214 824h-110v116h110v-116zM382 824h-110v116h110v-116z" />
    <glyph glyph-name="uni04F5" unicode="&#x4f5;" horiz-adv-x="434" 
d="M373 0h-111v201c-18 -3 -41 -5 -62 -5c-100 0 -150 53 -163 136c-3 18 -5 39 -5 67v161h111v-157c0 -15 1 -32 2 -43c4 -35 25 -60 71 -60c16 0 32 2 46 4v256h111v-560zM173 644h-110v116h110v-116zM341 644h-110v116h110v-116z" />
    <glyph glyph-name="uni04F6" unicode="&#x4f6;" horiz-adv-x="436" 
d="M274 -247h-107v247h-103v750h354v-111h-239v-528h95v-358z" />
    <glyph glyph-name="uni04F7" unicode="&#x4f7;" horiz-adv-x="375" 
d="M253 -203h-101v203h-91v560h300v-105h-189v-350h81v-308z" />
    <glyph glyph-name="uni04F8" unicode="&#x4f8;" horiz-adv-x="695" 
d="M179 111h36c25 0 37 2 48 6c48 17 63 70 63 116c0 50 -18 96 -64 112c-11 4 -24 6 -47 6h-36v-240zM216 0h-152v750h115v-287h38c28 0 48 -2 65 -6c108 -24 159 -118 159 -224c0 -112 -53 -199 -150 -225c-20 -5 -43 -8 -75 -8zM631 0h-115v750h115v-750zM319 824h-110
v116h110v-116zM487 824h-110v116h110v-116z" />
    <glyph glyph-name="uni04F9" unicode="&#x4f9;" horiz-adv-x="629" 
d="M202 0h-141v560h111v-198h30c22 0 40 -2 55 -5c90 -19 134 -91 134 -175c0 -87 -45 -156 -127 -176c-17 -4 -38 -6 -62 -6zM172 102h32c12 0 24 1 33 4c32 9 43 45 43 76c0 33 -13 63 -44 74c-6 2 -19 4 -32 4h-32v-158zM568 0h-111v560h111v-560zM285 644h-110v116h110
v-116zM453 644h-110v116h110v-116z" />
    <glyph glyph-name="uni04FA" unicode="&#x4fa;" horiz-adv-x="458" 
d="M69 -233v105c13 -2 28 -3 36 -3c48 0 72 25 72 108v23h-91v352h-83v86h83v312h354v-111h-239v-201h138v-86h-138v-241h83v-136c0 -144 -66 -212 -163 -212c-16 0 -36 1 -52 4z" />
    <glyph glyph-name="uni04FB" unicode="&#x4fb;" horiz-adv-x="391" 
d="M59 -220v96c12 -2 23 -3 38 -3c45 0 67 25 67 107v20h-87v238h-71v80h71v242h300v-105h-189v-137h119v-80h-119v-133h77v-127c0 -144 -62 -202 -150 -202c-21 0 -37 1 -56 4z" />
    <glyph glyph-name="uni04FC" unicode="&#x4fc;" horiz-adv-x="494" 
d="M267 -233v105c13 -2 28 -3 36 -3c48 0 72 25 72 108v23h-44l-104 264c-35 -84 -69 -180 -104 -264h-126l170 391l-152 359h126l86 -228l86 228h126l-152 -359l121 -280h74v-136c0 -144 -66 -212 -163 -212c-16 0 -36 1 -52 4z" />
    <glyph glyph-name="uni04FD" unicode="&#x4fd;" horiz-adv-x="435" 
d="M217 -220v96c12 -2 23 -3 38 -3c45 0 67 25 67 107v20h-42l-81 188l-80 -188h-119l144 293l-132 267h119l68 -162l67 162h120l-132 -267l92 -188h77v-127c0 -144 -62 -202 -150 -202c-21 0 -37 1 -56 4z" />
    <glyph glyph-name="uni04FE" unicode="&#x4fe;" horiz-adv-x="463" 
d="M461 0h-125l-104 264l-104 -264h-126l152 350h-123v80h124l-135 320h126l86 -228l86 228h126l-136 -320h125v-80h-124z" />
    <glyph glyph-name="uni04FF" unicode="&#x4ff;" horiz-adv-x="404" 
d="M401 0h-118l-81 188l-80 -188h-119l127 255h-108v76h108l-115 229h119l68 -162l67 162h120l-115 -229h106v-76h-107z" />
    <glyph glyph-name="endash" unicode="&#x2013;" horiz-adv-x="461" 
d="M428 342h-395v96h395v-96z" />
    <glyph glyph-name="emdash" unicode="&#x2014;" horiz-adv-x="551" 
d="M518 342h-485v96h485v-96z" />
    <glyph glyph-name="quoteleft" unicode="&#x2018;" horiz-adv-x="209" 
d="M171 444h-135v119c0 83 33 172 143 187v-52c-60 -19 -74 -62 -74 -101c0 -9 5 -12 11 -12h55v-141z" />
    <glyph glyph-name="quoteright" unicode="&#x2019;" horiz-adv-x="204" 
d="M33 444v52c60 19 74 62 74 101c0 9 -5 12 -11 12h-55v141h135v-119c0 -83 -33 -172 -143 -187z" />
    <glyph glyph-name="quotesinglbase" unicode="&#x201a;" horiz-adv-x="204" 
d="M28 -165v52c60 19 74 62 74 101c0 9 -5 12 -11 12h-55v141h135v-119c0 -83 -33 -172 -143 -187z" />
    <glyph glyph-name="quotedblleft" unicode="&#x201c;" horiz-adv-x="399" 
d="M171 444h-135v119c0 83 33 172 143 187v-52c-60 -19 -74 -62 -74 -101c0 -9 5 -12 11 -12h55v-141zM361 444h-135v119c0 83 33 172 143 187v-52c-60 -19 -74 -62 -74 -101c0 -9 5 -12 11 -12h55v-141z" />
    <glyph glyph-name="quotedblright" unicode="&#x201d;" horiz-adv-x="394" 
d="M223 444v52c60 19 74 62 74 101c0 9 -5 12 -11 12h-55v141h135v-119c0 -83 -33 -172 -143 -187zM33 444v52c60 19 74 62 74 101c0 9 -5 12 -11 12h-55v141h135v-119c0 -83 -33 -172 -143 -187z" />
    <glyph glyph-name="quotedblbase" unicode="&#x201e;" horiz-adv-x="394" 
d="M218 -165v52c60 19 74 62 74 101c0 9 -5 12 -11 12h-55v141h135v-119c0 -83 -33 -172 -143 -187zM28 -165v52c60 19 74 62 74 101c0 9 -5 12 -11 12h-55v141h135v-119c0 -83 -33 -172 -143 -187z" />
    <glyph glyph-name="dagger" unicode="&#x2020;" horiz-adv-x="402" 
d="M241 -169h-80v626h-133v72h133v221h80v-221h133v-72h-133v-626z" />
    <glyph glyph-name="daggerdbl" unicode="&#x2021;" horiz-adv-x="412" 
d="M246 -169h-80v221h-133v72h133v333h-133v72h133v221h80v-221h133v-72h-133v-333h133v-72h-133v-221z" />
    <glyph glyph-name="bullet" unicode="&#x2022;" horiz-adv-x="273" 
d="M225 310h-177v207h177v-207z" />
    <glyph glyph-name="ellipsis" unicode="&#x2026;" horiz-adv-x="620" 
d="M167 0h-130v141h130v-141zM375 0h-130v141h130v-141zM583 0h-130v141h130v-141z" />
    <glyph glyph-name="perthousand" unicode="&#x2030;" horiz-adv-x="808" 
d="M172 0h-72l277 750h72zM185 590v22c0 58 -18 78 -41 78s-41 -20 -41 -78v-22c0 -57 18 -78 41 -78s41 21 41 78zM260 610v-18c0 -99 -49 -150 -116 -150s-116 51 -116 150v18c0 100 49 150 116 150s116 -50 116 -150zM440 138v22c0 58 -18 78 -41 78s-41 -20 -41 -78v-22
c0 -57 18 -78 41 -78s41 21 41 78zM515 158v-18c0 -99 -49 -150 -116 -150s-116 51 -116 150v18c0 100 49 150 116 150s116 -50 116 -150zM705 138v22c0 58 -18 78 -41 78s-41 -20 -41 -78v-22c0 -57 18 -78 41 -78s41 21 41 78zM780 158v-18c0 -99 -49 -150 -116 -150
s-116 51 -116 150v18c0 100 49 150 116 150s116 -50 116 -150z" />
    <glyph glyph-name="guilsinglleft" unicode="&#x2039;" horiz-adv-x="253" 
d="M215 36l-195 274l195 274v-145l-92 -129l92 -129v-145z" />
    <glyph glyph-name="guilsinglright" unicode="&#x203a;" horiz-adv-x="253" 
d="M38 36v145l92 129l-92 129v145l195 -274z" />
    <glyph glyph-name="fraction" unicode="&#x2044;" horiz-adv-x="269" 
d="M-1 -136l-81 30l352 954l81 -31z" />
    <glyph glyph-name="Euro" unicode="&#x20ac;" horiz-adv-x="514" 
d="M372 205h110c-3 -153 -91 -215 -185 -215c-98 0 -186 72 -186 212v52h-89l18 71h70v87h-88l18 71h71v65c0 140 88 212 186 212c94 0 182 -62 185 -215h-110c-5 96 -42 113 -76 113c-38 0 -77 -22 -77 -113v-62h169l-20 -71h-150v-87h131l-18 -71h-112v-49
c0 -91 39 -113 77 -113c34 0 71 17 76 113z" />
    <glyph glyph-name="uni2120" unicode="&#x2120;" horiz-adv-x="500" 
d="M191 660h-52c0 28 -10 48 -30 48c-21 0 -28 -17 -28 -34c0 -22 11 -34 29 -42l15 -7c39 -17 68 -42 68 -92c0 -55 -35 -88 -84 -88c-54 0 -85 43 -87 97h54c0 -29 15 -50 34 -50c17 0 31 12 31 38c0 24 -13 37 -36 49l-14 7c-33 17 -62 37 -62 88c0 52 34 82 80 82
c48 0 84 -32 82 -96zM465 450h-53v197l-44 -123h-43l-44 124v-198h-53v300h66l52 -154l53 154h66v-300z" />
    <glyph glyph-name="trademark" unicode="&#x2122;" horiz-adv-x="488" 
d="M132 450h-55v250h-59v50h172v-50h-58v-250zM453 450h-53v197l-44 -123h-43l-44 124v-198h-53v300h66l52 -154l53 154h66v-300z" />
    <glyph glyph-name="partialdiff" unicode="&#x2202;" horiz-adv-x="496" 
d="M456 0h-416v750h416v-750zM88 92l133 282l-133 279v-561zM408 92v561l-133 -279zM248 428l130 272h-260zM376 50l-128 269l-128 -269h256z" />
    <glyph glyph-name="product" unicode="&#x220f;" horiz-adv-x="496" 
d="M456 0h-416v750h416v-750zM88 92l133 282l-133 279v-561zM408 92v561l-133 -279zM248 428l130 272h-260zM376 50l-128 269l-128 -269h256z" />
    <glyph glyph-name="summation" unicode="&#x2211;" horiz-adv-x="496" 
d="M456 0h-416v750h416v-750zM88 92l133 282l-133 279v-561zM408 92v561l-133 -279zM248 428l130 272h-260zM376 50l-128 269l-128 -269h256z" />
    <glyph glyph-name="minus" unicode="&#x2212;" horiz-adv-x="463" 
d="M428 252h-393v96h393v-96z" />
    <glyph glyph-name="radical" unicode="&#x221a;" horiz-adv-x="496" 
d="M456 0h-416v750h416v-750zM88 92l133 282l-133 279v-561zM408 92v561l-133 -279zM248 428l130 272h-260zM376 50l-128 269l-128 -269h256z" />
    <glyph glyph-name="infinity" unicode="&#x221e;" horiz-adv-x="496" 
d="M456 0h-416v750h416v-750zM88 92l133 282l-133 279v-561zM408 92v561l-133 -279zM248 428l130 272h-260zM376 50l-128 269l-128 -269h256z" />
    <glyph glyph-name="integral" unicode="&#x222b;" horiz-adv-x="496" 
d="M456 0h-416v750h416v-750zM88 92l133 282l-133 279v-561zM408 92v561l-133 -279zM248 428l130 272h-260zM376 50l-128 269l-128 -269h256z" />
    <glyph glyph-name="approxequal" unicode="&#x2248;" horiz-adv-x="496" 
d="M456 0h-416v750h416v-750zM88 92l133 282l-133 279v-561zM408 92v561l-133 -279zM248 428l130 272h-260zM376 50l-128 269l-128 -269h256z" />
    <glyph glyph-name="notequal" unicode="&#x2260;" horiz-adv-x="465" 
d="M425 146h-213c-20 -47 -41 -99 -60 -146h-87l61 146h-86v96h125l48 116h-173v96h212l60 147h87l-61 -147h87v-96h-126l-48 -116h174v-96z" />
    <glyph glyph-name="lessequal" unicode="&#x2264;" horiz-adv-x="468" 
d="M423 -1h-378v95h378v-95zM423 129l-375 227v96l375 227v-114l-283 -161l283 -161v-114z" />
    <glyph glyph-name="greaterequal" unicode="&#x2265;" horiz-adv-x="468" 
d="M423 -1h-378v95h378v-95zM420 356l-375 -227v114l283 161l-283 161v114l375 -227v-96z" />
    <glyph glyph-name="lozenge" unicode="&#x25ca;" horiz-adv-x="496" 
d="M456 0h-416v750h416v-750zM88 92l133 282l-133 279v-561zM408 92v561l-133 -279zM248 428l130 272h-260zM376 50l-128 269l-128 -269h256z" />
    <glyph glyph-name="commaaccentlow" horiz-adv-x="400" 
d="M138 -284v41c48 15 59 48 59 71c0 7 -4 10 -8 10h-44v112h108v-95c0 -62 -27 -127 -115 -139z" />
    <glyph glyph-name="commaacaron" horiz-adv-x="400" 
d="M138 551v41c48 15 59 48 59 71c0 7 -4 10 -8 10h-44v112h108v-95c0 -62 -27 -127 -115 -139z" />
    <glyph glyph-name=".null" horiz-adv-x="0" 
 />
    <glyph glyph-name="registered.001" horiz-adv-x="858" 
d="M60 375c0 213 146 385 369 385s369 -172 369 -385s-146 -385 -369 -385s-369 172 -369 385zM111 375c0 -185 123 -336 318 -336s318 151 318 336s-123 336 -318 336s-318 -151 -318 -336zM616 148l-3 -6h-80c-14 15 -18 40 -20 61l-6 76c-4 42 -29 56 -74 56h-67v-193
h-78v472h139c23 0 41 -2 56 -5c64 -16 107 -57 107 -125c0 -45 -22 -84 -66 -107c37 -16 56 -44 60 -90l6 -79c2 -24 8 -46 26 -60zM423 541h-57v-133h61c55 0 85 30 85 73c0 31 -18 49 -48 56c-10 3 -25 4 -41 4z" />
    <glyph glyph-name="regsound" horiz-adv-x="858" 
d="M60 375c0 213 146 385 369 385s369 -172 369 -385s-146 -385 -369 -385s-369 172 -369 385zM111 375c0 -185 123 -336 318 -336s318 151 318 336s-123 336 -318 336s-318 -151 -318 -336zM380 375h69c27 0 41 4 53 10c21 12 35 37 35 65c0 30 -14 56 -35 67
c-12 6 -26 10 -53 10h-69v-152zM451 302h-71v-174h-78v472h149c33 0 54 -3 71 -10c54 -21 93 -74 93 -140s-36 -117 -93 -139c-17 -6 -35 -9 -71 -9z" />
    <glyph glyph-name="brevecyrillic" horiz-adv-x="500" 
d="M314 829h79c-6 -114 -62 -171 -143 -171s-137 57 -143 171h79c3 -69 29 -100 64 -100s61 31 64 100z" />
    <glyph glyph-name="_0000" horiz-adv-x="0" 
 />
    <glyph glyph-name="CR" horiz-adv-x="175" 
 />
    <glyph glyph-name="apple" horiz-adv-x="250" 
 />
    <glyph glyph-name="glyph277" horiz-adv-x="512" 
d="M253 -10h-4c-112 0 -172 75 -189 172c-5 27 -7 58 -7 86v254c0 28 2 59 7 86c17 97 77 172 189 172h4c94 0 152 -54 178 -129c15 14 17 32 17 63v83h84v-73c0 -14 -1 -28 -3 -40c-9 -48 -38 -79 -85 -92c3 -23 5 -48 5 -70v-254c0 -28 -2 -59 -7 -86
c-17 -97 -77 -172 -189 -172zM249 101h4c47 0 69 40 76 82c4 23 5 48 5 66v252c0 18 -1 43 -5 66c-7 42 -29 82 -76 82h-4c-47 0 -69 -40 -76 -82c-4 -23 -5 -48 -5 -66v-252c0 -18 1 -43 5 -66c7 -42 29 -82 76 -82z" />
    <glyph glyph-name="glyph278" horiz-adv-x="453" 
d="M395 333v-106c0 -32 -2 -53 -5 -73c-16 -96 -71 -164 -171 -164s-155 68 -171 164c-3 20 -5 41 -5 73v106c0 32 2 53 5 73c16 96 71 164 171 164c78 0 129 -42 155 -106c14 13 15 32 15 61v82h84v-72c0 -14 -1 -28 -3 -40c-9 -46 -36 -77 -80 -91c3 -19 5 -40 5 -71z
M284 229v102c0 31 -1 50 -4 67c-7 42 -27 67 -61 67s-54 -25 -61 -67c-3 -17 -4 -36 -4 -67v-102c0 -31 1 -50 4 -67c7 -42 27 -67 61 -67s54 25 61 67c3 17 4 36 4 67z" />
    <glyph glyph-name="glyph279" horiz-adv-x="562" 
d="M260 -10h-4c-112 0 -172 75 -189 172c-5 27 -7 58 -7 86v502h115v-501c0 -18 1 -43 5 -66c7 -42 29 -82 76 -82h4c47 0 69 40 76 82c4 23 5 48 5 66v501h115v-138c39 14 42 34 42 76v89h84v-79c0 -14 -1 -28 -3 -40c-10 -52 -43 -84 -97 -95l-26 -6v-309
c0 -28 -2 -59 -7 -86c-17 -97 -77 -172 -189 -172z" />
    <glyph glyph-name="glyph280" horiz-adv-x="522" 
d="M417 0h-77l-10 75c-24 -55 -73 -85 -125 -85c-82 0 -125 57 -140 137c-5 26 -7 57 -7 91v342h111v-340c0 -11 1 -37 3 -52c5 -39 20 -72 59 -72c36 0 57 32 67 68c5 18 8 38 8 72v324h111v-118c38 14 41 34 41 76v89h84v-79c0 -14 -1 -28 -3 -40c-10 -52 -43 -82 -97 -95
l-25 -6v-387z" />
    <glyph glyph-name="glyph281" horiz-adv-x="466" 
d="M284 329l-50 260h-2l-50 -260h102zM464 0h-117l-42 219h-144l-42 -219h-117l158 750h146zM278 -159h-90v93h90v-93z" />
    <glyph glyph-name="glyph282" horiz-adv-x="443" 
d="M385 0h-77l-9 65c-27 -50 -67 -75 -117 -75c-79 0 -144 64 -144 186c0 91 48 157 141 172c14 2 30 4 56 4h39v21c0 22 -2 37 -4 48c-7 34 -24 50 -51 50c-28 0 -48 -23 -54 -61h-109c14 98 76 160 167 160s146 -56 158 -160c2 -20 4 -48 4 -76v-334zM275 241v19h-43
c-21 0 -33 -2 -42 -6c-27 -12 -42 -39 -42 -76c0 -58 18 -90 55 -90c36 0 57 37 66 81c4 20 6 44 6 72zM262 -159h-90v93h90v-93z" />
    <glyph glyph-name="glyph283" horiz-adv-x="466" 
d="M284 329l-50 260h-2l-50 -260h102zM464 0h-117l-42 219h-144l-42 -219h-117l158 750h146zM204 803v73c45 10 67 30 67 52c0 21 -17 30 -39 30c-16 0 -31 -4 -51 -10l-8 50c20 8 42 12 69 12c47 0 88 -29 88 -77c0 -42 -29 -76 -79 -93v-37h-47z" />
    <glyph glyph-name="glyph284" horiz-adv-x="443" 
d="M385 0h-77l-9 65c-27 -50 -67 -75 -117 -75c-79 0 -144 64 -144 186c0 91 48 157 141 172c14 2 30 4 56 4h39v21c0 22 -2 37 -4 48c-7 34 -24 50 -51 50c-28 0 -48 -23 -54 -61h-109c14 98 76 160 167 160s146 -56 158 -160c2 -20 4 -48 4 -76v-334zM275 241v19h-43
c-21 0 -33 -2 -42 -6c-27 -12 -42 -39 -42 -76c0 -58 18 -90 55 -90c36 0 57 37 66 81c4 20 6 44 6 72zM192 618v73c45 11 67 30 67 52c0 21 -17 30 -39 30c-16 0 -31 -4 -51 -10l-8 50c20 8 42 12 69 12c47 0 88 -29 88 -77c0 -42 -29 -76 -79 -93v-37h-47z" />
    <glyph glyph-name="glyph285" horiz-adv-x="466" 
d="M284 329l-50 260h-2l-50 -260h102zM464 0h-117l-42 219h-144l-42 -219h-117l158 750h146zM204 930h58l106 -133h-67l-68 81l-68 -81h-67zM378 878h-52l70 112h84z" />
    <glyph glyph-name="glyph286" horiz-adv-x="443" 
d="M385 0h-77l-9 65c-27 -50 -67 -75 -117 -75c-79 0 -144 64 -144 186c0 91 48 157 141 172c14 2 30 4 56 4h39v21c0 22 -2 37 -4 48c-7 34 -24 50 -51 50c-28 0 -48 -23 -54 -61h-109c14 98 76 160 167 160s146 -56 158 -160c2 -20 4 -48 4 -76v-334zM275 241v19h-43
c-21 0 -33 -2 -42 -6c-27 -12 -42 -39 -42 -76c0 -58 18 -90 55 -90c36 0 57 37 66 81c4 20 6 44 6 72zM351 706h-49l68 121h82zM184 758h57l103 -145h-66l-65 87l-65 -87h-67z" />
    <glyph glyph-name="glyph287" horiz-adv-x="466" 
d="M284 329l-50 260h-2l-50 -260h102zM464 0h-117l-42 219h-144l-42 -219h-117l158 750h146zM203 930h58l106 -133h-67l-68 81l-68 -81h-67zM139 878h-52l-102 112h84z" />
    <glyph glyph-name="glyph288" horiz-adv-x="443" 
d="M385 0h-77l-9 65c-27 -50 -67 -75 -117 -75c-79 0 -144 64 -144 186c0 91 48 157 141 172c14 2 30 4 56 4h39v21c0 22 -2 37 -4 48c-7 34 -24 50 -51 50c-28 0 -48 -23 -54 -61h-109c14 98 76 160 167 160s146 -56 158 -160c2 -20 4 -48 4 -76v-334zM275 241v19h-43
c-21 0 -33 -2 -42 -6c-27 -12 -42 -39 -42 -76c0 -58 18 -90 55 -90c36 0 57 37 66 81c4 20 6 44 6 72zM130 706h-49l-101 121h82zM191 758h57l103 -145h-67l-65 87l-65 -87h-66z" />
    <glyph glyph-name="glyph289" horiz-adv-x="466" 
d="M284 329l-50 260h-2l-50 -260h102zM464 0h-117l-42 219h-144l-42 -219h-117l158 750h146zM203 930h58l106 -133h-67l-68 81l-67 -81h-68zM337 867v59c32 8 46 24 46 37c0 12 -11 17 -24 17c-10 0 -23 -3 -39 -9l-8 45c18 9 36 12 53 12c37 0 71 -23 71 -63
c0 -34 -25 -59 -60 -72l-1 -26h-38z" />
    <glyph glyph-name="glyph290" horiz-adv-x="443" 
d="M385 0h-77l-9 65c-27 -50 -67 -75 -117 -75c-79 0 -144 64 -144 186c0 91 48 157 141 172c14 2 30 4 56 4h39v21c0 22 -2 37 -4 48c-7 34 -24 50 -51 50c-28 0 -48 -23 -54 -61h-109c14 98 76 160 167 160s146 -56 158 -160c2 -20 4 -48 4 -76v-334zM275 241v19h-43
c-21 0 -33 -2 -42 -6c-27 -12 -42 -39 -42 -76c0 -58 18 -90 55 -90c36 0 57 37 66 81c4 20 6 44 6 72zM323 695v59c32 8 46 24 46 37c0 12 -11 17 -24 17c-10 0 -23 -3 -39 -9l-8 45c18 9 36 12 53 12c37 0 71 -23 71 -63c0 -34 -25 -59 -60 -72l-1 -26h-38zM197 758h57
l103 -145h-67l-65 87l-65 -87h-66z" />
    <glyph glyph-name="glyph291" horiz-adv-x="466" 
d="M284 329l-50 260h-2l-50 -260h102zM464 0h-117l-42 219h-144l-42 -219h-117l158 750h146zM201 915h58l106 -123h-67l-68 71l-68 -71h-67zM243 1023c25 -21 32 -26 44 -26c11 0 22 10 25 43h48c-3 -65 -31 -100 -72 -100c-18 0 -37 6 -57 25c-23 21 -30 27 -42 27
c-13 0 -23 -11 -26 -43h-49c4 64 31 99 72 99c18 0 36 -7 57 -25z" />
    <glyph glyph-name="glyph292" horiz-adv-x="443" 
d="M385 0h-77l-9 65c-27 -50 -67 -75 -117 -75c-79 0 -144 64 -144 186c0 91 48 157 141 172c14 2 30 4 56 4h39v21c0 22 -2 37 -4 48c-7 34 -24 50 -51 50c-28 0 -48 -23 -54 -61h-109c14 98 76 160 167 160s146 -56 158 -160c2 -20 4 -48 4 -76v-334zM275 241v19h-43
c-21 0 -33 -2 -42 -6c-27 -12 -42 -39 -42 -76c0 -58 18 -90 55 -90c36 0 57 37 66 81c4 20 6 44 6 72zM194 741h57l103 -135h-67l-65 77l-65 -77h-66zM234 854c27 -23 33 -27 45 -27c11 0 21 13 24 44h48c-3 -65 -29 -104 -71 -104c-18 0 -39 7 -58 25
c-25 23 -31 28 -43 28c-13 0 -22 -14 -25 -44h-49c4 64 29 103 71 103c18 0 38 -8 58 -25z" />
    <glyph glyph-name="glyph293" horiz-adv-x="466" 
d="M284 329l-50 260h-2l-50 -260h102zM464 0h-117l-42 219h-144l-42 -219h-117l158 750h146zM204 953h57l104 -145h-67l-65 87l-65 -87h-67zM278 -159h-90v93h90v-93z" />
    <glyph glyph-name="glyph294" horiz-adv-x="443" 
d="M385 0h-77l-9 65c-27 -50 -67 -75 -117 -75c-79 0 -144 64 -144 186c0 91 48 157 141 172c14 2 30 4 56 4h39v21c0 22 -2 37 -4 48c-7 34 -24 50 -51 50c-28 0 -48 -23 -54 -61h-109c14 98 76 160 167 160s146 -56 158 -160c2 -20 4 -48 4 -76v-334zM275 241v19h-43
c-21 0 -33 -2 -42 -6c-27 -12 -42 -39 -42 -76c0 -58 18 -90 55 -90c36 0 57 37 66 81c4 20 6 44 6 72zM194 758h57l104 -145h-67l-65 87l-65 -87h-67zM263 -159h-90v93h90v-93z" />
    <glyph glyph-name="glyph295" horiz-adv-x="466" 
d="M284 329l-50 260h-2l-50 -260h102zM464 0h-117l-42 219h-144l-42 -219h-117l158 750h146zM229 800c-67 0 -117 49 -121 125h55c6 -42 32 -67 66 -67c33 0 60 25 65 67h56c-4 -76 -54 -125 -121 -125zM252 930h-51l72 94h89z" />
    <glyph glyph-name="glyph296" horiz-adv-x="443" 
d="M385 0h-77l-9 65c-27 -50 -67 -75 -117 -75c-79 0 -144 64 -144 186c0 91 48 157 141 172c14 2 30 4 56 4h39v21c0 22 -2 37 -4 48c-7 34 -24 50 -51 50c-28 0 -48 -23 -54 -61h-109c14 98 76 160 167 160s146 -56 158 -160c2 -20 4 -48 4 -76v-334zM275 241v19h-43
c-21 0 -33 -2 -42 -6c-27 -12 -42 -39 -42 -76c0 -58 18 -90 55 -90c36 0 57 37 66 81c4 20 6 44 6 72zM220 613c-67 0 -112 51 -115 132h55c6 -46 26 -70 60 -70s54 24 60 70h55c-3 -81 -48 -132 -115 -132zM244 751h-49l65 116h82z" />
    <glyph glyph-name="glyph297" horiz-adv-x="466" 
d="M284 329l-50 260h-2l-50 -260h102zM464 0h-117l-42 219h-144l-42 -219h-117l158 750h146zM229 800c-67 0 -117 49 -121 125h56c5 -42 32 -67 65 -67c34 0 60 25 66 67h55c-4 -76 -54 -125 -121 -125zM257 930h-51l-110 94h89z" />
    <glyph glyph-name="glyph298" horiz-adv-x="443" 
d="M385 0h-77l-9 65c-27 -50 -67 -75 -117 -75c-79 0 -144 64 -144 186c0 91 48 157 141 172c14 2 30 4 56 4h39v21c0 22 -2 37 -4 48c-7 34 -24 50 -51 50c-28 0 -48 -23 -54 -61h-109c14 98 76 160 167 160s146 -56 158 -160c2 -20 4 -48 4 -76v-334zM275 241v19h-43
c-21 0 -33 -2 -42 -6c-27 -12 -42 -39 -42 -76c0 -58 18 -90 55 -90c36 0 57 37 66 81c4 20 6 44 6 72zM219 613c-67 0 -112 51 -115 132h55c6 -46 26 -70 60 -70s54 24 60 70h55c-3 -81 -48 -132 -115 -132zM244 751h-49l-98 116h82z" />
    <glyph glyph-name="glyph299" horiz-adv-x="466" 
d="M284 329l-50 260h-2l-50 -260h102zM464 0h-117l-42 219h-144l-42 -219h-117l158 750h146zM214 907v51c33 7 47 19 47 32s-11 17 -27 17c-12 0 -23 -2 -37 -7l-8 42c18 6 33 9 51 9c38 0 73 -21 73 -58c0 -33 -25 -53 -60 -65l-1 -21h-38zM233 800c-67 0 -117 44 -121 120
h56c5 -42 32 -62 65 -62c34 0 60 20 66 62h55c-4 -76 -54 -120 -121 -120z" />
    <glyph glyph-name="glyph300" horiz-adv-x="443" 
d="M385 0h-77l-9 65c-27 -50 -67 -75 -117 -75c-79 0 -144 64 -144 186c0 91 48 157 141 172c14 2 30 4 56 4h39v21c0 22 -2 37 -4 48c-7 34 -24 50 -51 50c-28 0 -48 -23 -54 -61h-109c14 98 76 160 167 160s146 -56 158 -160c2 -20 4 -48 4 -76v-334zM275 241v19h-43
c-21 0 -33 -2 -42 -6c-27 -12 -42 -39 -42 -76c0 -58 18 -90 55 -90c36 0 57 37 66 81c4 20 6 44 6 72zM202 740v54c32 8 46 24 46 37c0 12 -11 17 -24 17c-10 0 -23 -3 -39 -9l-8 45c18 9 36 12 53 12c37 0 71 -23 71 -63c0 -34 -25 -59 -60 -72l-1 -21h-38zM221 613
c-67 0 -112 48 -115 127h55c6 -46 26 -65 60 -65s54 19 60 65h55c-3 -79 -48 -127 -115 -127z" />
    <glyph glyph-name="glyph301" horiz-adv-x="466" 
d="M284 329l-50 260h-2l-50 -260h102zM464 0h-117l-42 219h-144l-42 -219h-117l158 750h146zM231 798c-67 0 -117 45 -121 118h55c5 -40 33 -60 66 -60c34 0 61 20 67 60h54c-4 -73 -54 -118 -121 -118zM239 1030c25 -21 33 -24 45 -24c11 0 21 10 24 41h48
c-3 -65 -30 -100 -72 -100c-18 0 -37 6 -57 25c-23 21 -31 25 -43 25c-13 0 -22 -11 -25 -41h-49c4 64 30 99 72 99c18 0 36 -7 57 -25z" />
    <glyph glyph-name="glyph302" horiz-adv-x="443" 
d="M385 0h-77l-9 65c-27 -50 -67 -75 -117 -75c-79 0 -144 64 -144 186c0 91 48 157 141 172c14 2 30 4 56 4h39v21c0 22 -2 37 -4 48c-7 34 -24 50 -51 50c-28 0 -48 -23 -54 -61h-109c14 98 76 160 167 160s146 -56 158 -160c2 -20 4 -48 4 -76v-334zM275 241v19h-43
c-21 0 -33 -2 -42 -6c-27 -12 -42 -39 -42 -76c0 -58 18 -90 55 -90c36 0 57 37 66 81c4 20 6 44 6 72zM228 614c-67 0 -112 48 -115 125h55c6 -41 26 -63 60 -63s54 22 60 63h55c-3 -77 -48 -125 -115 -125zM235 861c27 -23 33 -27 45 -27c11 0 21 10 24 44h48
c-3 -67 -31 -104 -71 -104c-18 0 -39 7 -58 25c-25 23 -31 28 -43 28c-13 0 -22 -11 -25 -44h-49c4 66 31 103 71 103c18 0 38 -8 58 -25z" />
    <glyph glyph-name="glyph303" horiz-adv-x="466" 
d="M232 821c-67 0 -112 48 -115 125h55c6 -41 26 -63 60 -63s54 22 60 63h55c-3 -77 -48 -125 -115 -125zM284 329l-50 260h-2l-50 -260h102zM464 0h-117l-42 219h-144l-42 -219h-117l158 750h146zM275 -159h-90v93h90v-93z" />
    <glyph glyph-name="glyph304" horiz-adv-x="443" 
d="M220 618c-67 0 -112 48 -115 125h55c6 -41 26 -63 60 -63s54 22 60 63h55c-3 -77 -48 -125 -115 -125zM385 0h-77l-9 65c-27 -50 -67 -75 -117 -75c-79 0 -144 64 -144 186c0 91 48 157 141 172c14 2 30 4 56 4h39v21c0 22 -2 37 -4 48c-7 34 -24 50 -51 50
c-28 0 -48 -23 -54 -61h-109c14 98 76 160 167 160s146 -56 158 -160c2 -20 4 -48 4 -76v-334zM275 241v19h-43c-21 0 -33 -2 -42 -6c-27 -12 -42 -39 -42 -76c0 -58 18 -90 55 -90c36 0 57 37 66 81c4 20 6 44 6 72z" />
    <glyph glyph-name="glyph305" horiz-adv-x="452" 
d="M424 0h-360v750h360v-111h-245v-199h203v-111h-203v-218h245v-111zM291 -159h-90v93h90v-93z" />
    <glyph glyph-name="glyph306" horiz-adv-x="437" 
d="M395 253h-241v-27c0 -31 1 -50 4 -67c7 -42 27 -67 61 -67c40 0 59 38 62 75h110c-14 -109 -72 -177 -172 -177s-155 68 -171 164c-3 20 -5 41 -5 73v106c0 32 2 53 5 73c16 96 71 164 171 164s155 -68 170 -164c5 -29 6 -51 6 -103v-50zM154 347h130c0 16 -1 36 -4 53
c-7 42 -27 68 -61 68s-54 -26 -61 -68c-2 -15 -4 -30 -4 -53zM263 -159h-90v93h90v-93z" />
    <glyph glyph-name="glyph307" horiz-adv-x="452" 
d="M424 0h-360v750h360v-111h-245v-199h203v-111h-203v-218h245v-111zM214 803v73c45 10 67 30 67 52c0 21 -17 30 -39 30c-16 0 -31 -4 -51 -10l-8 50c20 8 42 12 69 12c47 0 88 -29 88 -77c0 -42 -29 -76 -79 -93v-37h-47z" />
    <glyph glyph-name="glyph308" horiz-adv-x="437" 
d="M395 253h-241v-27c0 -31 1 -50 4 -67c7 -42 27 -67 61 -67c40 0 59 38 62 75h110c-14 -109 -72 -177 -172 -177s-155 68 -171 164c-3 20 -5 41 -5 73v106c0 32 2 53 5 73c16 96 71 164 171 164s155 -68 170 -164c5 -29 6 -51 6 -103v-50zM154 347h130c0 16 -1 36 -4 53
c-7 42 -27 68 -61 68s-54 -26 -61 -68c-2 -15 -4 -30 -4 -53zM191 618v73c45 11 67 30 67 52c0 21 -17 30 -39 30c-16 0 -31 -4 -51 -10l-8 50c20 8 42 12 69 12c47 0 88 -29 88 -77c0 -42 -29 -76 -79 -93v-37h-47z" />
    <glyph glyph-name="glyph309" horiz-adv-x="452" 
d="M424 0h-360v750h360v-111h-245v-199h203v-111h-203v-218h245v-111zM331 935h55c-3 -68 -32 -116 -86 -116c-23 0 -41 9 -59 27c-24 25 -36 36 -49 36c-15 0 -25 -13 -28 -51h-55c3 68 32 116 86 116c23 0 41 -9 59 -27c24 -25 36 -36 49 -36c15 0 25 13 28 51z" />
    <glyph glyph-name="glyph310" horiz-adv-x="437" 
d="M395 253h-241v-27c0 -31 1 -50 4 -67c7 -42 27 -67 61 -67c40 0 59 38 62 75h110c-14 -109 -72 -177 -172 -177s-155 68 -171 164c-3 20 -5 41 -5 73v106c0 32 2 53 5 73c16 96 71 164 171 164s155 -68 170 -164c5 -29 6 -51 6 -103v-50zM154 347h130c0 16 -1 36 -4 53
c-7 42 -27 68 -61 68s-54 -26 -61 -68c-2 -15 -4 -30 -4 -53zM301 740h55c-3 -70 -32 -120 -86 -120c-23 0 -41 9 -60 28c-24 26 -36 37 -49 37c-15 0 -25 -13 -28 -53h-55c3 70 32 120 86 120c23 0 41 -9 60 -28c24 -26 36 -37 49 -37c15 0 25 13 28 53z" />
    <glyph glyph-name="glyph311" horiz-adv-x="452" 
d="M424 0h-360v750h360v-111h-245v-199h203v-111h-203v-218h245v-111zM216 930h58l106 -133h-67l-68 81l-68 -81h-67zM390 878h-52l70 112h84z" />
    <glyph glyph-name="glyph312" horiz-adv-x="437" 
d="M395 253h-241v-27c0 -31 1 -50 4 -67c7 -42 27 -67 61 -67c40 0 59 38 62 75h110c-14 -109 -72 -177 -172 -177s-155 68 -171 164c-3 20 -5 41 -5 73v106c0 32 2 53 5 73c16 96 71 164 171 164s155 -68 170 -164c5 -29 6 -51 6 -103v-50zM154 347h130c0 16 -1 36 -4 53
c-7 42 -27 68 -61 68s-54 -26 -61 -68c-2 -15 -4 -30 -4 -53zM356 706h-49l68 121h82zM189 758h57l103 -145h-66l-65 87l-65 -87h-67z" />
    <glyph glyph-name="glyph313" horiz-adv-x="452" 
d="M424 0h-360v750h360v-111h-245v-199h203v-111h-203v-218h245v-111zM211 930h58l106 -133h-67l-68 81l-68 -81h-67zM147 878h-52l-102 112h84z" />
    <glyph glyph-name="glyph314" horiz-adv-x="437" 
d="M395 253h-241v-27c0 -31 1 -50 4 -67c7 -42 27 -67 61 -67c40 0 59 38 62 75h110c-14 -109 -72 -177 -172 -177s-155 68 -171 164c-3 20 -5 41 -5 73v106c0 32 2 53 5 73c16 96 71 164 171 164s155 -68 170 -164c5 -29 6 -51 6 -103v-50zM154 347h130c0 16 -1 36 -4 53
c-7 42 -27 68 -61 68s-54 -26 -61 -68c-2 -15 -4 -30 -4 -53zM130 706h-49l-101 121h82zM191 758h57l103 -145h-67l-65 87l-65 -87h-66z" />
    <glyph glyph-name="glyph315" horiz-adv-x="452" 
d="M424 0h-360v750h360v-111h-245v-199h203v-111h-203v-218h245v-111zM211 930h58l106 -133h-67l-68 81l-68 -81h-67zM385 878h-52l70 112h84z" />
    </font>
</defs>
</svg>
