<?xml version="1.0" standalone="no"?>
<!DOCTYPE svg PUBLIC "-//W3C//DTD SVG 1.1//EN" "http://www.w3.org/Graphics/SVG/1.1/DTD/svg11.dtd" >
<svg>
<metadata>
Created by FontForge 20120731 at Mon Jul 18 18:18:19 2016
 By ,,,
Copyright (c) 2008 by Process Type Foundry. All rights reserved.
</metadata>
<defs>
<font id="StratumGMC-Thin" horiz-adv-x="504" >
  <font-face 
    font-family="StratumGMC Thin"
    font-weight="250"
    font-stretch="normal"
    units-per-em="1000"
    panose-1="2 11 5 6 3 0 0 2 0 4"
    ascent="770"
    descent="-230"
    x-height="474"
    cap-height="666"
    bbox="-48 -213 1254 920"
    underline-thickness="50"
    underline-position="-50"
    unicode-range="U+0020-FB02"
  />
<missing-glyph horiz-adv-x="626" 
d="M80 0v666h466v-666h-466zM497 616h-340l340 -527v527zM129 576v-527h339z" />
    <glyph glyph-name="fi" unicode="fi" horiz-adv-x="515" 
d="M45 458v16h80v81q0 47 32 79t78 32h67v-17h-67q-39 0 -65.5 -27t-26.5 -66v-82h156v-16h-156v-458h-18v458h-80zM420 0h-18v474h18v-474zM420 578h-18v88h18v-88z" />
    <glyph glyph-name="fl" unicode="fl" horiz-adv-x="505" 
d="M45 458v16h80v81q0 47 32 79t78 32h67v-17h-67q-39 0 -65.5 -27t-26.5 -66v-82h156v-16h-156v-458h-18v458h-80zM415 0h-18v666h18v-666z" />
    <glyph glyph-name=".notdef" horiz-adv-x="626" 
d="M80 0v666h466v-666h-466zM497 616h-340l340 -527v527zM129 576v-527h339z" />
    <glyph glyph-name=".null" horiz-adv-x="0" 
 />
    <glyph glyph-name="nonmarkingreturn" horiz-adv-x="333" 
 />
    <glyph glyph-name="space" unicode=" " horiz-adv-x="220" 
 />
    <glyph glyph-name="exclam" unicode="!" horiz-adv-x="210" 
d="M111 190h-12l-3 126v350h18v-350zM115 0h-20v78h20v-78z" />
    <glyph glyph-name="quotedbl" unicode="&#x22;" horiz-adv-x="300" 
d="M88 448h-18v218h18v-218zM230 448h-18v218h18v-218z" />
    <glyph glyph-name="numbersign" unicode="#" horiz-adv-x="742" 
d="M646 211h-167l-35 -211h-17l35 211h-239l-35 -211h-17l35 211h-156l3 16h156l35 213h-156l3 16h156l35 210h17l-35 -210h239l35 210h17l-35 -210h167l-3 -16h-167l-35 -213h167zM261 440l-35 -213h239l35 213h-239z" />
    <glyph glyph-name="dollar" unicode="$" horiz-adv-x="525" 
d="M255 -101v101h-45q-46 0 -78 32t-32 79v62h18v-63q0 -39 26.5 -66t65.5 -27h105q41 0 66.5 22.5t25.5 60.5v133q0 36 -24 54t-73 31l-97 26q-55 15 -82.5 36.5t-27.5 64.5v120q0 46 30.5 73.5t79.5 27.5h42v104h18v-104h37q46 0 78 -32t32 -79v-58h-18v59q0 39 -26 66
t-66 27h-97q-42 0 -67 -22t-25 -61v-120q0 -36 22.5 -53t73.5 -32q23 -7 54.5 -15.5t46.5 -12.5q54 -15 80.5 -36.5t26.5 -64.5v-131q0 -46 -31 -73.5t-79 -27.5h-42v-101h-18z" />
    <glyph glyph-name="percent" unicode="%" horiz-adv-x="939" 
d="M849 278v-179q0 -42 -28 -70.5t-70 -28.5h-90q-42 0 -70 28.5t-28 70.5v179q0 42 28 70.5t70 28.5h90q42 0 70 -28.5t28 -70.5zM579 279v-181q0 -35 24 -59t58 -24h90q34 0 58 24t24 59v181q0 35 -24 59t-58 24h-90q-34 0 -58 -24t-24 -59zM376 567v-179q0 -42 -28 -70.5
t-70 -28.5h-90q-42 0 -70 28.5t-28 70.5v179q0 42 28 70.5t70 28.5h90q42 0 70 -28.5t28 -70.5zM106 568v-181q0 -35 24 -59t58 -24h90q34 0 58 24t24 59v181q0 35 -24 59t-58 24h-90q-34 0 -58 -24t-24 -59zM641 666l-325 -666h-17l325 666h17z" />
    <glyph glyph-name="ampersand" unicode="&#x26;" horiz-adv-x="569" 
d="M549 337h-88v-226q0 -47 -32 -79t-78 -32h-156q-46 0 -78 32t-32 79v132q0 74 75 104q-31 14 -49 40.5t-18 59.5v108q0 47 32 79t78 32h139q46 0 78 -32t32 -79v-35h-18v36q0 39 -26.5 66t-65.5 27h-139q-39 0 -65.5 -27t-26.5 -66v-109q0 -39 25.5 -66t62.5 -27h350v-17
zM351 17q39 0 65.5 27t26.5 66v227h-248q-39 0 -65.5 -27t-26.5 -66v-134q0 -39 26.5 -66t65.5 -27h156z" />
    <glyph glyph-name="quotesingle" unicode="'" horiz-adv-x="158" 
d="M88 448h-18v218h18v-218z" />
    <glyph glyph-name="parenleft" unicode="(" horiz-adv-x="225" 
d="M108 635v-700q0 -41 32 -71q8 -8 75 -66l-11 -11q-52 44 -76 65q-38 33 -38 84v698q0 51 38 84q24 21 76 65l11 -11q-67 -58 -75 -66q-32 -30 -32 -71z" />
    <glyph glyph-name="parenright" unicode=")" horiz-adv-x="225" 
d="M117 -65v700q0 41 -32 71q-8 8 -75 66l11 11q52 -44 76 -65q38 -33 38 -84v-698q0 -51 -38 -84q-24 -21 -76 -65l-11 11q67 58 75 66q32 30 32 71z" />
    <glyph glyph-name="asterisk" unicode="*" horiz-adv-x="438" 
d="M45 516v14h161l-90 134l12 7l91 -136l91 136l12 -7l-90 -134h161v-14h-162l91 -134l-12 -7l-91 135l-91 -135l-12 7l90 134h-161z" />
    <glyph glyph-name="plus" unicode="+" horiz-adv-x="545" 
d="M280 116h-16v200h-199v15h199v200h16v-200h200v-15h-200v-200z" />
    <glyph glyph-name="comma" unicode="," horiz-adv-x="185" 
d="M67 -95l-17 7l35 88v78h20v-78z" />
    <glyph glyph-name="hyphen" unicode="-" horiz-adv-x="345" 
d="M60 287v16h225v-16h-225z" />
    <glyph glyph-name="period" unicode="." horiz-adv-x="200" 
d="M110 0h-20v78h20v-78z" />
    <glyph glyph-name="slash" unicode="/" horiz-adv-x="394" 
d="M66 -117h-16l288 793h16z" />
    <glyph glyph-name="zero" unicode="0" horiz-adv-x="551" 
d="M461 555v-444q0 -47 -32 -79t-78 -32h-151q-46 0 -78 32t-32 79v444q0 47 32 79t78 32h151q46 0 78 -32t32 -79zM108 556v-446q0 -39 26.5 -66t65.5 -27h151q39 0 65.5 27t26.5 66v446q0 39 -26.5 66t-65.5 27h-151q-39 0 -65.5 -27t-26.5 -66z" />
    <glyph glyph-name="one" unicode="1" horiz-adv-x="335" 
d="M222 666h18v-666h-18v648l-202 -68v17z" />
    <glyph glyph-name="two" unicode="2" horiz-adv-x="529" 
d="M441 0h-356v195q0 43 27 68t78 42q25 8 70.5 22.5t79.5 25.5q51 17 68.5 34.5t17.5 55.5v113q0 40 -25.5 66.5t-66.5 26.5h-144q-40 0 -66 -27t-26 -66v-54h-18v53q0 47 32 79t78 32h144q48 0 79 -32t31 -79v-113q0 -43 -22 -64.5t-79 -40.5q-45 -15 -148 -48
q-47 -15 -69.5 -36.5t-22.5 -58.5v-177h338v-17z" />
    <glyph glyph-name="three" unicode="3" horiz-adv-x="535" 
d="M167 333v17h169q40 0 64 25.5t24 66.5v114q0 39 -26.5 66t-65.5 27h-140q-39 0 -65.5 -27t-26.5 -66v-48h-18v47q0 47 32 79t78 32h140q46 0 78 -32t32 -79v-114q0 -73 -67 -100q31 -11 50.5 -39.5t19.5 -62.5v-128q0 -47 -32 -79t-78 -32h-150q-46 0 -78 32t-32 79v42
h18v-43q0 -39 26.5 -66t65.5 -27h150q39 0 65.5 27t26.5 66v130q0 39 -26.5 66t-65.5 27h-168z" />
    <glyph glyph-name="four" unicode="4" horiz-adv-x="518" 
d="M25 222l332 444h18v-444h121v-15h-121v-207h-17v207h-333v15zM46 222h312v419z" />
    <glyph glyph-name="five" unicode="5" horiz-adv-x="526" 
d="M93 666h342v-17h-324v-303q26 39 88 53q48 10 141 10q47 0 76.5 -27t29.5 -73v-198q0 -47 -32 -79t-78 -32h-136q-46 0 -78 32t-32 79v28h18v-29q0 -39 26.5 -66t65.5 -27h136q39 0 65.5 27t26.5 66v199q0 39 -23.5 61t-64.5 22q-106 0 -150 -13q-79 -24 -79 -88v-23h-18
v398z" />
    <glyph glyph-name="six" unicode="6" horiz-adv-x="531" 
d="M90 111v444q0 47 32 79t78 32h132q46 0 78 -32t32 -79v-41h-18v42q0 39 -26.5 66t-65.5 27h-132q-39 0 -65.5 -27t-26.5 -66v-241q26 39 88 53t144 14q47 0 76.5 -27t29.5 -73v-171q0 -47 -32 -79t-78 -32h-136q-46 0 -78 32t-32 79zM428 110v172q0 39 -23.5 61t-64.5 22
q-94 0 -153 -17q-33 -9 -56 -31.5t-23 -56.5v-150q0 -39 26.5 -66t65.5 -27h136q39 0 65.5 27t26.5 66z" />
    <glyph glyph-name="seven" unicode="7" horiz-adv-x="431" 
d="M396 649l-231 -649h-18l231 649h-343v17h361v-17z" />
    <glyph glyph-name="eight" unicode="8" horiz-adv-x="556" 
d="M356 0h-156q-46 0 -78 32t-32 79v132q0 74 75 104q-31 14 -49 40.5t-18 59.5v108q0 47 32 79t78 32h140q46 0 78 -32t32 -79v-108q0 -33 -18 -59.5t-49 -40.5q75 -30 75 -104v-132q0 -47 -32 -79t-78 -32zM356 337h-156q-39 0 -65.5 -27t-26.5 -66v-134q0 -39 26.5 -66
t65.5 -27h156q39 0 65.5 27t26.5 66v134q0 39 -26.5 66t-65.5 27zM348 649h-140q-39 0 -65.5 -27t-26.5 -66v-109q0 -38 25 -64.5t63 -28.5h148q38 2 63 28.5t25 64.5v109q0 39 -26.5 66t-65.5 27z" />
    <glyph glyph-name="nine" unicode="9" horiz-adv-x="532" 
d="M442 555v-444q0 -47 -32 -79t-78 -32h-137q-46 0 -78 32t-32 79v41h18v-42q0 -39 26.5 -66t65.5 -27h137q39 0 65.5 27t26.5 66v241q-26 -39 -88 -53t-144 -14q-47 0 -76.5 27t-29.5 73v171q0 47 32 79t78 32h136q46 0 78 -32t32 -79zM104 556v-172q0 -39 23.5 -61
t64.5 -22q94 0 153 17q33 9 56 31.5t23 56.5v150q0 39 -26.5 66t-65.5 27h-136q-39 0 -65.5 -27t-26.5 -66z" />
    <glyph glyph-name="colon" unicode=":" horiz-adv-x="200" 
d="M110 0h-20v78h20v-78zM110 340h-20v78h20v-78z" />
    <glyph glyph-name="semicolon" unicode=";" horiz-adv-x="200" 
d="M110 340h-20v78h20v-78zM72 -95l-17 7l35 88v78h20v-78z" />
    <glyph glyph-name="less" unicode="&#x3c;" horiz-adv-x="580" 
d="M65 330l418 210l7 -13l-409 -204l409 -204l-7 -13l-418 210v14z" />
    <glyph glyph-name="equal" unicode="=" horiz-adv-x="515" 
d="M60 409v15h395v-15h-395zM60 222v15h395v-15h-395z" />
    <glyph glyph-name="greater" unicode="&#x3e;" horiz-adv-x="580" 
d="M97 540l418 -210v-14l-418 -210l-7 13l409 204l-409 204z" />
    <glyph glyph-name="question" unicode="?" horiz-adv-x="509" 
d="M241 157h-18v79q0 43 14 63t46 39q15 9 38.5 22.5t34.5 19.5q49 30 59.5 45.5t10.5 57.5v74q0 39 -26.5 66t-65.5 27h-144q-39 0 -65.5 -27t-26.5 -66v-72h-18v70q0 47 32 79t78 32h144q46 0 78 -32t32 -79v-71q0 -47 -13 -66t-65 -50q-37 -22 -74 -43q-30 -17 -40.5 -35
t-10.5 -54v-79zM242 0h-20v78h20v-78z" />
    <glyph glyph-name="at" unicode="@" horiz-adv-x="594" 
d="M496 17v-17h-296q-46 0 -78 32t-32 79v444q0 47 32 79t78 32h214q46 0 78 -32t32 -79v-317h-18v51q-23 -32 -80 -48q-46 -12 -101 -12q-43 0 -69.5 24.5t-26.5 65.5v61q0 41 26.5 65.5t69.5 24.5q39 0 101 -7q53 -7 80 -47v140q0 39 -26.5 66t-65.5 27h-214
q-39 0 -65.5 -27t-26.5 -66v-446q0 -39 26.5 -66t65.5 -27h296zM245 380v-61q0 -35 21.5 -55t58.5 -20q58 0 109 15q72 22 72 80v26q0 32 -21 53t-51 27q-54 10 -109 10q-37 0 -58.5 -20t-21.5 -55z" />
    <glyph glyph-name="A" unicode="A" horiz-adv-x="578" 
d="M515 0l-72 201h-308l-72 -201h-18l236 666h16l236 -666h-18zM289 643l-148 -425h296z" />
    <glyph glyph-name="B" unicode="B" horiz-adv-x="571" 
d="M95 0v666h273q46 0 78 -32t32 -79v-108q0 -34 -19 -61.5t-52 -38.5q34 -8 56.5 -37t22.5 -67v-132q0 -47 -32 -79t-78 -32h-281zM376 337h-263v-320h263q39 0 65.5 27t26.5 66v134q0 39 -26.5 66t-65.5 27zM368 649h-255v-295h259q38 2 63 28.5t25 64.5v109
q0 39 -26.5 66t-65.5 27z" />
    <glyph glyph-name="C" unicode="C" horiz-adv-x="579" 
d="M108 556v-446q0 -39 26.5 -66t65.5 -27h184q39 0 65.5 27t26.5 66v84h18v-83q0 -47 -32 -79t-78 -32h-184q-46 0 -78 32t-32 79v444q0 47 32 79t78 32h184q46 0 78 -32t32 -79v-80h-18v81q0 39 -26.5 66t-65.5 27h-184q-39 0 -65.5 -27t-26.5 -66z" />
    <glyph glyph-name="D" unicode="D" horiz-adv-x="571" 
d="M95 0v666h276q46 0 78 -32t32 -79v-444q0 -47 -32 -79t-78 -32h-276zM371 649h-258v-632h258q39 0 65.5 27t26.5 66v446q0 39 -26.5 66t-65.5 27z" />
    <glyph glyph-name="E" unicode="E" horiz-adv-x="525" 
d="M95 0v666h354v-17h-336v-288h305v-17h-305v-327h342v-17h-360z" />
    <glyph glyph-name="F" unicode="F" horiz-adv-x="491" 
d="M113 0h-18v666h358v-17h-340v-288h309v-17h-309v-344z" />
    <glyph glyph-name="G" unicode="G" horiz-adv-x="569" 
d="M309 288v16h180v-193q0 -47 -32 -79t-78 -32h-179q-46 0 -78 32t-32 79v444q0 47 32 79t78 32h179q46 0 78 -32t32 -79v-70h-18v71q0 39 -26.5 66t-65.5 27h-179q-39 0 -65.5 -27t-26.5 -66v-446q0 -39 26.5 -66t65.5 -27h179q39 0 65.5 27t26.5 66v178h-162z" />
    <glyph glyph-name="H" unicode="H" horiz-adv-x="591" 
d="M478 0v341h-365v-341h-18v666h18v-308h365v308h18v-666h-18z" />
    <glyph glyph-name="I" unicode="I" horiz-adv-x="218" 
d="M118 666v-666h-18v666h18z" />
    <glyph glyph-name="J" unicode="J" horiz-adv-x="493" 
d="M160 0q-46 0 -78 32t-32 79v67h18v-68q0 -39 26.5 -66t65.5 -27h133q39 0 65.5 27t26.5 66v556h18v-555q0 -47 -32 -79t-78 -32h-133z" />
    <glyph glyph-name="K" unicode="K" horiz-adv-x="516" 
d="M472 666l-339 -324l353 -342h-24l-349 337v-337h-18v666h18v-320l335 320h24z" />
    <glyph glyph-name="L" unicode="L" horiz-adv-x="489" 
d="M113 666v-649h321v-17h-339v666h18z" />
    <glyph glyph-name="M" unicode="M" horiz-adv-x="670" 
d="M113 666l222 -478l222 478h18v-666h-18v623l-214 -462h-15l-215 462v-623h-18v666h18z" />
    <glyph glyph-name="N" unicode="N" horiz-adv-x="599" 
d="M504 666v-666h-17l-375 631v-631h-17v666h17l375 -632v632h17z" />
    <glyph glyph-name="O" unicode="O" horiz-adv-x="589" 
d="M499 555v-444q0 -47 -32 -79t-78 -32h-189q-46 0 -78 32t-32 79v444q0 47 32 79t78 32h189q46 0 78 -32t32 -79zM108 556v-446q0 -39 26.5 -66t65.5 -27h189q39 0 65.5 27t26.5 66v446q0 39 -26.5 66t-65.5 27h-189q-39 0 -65.5 -27t-26.5 -66z" />
    <glyph glyph-name="P" unicode="P" horiz-adv-x="513" 
d="M468 555v-143q0 -47 -32 -79t-78 -32h-245v-301h-18v666h263q46 0 78 -32t32 -79zM358 649h-245v-331h245q39 0 65.5 27t26.5 66v145q0 39 -26.5 66t-65.5 27z" />
    <glyph glyph-name="Q" unicode="Q" horiz-adv-x="590" 
d="M286 -130v130h-86q-46 0 -78 32t-32 79v444q0 47 32 79t78 32h190q46 0 78 -32t32 -79v-444q0 -47 -32 -79t-78 -32h-86v-130h-18zM108 556v-446q0 -39 26.5 -66t65.5 -27h190q39 0 65.5 27t26.5 66v446q0 39 -26.5 66t-65.5 27h-190q-39 0 -65.5 -27t-26.5 -66z" />
    <glyph glyph-name="R" unicode="R" horiz-adv-x="569" 
d="M473 555v-139q0 -45 -30 -77t-74 -34l145 -305h-19l-145 305h-237v-305h-18v666h268q46 0 78 -32t32 -79zM363 649h-250v-327h250q39 0 65.5 27t26.5 66v141q0 39 -26.5 66t-65.5 27z" />
    <glyph glyph-name="S" unicode="S" horiz-adv-x="563" 
d="M197 356q-103 29 -103 108v91q0 47 32 79t78 32h160q46 0 78 -32t32 -79v-70h-18v72q0 39 -26.5 66t-65.5 27h-160q-39 0 -65.5 -27t-26.5 -66v-93q0 -66 85 -91q47 -13 105.5 -29.5t71.5 -20.5q104 -29 104 -109v-103q0 -47 -32 -79t-78 -32h-168q-46 0 -78 32t-32 79
v73h18v-75q0 -39 26.5 -66t65.5 -27h168q39 0 65.5 27t26.5 66v105q0 66 -86 92q-43 13 -99.5 28.5t-77.5 21.5z" />
    <glyph glyph-name="T" unicode="T" horiz-adv-x="522" 
d="M35 649v17h452v-17h-217v-649h-18v649h-217z" />
    <glyph glyph-name="U" unicode="U" horiz-adv-x="571" 
d="M200 0q-46 0 -78 32t-32 79v555h18v-556q0 -39 26.5 -66t65.5 -27h171q39 0 65.5 27t26.5 66v556h18v-555q0 -47 -32 -79t-78 -32h-171z" />
    <glyph glyph-name="V" unicode="V" horiz-adv-x="542" 
d="M58 666l213 -642l213 642h18l-222 -666h-18l-222 666h18z" />
    <glyph glyph-name="W" unicode="W" horiz-adv-x="816" 
d="M580 24l163 642h18l-172 -666h-18l-163 634l-163 -634h-18l-172 666h18l163 -642l164 642h16z" />
    <glyph glyph-name="X" unicode="X" horiz-adv-x="580" 
d="M70 0l211 338l-205 328h18l196 -314l196 314h18l-205 -328l211 -338h-18l-202 323l-202 -323h-18z" />
    <glyph glyph-name="Y" unicode="Y" horiz-adv-x="510" 
d="M43 666l212 -387l212 387h19l-222 -407v-259h-18v259l-222 407h19z" />
    <glyph glyph-name="Z" unicode="Z" horiz-adv-x="564" 
d="M80 16l384 634h-372v16h392v-16l-384 -634h384v-16h-404v16z" />
    <glyph glyph-name="bracketleft" unicode="[" horiz-adv-x="267" 
d="M95 -126v922h162v-17h-144v-888h144v-17h-162z" />
    <glyph glyph-name="backslash" unicode="\" horiz-adv-x="394" 
d="M344 -117h-16l-288 793h16z" />
    <glyph glyph-name="bracketright" unicode="]" horiz-adv-x="267" 
d="M172 796v-922h-162v17h144v888h-144v17h162z" />
    <glyph glyph-name="asciicircum" unicode="^" horiz-adv-x="427" 
d="M372 356l-15 -7l-144 298l-144 -298l-14 7l151 310h14z" />
    <glyph glyph-name="underscore" unicode="_" horiz-adv-x="404" 
d="M-2 -15v9h408v-9h-408z" />
    <glyph glyph-name="grave" unicode="`" horiz-adv-x="349" 
d="M199 564l-10 -11l-109 100l11 12z" />
    <glyph glyph-name="a" unicode="a" horiz-adv-x="498" 
d="M413 363v-363h-18v57q-26 -38 -88 -53q-57 -14 -121 -14q-47 0 -76.5 27t-29.5 73v70q0 46 29.5 73t76.5 27q63 0 121 -8q59 -9 88 -52v164q0 39 -26.5 66t-65.5 27h-103q-39 0 -65.5 -27t-26.5 -66v-22h-18v21q0 47 32 79t78 32h103q46 0 78 -32t32 -79zM98 160v-70
q0 -39 23.5 -61t64.5 -22q74 0 130 17q79 24 79 88v32q0 35 -23 58t-56 30q-58 11 -130 11q-41 0 -64.5 -22t-23.5 -61z" />
    <glyph glyph-name="b" unicode="b" horiz-adv-x="499" 
d="M90 0v666h18v-255q25 36 88 53q73 20 117 20q47 0 76.5 -27t29.5 -73v-294q0 -46 -29.5 -73t-76.5 -27q-44 0 -117 20q-63 17 -88 53v-63h-18zM401 90v294q0 39 -23.5 61t-64.5 22q-50 0 -126 -23q-79 -24 -79 -88v-238q0 -64 79 -88q76 -23 126 -23q41 0 64.5 22
t23.5 61z" />
    <glyph glyph-name="c" unicode="c" horiz-adv-x="478" 
d="M395 143h18v-32q0 -47 -32 -79t-78 -32h-113q-46 0 -78 32t-32 79v252q0 47 32 79t78 32h113q46 0 78 -32t32 -79v-30h-18v31q0 39 -26.5 66t-65.5 27h-113q-39 0 -65.5 -27t-26.5 -66v-254q0 -39 26.5 -66t65.5 -27h113q39 0 65.5 27t26.5 66v33z" />
    <glyph glyph-name="d" unicode="d" horiz-adv-x="499" 
d="M409 666v-666h-18v63q-25 -36 -88 -53q-73 -20 -117 -20q-47 0 -76.5 27t-29.5 73v294q0 46 29.5 73t76.5 27q44 0 117 -20q63 -17 88 -53v255h18zM98 90q0 -39 23.5 -61t64.5 -22q50 0 126 23q79 24 79 88v238q0 64 -79 88q-76 23 -126 23q-41 0 -64.5 -22t-23.5 -61
v-294z" />
    <glyph glyph-name="e" unicode="e" horiz-adv-x="490" 
d="M397 140h18v-29q0 -47 -32 -79t-78 -32h-115q-46 0 -78 32t-32 79v252q0 47 32 79t78 32h115q46 0 78 -32t32 -79v-119h-317v-134q0 -39 26.5 -66t65.5 -27h115q39 0 65.5 27t26.5 66v30zM98 364v-103h299v103q0 39 -26.5 66t-65.5 27h-115q-39 0 -65.5 -27t-26.5 -66z
" />
    <glyph glyph-name="f" unicode="f" horiz-adv-x="307" 
d="M45 458v16h80v81q0 47 32 79t78 32h67v-17h-67q-39 0 -65.5 -27t-26.5 -66v-82h156v-16h-156v-458h-18v458h-80z" />
    <glyph glyph-name="g" unicode="g" horiz-adv-x="494" 
d="M118 -190v17h181q39 0 65.5 27t26.5 66v143q-25 -36 -88 -53q-73 -20 -117 -20q-47 0 -76.5 27t-29.5 73v294q0 46 29.5 73t76.5 27q44 0 117 -20q63 -17 88 -53v63h18v-553q0 -47 -32 -79t-78 -32h-181zM98 384v-294q0 -39 23.5 -61t64.5 -22q50 0 126 23q79 24 79 88
v238q0 64 -79 88q-76 23 -126 23q-41 0 -64.5 -22t-23.5 -61z" />
    <glyph glyph-name="h" unicode="h" 
d="M419 0h-18v384q0 39 -23.5 61t-64.5 22q-50 0 -126 -23q-79 -24 -79 -88v-356h-18v666h18v-255q25 36 88 53q73 20 117 20q47 0 76.5 -27t29.5 -73v-384z" />
    <glyph glyph-name="i" unicode="i" horiz-adv-x="198" 
d="M108 0h-18v474h18v-474zM108 578h-18v88h18v-88z" />
    <glyph glyph-name="j" unicode="j" horiz-adv-x="198" 
d="M90 474h18v-553q0 -47 -32 -79t-78 -32h-46v17h46q39 0 65.5 27t26.5 66v554zM108 583h-18v83h18v-83z" />
    <glyph glyph-name="k" unicode="k" horiz-adv-x="427" 
d="M368 474h24l-263 -236l268 -238h-24l-265 234v-234h-18v666h18v-424z" />
    <glyph glyph-name="l" unicode="l" horiz-adv-x="198" 
d="M108 0h-18v666h18v-666z" />
    <glyph glyph-name="m" unicode="m" horiz-adv-x="815" 
d="M730 0h-18v384q0 39 -23.5 61t-64.5 22q-50 0 -126 -23q-79 -24 -79 -88v-356h-18v384q0 39 -23.5 61t-64.5 22q-50 0 -126 -23q-79 -24 -79 -88v-356h-18v474h18v-63q25 36 88 53q73 20 117 20q40 0 68 -20.5t35 -56.5q26 39 91 57q73 20 117 20q47 0 76.5 -27t29.5 -73
v-384z" />
    <glyph glyph-name="n" unicode="n" 
d="M419 0h-18v384q0 39 -23.5 61t-64.5 22q-50 0 -126 -23q-79 -24 -79 -88v-356h-18v474h18v-63q25 36 88 53q73 20 117 20q47 0 76.5 -27t29.5 -73v-384z" />
    <glyph glyph-name="o" unicode="o" horiz-adv-x="501" 
d="M421 363v-252q0 -47 -32 -79t-78 -32h-121q-46 0 -78 32t-32 79v252q0 47 32 79t78 32h121q46 0 78 -32t32 -79zM98 364v-254q0 -39 26.5 -66t65.5 -27h121q39 0 65.5 27t26.5 66v254q0 39 -26.5 66t-65.5 27h-121q-39 0 -65.5 -27t-26.5 -66z" />
    <glyph glyph-name="p" unicode="p" horiz-adv-x="499" 
d="M90 -190v664h18v-63q25 36 88 53q73 20 117 20q47 0 76.5 -27t29.5 -73v-294q0 -46 -29.5 -73t-76.5 -27q-44 0 -117 20q-63 17 -88 53v-253h-18zM401 384q0 39 -23.5 61t-64.5 22q-50 0 -126 -23q-79 -24 -79 -88v-238q0 -64 79 -88q76 -23 126 -23q41 0 64.5 22
t23.5 61v294z" />
    <glyph glyph-name="q" unicode="q" horiz-adv-x="499" 
d="M409 474v-664h-18v253q-25 -36 -88 -53q-73 -20 -117 -20q-47 0 -76.5 27t-29.5 73v294q0 46 29.5 73t76.5 27q44 0 117 -20q63 -17 88 -53v63h18zM98 384v-294q0 -39 23.5 -61t64.5 -22q50 0 126 23q79 24 79 88v238q0 64 -79 88q-76 23 -126 23q-41 0 -64.5 -22
t-23.5 -61z" />
    <glyph glyph-name="r" unicode="r" horiz-adv-x="295" 
d="M278 484l2 -17q-58 -29 -96 -51q-39 -22 -57.5 -43t-18.5 -54v-319h-18v474h18v-96q19 25 72 55q45 25 98 51z" />
    <glyph glyph-name="s" unicode="s" horiz-adv-x="480" 
d="M193 244q-55 15 -82.5 36.5t-27.5 64.5v28q0 46 30.5 73.5t79.5 27.5h97q46 0 78 -32t32 -79v-27h-18v28q0 39 -26 66t-66 27h-97q-42 0 -67 -22t-25 -61v-29q0 -36 23 -53t73 -31q12 -3 45 -12t56 -15q54 -14 80.5 -36t26.5 -65v-32q0 -46 -31 -73.5t-79 -27.5h-105
q-46 0 -78 32t-32 79v22h18v-23q0 -39 26.5 -66t65.5 -27h105q41 0 66.5 22.5t25.5 60.5v33q0 36 -24 54t-73 31q-20 6 -48.5 13.5t-48.5 12.5z" />
    <glyph glyph-name="t" unicode="t" horiz-adv-x="336" 
d="M30 457v17h85v127h18v-127h168v-17h-168v-345q0 -39 26.5 -67t65.5 -28h67v-17h-67q-46 0 -78 32t-32 79v346h-85z" />
    <glyph glyph-name="u" unicode="u" 
d="M85 474h18v-384q0 -39 23.5 -61t64.5 -22q50 0 126 23q79 24 79 88v356h18v-474h-18v63q-25 -36 -88 -53q-73 -20 -117 -20q-47 0 -76.5 27t-29.5 73v384z" />
    <glyph glyph-name="v" unicode="v" horiz-adv-x="421" 
d="M219 0h-18l-176 474h19l166 -451l167 451h19z" />
    <glyph glyph-name="w" unicode="w" horiz-adv-x="638" 
d="M487 0h-18l-150 450l-150 -450h-18l-101 474h18l93 -446l149 446h18l149 -446l93 446h18z" />
    <glyph glyph-name="x" unicode="x" horiz-adv-x="446" 
d="M76 0h-21l158 238l-157 236h21l146 -220l146 220h21l-157 -236l158 -238h-21l-147 222z" />
    <glyph glyph-name="y" unicode="y" horiz-adv-x="429" 
d="M153 -190h-18l70 191l-175 473h19l166 -451l167 451h19l-177 -474z" />
    <glyph glyph-name="z" unicode="z" horiz-adv-x="456" 
d="M391 16v-16h-316v16l292 442h-282v16h303v-16l-292 -442h295z" />
    <glyph glyph-name="braceleft" unicode="{" horiz-adv-x="313" 
d="M90 320l81 70l-34 258q-6 51 20 82.5t75 42.5q32 7 69 11l2 -16q-38 -5 -68 -11q-41 -9 -62.5 -35.5t-17.5 -69.5l34 -256q1 -10 -7 -17l-72 -63l72 -63q8 -7 7 -17l-34 -256q-4 -43 17.5 -69.5t62.5 -35.5q30 -6 68 -11l-2 -16q-37 4 -69 11q-49 11 -75 42.5t-20 82.5
l34 258l-81 70v8z" />
    <glyph glyph-name="bar" unicode="|" horiz-adv-x="224" 
d="M119 800v-1000h-14v1000h14z" />
    <glyph glyph-name="braceright" unicode="}" horiz-adv-x="313" 
d="M142 390l81 -70v-8l-81 -70l34 -258q6 -51 -20 -82.5t-75 -42.5q-32 -7 -69 -11l-2 16q38 5 68 11q41 9 62.5 35.5t17.5 69.5l-34 256q-1 10 7 17l72 63l-72 63q-8 7 -7 17l34 256q4 43 -17.5 69.5t-62.5 35.5q-30 6 -68 11l2 16q37 -4 69 -11q49 -11 75 -42.5t20 -82.5z
" />
    <glyph glyph-name="asciitilde" unicode="~" horiz-adv-x="438" 
d="M238 229l-49 31q-33 21 -69 13t-58 -42l-13 -20l-14 9l13 21q24 39 67.5 48.5t83.5 -15.5l49 -31q33 -21 70 -12.5t58 42.5l13 20l14 -9l-13 -21q-24 -39 -67.5 -49t-84.5 15z" />
    <glyph glyph-name="nbspace" unicode="&#xa0;" horiz-adv-x="220" 
 />
    <glyph glyph-name="exclamdown" unicode="&#xa1;" horiz-adv-x="210" 
d="M99 284h12l3 -126v-348h-18v348zM95 474h20v-78h-20v78z" />
    <glyph glyph-name="cent" unicode="&#xa2;" horiz-adv-x="503" 
d="M250 0v105h-50q-46 0 -78 32t-32 79v232q0 47 32 79t78 32h50v107h18v-107h45q46 0 78 -32t32 -79v-27h-18v28q0 39 -26.5 66t-65.5 27h-113q-39 0 -65.5 -27t-26.5 -66v-234q0 -39 26.5 -66t65.5 -27h113q39 0 65.5 27t26.5 66v30h18v-29q0 -47 -32 -79t-78 -32h-45
v-105h-18z" />
    <glyph glyph-name="sterling" unicode="&#xa3;" horiz-adv-x="533" 
d="M50 0v17h119v538q0 47 32 79t78 32h127v-17h-127q-39 0 -65.5 -27t-26.5 -66v-162h178v-17h-178v-360h151q39 0 65.5 27t26.5 66v30h18v-29q0 -47 -32 -79t-78 -32h-288z" />
    <glyph glyph-name="currency" unicode="&#xa4;" horiz-adv-x="583" 
d="M493 573l-69 -68q15 -21 15 -49v-242q0 -27 -15 -50l69 -67l-11 -11l-67 66q-25 -25 -62 -25h-123q-37 0 -62 25l-67 -66l-11 11l68 67q-14 22 -14 50v242q0 27 14 49l-68 68l11 11l67 -67q26 26 62 26h123q36 0 62 -26l67 67zM160 455v-240q0 -31 20 -52t52 -21h119
q32 0 52 21t20 52v240q0 31 -20 52t-52 21h-119q-32 0 -52 -21t-20 -52z" />
    <glyph glyph-name="yen" unicode="&#xa5;" horiz-adv-x="482" 
d="M70 323v15h128l-138 328h19l162 -387l162 387h19l-139 -328h129v-15h-135l-27 -64v-59h162v-15h-162v-185h-18v185h-162v15h162v59l-27 64h-135z" />
    <glyph glyph-name="brokenbar" unicode="&#xa6;" horiz-adv-x="224" 
d="M119 -200h-14v417h14v-417zM119 800v-417h-14v417h14z" />
    <glyph glyph-name="section" unicode="&#xa7;" horiz-adv-x="502" 
d="M409 285l-4 -16q-41 11 -101 26.5t-99 25.5q-54 14 -82 35.5t-28 65.5v143q0 46 30.5 73.5t79.5 27.5h97q46 0 78 -32t32 -79v-47h-18v48q0 39 -26 66t-66 27h-97q-42 0 -67 -22t-25 -61v-144q0 -36 23.5 -55t72.5 -31q25 -7 87 -22.5t113 -28.5zM93 191l4 16
q41 -11 101 -26.5t99 -25.5q54 -14 82 -35.5t28 -65.5v-143q0 -46 -30.5 -73.5t-79.5 -27.5h-97q-46 0 -78 32t-32 79v47h18v-48q0 -39 26 -66t66 -27h97q42 0 67 22t25 61v144q0 36 -23.5 55t-72.5 31q-25 7 -87 22.5t-113 28.5z" />
    <glyph glyph-name="dieresis" unicode="&#xa8;" horiz-adv-x="401" 
d="M141 556h-21v47h21v-47zM281 556h-21v47h21v-47z" />
    <glyph glyph-name="copyright" unicode="&#xa9;" horiz-adv-x="662" 
d="M572 577v-488q0 -38 -25.5 -63.5t-62.5 -25.5h-306q-37 0 -62.5 25.5t-25.5 63.5v488q0 38 25.5 63.5t62.5 25.5h306q37 0 62.5 -25.5t25.5 -63.5zM104 579v-492q0 -31 21 -52.5t53 -21.5h306q32 0 53 21.5t21 52.5v492q0 31 -21 52.5t-53 21.5h-306q-32 0 -53 -21.5
t-21 -52.5zM235 430v-193q0 -32 21.5 -53.5t52.5 -21.5h49q31 0 52.5 21.5t21.5 53.5v38h15v-37q0 -38 -26 -64t-63 -26h-49q-37 0 -63 26t-26 64v191q0 38 26 64t63 26h49q37 0 63 -26t26 -64v-35h-15v36q0 32 -21.5 53.5t-52.5 21.5h-49q-31 0 -52.5 -21.5t-21.5 -53.5z
" />
    <glyph glyph-name="ordfeminine" unicode="&#xaa;" horiz-adv-x="339" 
d="M264 601v-204h-14v27q-21 -19 -48 -25q-27 -7 -70 -7q-29 0 -45.5 15.5t-16.5 42.5v40q0 27 16.5 42t45.5 15q39 0 70 -5q28 -3 48 -23v83q0 21 -14.5 36t-35.5 15h-60q-20 0 -35 -15.5t-15 -35.5v-11h-14v10q0 28 18 46.5t46 18.5h60q28 0 46 -18.5t18 -46.5zM84 490
v-40q0 -21 13.5 -33t34.5 -12q42 0 75 9q43 15 43 48v19q0 19 -12.5 31.5t-30.5 14.5q-32 6 -75 6q-21 0 -34.5 -11.5t-13.5 -31.5z" />
    <glyph glyph-name="guillemotleft" unicode="&#xab;" horiz-adv-x="482" 
d="M216 38l-156 200l156 200l11 -9l-149 -191l149 -191zM386 38l-156 200l156 200l11 -9l-149 -191l149 -191z" />
    <glyph glyph-name="logicalnot" unicode="&#xac;" horiz-adv-x="570" 
d="M480 116h-16v200h-399v15h415v-215z" />
    <glyph glyph-name="registered" unicode="&#xae;" horiz-adv-x="509" 
d="M439 577v-221q0 -38 -25.5 -63.5t-62.5 -25.5h-193q-37 0 -62.5 25.5t-25.5 63.5v221q0 38 25.5 63.5t62.5 25.5h193q37 0 62.5 -25.5t25.5 -63.5zM82 579v-225q0 -32 22 -54t54 -22h193q31 0 53.5 22t22.5 54v225q0 31 -22.5 53.5t-53.5 22.5h-193q-32 0 -54 -22.5
t-22 -53.5zM324 540v-45q0 -33 -30 -37l42 -97h-13l-42 97h-72v-97h-12v218h89q16 0 27 -11t11 -28zM286 568h-77v-99h77q26 0 26 25v47q0 12 -7 19.5t-19 7.5z" />
    <glyph glyph-name="macron" unicode="&#xaf;" horiz-adv-x="440" 
d="M120 577v14h200v-14h-200z" />
    <glyph glyph-name="degree" unicode="&#xb0;" horiz-adv-x="293" 
d="M213 644v-127q0 -22 -22 -22h-89q-22 0 -22 22v127q0 22 22 22h89q22 0 22 -22zM199 645q0 8 -8 8h-89q-8 0 -8 -8v-129q0 -8 8 -8h89q8 0 8 8v129z" />
    <glyph glyph-name="plusminus" unicode="&#xb1;" horiz-adv-x="555" 
d="M70 0v15h199v261h-199v15h199v200h16v-200h200v-15h-200v-261h200v-15h-415z" />
    <glyph glyph-name="twosuperior" unicode="&#xb2;" horiz-adv-x="756" 
d="M716 666l-338 -676l-338 676h676z" />
    <glyph glyph-name="threesuperior" unicode="&#xb3;" horiz-adv-x="756" 
d="M378 676l338 -676h-676z" />
    <glyph glyph-name="acute" unicode="&#xb4;" horiz-adv-x="349" 
d="M160 553l-10 11l108 101l11 -12z" />
    <glyph glyph-name="mu" unicode="&#xb5;" 
d="M85 474h18v-384q0 -39 23.5 -61t64.5 -22q50 0 126 23q79 24 79 88v356h18v-474h-18v63q-25 -36 -88 -53q-73 -20 -117 -20q-60 0 -88 40v-220h-18v664z" />
    <glyph glyph-name="paragraph" unicode="&#xb6;" horiz-adv-x="497" 
d="M402 0h-14v653h-82v-821q0 -22 -22 -22h-94v13h94q8 0 8 8v822h-205q-8 0 -8 -8v-310q0 -8 8 -8h104v-13h-104q-22 0 -22 22v308q0 22 22 22h315v-666z" />
    <glyph glyph-name="periodcentered" unicode="&#xb7;" horiz-adv-x="200" 
d="M110 291h-20v78h20v-78z" />
    <glyph glyph-name="cedilla" unicode="&#xb8;" horiz-adv-x="313" 
d="M135 -131l-15 7l55 133l18 -4z" />
    <glyph glyph-name="onesuperior" unicode="&#xb9;" horiz-adv-x="826" 
d="M95 676l686 -343l-686 -343v686z" />
    <glyph glyph-name="ordmasculine" unicode="&#xba;" horiz-adv-x="337" 
d="M267 601v-139q0 -28 -18 -46.5t-46 -18.5h-69q-28 0 -46 18.5t-18 46.5v139q0 28 18 46.5t46 18.5h69q28 0 46 -18.5t18 -46.5zM84 602v-141q0 -20 14.5 -35t35.5 -15h69q21 0 35.5 15t14.5 35v141q0 21 -14.5 36t-35.5 15h-69q-21 0 -35.5 -15t-14.5 -36z" />
    <glyph glyph-name="guillemotright" unicode="&#xbb;" horiz-adv-x="482" 
d="M422 238l-156 -200l-11 9l149 191l-149 191l11 9zM252 238l-156 -200l-11 9l149 191l-149 191l11 9z" />
    <glyph glyph-name="onequarter" unicode="&#xbc;" horiz-adv-x="654" 
d="M90 0v474h474v-474h-474z" />
    <glyph glyph-name="onehalf" unicode="&#xbd;" horiz-adv-x="856" 
d="M95 0v666h666v-666h-666z" />
    <glyph glyph-name="threequarters" unicode="&#xbe;" horiz-adv-x="624" 
d="M90 -10v494l494 -247z" />
    <glyph glyph-name="questiondown" unicode="&#xbf;" horiz-adv-x="509" 
d="M268 317h18v-77q0 -43 -14 -63t-46 -39q-15 -9 -38.5 -22.5t-34.5 -19.5q-49 -30 -59.5 -45.5t-10.5 -57.5v-74q0 -39 26.5 -66t65.5 -27h144q39 0 65.5 27t26.5 66v72h18v-70q0 -47 -32 -79t-78 -32h-144q-46 0 -78 32t-32 79v71q0 47 13 66t65 50q37 22 74 43
q30 17 40.5 35t10.5 54v77zM267 474h20v-78h-20v78z" />
    <glyph glyph-name="Agrave" unicode="&#xc0;" horiz-adv-x="578" 
d="M515 0l-72 201h-308l-72 -201h-18l236 666h16l236 -666h-18zM289 643l-148 -425h296zM302 744l-10 -11l-109 100l11 12z" />
    <glyph glyph-name="Aacute" unicode="&#xc1;" horiz-adv-x="578" 
d="M515 0l-72 201h-308l-72 -201h-18l236 666h16l236 -666h-18zM289 643l-148 -425h296zM283 733l-10 11l108 101l11 -12z" />
    <glyph glyph-name="Acircumflex" unicode="&#xc2;" horiz-adv-x="578" 
d="M515 0l-72 201h-308l-72 -201h-18l236 666h16l236 -666h-18zM289 643l-148 -425h296zM189 727l100 109l100 -109l-12 -10l-88 96l-88 -96z" />
    <glyph glyph-name="Atilde" unicode="&#xc3;" horiz-adv-x="578" 
d="M515 0l-72 201h-308l-72 -201h-18l236 666h16l236 -666h-18zM289 643l-148 -425h296zM386 799l15 -4l-14 -42q-9 -24 -32 -16l-136 46q-8 3 -11 -5l-15 -43l-15 5l14 42q8 24 33 15l135 -46q8 -3 12 6z" />
    <glyph glyph-name="Adieresis" unicode="&#xc4;" horiz-adv-x="578" 
d="M515 0l-72 201h-308l-72 -201h-18l236 666h16l236 -666h-18zM289 643l-148 -425h296zM230 741h-21v47h21v-47zM370 741h-21v47h21v-47z" />
    <glyph glyph-name="Aring" unicode="&#xc5;" horiz-adv-x="578" 
d="M515 0l-72 201h-308l-72 -201h-18l236 666h16l236 -666h-18zM289 643l-148 -425h296zM343 790v-61q0 -22 -22 -22h-63q-22 0 -22 22v61q0 22 22 22h63q22 0 22 -22zM330 792q0 8 -8 8h-65q-8 0 -8 -8v-65q0 -8 8 -8h65q8 0 8 8v65z" />
    <glyph glyph-name="AE" unicode="&#xc6;" horiz-adv-x="799" 
d="M515 0l-72 201h-308l-72 -201h-18l236 666h442v-17h-420l102 -288h287v-17h-281l116 -327h202v-17h-214zM289 643l-148 -425h296z" />
    <glyph glyph-name="Ccedilla" unicode="&#xc7;" horiz-adv-x="579" 
d="M250 -131l-15 7l51 124h-86q-46 0 -78 32t-32 79v444q0 47 32 79t78 32h184q46 0 78 -32t32 -79v-80h-18v81q0 39 -26.5 66t-65.5 27h-184q-39 0 -65.5 -27t-26.5 -66v-446q0 -39 26.5 -66t65.5 -27h184q39 0 65.5 27t26.5 66v84h18v-83q0 -47 -32 -79t-78 -32h-78z" />
    <glyph glyph-name="Egrave" unicode="&#xc8;" horiz-adv-x="525" 
d="M95 0v666h354v-17h-336v-288h305v-17h-305v-327h342v-17h-360zM311 744l-10 -11l-109 100l11 12z" />
    <glyph glyph-name="Eacute" unicode="&#xc9;" horiz-adv-x="525" 
d="M95 0v666h354v-17h-336v-288h305v-17h-305v-327h342v-17h-360zM237 733l-10 11l108 101l11 -12z" />
    <glyph glyph-name="Ecircumflex" unicode="&#xca;" horiz-adv-x="525" 
d="M95 0v666h354v-17h-336v-288h305v-17h-305v-327h342v-17h-360zM174 727l100 109l100 -109l-12 -10l-88 96l-88 -96z" />
    <glyph glyph-name="Edieresis" unicode="&#xcb;" horiz-adv-x="525" 
d="M95 0v666h354v-17h-336v-288h305v-17h-305v-327h342v-17h-360zM212 741h-21v47h21v-47zM352 741h-21v47h21v-47z" />
    <glyph glyph-name="Igrave" unicode="&#xcc;" horiz-adv-x="218" 
d="M118 666v-666h-18v666h18zM127 744l-10 -11l-109 100l11 12z" />
    <glyph glyph-name="Iacute" unicode="&#xcd;" horiz-adv-x="218" 
d="M118 666v-666h-18v666h18zM104 733l-10 11l108 101l11 -12z" />
    <glyph glyph-name="Icircumflex" unicode="&#xce;" horiz-adv-x="218" 
d="M118 666v-666h-18v666h18zM9 727l100 109l100 -109l-12 -10l-88 96l-88 -96z" />
    <glyph glyph-name="Idieresis" unicode="&#xcf;" horiz-adv-x="218" 
d="M118 666v-666h-18v666h18zM50 741h-21v47h21v-47zM190 741h-21v47h21v-47z" />
    <glyph glyph-name="Eth" unicode="&#xd0;" horiz-adv-x="606" 
d="M45 328v14h85v324h276q46 0 78 -32t32 -79v-444q0 -47 -32 -79t-78 -32h-276v328h-85zM406 649h-258v-307h148v-14h-148v-311h258q39 0 65.5 27t26.5 66v446q0 39 -26.5 66t-65.5 27z" />
    <glyph glyph-name="Ntilde" unicode="&#xd1;" horiz-adv-x="599" 
d="M504 666v-666h-17l-375 631v-631h-17v666h17l375 -632v632h17zM392 799l15 -4l-14 -42q-9 -24 -32 -16l-136 46q-8 3 -11 -5l-15 -43l-15 5l14 42q8 24 33 15l135 -46q8 -3 12 6z" />
    <glyph glyph-name="Ograve" unicode="&#xd2;" horiz-adv-x="589" 
d="M499 555v-444q0 -47 -32 -79t-78 -32h-189q-46 0 -78 32t-32 79v444q0 47 32 79t78 32h189q46 0 78 -32t32 -79zM108 556v-446q0 -39 26.5 -66t65.5 -27h189q39 0 65.5 27t26.5 66v446q0 39 -26.5 66t-65.5 27h-189q-39 0 -65.5 -27t-26.5 -66zM328 744l-10 -11l-109 100
l11 12z" />
    <glyph glyph-name="Oacute" unicode="&#xd3;" horiz-adv-x="589" 
d="M499 555v-444q0 -47 -32 -79t-78 -32h-189q-46 0 -78 32t-32 79v444q0 47 32 79t78 32h189q46 0 78 -32t32 -79zM108 556v-446q0 -39 26.5 -66t65.5 -27h189q39 0 65.5 27t26.5 66v446q0 39 -26.5 66t-65.5 27h-189q-39 0 -65.5 -27t-26.5 -66zM266 733l-10 11l108 101
l11 -12z" />
    <glyph glyph-name="Ocircumflex" unicode="&#xd4;" horiz-adv-x="589" 
d="M499 555v-444q0 -47 -32 -79t-78 -32h-189q-46 0 -78 32t-32 79v444q0 47 32 79t78 32h189q46 0 78 -32t32 -79zM108 556v-446q0 -39 26.5 -66t65.5 -27h189q39 0 65.5 27t26.5 66v446q0 39 -26.5 66t-65.5 27h-189q-39 0 -65.5 -27t-26.5 -66zM194 727l100 109l100 -109
l-12 -10l-88 96l-88 -96z" />
    <glyph glyph-name="Otilde" unicode="&#xd5;" horiz-adv-x="589" 
d="M499 555v-444q0 -47 -32 -79t-78 -32h-189q-46 0 -78 32t-32 79v444q0 47 32 79t78 32h189q46 0 78 -32t32 -79zM108 556v-446q0 -39 26.5 -66t65.5 -27h189q39 0 65.5 27t26.5 66v446q0 39 -26.5 66t-65.5 27h-189q-39 0 -65.5 -27t-26.5 -66zM391 799l15 -4l-14 -42
q-9 -24 -32 -16l-136 46q-8 3 -11 -5l-15 -43l-15 5l14 42q8 24 33 15l135 -46q8 -3 12 6z" />
    <glyph glyph-name="Odieresis" unicode="&#xd6;" horiz-adv-x="589" 
d="M499 555v-444q0 -47 -32 -79t-78 -32h-189q-46 0 -78 32t-32 79v444q0 47 32 79t78 32h189q46 0 78 -32t32 -79zM108 556v-446q0 -39 26.5 -66t65.5 -27h189q39 0 65.5 27t26.5 66v446q0 39 -26.5 66t-65.5 27h-189q-39 0 -65.5 -27t-26.5 -66zM235 741h-21v47h21v-47z
M375 741h-21v47h21v-47z" />
    <glyph glyph-name="multiply" unicode="&#xd7;" horiz-adv-x="446" 
d="M82 169l-12 12l142 142l-140 140l11 12l140 -141l141 141l12 -12l-141 -141l141 -141l-11 -11l-141 141z" />
    <glyph glyph-name="Oslash" unicode="&#xd8;" horiz-adv-x="599" 
d="M75 -43l46 81q-26 31 -26 73v444q0 47 32 79t78 32h189q42 0 72 -27l44 77l14 -7l-47 -81q27 -32 27 -73v-444q0 -47 -32 -79t-78 -32h-189q-43 0 -73 27l-44 -77zM113 556v-446q0 -34 18 -56l326 570q-27 25 -63 25h-189q-39 0 -65.5 -27t-26.5 -66zM486 556
q0 30 -18 55l-327 -569q27 -25 64 -25h189q39 0 65.5 27t26.5 66v446z" />
    <glyph glyph-name="Ugrave" unicode="&#xd9;" horiz-adv-x="571" 
d="M200 0q-46 0 -78 32t-32 79v555h18v-556q0 -39 26.5 -66t65.5 -27h171q39 0 65.5 27t26.5 66v556h18v-555q0 -47 -32 -79t-78 -32h-171zM324 744l-10 -11l-109 100l11 12z" />
    <glyph glyph-name="Uacute" unicode="&#xda;" horiz-adv-x="571" 
d="M200 0q-46 0 -78 32t-32 79v555h18v-556q0 -39 26.5 -66t65.5 -27h171q39 0 65.5 27t26.5 66v556h18v-555q0 -47 -32 -79t-78 -32h-171zM253 733l-10 11l108 101l11 -12z" />
    <glyph glyph-name="Ucircumflex" unicode="&#xdb;" horiz-adv-x="571" 
d="M200 0q-46 0 -78 32t-32 79v555h18v-556q0 -39 26.5 -66t65.5 -27h171q39 0 65.5 27t26.5 66v556h18v-555q0 -47 -32 -79t-78 -32h-171zM185 727l100 109l100 -109l-12 -10l-88 96l-88 -96z" />
    <glyph glyph-name="Udieresis" unicode="&#xdc;" horiz-adv-x="571" 
d="M200 0q-46 0 -78 32t-32 79v555h18v-556q0 -39 26.5 -66t65.5 -27h171q39 0 65.5 27t26.5 66v556h18v-555q0 -47 -32 -79t-78 -32h-171zM226 741h-21v47h21v-47zM366 741h-21v47h21v-47z" />
    <glyph glyph-name="Yacute" unicode="&#xdd;" horiz-adv-x="510" 
d="M43 666l212 -387l212 387h19l-222 -407v-259h-18v259l-222 407h19zM237 733l-10 11l108 101l11 -12z" />
    <glyph glyph-name="Thorn" unicode="&#xde;" horiz-adv-x="513" 
d="M468 411v-143q0 -47 -32 -79t-78 -32h-245v-157h-18v666h18v-144h245q46 0 78 -32t32 -79zM358 505h-245v-331h245q39 0 65.5 27t26.5 66v145q0 39 -26.5 66t-65.5 27z" />
    <glyph glyph-name="germandbls" unicode="&#xdf;" horiz-adv-x="608" 
d="M387 290q-26 23 -33.5 41.5t-7.5 65.5v159q0 39 -26.5 66t-65.5 27h-54q-39 0 -65.5 -27t-26.5 -66v-556h-18v555q0 47 32 79t78 32h54q46 0 78 -32t32 -79v-160q0 -40 5.5 -57.5t27.5 -35.5q35 -29 74 -58q46 -36 61.5 -56.5t15.5 -59.5v-27q0 -46 -31 -73.5t-79 -27.5
h-95q-46 0 -78 32t-32 79v22h18v-23q0 -39 26.5 -66t65.5 -27h95q41 0 66.5 22.5t25.5 60.5v28q0 10 -1.5 18t-2 14t-5.5 13t-6.5 10t-10 10.5t-11 10t-14.5 12t-16 12.5q-63 51 -76 62z" />
    <glyph glyph-name="agrave" unicode="&#xe0;" horiz-adv-x="498" 
d="M413 363v-363h-18v57q-26 -38 -88 -53q-57 -14 -121 -14q-47 0 -76.5 27t-29.5 73v70q0 46 29.5 73t76.5 27q63 0 121 -8q59 -9 88 -52v164q0 39 -26.5 66t-65.5 27h-103q-39 0 -65.5 -27t-26.5 -66v-22h-18v21q0 47 32 79t78 32h103q46 0 78 -32t32 -79zM98 160v-70
q0 -39 23.5 -61t64.5 -22q74 0 130 17q79 24 79 88v32q0 35 -23 58t-56 30q-58 11 -130 11q-41 0 -64.5 -22t-23.5 -61zM298 564l-10 -11l-109 100l11 12z" />
    <glyph glyph-name="aacute" unicode="&#xe1;" horiz-adv-x="498" 
d="M413 363v-363h-18v57q-26 -38 -88 -53q-57 -14 -121 -14q-47 0 -76.5 27t-29.5 73v70q0 46 29.5 73t76.5 27q63 0 121 -8q59 -9 88 -52v164q0 39 -26.5 66t-65.5 27h-103q-39 0 -65.5 -27t-26.5 -66v-22h-18v21q0 47 32 79t78 32h103q46 0 78 -32t32 -79zM98 160v-70
q0 -39 23.5 -61t64.5 -22q74 0 130 17q79 24 79 88v32q0 35 -23 58t-56 30q-58 11 -130 11q-41 0 -64.5 -22t-23.5 -61zM232 553l-10 11l108 101l11 -12z" />
    <glyph glyph-name="acircumflex" unicode="&#xe2;" horiz-adv-x="498" 
d="M413 363v-363h-18v57q-26 -38 -88 -53q-57 -14 -121 -14q-47 0 -76.5 27t-29.5 73v70q0 46 29.5 73t76.5 27q63 0 121 -8q59 -9 88 -52v164q0 39 -26.5 66t-65.5 27h-103q-39 0 -65.5 -27t-26.5 -66v-22h-18v21q0 47 32 79t78 32h103q46 0 78 -32t32 -79zM98 160v-70
q0 -39 23.5 -61t64.5 -22q74 0 130 17q79 24 79 88v32q0 35 -23 58t-56 30q-58 11 -130 11q-41 0 -64.5 -22t-23.5 -61zM156 547l100 109l100 -109l-12 -10l-88 96l-88 -96z" />
    <glyph glyph-name="atilde" unicode="&#xe3;" horiz-adv-x="498" 
d="M413 363v-363h-18v57q-26 -38 -88 -53q-57 -14 -121 -14q-47 0 -76.5 27t-29.5 73v70q0 46 29.5 73t76.5 27q63 0 121 -8q59 -9 88 -52v164q0 39 -26.5 66t-65.5 27h-103q-39 0 -65.5 -27t-26.5 -66v-22h-18v21q0 47 32 79t78 32h103q46 0 78 -32t32 -79zM98 160v-70
q0 -39 23.5 -61t64.5 -22q74 0 130 17q79 24 79 88v32q0 35 -23 58t-56 30q-58 11 -130 11q-41 0 -64.5 -22t-23.5 -61zM356 622l15 -4l-14 -42q-9 -24 -32 -16l-136 46q-8 3 -11 -5l-15 -43l-15 5l14 42q8 24 33 15l135 -46q8 -3 12 6z" />
    <glyph glyph-name="adieresis" unicode="&#xe4;" horiz-adv-x="498" 
d="M413 363v-363h-18v57q-26 -38 -88 -53q-57 -14 -121 -14q-47 0 -76.5 27t-29.5 73v70q0 46 29.5 73t76.5 27q63 0 121 -8q59 -9 88 -52v164q0 39 -26.5 66t-65.5 27h-103q-39 0 -65.5 -27t-26.5 -66v-22h-18v21q0 47 32 79t78 32h103q46 0 78 -32t32 -79zM98 160v-70
q0 -39 23.5 -61t64.5 -22q74 0 130 17q79 24 79 88v32q0 35 -23 58t-56 30q-58 11 -130 11q-41 0 -64.5 -22t-23.5 -61zM195 556h-21v47h21v-47zM335 556h-21v47h21v-47z" />
    <glyph glyph-name="aring" unicode="&#xe5;" horiz-adv-x="498" 
d="M413 363v-363h-18v57q-26 -38 -88 -53q-57 -14 -121 -14q-47 0 -76.5 27t-29.5 73v70q0 46 29.5 73t76.5 27q63 0 121 -8q59 -9 88 -52v164q0 39 -26.5 66t-65.5 27h-103q-39 0 -65.5 -27t-26.5 -66v-22h-18v21q0 47 32 79t78 32h103q46 0 78 -32t32 -79zM98 160v-70
q0 -39 23.5 -61t64.5 -22q74 0 130 17q79 24 79 88v32q0 35 -23 58t-56 30q-58 11 -130 11q-41 0 -64.5 -22t-23.5 -61zM310 621v-61q0 -22 -22 -22h-63q-22 0 -22 22v61q0 22 22 22h63q22 0 22 -22zM297 623q0 8 -8 8h-65q-8 0 -8 -8v-65q0 -8 8 -8h65q8 0 8 8v65z" />
    <glyph glyph-name="ae" unicode="&#xe6;" horiz-adv-x="808" 
d="M715 140h18v-29q0 -47 -32 -79t-78 -32h-115q-33 0 -60.5 19.5t-40.5 49.5q-29 -48 -97 -66q-52 -13 -124 -13q-47 0 -76.5 27t-29.5 73v70q0 46 29.5 73t76.5 27q59 0 124 -8q57 -7 88 -52v164q0 39 -26.5 66t-65.5 27h-106q-39 0 -65.5 -27t-26.5 -66v-22h-18v21
q0 47 32 79t78 32h106q34 0 61 -18t40 -48q12 30 39.5 48t61.5 18h115q46 0 78 -32t32 -79v-119h-317v-138q2 -38 28 -63.5t64 -25.5h115q39 0 65.5 27t26.5 66v30zM98 160v-70q0 -39 23.5 -61.5t64.5 -22.5q80 0 133 16q78 25 79 89v36q-1 33 -24.5 56.5t-54.5 29.5
q-59 11 -133 11q-41 0 -64.5 -22.5t-23.5 -61.5zM416 367v-106h299v103q0 39 -26.5 66t-65.5 27h-115q-38 0 -64.5 -26t-27.5 -64z" />
    <glyph glyph-name="ccedilla" unicode="&#xe7;" horiz-adv-x="478" 
d="M205 -131l-15 7l51 124h-51q-46 0 -78 32t-32 79v252q0 47 32 79t78 32h113q46 0 78 -32t32 -79v-30h-18v31q0 39 -26.5 66t-65.5 27h-113q-39 0 -65.5 -27t-26.5 -66v-254q0 -39 26.5 -66t65.5 -27h113q39 0 65.5 27t26.5 66v33h18v-32q0 -47 -32 -79t-78 -32h-42z" />
    <glyph glyph-name="egrave" unicode="&#xe8;" horiz-adv-x="490" 
d="M397 140h18v-29q0 -47 -32 -79t-78 -32h-115q-46 0 -78 32t-32 79v252q0 47 32 79t78 32h115q46 0 78 -32t32 -79v-119h-317v-134q0 -39 26.5 -66t65.5 -27h115q39 0 65.5 27t26.5 66v30zM98 364v-103h299v103q0 39 -26.5 66t-65.5 27h-115q-39 0 -65.5 -27t-26.5 -66z
M284 564l-10 -11l-109 100l11 12z" />
    <glyph glyph-name="eacute" unicode="&#xe9;" horiz-adv-x="490" 
d="M397 140h18v-29q0 -47 -32 -79t-78 -32h-115q-46 0 -78 32t-32 79v252q0 47 32 79t78 32h115q46 0 78 -32t32 -79v-119h-317v-134q0 -39 26.5 -66t65.5 -27h115q39 0 65.5 27t26.5 66v30zM98 364v-103h299v103q0 39 -26.5 66t-65.5 27h-115q-39 0 -65.5 -27t-26.5 -66z
M214 553l-10 11l108 101l11 -12z" />
    <glyph glyph-name="ecircumflex" unicode="&#xea;" horiz-adv-x="490" 
d="M397 140h18v-29q0 -47 -32 -79t-78 -32h-115q-46 0 -78 32t-32 79v252q0 47 32 79t78 32h115q46 0 78 -32t32 -79v-119h-317v-134q0 -39 26.5 -66t65.5 -27h115q39 0 65.5 27t26.5 66v30zM98 364v-103h299v103q0 39 -26.5 66t-65.5 27h-115q-39 0 -65.5 -27t-26.5 -66z
M147 547l100 109l100 -109l-12 -10l-88 96l-88 -96z" />
    <glyph glyph-name="edieresis" unicode="&#xeb;" horiz-adv-x="490" 
d="M397 140h18v-29q0 -47 -32 -79t-78 -32h-115q-46 0 -78 32t-32 79v252q0 47 32 79t78 32h115q46 0 78 -32t32 -79v-119h-317v-134q0 -39 26.5 -66t65.5 -27h115q39 0 65.5 27t26.5 66v30zM98 364v-103h299v103q0 39 -26.5 66t-65.5 27h-115q-39 0 -65.5 -27t-26.5 -66z
M186 556h-21v47h21v-47zM326 556h-21v47h21v-47z" />
    <glyph glyph-name="igrave" unicode="&#xec;" horiz-adv-x="198" 
d="M108 0h-18v474h18v-474zM119 564l-10 -11l-109 100l11 12z" />
    <glyph glyph-name="iacute" unicode="&#xed;" horiz-adv-x="198" 
d="M108 0h-18v474h18v-474zM92 553l-10 11l108 101l11 -12z" />
    <glyph glyph-name="icircumflex" unicode="&#xee;" horiz-adv-x="198" 
d="M108 0h-18v474h18v-474zM-1 547l100 109l100 -109l-12 -10l-88 96l-88 -96z" />
    <glyph glyph-name="idieresis" unicode="&#xef;" horiz-adv-x="198" 
d="M108 0h-18v474h18v-474zM40 556h-21v47h21v-47zM180 556h-21v47h21v-47z" />
    <glyph glyph-name="eth" unicode="&#xf0;" horiz-adv-x="494" 
d="M321 535l-12 10l74 84q-25 20 -57 20h-191v17h191q39 0 69 -24l48 54l11 -9l-48 -55q30 -33 30 -77v-444q0 -47 -32 -79t-78 -32h-136q-46 0 -78 32t-32 79v171q0 46 29.5 73t76.5 27q82 0 144 -14t88 -53v241q0 36 -24 63zM98 110q0 -39 26.5 -66t65.5 -27h136
q39 0 65.5 27t26.5 66v150q0 34 -23 56.5t-56 31.5q-59 17 -153 17q-41 0 -64.5 -22t-23.5 -61v-172z" />
    <glyph glyph-name="ntilde" unicode="&#xf1;" 
d="M419 0h-18v384q0 39 -23.5 61t-64.5 22q-50 0 -126 -23q-79 -24 -79 -88v-356h-18v474h18v-63q25 36 88 53q73 20 117 20q47 0 76.5 -27t29.5 -73v-384zM343 622l15 -4l-14 -42q-9 -24 -32 -16l-136 46q-8 3 -11 -5l-15 -43l-15 5l14 42q8 24 33 15l135 -46q8 -3 12 6z
" />
    <glyph glyph-name="ograve" unicode="&#xf2;" horiz-adv-x="501" 
d="M421 363v-252q0 -47 -32 -79t-78 -32h-121q-46 0 -78 32t-32 79v252q0 47 32 79t78 32h121q46 0 78 -32t32 -79zM98 364v-254q0 -39 26.5 -66t65.5 -27h121q39 0 65.5 27t26.5 66v254q0 39 -26.5 66t-65.5 27h-121q-39 0 -65.5 -27t-26.5 -66zM294 564l-10 -11l-109 100
l11 12z" />
    <glyph glyph-name="oacute" unicode="&#xf3;" horiz-adv-x="501" 
d="M421 363v-252q0 -47 -32 -79t-78 -32h-121q-46 0 -78 32t-32 79v252q0 47 32 79t78 32h121q46 0 78 -32t32 -79zM98 364v-254q0 -39 26.5 -66t65.5 -27h121q39 0 65.5 27t26.5 66v254q0 39 -26.5 66t-65.5 27h-121q-39 0 -65.5 -27t-26.5 -66zM218 553l-10 11l108 101
l11 -12z" />
    <glyph glyph-name="ocircumflex" unicode="&#xf4;" horiz-adv-x="501" 
d="M421 363v-252q0 -47 -32 -79t-78 -32h-121q-46 0 -78 32t-32 79v252q0 47 32 79t78 32h121q46 0 78 -32t32 -79zM98 364v-254q0 -39 26.5 -66t65.5 -27h121q39 0 65.5 27t26.5 66v254q0 39 -26.5 66t-65.5 27h-121q-39 0 -65.5 -27t-26.5 -66zM150 547l100 109l100 -109
l-12 -10l-88 96l-88 -96z" />
    <glyph glyph-name="otilde" unicode="&#xf5;" horiz-adv-x="501" 
d="M421 363v-252q0 -47 -32 -79t-78 -32h-121q-46 0 -78 32t-32 79v252q0 47 32 79t78 32h121q46 0 78 -32t32 -79zM98 364v-254q0 -39 26.5 -66t65.5 -27h121q39 0 65.5 27t26.5 66v254q0 39 -26.5 66t-65.5 27h-121q-39 0 -65.5 -27t-26.5 -66zM350 622l15 -4l-14 -42
q-9 -24 -32 -16l-136 46q-8 3 -11 -5l-15 -43l-15 5l14 42q8 24 33 15l135 -46q8 -3 12 6z" />
    <glyph glyph-name="odieresis" unicode="&#xf6;" horiz-adv-x="501" 
d="M421 363v-252q0 -47 -32 -79t-78 -32h-121q-46 0 -78 32t-32 79v252q0 47 32 79t78 32h121q46 0 78 -32t32 -79zM98 364v-254q0 -39 26.5 -66t65.5 -27h121q39 0 65.5 27t26.5 66v254q0 39 -26.5 66t-65.5 27h-121q-39 0 -65.5 -27t-26.5 -66zM191 556h-21v47h21v-47z
M331 556h-21v47h21v-47z" />
    <glyph glyph-name="divide" unicode="&#xf7;" horiz-adv-x="525" 
d="M75 316v15h375v-15h-375zM271 116h-18v80h18v-80zM271 451h-18v80h18v-80z" />
    <glyph glyph-name="oslash" unicode="&#xf8;" horiz-adv-x="501" 
d="M80 -43l39 68q-39 32 -39 86v252q0 47 32 79t78 32h121q30 0 57 -16l38 66l14 -7l-39 -68q40 -33 40 -86v-252q0 -47 -32 -79t-78 -32h-121q-32 0 -58 16l-38 -66zM403 364q0 42 -31 70l-232 -403q22 -14 50 -14h121q39 0 65.5 27t26.5 66v254zM98 364v-254q0 -43 30 -70
l231 403q-22 14 -48 14h-121q-39 0 -65.5 -27t-26.5 -66z" />
    <glyph glyph-name="ugrave" unicode="&#xf9;" 
d="M85 474h18v-384q0 -39 23.5 -61t64.5 -22q50 0 126 23q79 24 79 88v356h18v-474h-18v63q-25 -36 -88 -53q-73 -20 -117 -20q-47 0 -76.5 27t-29.5 73v384zM295 564l-10 -11l-109 100l11 12z" />
    <glyph glyph-name="uacute" unicode="&#xfa;" 
d="M85 474h18v-384q0 -39 23.5 -61t64.5 -22q50 0 126 23q79 24 79 88v356h18v-474h-18v63q-25 -36 -88 -53q-73 -20 -117 -20q-47 0 -76.5 27t-29.5 73v384zM223 553l-10 11l108 101l11 -12z" />
    <glyph glyph-name="ucircumflex" unicode="&#xfb;" 
d="M85 474h18v-384q0 -39 23.5 -61t64.5 -22q50 0 126 23q79 24 79 88v356h18v-474h-18v63q-25 -36 -88 -53q-73 -20 -117 -20q-47 0 -76.5 27t-29.5 73v384zM153 547l100 109l100 -109l-12 -10l-88 96l-88 -96z" />
    <glyph glyph-name="udieresis" unicode="&#xfc;" 
d="M85 474h18v-384q0 -39 23.5 -61t64.5 -22q50 0 126 23q79 24 79 88v356h18v-474h-18v63q-25 -36 -88 -53q-73 -20 -117 -20q-47 0 -76.5 27t-29.5 73v384zM195 556h-21v47h21v-47zM335 556h-21v47h21v-47z" />
    <glyph glyph-name="yacute" unicode="&#xfd;" horiz-adv-x="429" 
d="M153 -190h-18l70 191l-175 473h19l166 -451l167 451h19l-177 -474zM198 553l-10 11l108 101l11 -12z" />
    <glyph glyph-name="thorn" unicode="&#xfe;" horiz-adv-x="499" 
d="M90 -190v856h18v-255q25 36 88 53q73 20 117 20q47 0 76.5 -27t29.5 -73v-294q0 -46 -29.5 -73t-76.5 -27q-44 0 -117 20q-63 17 -88 53v-253h-18zM401 384q0 39 -23.5 61t-64.5 22q-50 0 -126 -23q-79 -24 -79 -88v-238q0 -64 79 -88q76 -23 126 -23q41 0 64.5 22
t23.5 61v294z" />
    <glyph glyph-name="ydieresis" unicode="&#xff;" horiz-adv-x="429" 
d="M153 -190h-18l70 191l-175 473h19l166 -451l167 451h19l-177 -474zM161 556h-21v47h21v-47zM301 556h-21v47h21v-47z" />
    <glyph glyph-name="Amacron" unicode="&#x100;" horiz-adv-x="578" 
d="M515 0l-72 201h-308l-72 -201h-18l236 666h16l236 -666h-18zM289 643l-148 -425h296zM189 752v14h200v-14h-200z" />
    <glyph glyph-name="amacron" unicode="&#x101;" horiz-adv-x="498" 
d="M413 363v-363h-18v57q-26 -38 -88 -53q-57 -14 -121 -14q-47 0 -76.5 27t-29.5 73v70q0 46 29.5 73t76.5 27q63 0 121 -8q59 -9 88 -52v164q0 39 -26.5 66t-65.5 27h-103q-39 0 -65.5 -27t-26.5 -66v-22h-18v21q0 47 32 79t78 32h103q46 0 78 -32t32 -79zM98 160v-70
q0 -39 23.5 -61t64.5 -22q74 0 130 17q79 24 79 88v32q0 35 -23 58t-56 30q-58 11 -130 11q-41 0 -64.5 -22t-23.5 -61zM155 577v14h200v-14h-200z" />
    <glyph glyph-name="Abreve" unicode="&#x102;" horiz-adv-x="578" 
d="M515 0l-72 201h-308l-72 -201h-18l236 666h16l236 -666h-18zM289 643l-148 -425h296zM368 809h14v-58q0 -22 -22 -22h-141q-22 0 -22 22v58h14v-59q0 -8 8 -8h141q8 0 8 8v59z" />
    <glyph glyph-name="abreve" unicode="&#x103;" horiz-adv-x="498" 
d="M413 363v-363h-18v57q-26 -38 -88 -53q-57 -14 -121 -14q-47 0 -76.5 27t-29.5 73v70q0 46 29.5 73t76.5 27q63 0 121 -8q59 -9 88 -52v164q0 39 -26.5 66t-65.5 27h-103q-39 0 -65.5 -27t-26.5 -66v-22h-18v21q0 47 32 79t78 32h103q46 0 78 -32t32 -79zM98 160v-70
q0 -39 23.5 -61t64.5 -22q74 0 130 17q79 24 79 88v32q0 35 -23 58t-56 30q-58 11 -130 11q-41 0 -64.5 -22t-23.5 -61zM331 625h14v-58q0 -22 -22 -22h-141q-22 0 -22 22v58h14v-59q0 -8 8 -8h141q8 0 8 8v59z" />
    <glyph glyph-name="Aogonek" unicode="&#x104;" horiz-adv-x="578" 
d="M533 -126l-10 -11l-57 51l49 86l-72 201h-308l-72 -201h-18l236 666h16l236 -666l-47 -83zM289 643l-148 -425h296z" />
    <glyph glyph-name="aogonek" unicode="&#x105;" horiz-adv-x="498" 
d="M413 -126l-10 -11l-57 51l49 86v57q-26 -38 -88 -53q-57 -14 -121 -14q-47 0 -76.5 27t-29.5 73v70q0 46 29.5 73t76.5 27q63 0 121 -8q59 -9 88 -52v164q0 39 -26.5 66t-65.5 27h-103q-39 0 -65.5 -27t-26.5 -66v-22h-18v21q0 47 32 79t78 32h103q46 0 78 -32t32 -79
v-363l-47 -83zM98 160v-70q0 -39 23.5 -61t64.5 -22q74 0 130 17q79 24 79 88v32q0 35 -23 58t-56 30q-58 11 -130 11q-41 0 -64.5 -22t-23.5 -61z" />
    <glyph glyph-name="Cacute" unicode="&#x106;" horiz-adv-x="579" 
d="M108 556v-446q0 -39 26.5 -66t65.5 -27h184q39 0 65.5 27t26.5 66v84h18v-83q0 -47 -32 -79t-78 -32h-184q-46 0 -78 32t-32 79v444q0 47 32 79t78 32h184q46 0 78 -32t32 -79v-80h-18v81q0 39 -26.5 66t-65.5 27h-184q-39 0 -65.5 -27t-26.5 -66zM263 733l-10 11
l108 101l11 -12z" />
    <glyph glyph-name="cacute" unicode="&#x107;" horiz-adv-x="478" 
d="M395 143h18v-32q0 -47 -32 -79t-78 -32h-113q-46 0 -78 32t-32 79v252q0 47 32 79t78 32h113q46 0 78 -32t32 -79v-30h-18v31q0 39 -26.5 66t-65.5 27h-113q-39 0 -65.5 -27t-26.5 -66v-254q0 -39 26.5 -66t65.5 -27h113q39 0 65.5 27t26.5 66v33zM210 553l-10 11
l108 101l11 -12z" />
    <glyph glyph-name="Ccircumflex" unicode="&#x108;" horiz-adv-x="579" 
d="M108 556v-446q0 -39 26.5 -66t65.5 -27h184q39 0 65.5 27t26.5 66v84h18v-83q0 -47 -32 -79t-78 -32h-184q-46 0 -78 32t-32 79v444q0 47 32 79t78 32h184q46 0 78 -32t32 -79v-80h-18v81q0 39 -26.5 66t-65.5 27h-184q-39 0 -65.5 -27t-26.5 -66zM195 727l100 109
l100 -109l-12 -10l-88 96l-88 -96z" />
    <glyph glyph-name="ccircumflex" unicode="&#x109;" horiz-adv-x="478" 
d="M395 143h18v-32q0 -47 -32 -79t-78 -32h-113q-46 0 -78 32t-32 79v252q0 47 32 79t78 32h113q46 0 78 -32t32 -79v-30h-18v31q0 39 -26.5 66t-65.5 27h-113q-39 0 -65.5 -27t-26.5 -66v-254q0 -39 26.5 -66t65.5 -27h113q39 0 65.5 27t26.5 66v33zM147 547l100 109
l100 -109l-12 -10l-88 96l-88 -96z" />
    <glyph glyph-name="Cdotaccent" unicode="&#x10a;" horiz-adv-x="579" 
d="M108 556v-446q0 -39 26.5 -66t65.5 -27h184q39 0 65.5 27t26.5 66v84h18v-83q0 -47 -32 -79t-78 -32h-184q-46 0 -78 32t-32 79v444q0 47 32 79t78 32h184q46 0 78 -32t32 -79v-80h-18v81q0 39 -26.5 66t-65.5 27h-184q-39 0 -65.5 -27t-26.5 -66zM304 759h-18v88h18v-88
z" />
    <glyph glyph-name="cdotaccent" unicode="&#x10b;" horiz-adv-x="478" 
d="M395 143h18v-32q0 -47 -32 -79t-78 -32h-113q-46 0 -78 32t-32 79v252q0 47 32 79t78 32h113q46 0 78 -32t32 -79v-30h-18v31q0 39 -26.5 66t-65.5 27h-113q-39 0 -65.5 -27t-26.5 -66v-254q0 -39 26.5 -66t65.5 -27h113q39 0 65.5 27t26.5 66v33zM251 578h-18v88h18v-88
z" />
    <glyph glyph-name="Ccaron" unicode="&#x10c;" horiz-adv-x="579" 
d="M108 556v-446q0 -39 26.5 -66t65.5 -27h184q39 0 65.5 27t26.5 66v84h18v-83q0 -47 -32 -79t-78 -32h-184q-46 0 -78 32t-32 79v444q0 47 32 79t78 32h184q46 0 78 -32t32 -79v-80h-18v81q0 39 -26.5 66t-65.5 27h-184q-39 0 -65.5 -27t-26.5 -66zM294 727l-100 109
l12 10l88 -96l88 96l12 -10z" />
    <glyph glyph-name="ccaron" unicode="&#x10d;" horiz-adv-x="478" 
d="M395 143h18v-32q0 -47 -32 -79t-78 -32h-113q-46 0 -78 32t-32 79v252q0 47 32 79t78 32h113q46 0 78 -32t32 -79v-30h-18v31q0 39 -26.5 66t-65.5 27h-113q-39 0 -65.5 -27t-26.5 -66v-254q0 -39 26.5 -66t65.5 -27h113q39 0 65.5 27t26.5 66v33zM247 537l-100 109
l12 10l88 -96l88 96l12 -10z" />
    <glyph glyph-name="Dcaron" unicode="&#x10e;" horiz-adv-x="571" 
d="M95 0v666h276q46 0 78 -32t32 -79v-444q0 -47 -32 -79t-78 -32h-276zM371 649h-258v-632h258q39 0 65.5 27t26.5 66v446q0 39 -26.5 66t-65.5 27zM274 727l-100 109l12 10l88 -96l88 96l12 -10z" />
    <glyph glyph-name="dcaron" unicode="&#x10f;" horiz-adv-x="600" 
d="M409 666v-666h-18v63q-25 -36 -88 -53q-73 -20 -117 -20q-47 0 -76.5 27t-29.5 73v294q0 46 29.5 73t76.5 27q44 0 117 -20q63 -17 88 -53v255h18zM98 90q0 -39 23.5 -61t64.5 -22q50 0 126 23q79 24 79 88v238q0 64 -79 88q-76 23 -126 23q-41 0 -64.5 -22t-23.5 -61
v-294zM525 509l-15 7l32 79v71h18v-71z" />
    <glyph glyph-name="Dcroat" unicode="&#x110;" horiz-adv-x="606" 
d="M45 328v14h85v324h276q46 0 78 -32t32 -79v-444q0 -47 -32 -79t-78 -32h-276v328h-85zM406 649h-258v-307h148v-14h-148v-311h258q39 0 65.5 27t26.5 66v446q0 39 -26.5 66t-65.5 27z" />
    <glyph glyph-name="dcroat" unicode="&#x111;" horiz-adv-x="515" 
d="M262 555v15h129v96h18v-96h81v-15h-81v-555h-18v63q-25 -36 -88 -53q-73 -20 -117 -20q-47 0 -76.5 27t-29.5 73v294q0 46 29.5 73t76.5 27q44 0 117 -20q63 -17 88 -53v144h-129zM98 90q0 -39 23.5 -61t64.5 -22q50 0 126 23q79 24 79 88v238q0 64 -79 88
q-76 23 -126 23q-41 0 -64.5 -22t-23.5 -61v-294z" />
    <glyph glyph-name="Emacron" unicode="&#x112;" horiz-adv-x="525" 
d="M95 0v666h354v-17h-336v-288h305v-17h-305v-327h342v-17h-360zM169 752v14h200v-14h-200z" />
    <glyph glyph-name="emacron" unicode="&#x113;" horiz-adv-x="490" 
d="M397 140h18v-29q0 -47 -32 -79t-78 -32h-115q-46 0 -78 32t-32 79v252q0 47 32 79t78 32h115q46 0 78 -32t32 -79v-119h-317v-134q0 -39 26.5 -66t65.5 -27h115q39 0 65.5 27t26.5 66v30zM98 364v-103h299v103q0 39 -26.5 66t-65.5 27h-115q-39 0 -65.5 -27t-26.5 -66z
M147 577v14h200v-14h-200z" />
    <glyph glyph-name="Ebreve" unicode="&#x114;" horiz-adv-x="525" 
d="M95 0v666h354v-17h-336v-288h305v-17h-305v-327h342v-17h-360zM355 809h14v-58q0 -22 -22 -22h-141q-22 0 -22 22v58h14v-59q0 -8 8 -8h141q8 0 8 8v59z" />
    <glyph glyph-name="ebreve" unicode="&#x115;" horiz-adv-x="490" 
d="M397 140h18v-29q0 -47 -32 -79t-78 -32h-115q-46 0 -78 32t-32 79v252q0 47 32 79t78 32h115q46 0 78 -32t32 -79v-119h-317v-134q0 -39 26.5 -66t65.5 -27h115q39 0 65.5 27t26.5 66v30zM98 364v-103h299v103q0 39 -26.5 66t-65.5 27h-115q-39 0 -65.5 -27t-26.5 -66z
M326 625h14v-58q0 -22 -22 -22h-141q-22 0 -22 22v58h14v-59q0 -8 8 -8h141q8 0 8 8v59z" />
    <glyph glyph-name="Edotaccent" unicode="&#x116;" horiz-adv-x="525" 
d="M95 0v666h354v-17h-336v-288h305v-17h-305v-327h342v-17h-360zM281 760h-18v88h18v-88z" />
    <glyph glyph-name="edotaccent" unicode="&#x117;" horiz-adv-x="490" 
d="M397 140h18v-29q0 -47 -32 -79t-78 -32h-115q-46 0 -78 32t-32 79v252q0 47 32 79t78 32h115q46 0 78 -32t32 -79v-119h-317v-134q0 -39 26.5 -66t65.5 -27h115q39 0 65.5 27t26.5 66v30zM98 364v-103h299v103q0 39 -26.5 66t-65.5 27h-115q-39 0 -65.5 -27t-26.5 -66z
M259 578h-18v88h18v-88z" />
    <glyph glyph-name="Eogonek" unicode="&#x118;" horiz-adv-x="525" 
d="M95 0v666h354v-17h-336v-288h305v-17h-305v-327h342v-17h-98l-47 -83l47 -43l-10 -11l-57 51l49 86h-244z" />
    <glyph glyph-name="eogonek" unicode="&#x119;" horiz-adv-x="490" 
d="M397 140h18v-29q0 -28 -17 -60l-76 -134l47 -43l-10 -11l-57 51l57 101q-24 -15 -54 -15h-115q-46 0 -78 32t-32 79v252q0 47 32 79t78 32h115q46 0 78 -32t32 -79v-119h-317v-134q0 -39 26.5 -66t65.5 -27h115q39 0 65.5 27t26.5 66v30zM98 364v-103h299v103
q0 39 -26.5 66t-65.5 27h-115q-39 0 -65.5 -27t-26.5 -66z" />
    <glyph glyph-name="Ecaron" unicode="&#x11a;" horiz-adv-x="525" 
d="M95 0v666h354v-17h-336v-288h305v-17h-305v-327h342v-17h-360zM271 727l-100 109l12 10l88 -96l88 96l12 -10z" />
    <glyph glyph-name="ecaron" unicode="&#x11b;" horiz-adv-x="490" 
d="M397 140h18v-29q0 -47 -32 -79t-78 -32h-115q-46 0 -78 32t-32 79v252q0 47 32 79t78 32h115q46 0 78 -32t32 -79v-119h-317v-134q0 -39 26.5 -66t65.5 -27h115q39 0 65.5 27t26.5 66v30zM98 364v-103h299v103q0 39 -26.5 66t-65.5 27h-115q-39 0 -65.5 -27t-26.5 -66z
M245 537l-100 109l12 10l88 -96l88 96l12 -10z" />
    <glyph glyph-name="Gcircumflex" unicode="&#x11c;" horiz-adv-x="569" 
d="M309 288v16h180v-193q0 -47 -32 -79t-78 -32h-179q-46 0 -78 32t-32 79v444q0 47 32 79t78 32h179q46 0 78 -32t32 -79v-70h-18v71q0 39 -26.5 66t-65.5 27h-179q-39 0 -65.5 -27t-26.5 -66v-446q0 -39 26.5 -66t65.5 -27h179q39 0 65.5 27t26.5 66v178h-162zM187 727
l100 109l100 -109l-12 -10l-88 96l-88 -96z" />
    <glyph glyph-name="gcircumflex" unicode="&#x11d;" horiz-adv-x="494" 
d="M118 -190v17h181q39 0 65.5 27t26.5 66v143q-25 -36 -88 -53q-73 -20 -117 -20q-47 0 -76.5 27t-29.5 73v294q0 46 29.5 73t76.5 27q44 0 117 -20q63 -17 88 -53v63h18v-553q0 -47 -32 -79t-78 -32h-181zM98 384v-294q0 -39 23.5 -61t64.5 -22q50 0 126 23q79 24 79 88
v238q0 64 -79 88q-76 23 -126 23q-41 0 -64.5 -22t-23.5 -61zM159 547l100 109l100 -109l-12 -10l-88 96l-88 -96z" />
    <glyph glyph-name="Gbreve" unicode="&#x11e;" horiz-adv-x="569" 
d="M309 288v16h180v-193q0 -47 -32 -79t-78 -32h-179q-46 0 -78 32t-32 79v444q0 47 32 79t78 32h179q46 0 78 -32t32 -79v-70h-18v71q0 39 -26.5 66t-65.5 27h-179q-39 0 -65.5 -27t-26.5 -66v-446q0 -39 26.5 -66t65.5 -27h179q39 0 65.5 27t26.5 66v178h-162zM368 809h14
v-58q0 -22 -22 -22h-141q-22 0 -22 22v58h14v-59q0 -8 8 -8h141q8 0 8 8v59z" />
    <glyph glyph-name="gbreve" unicode="&#x11f;" horiz-adv-x="494" 
d="M118 -190v17h181q39 0 65.5 27t26.5 66v143q-25 -36 -88 -53q-73 -20 -117 -20q-47 0 -76.5 27t-29.5 73v294q0 46 29.5 73t76.5 27q44 0 117 -20q63 -17 88 -53v63h18v-553q0 -47 -32 -79t-78 -32h-181zM98 384v-294q0 -39 23.5 -61t64.5 -22q50 0 126 23q79 24 79 88
v238q0 64 -79 88q-76 23 -126 23q-41 0 -64.5 -22t-23.5 -61zM333 625h14v-58q0 -22 -22 -22h-141q-22 0 -22 22v58h14v-59q0 -8 8 -8h141q8 0 8 8v59z" />
    <glyph glyph-name="Gdotaccent" unicode="&#x120;" horiz-adv-x="569" 
d="M309 288v16h180v-193q0 -47 -32 -79t-78 -32h-179q-46 0 -78 32t-32 79v444q0 47 32 79t78 32h179q46 0 78 -32t32 -79v-70h-18v71q0 39 -26.5 66t-65.5 27h-179q-39 0 -65.5 -27t-26.5 -66v-446q0 -39 26.5 -66t65.5 -27h179q39 0 65.5 27t26.5 66v178h-162zM300 759
h-18v88h18v-88z" />
    <glyph glyph-name="gdotaccent" unicode="&#x121;" horiz-adv-x="494" 
d="M118 -190v17h181q39 0 65.5 27t26.5 66v143q-25 -36 -88 -53q-73 -20 -117 -20q-47 0 -76.5 27t-29.5 73v294q0 46 29.5 73t76.5 27q44 0 117 -20q63 -17 88 -53v63h18v-553q0 -47 -32 -79t-78 -32h-181zM98 384v-294q0 -39 23.5 -61t64.5 -22q50 0 126 23q79 24 79 88
v238q0 64 -79 88q-76 23 -126 23q-41 0 -64.5 -22t-23.5 -61zM270 578h-18v88h18v-88z" />
    <glyph glyph-name="Gcommaaccent" unicode="&#x122;" horiz-adv-x="569" 
d="M309 288v16h180v-193q0 -47 -32 -79t-78 -32h-179q-46 0 -78 32t-32 79v444q0 47 32 79t78 32h179q46 0 78 -32t32 -79v-70h-18v71q0 39 -26.5 66t-65.5 27h-179q-39 0 -65.5 -27t-26.5 -66v-446q0 -39 26.5 -66t65.5 -27h179q39 0 65.5 27t26.5 66v178h-162zM270 -206
l-15 7l32 79v71h18v-71z" />
    <glyph glyph-name="gcommaaccent" unicode="&#x123;" horiz-adv-x="494" 
d="M274 706l15 -7l-32 -79v-71h-18v71zM118 -190v17h181q39 0 65.5 27t26.5 66v143q-25 -36 -88 -53q-73 -20 -117 -20q-47 0 -76.5 27t-29.5 73v294q0 46 29.5 73t76.5 27q44 0 117 -20q63 -17 88 -53v63h18v-553q0 -47 -32 -79t-78 -32h-181zM98 384v-294q0 -39 23.5 -61
t64.5 -22q50 0 126 23q79 24 79 88v238q0 64 -79 88q-76 23 -126 23q-41 0 -64.5 -22t-23.5 -61z" />
    <glyph glyph-name="Hcircumflex" unicode="&#x124;" horiz-adv-x="591" 
d="M478 0v341h-365v-341h-18v666h18v-308h365v308h18v-666h-18zM195 727l100 109l100 -109l-12 -10l-88 96l-88 -96z" />
    <glyph glyph-name="hcircumflex" unicode="&#x125;" 
d="M0 737l100 109l100 -109l-12 -10l-88 96l-88 -96zM419 0h-18v384q0 39 -23.5 61t-64.5 22q-50 0 -126 -23q-79 -24 -79 -88v-356h-18v666h18v-255q25 36 88 53q73 20 117 20q47 0 76.5 -27t29.5 -73v-384z" />
    <glyph glyph-name="Hbar" unicode="&#x126;" horiz-adv-x="631" 
d="M55 511v15h60v140h18v-140h365v140h18v-140h60v-15h-60v-511h-18v341h-365v-341h-18v511h-60zM133 358h365v153h-365v-153z" />
    <glyph glyph-name="hbar" unicode="&#x127;" 
d="M12 555v15h78v96h18v-96h132v-15h-132v-144q25 36 88 53q73 20 117 20q47 0 76.5 -27t29.5 -73v-384h-18v384q0 39 -23.5 61t-64.5 22q-50 0 -126 -23q-79 -24 -79 -88v-356h-18v555h-78z" />
    <glyph glyph-name="Itilde" unicode="&#x128;" horiz-adv-x="218" 
d="M118 666v-666h-18v666h18zM202 799l15 -4l-14 -42q-9 -24 -32 -16l-136 46q-8 3 -11 -5l-15 -43l-15 5l14 42q8 24 33 15l135 -46q8 -3 12 6z" />
    <glyph glyph-name="itilde" unicode="&#x129;" horiz-adv-x="198" 
d="M108 0h-18v474h18v-474zM202 622l15 -4l-14 -42q-9 -24 -32 -16l-136 46q-8 3 -11 -5l-15 -43l-15 5l14 42q8 24 33 15l135 -46q8 -3 12 6z" />
    <glyph glyph-name="Imacron" unicode="&#x12a;" horiz-adv-x="218" 
d="M118 666v-666h-18v666h18zM9 752v14h200v-14h-200z" />
    <glyph glyph-name="imacron" unicode="&#x12b;" horiz-adv-x="198" 
d="M108 0h-18v474h18v-474zM-1 577v14h200v-14h-200z" />
    <glyph glyph-name="Ibreve" unicode="&#x12c;" horiz-adv-x="218" 
d="M118 666v-666h-18v666h18zM188 809h14v-58q0 -22 -22 -22h-141q-22 0 -22 22v58h14v-59q0 -8 8 -8h141q8 0 8 8v59z" />
    <glyph glyph-name="ibreve" unicode="&#x12d;" horiz-adv-x="198" 
d="M108 0h-18v474h18v-474zM178 625h14v-58q0 -22 -22 -22h-141q-22 0 -22 22v58h14v-59q0 -8 8 -8h141q8 0 8 8v59z" />
    <glyph glyph-name="Iogonek" unicode="&#x12e;" horiz-adv-x="218" 
d="M119 -127l-11 -10l-43 51l35 86v666h18v-666l-35 -84z" />
    <glyph glyph-name="iogonek" unicode="&#x12f;" horiz-adv-x="198" 
d="M109 -127l-11 -10l-43 51l35 86v474h18v-474l-35 -84zM108 578h-18v88h18v-88z" />
    <glyph glyph-name="Idotaccent" unicode="&#x130;" horiz-adv-x="218" 
d="M118 666v-666h-18v666h18zM118 759h-18v88h18v-88z" />
    <glyph glyph-name="dotlessi" unicode="&#x131;" horiz-adv-x="198" 
d="M108 0h-18v474h18v-474z" />
    <glyph glyph-name="IJ" unicode="&#x132;" horiz-adv-x="701" 
d="M118 666v-666h-18v666h18zM368 0q-46 0 -78 32t-32 79v67h18v-68q0 -39 26.5 -66t65.5 -27h133q39 0 65.5 27t26.5 66v556h18v-555q0 -47 -32 -79t-78 -32h-133z" />
    <glyph glyph-name="ij" unicode="&#x133;" horiz-adv-x="406" 
d="M108 0h-18v474h18v-474zM108 578h-18v88h18v-88zM298 474h18v-553q0 -47 -32 -79t-78 -32h-46v17h46q39 0 65.5 27t26.5 66v554zM316 583h-18v83h18v-83z" />
    <glyph glyph-name="Jcircumflex" unicode="&#x134;" horiz-adv-x="493" 
d="M160 0q-46 0 -78 32t-32 79v67h18v-68q0 -39 26.5 -66t65.5 -27h133q39 0 65.5 27t26.5 66v556h18v-555q0 -47 -32 -79t-78 -32h-133zM294 727l100 109l100 -109l-12 -10l-88 96l-88 -96z" />
    <glyph glyph-name="jcircumflex" unicode="&#x135;" horiz-adv-x="198" 
d="M90 474h18v-553q0 -47 -32 -79t-78 -32h-46v17h46q39 0 65.5 27t26.5 66v554zM-1 547l100 109l100 -109l-12 -10l-88 96l-88 -96z" />
    <glyph glyph-name="Kcommaaccent" unicode="&#x136;" horiz-adv-x="516" 
d="M472 666l-339 -324l353 -342h-24l-349 337v-337h-18v666h18v-320l335 320h24zM227 -206l-15 7l32 79v71h18v-71z" />
    <glyph glyph-name="kcommaaccent" unicode="&#x137;" horiz-adv-x="427" 
d="M368 474h24l-263 -236l268 -238h-24l-265 234v-234h-18v666h18v-424zM199 -206l-15 7l32 79v71h18v-71z" />
    <glyph glyph-name="kgreenlandic" unicode="&#x138;" horiz-adv-x="427" 
d="M368 474h24l-263 -236l268 -238h-24l-265 234v-234h-18v474h18v-232z" />
    <glyph glyph-name="Lacute" unicode="&#x139;" horiz-adv-x="489" 
d="M113 666v-649h321v-17h-339v666h18zM100 733l-10 11l108 101l11 -12z" />
    <glyph glyph-name="lacute" unicode="&#x13a;" horiz-adv-x="198" 
d="M108 0h-18v666h18v-666zM91 733l-10 11l108 101l11 -12z" />
    <glyph glyph-name="Lcommaaccent" unicode="&#x13b;" horiz-adv-x="489" 
d="M113 666v-649h321v-17h-339v666h18zM238 -206l-15 7l32 79v71h18v-71z" />
    <glyph glyph-name="lcommaaccent" unicode="&#x13c;" horiz-adv-x="198" 
d="M109 0h-18v666h18v-666zM74 -206l-15 7l32 79v71h18v-71z" />
    <glyph glyph-name="Lcaron" unicode="&#x13d;" horiz-adv-x="489" 
d="M113 666v-649h321v-17h-339v666h18zM313 509l-15 7l32 79v71h18v-71z" />
    <glyph glyph-name="lcaron" unicode="&#x13e;" horiz-adv-x="295" 
d="M230 509l-15 7l32 79v71h18v-71zM108 0h-18v666h18v-666z" />
    <glyph glyph-name="Ldot" unicode="&#x13f;" horiz-adv-x="489" 
d="M113 666v-649h321v-17h-339v666h18zM313 298h-18v88h18v-88z" />
    <glyph glyph-name="ldot" unicode="&#x140;" horiz-adv-x="288" 
d="M108 0h-18v666h18v-666zM233 168h-18v88h18v-88z" />
    <glyph glyph-name="Lslash" unicode="&#x141;" horiz-adv-x="510" 
d="M42 264l-7 14l81 42v346h18v-337l95 49l7 -12l-102 -54v-295h321v-17h-339v303z" />
    <glyph glyph-name="lslash" unicode="&#x142;" horiz-adv-x="259" 
d="M139 0h-18v297l-64 -33l-7 14l71 36v352h18v-343l83 43l7 -12l-90 -47v-307z" />
    <glyph glyph-name="Nacute" unicode="&#x143;" horiz-adv-x="599" 
d="M504 666v-666h-17l-375 631v-631h-17v666h17l375 -632v632h17zM274 733l-10 11l108 101l11 -12z" />
    <glyph glyph-name="nacute" unicode="&#x144;" 
d="M419 0h-18v384q0 39 -23.5 61t-64.5 22q-50 0 -126 -23q-79 -24 -79 -88v-356h-18v474h18v-63q25 36 88 53q73 20 117 20q47 0 76.5 -27t29.5 -73v-384zM212 553l-10 11l108 101l11 -12z" />
    <glyph glyph-name="Ncommaaccent" unicode="&#x145;" horiz-adv-x="599" 
d="M504 666v-666h-17l-375 631v-631h-17v666h17l375 -632v632h17zM268 -206l-15 7l32 79v71h18v-71z" />
    <glyph glyph-name="ncommaaccent" unicode="&#x146;" 
d="M419 0h-18v384q0 39 -23.5 61t-64.5 22q-50 0 -126 -23q-79 -24 -79 -88v-356h-18v474h18v-63q25 36 88 53q73 20 117 20q47 0 76.5 -27t29.5 -73v-384zM229 -206l-15 7l32 79v71h18v-71z" />
    <glyph glyph-name="Ncaron" unicode="&#x147;" horiz-adv-x="599" 
d="M504 666v-666h-17l-375 631v-631h-17v666h17l375 -632v632h17zM301 727l-100 109l12 10l88 -96l88 96l12 -10z" />
    <glyph glyph-name="ncaron" unicode="&#x148;" 
d="M419 0h-18v384q0 39 -23.5 61t-64.5 22q-50 0 -126 -23q-79 -24 -79 -88v-356h-18v474h18v-63q25 36 88 53q73 20 117 20q47 0 76.5 -27t29.5 -73v-384zM250 537l-100 109l12 10l88 -96l88 96l12 -10z" />
    <glyph glyph-name="Eng" unicode="&#x14a;" horiz-adv-x="599" 
d="M504 666v-745q0 -47 -32 -79t-78 -32h-20v17h20q39 0 65.5 27t26.5 66v81l-374 630v-631h-17v666h17l375 -632v632h17z" />
    <glyph glyph-name="eng" unicode="&#x14b;" 
d="M419 -79q0 -47 -32 -79t-78 -32h-20v17h20q39 0 65.5 27t26.5 66v464q0 39 -23.5 61t-64.5 22q-50 0 -126 -23q-79 -24 -79 -88v-356h-18v474h18v-63q25 36 88 53q73 20 117 20q47 0 76.5 -27t29.5 -73v-463z" />
    <glyph glyph-name="Omacron" unicode="&#x14c;" horiz-adv-x="589" 
d="M499 555v-444q0 -47 -32 -79t-78 -32h-189q-46 0 -78 32t-32 79v444q0 47 32 79t78 32h189q46 0 78 -32t32 -79zM108 556v-446q0 -39 26.5 -66t65.5 -27h189q39 0 65.5 27t26.5 66v446q0 39 -26.5 66t-65.5 27h-189q-39 0 -65.5 -27t-26.5 -66zM194 752v14h200v-14h-200z
" />
    <glyph glyph-name="omacron" unicode="&#x14d;" horiz-adv-x="501" 
d="M421 363v-252q0 -47 -32 -79t-78 -32h-121q-46 0 -78 32t-32 79v252q0 47 32 79t78 32h121q46 0 78 -32t32 -79zM98 364v-254q0 -39 26.5 -66t65.5 -27h121q39 0 65.5 27t26.5 66v254q0 39 -26.5 66t-65.5 27h-121q-39 0 -65.5 -27t-26.5 -66zM150 577v14h200v-14h-200z
" />
    <glyph glyph-name="Obreve" unicode="&#x14e;" horiz-adv-x="589" 
d="M499 555v-444q0 -47 -32 -79t-78 -32h-189q-46 0 -78 32t-32 79v444q0 47 32 79t78 32h189q46 0 78 -32t32 -79zM108 556v-446q0 -39 26.5 -66t65.5 -27h189q39 0 65.5 27t26.5 66v446q0 39 -26.5 66t-65.5 27h-189q-39 0 -65.5 -27t-26.5 -66zM373 809h14v-58
q0 -22 -22 -22h-141q-22 0 -22 22v58h14v-59q0 -8 8 -8h141q8 0 8 8v59z" />
    <glyph glyph-name="obreve" unicode="&#x14f;" horiz-adv-x="501" 
d="M421 363v-252q0 -47 -32 -79t-78 -32h-121q-46 0 -78 32t-32 79v252q0 47 32 79t78 32h121q46 0 78 -32t32 -79zM98 364v-254q0 -39 26.5 -66t65.5 -27h121q39 0 65.5 27t26.5 66v254q0 39 -26.5 66t-65.5 27h-121q-39 0 -65.5 -27t-26.5 -66zM329 625h14v-58
q0 -22 -22 -22h-141q-22 0 -22 22v58h14v-59q0 -8 8 -8h141q8 0 8 8v59z" />
    <glyph glyph-name="Ohungarumlaut" unicode="&#x150;" horiz-adv-x="589" 
d="M499 555v-444q0 -47 -32 -79t-78 -32h-189q-46 0 -78 32t-32 79v444q0 47 32 79t78 32h189q46 0 78 -32t32 -79zM108 556v-446q0 -39 26.5 -66t65.5 -27h189q39 0 65.5 27t26.5 66v446q0 39 -26.5 66t-65.5 27h-189q-39 0 -65.5 -27t-26.5 -66zM232 734l-14 8l54 104
l14 -8zM361 734l-14 8l54 104l14 -8z" />
    <glyph glyph-name="ohungarumlaut" unicode="&#x151;" horiz-adv-x="501" 
d="M421 363v-252q0 -47 -32 -79t-78 -32h-121q-46 0 -78 32t-32 79v252q0 47 32 79t78 32h121q46 0 78 -32t32 -79zM98 364v-254q0 -39 26.5 -66t65.5 -27h121q39 0 65.5 27t26.5 66v254q0 39 -26.5 66t-65.5 27h-121q-39 0 -65.5 -27t-26.5 -66zM192 553l-14 8l54 104
l14 -8zM321 553l-14 8l54 104l14 -8z" />
    <glyph glyph-name="OE" unicode="&#x152;" horiz-adv-x="909" 
d="M839 17v-17h-639q-46 0 -78 32t-32 79v444q0 47 32 79t78 32h633v-17h-336v-288h305v-17h-305v-327h342zM108 110q0 -39 26.5 -66t65.5 -27h279v632h-279q-39 0 -65.5 -27t-26.5 -66v-446z" />
    <glyph glyph-name="oe" unicode="&#x153;" horiz-adv-x="813" 
d="M720 140h18v-29q0 -47 -32 -79t-78 -32h-115q-34 0 -61.5 18t-39.5 48q-13 -30 -40 -48t-61 -18h-121q-46 0 -78 32t-32 79v252q0 47 32 79t78 32h121q34 0 61 -18t40 -48q12 30 39.5 48t61.5 18h115q46 0 78 -32t32 -79v-119h-317v-138q1 -38 27.5 -63.5t64.5 -25.5h115
q39 0 65.5 27t26.5 66v30zM98 364v-254q0 -39 26.5 -66t65.5 -27h121q39 0 65.5 27t26.5 66v257q-2 38 -28 64t-64 26h-121q-39 0 -65.5 -27t-26.5 -66zM421 261h299v103q0 39 -26.5 66t-65.5 27h-115q-38 0 -64.5 -26t-27.5 -64v-106z" />
    <glyph glyph-name="Racute" unicode="&#x154;" horiz-adv-x="569" 
d="M473 555v-139q0 -45 -30 -77t-74 -34l145 -305h-19l-145 305h-237v-305h-18v666h268q46 0 78 -32t32 -79zM363 649h-250v-327h250q39 0 65.5 27t26.5 66v141q0 39 -26.5 66t-65.5 27zM261 733l-10 11l108 101l11 -12z" />
    <glyph glyph-name="racute" unicode="&#x155;" horiz-adv-x="295" 
d="M278 484l2 -17q-58 -29 -96 -51q-39 -22 -57.5 -43t-18.5 -54v-319h-18v474h18v-96q19 25 72 55q45 25 98 51zM139 553l-10 11l108 101l11 -12z" />
    <glyph glyph-name="Rcommaaccent" unicode="&#x156;" horiz-adv-x="569" 
d="M473 555v-139q0 -45 -30 -77t-74 -34l145 -305h-19l-145 305h-237v-305h-18v666h268q46 0 78 -32t32 -79zM363 649h-250v-327h250q39 0 65.5 27t26.5 66v141q0 39 -26.5 66t-65.5 27zM262 -206l-15 7l32 79v71h18v-71z" />
    <glyph glyph-name="rcommaaccent" unicode="&#x157;" horiz-adv-x="295" 
d="M278 484l2 -17q-58 -29 -96 -51q-39 -22 -57.5 -43t-18.5 -54v-319h-18v474h18v-96q19 25 72 55q45 25 98 51zM73 -206l-15 7l32 79v71h18v-71z" />
    <glyph glyph-name="Rcaron" unicode="&#x158;" horiz-adv-x="569" 
d="M473 555v-139q0 -45 -30 -77t-74 -34l145 -305h-19l-145 305h-237v-305h-18v666h268q46 0 78 -32t32 -79zM363 649h-250v-327h250q39 0 65.5 27t26.5 66v141q0 39 -26.5 66t-65.5 27zM265 727l-100 109l12 10l88 -96l88 96l12 -10z" />
    <glyph glyph-name="rcaron" unicode="&#x159;" horiz-adv-x="295" 
d="M278 484l2 -17q-58 -29 -96 -51q-39 -22 -57.5 -43t-18.5 -54v-319h-18v474h18v-96q19 25 72 55q45 25 98 51zM175 537l-100 109l12 10l88 -96l88 96l12 -10z" />
    <glyph glyph-name="Sacute" unicode="&#x15a;" horiz-adv-x="563" 
d="M197 356q-103 29 -103 108v91q0 47 32 79t78 32h160q46 0 78 -32t32 -79v-70h-18v72q0 39 -26.5 66t-65.5 27h-160q-39 0 -65.5 -27t-26.5 -66v-93q0 -66 85 -91q47 -13 105.5 -29.5t71.5 -20.5q104 -29 104 -109v-103q0 -47 -32 -79t-78 -32h-168q-46 0 -78 32t-32 79
v73h18v-75q0 -39 26.5 -66t65.5 -27h168q39 0 65.5 27t26.5 66v105q0 66 -86 92q-43 13 -99.5 28.5t-77.5 21.5zM247 733l-10 11l108 101l11 -12z" />
    <glyph glyph-name="sacute" unicode="&#x15b;" horiz-adv-x="480" 
d="M193 244q-55 15 -82.5 36.5t-27.5 64.5v28q0 46 30.5 73.5t79.5 27.5h97q46 0 78 -32t32 -79v-27h-18v28q0 39 -26 66t-66 27h-97q-42 0 -67 -22t-25 -61v-29q0 -36 23 -53t73 -31q12 -3 45 -12t56 -15q54 -14 80.5 -36t26.5 -65v-32q0 -46 -31 -73.5t-79 -27.5h-105
q-46 0 -78 32t-32 79v22h18v-23q0 -39 26.5 -66t65.5 -27h105q41 0 66.5 22.5t25.5 60.5v33q0 36 -24 54t-73 31q-20 6 -48.5 13.5t-48.5 12.5zM204 553l-10 11l108 101l11 -12z" />
    <glyph glyph-name="Scircumflex" unicode="&#x15c;" horiz-adv-x="563" 
d="M197 356q-103 29 -103 108v91q0 47 32 79t78 32h160q46 0 78 -32t32 -79v-70h-18v72q0 39 -26.5 66t-65.5 27h-160q-39 0 -65.5 -27t-26.5 -66v-93q0 -66 85 -91q47 -13 105.5 -29.5t71.5 -20.5q104 -29 104 -109v-103q0 -47 -32 -79t-78 -32h-168q-46 0 -78 32t-32 79
v73h18v-75q0 -39 26.5 -66t65.5 -27h168q39 0 65.5 27t26.5 66v105q0 66 -86 92q-43 13 -99.5 28.5t-77.5 21.5zM186 727l100 109l100 -109l-12 -10l-88 96l-88 -96z" />
    <glyph glyph-name="scircumflex" unicode="&#x15d;" horiz-adv-x="480" 
d="M193 244q-55 15 -82.5 36.5t-27.5 64.5v28q0 46 30.5 73.5t79.5 27.5h97q46 0 78 -32t32 -79v-27h-18v28q0 39 -26 66t-66 27h-97q-42 0 -67 -22t-25 -61v-29q0 -36 23 -53t73 -31q12 -3 45 -12t56 -15q54 -14 80.5 -36t26.5 -65v-32q0 -46 -31 -73.5t-79 -27.5h-105
q-46 0 -78 32t-32 79v22h18v-23q0 -39 26.5 -66t65.5 -27h105q41 0 66.5 22.5t25.5 60.5v33q0 36 -24 54t-73 31q-20 6 -48.5 13.5t-48.5 12.5zM141 547l100 109l100 -109l-12 -10l-88 96l-88 -96z" />
    <glyph glyph-name="Scedilla" unicode="&#x15e;" horiz-adv-x="563" 
d="M248 -131l-15 7l51 124h-84q-46 0 -78 32t-32 79v73h18v-75q0 -39 26.5 -66t65.5 -27h168q39 0 65.5 27t26.5 66v105q0 66 -86 92q-43 13 -99.5 28.5t-77.5 21.5q-103 29 -103 108v91q0 47 32 79t78 32h160q46 0 78 -32t32 -79v-70h-18v72q0 39 -26.5 66t-65.5 27h-160
q-39 0 -65.5 -27t-26.5 -66v-93q0 -66 85 -91q47 -13 105.5 -29.5t71.5 -20.5q104 -29 104 -109v-103q0 -47 -32 -79t-78 -32h-64z" />
    <glyph glyph-name="Scedilla" unicode="&#xf6c1;" horiz-adv-x="563" 
d="M248 -131l-15 7l51 124h-84q-46 0 -78 32t-32 79v73h18v-75q0 -39 26.5 -66t65.5 -27h168q39 0 65.5 27t26.5 66v105q0 66 -86 92q-43 13 -99.5 28.5t-77.5 21.5q-103 29 -103 108v91q0 47 32 79t78 32h160q46 0 78 -32t32 -79v-70h-18v72q0 39 -26.5 66t-65.5 27h-160
q-39 0 -65.5 -27t-26.5 -66v-93q0 -66 85 -91q47 -13 105.5 -29.5t71.5 -20.5q104 -29 104 -109v-103q0 -47 -32 -79t-78 -32h-64z" />
    <glyph glyph-name="scedilla" unicode="&#x15f;" horiz-adv-x="480" 
d="M208 -125l-15 7l50 118h-53q-46 0 -78 32t-32 79v22h18v-23q0 -39 26.5 -66t65.5 -27h105q41 0 66.5 22.5t25.5 60.5v33q0 36 -24 54t-73 31q-20 6 -48.5 13.5t-48.5 12.5q-55 15 -82.5 36.5t-27.5 64.5v28q0 46 30.5 73.5t79.5 27.5h97q46 0 78 -32t32 -79v-27h-18v28
q0 39 -26 66t-66 27h-97q-42 0 -67 -22t-25 -61v-29q0 -36 23 -53t73 -31q12 -3 45 -12t56 -15q54 -14 80.5 -36t26.5 -65v-32q0 -46 -31 -73.5t-79 -27.5h-33z" />
    <glyph glyph-name="scedilla" unicode="&#xf6c2;" horiz-adv-x="480" 
d="M208 -125l-15 7l50 118h-53q-46 0 -78 32t-32 79v22h18v-23q0 -39 26.5 -66t65.5 -27h105q41 0 66.5 22.5t25.5 60.5v33q0 36 -24 54t-73 31q-20 6 -48.5 13.5t-48.5 12.5q-55 15 -82.5 36.5t-27.5 64.5v28q0 46 30.5 73.5t79.5 27.5h97q46 0 78 -32t32 -79v-27h-18v28
q0 39 -26 66t-66 27h-97q-42 0 -67 -22t-25 -61v-29q0 -36 23 -53t73 -31q12 -3 45 -12t56 -15q54 -14 80.5 -36t26.5 -65v-32q0 -46 -31 -73.5t-79 -27.5h-33z" />
    <glyph glyph-name="Scaron" unicode="&#x160;" horiz-adv-x="563" 
d="M197 356q-103 29 -103 108v91q0 47 32 79t78 32h160q46 0 78 -32t32 -79v-70h-18v72q0 39 -26.5 66t-65.5 27h-160q-39 0 -65.5 -27t-26.5 -66v-93q0 -66 85 -91q47 -13 105.5 -29.5t71.5 -20.5q104 -29 104 -109v-103q0 -47 -32 -79t-78 -32h-168q-46 0 -78 32t-32 79
v73h18v-75q0 -39 26.5 -66t65.5 -27h168q39 0 65.5 27t26.5 66v105q0 66 -86 92q-43 13 -99.5 28.5t-77.5 21.5zM279 727l-100 109l12 10l88 -96l88 96l12 -10z" />
    <glyph glyph-name="scaron" unicode="&#x161;" horiz-adv-x="480" 
d="M193 244q-55 15 -82.5 36.5t-27.5 64.5v28q0 46 30.5 73.5t79.5 27.5h97q46 0 78 -32t32 -79v-27h-18v28q0 39 -26 66t-66 27h-97q-42 0 -67 -22t-25 -61v-29q0 -36 23 -53t73 -31q12 -3 45 -12t56 -15q54 -14 80.5 -36t26.5 -65v-32q0 -46 -31 -73.5t-79 -27.5h-105
q-46 0 -78 32t-32 79v22h18v-23q0 -39 26.5 -66t65.5 -27h105q41 0 66.5 22.5t25.5 60.5v33q0 36 -24 54t-73 31q-20 6 -48.5 13.5t-48.5 12.5zM238 537l-100 109l12 10l88 -96l88 96l12 -10z" />
    <glyph glyph-name="Tcommaaccent" unicode="&#x162;" horiz-adv-x="522" 
d="M35 649v17h452v-17h-217v-649h-18v649h-217zM235 -206l-15 7l32 79v71h18v-71z" />
    <glyph glyph-name="Tcommaaccent" unicode="&#x21a;" horiz-adv-x="522" 
d="M35 649v17h452v-17h-217v-649h-18v649h-217zM235 -206l-15 7l32 79v71h18v-71z" />
    <glyph glyph-name="tcommaaccent" unicode="&#x163;" horiz-adv-x="336" 
d="M30 457v17h85v127h18v-127h168v-17h-168v-345q0 -39 26.5 -67t65.5 -28h67v-17h-67q-46 0 -78 32t-32 79v346h-85zM173 -206l-15 7l32 79v71h18v-71z" />
    <glyph glyph-name="tcommaaccent" unicode="&#x21b;" horiz-adv-x="336" 
d="M30 457v17h85v127h18v-127h168v-17h-168v-345q0 -39 26.5 -67t65.5 -28h67v-17h-67q-46 0 -78 32t-32 79v346h-85zM173 -206l-15 7l32 79v71h18v-71z" />
    <glyph glyph-name="Tcaron" unicode="&#x164;" horiz-adv-x="522" 
d="M35 649v17h452v-17h-217v-649h-18v649h-217zM261 727l-100 109l12 10l88 -96l88 96l12 -10z" />
    <glyph glyph-name="tcaron" unicode="&#x165;" horiz-adv-x="336" 
d="M244 561l-15 7l32 79v71h18v-71zM30 457v17h85v127h18v-127h168v-17h-168v-345q0 -39 26.5 -67t65.5 -28h67v-17h-67q-46 0 -78 32t-32 79v346h-85z" />
    <glyph glyph-name="Tbar" unicode="&#x166;" horiz-adv-x="522" 
d="M96 361v15h156v273h-217v17h452v-17h-217v-273h156v-15h-156v-361h-18v361h-156z" />
    <glyph glyph-name="tbar" unicode="&#x167;" horiz-adv-x="336" 
d="M30 252v15h85v190h-85v17h85v127h18v-127h168v-17h-168v-190h156v-15h-156v-140q0 -39 26.5 -67t65.5 -28h67v-17h-67q-46 0 -78 32t-32 79v141h-85z" />
    <glyph glyph-name="Utilde" unicode="&#x168;" horiz-adv-x="571" 
d="M200 0q-46 0 -78 32t-32 79v555h18v-556q0 -39 26.5 -66t65.5 -27h171q39 0 65.5 27t26.5 66v556h18v-555q0 -47 -32 -79t-78 -32h-171zM390 799l15 -4l-14 -42q-9 -24 -32 -16l-136 46q-8 3 -11 -5l-15 -43l-15 5l14 42q8 24 33 15l135 -46q8 -3 12 6z" />
    <glyph glyph-name="utilde" unicode="&#x169;" 
d="M85 474h18v-384q0 -39 23.5 -61t64.5 -22q50 0 126 23q79 24 79 88v356h18v-474h-18v63q-25 -36 -88 -53q-73 -20 -117 -20q-47 0 -76.5 27t-29.5 73v384zM358 622l15 -4l-14 -42q-9 -24 -32 -16l-136 46q-8 3 -11 -5l-15 -43l-15 5l14 42q8 24 33 15l135 -46q8 -3 12 6z
" />
    <glyph glyph-name="Umacron" unicode="&#x16a;" horiz-adv-x="571" 
d="M200 0q-46 0 -78 32t-32 79v555h18v-556q0 -39 26.5 -66t65.5 -27h171q39 0 65.5 27t26.5 66v556h18v-555q0 -47 -32 -79t-78 -32h-171zM185 752v14h200v-14h-200z" />
    <glyph glyph-name="umacron" unicode="&#x16b;" 
d="M85 474h18v-384q0 -39 23.5 -61t64.5 -22q50 0 126 23q79 24 79 88v356h18v-474h-18v63q-25 -36 -88 -53q-73 -20 -117 -20q-47 0 -76.5 27t-29.5 73v384zM159 577v14h200v-14h-200z" />
    <glyph glyph-name="Ubreve" unicode="&#x16c;" horiz-adv-x="571" 
d="M200 0q-46 0 -78 32t-32 79v555h18v-556q0 -39 26.5 -66t65.5 -27h171q39 0 65.5 27t26.5 66v556h18v-555q0 -47 -32 -79t-78 -32h-171zM364 809h14v-58q0 -22 -22 -22h-141q-22 0 -22 22v58h14v-59q0 -8 8 -8h141q8 0 8 8v59z" />
    <glyph glyph-name="ubreve" unicode="&#x16d;" 
d="M85 474h18v-384q0 -39 23.5 -61t64.5 -22q50 0 126 23q79 24 79 88v356h18v-474h-18v63q-25 -36 -88 -53q-73 -20 -117 -20q-47 0 -76.5 27t-29.5 73v384zM335 625h14v-58q0 -22 -22 -22h-141q-22 0 -22 22v58h14v-59q0 -8 8 -8h141q8 0 8 8v59z" />
    <glyph glyph-name="Uring" unicode="&#x16e;" horiz-adv-x="571" 
d="M200 0q-46 0 -78 32t-32 79v555h18v-556q0 -39 26.5 -66t65.5 -27h171q39 0 65.5 27t26.5 66v556h18v-555q0 -47 -32 -79t-78 -32h-171zM339 784v-61q0 -22 -22 -22h-63q-22 0 -22 22v61q0 22 22 22h63q22 0 22 -22zM326 786q0 8 -8 8h-65q-8 0 -8 -8v-65q0 -8 8 -8h65
q8 0 8 8v65z" />
    <glyph glyph-name="uring" unicode="&#x16f;" 
d="M85 474h18v-384q0 -39 23.5 -61t64.5 -22q50 0 126 23q79 24 79 88v356h18v-474h-18v63q-25 -36 -88 -53q-73 -20 -117 -20q-47 0 -76.5 27t-29.5 73v384zM313 614v-61q0 -22 -22 -22h-63q-22 0 -22 22v61q0 22 22 22h63q22 0 22 -22zM300 616q0 8 -8 8h-65q-8 0 -8 -8
v-65q0 -8 8 -8h65q8 0 8 8v65z" />
    <glyph glyph-name="Uhungarumlaut" unicode="&#x170;" horiz-adv-x="571" 
d="M200 0q-46 0 -78 32t-32 79v555h18v-556q0 -39 26.5 -66t65.5 -27h171q39 0 65.5 27t26.5 66v556h18v-555q0 -47 -32 -79t-78 -32h-171zM226 733l-14 8l54 104l14 -8zM355 733l-14 8l54 104l14 -8z" />
    <glyph glyph-name="uhungarumlaut" unicode="&#x171;" 
d="M85 474h18v-384q0 -39 23.5 -61t64.5 -22q50 0 126 23q79 24 79 88v356h18v-474h-18v63q-25 -36 -88 -53q-73 -20 -117 -20q-47 0 -76.5 27t-29.5 73v384zM190 553l-14 8l54 104l14 -8zM319 553l-14 8l54 104l14 -8z" />
    <glyph glyph-name="Uogonek" unicode="&#x172;" horiz-adv-x="571" 
d="M200 0q-46 0 -78 32t-32 79v555h18v-556q0 -39 26.5 -66t65.5 -27h171q39 0 65.5 27t26.5 66v556h18v-555q0 -47 -32 -79t-78 -32h-32l-47 -83l47 -43l-10 -11l-57 51l49 86h-121z" />
    <glyph glyph-name="uogonek" unicode="&#x173;" 
d="M414 -126l-10 -11l-57 51l49 86v63q-25 -36 -88 -53q-73 -20 -117 -20q-47 0 -76.5 27t-29.5 73v384h18v-384q0 -39 23.5 -61t64.5 -22q50 0 126 23q79 24 79 88v356h18v-474l-47 -83z" />
    <glyph glyph-name="Wcircumflex" unicode="&#x174;" horiz-adv-x="816" 
d="M580 24l163 642h18l-172 -666h-18l-163 634l-163 -634h-18l-172 666h18l163 -642l164 642h16zM308 727l100 109l100 -109l-12 -10l-88 96l-88 -96z" />
    <glyph glyph-name="wcircumflex" unicode="&#x175;" horiz-adv-x="638" 
d="M487 0h-18l-150 450l-150 -450h-18l-101 474h18l93 -446l149 446h18l149 -446l93 446h18zM219 547l100 109l100 -109l-12 -10l-88 96l-88 -96z" />
    <glyph glyph-name="Ycircumflex" unicode="&#x176;" horiz-adv-x="510" 
d="M43 666l212 -387l212 387h19l-222 -407v-259h-18v259l-222 407h19zM155 727l100 109l100 -109l-12 -10l-88 96l-88 -96z" />
    <glyph glyph-name="ycircumflex" unicode="&#x177;" horiz-adv-x="429" 
d="M153 -190h-18l70 191l-175 473h19l166 -451l167 451h19l-177 -474zM121 547l100 109l100 -109l-12 -10l-88 96l-88 -96z" />
    <glyph glyph-name="Ydieresis" unicode="&#x178;" horiz-adv-x="510" 
d="M43 666l212 -387l212 387h19l-222 -407v-259h-18v259l-222 407h19zM196 741h-21v47h21v-47zM336 741h-21v47h21v-47z" />
    <glyph glyph-name="Zacute" unicode="&#x179;" horiz-adv-x="564" 
d="M80 16l384 634h-372v16h392v-16l-384 -634h384v-16h-404v16zM250 733l-10 11l108 101l11 -12z" />
    <glyph glyph-name="zacute" unicode="&#x17a;" horiz-adv-x="456" 
d="M391 16v-16h-316v16l292 442h-282v16h303v-16l-292 -442h295zM211 553l-10 11l108 101l11 -12z" />
    <glyph glyph-name="Zdotaccent" unicode="&#x17b;" horiz-adv-x="564" 
d="M80 16l384 634h-372v16h392v-16l-384 -634h384v-16h-404v16zM289 759h-18v88h18v-88z" />
    <glyph glyph-name="zdotaccent" unicode="&#x17c;" horiz-adv-x="456" 
d="M391 16v-16h-316v16l292 442h-282v16h303v-16l-292 -442h295zM246 578h-18v88h18v-88z" />
    <glyph glyph-name="Zcaron" unicode="&#x17d;" horiz-adv-x="564" 
d="M80 16l384 634h-372v16h392v-16l-384 -634h384v-16h-404v16zM286 727l-100 109l12 10l88 -96l88 96l12 -10z" />
    <glyph glyph-name="zcaron" unicode="&#x17e;" horiz-adv-x="456" 
d="M391 16v-16h-316v16l292 442h-282v16h303v-16l-292 -442h295zM235 537l-100 109l12 10l88 -96l88 96l12 -10z" />
    <glyph glyph-name="florin" unicode="&#x192;" horiz-adv-x="455" 
d="M213 389h-80l1 17h80l13 149q4 49 37.5 80t82.5 31h68l-3 -17h-67q-41 0 -68.5 -26t-31.5 -67l-13 -150h146l-3 -17h-144l-41 -468q-5 -48 -38.5 -79.5t-81.5 -31.5h-55l2 17h54q41 0 69 26t32 67z" />
    <glyph glyph-name="Aringacute" unicode="&#x1fa;" horiz-adv-x="578" 
d="M515 0l-72 201h-308l-72 -201h-18l236 666h16l236 -666h-18zM289 643l-148 -425h296zM338 774v-51q0 -22 -22 -22h-53q-22 0 -22 22v51q0 22 22 22h53q22 0 22 -22zM324 775q0 8 -8 8h-53q-8 0 -8 -8v-53q0 -8 8 -8h53q8 0 8 8v53zM283 839l-10 11l75 70l11 -12z" />
    <glyph glyph-name="aringacute" unicode="&#x1fb;" horiz-adv-x="498" 
d="M413 363v-363h-18v57q-26 -38 -88 -53q-57 -14 -121 -14q-47 0 -76.5 27t-29.5 73v70q0 46 29.5 73t76.5 27q63 0 121 -8q59 -9 88 -52v164q0 39 -26.5 66t-65.5 27h-103q-39 0 -65.5 -27t-26.5 -66v-22h-18v21q0 47 32 79t78 32h103q46 0 78 -32t32 -79zM98 160v-70
q0 -39 23.5 -61t64.5 -22q74 0 130 17q79 24 79 88v32q0 35 -23 58t-56 30q-58 11 -130 11q-41 0 -64.5 -22t-23.5 -61zM304 604v-51q0 -22 -22 -22h-53q-22 0 -22 22v51q0 22 22 22h53q22 0 22 -22zM289 604q0 8 -8 8h-51q-8 0 -8 -8v-51q0 -8 8 -8h51q8 0 8 8v51zM247 679
l-10 11l75 70l11 -12z" />
    <glyph glyph-name="AEacute" unicode="&#x1fc;" horiz-adv-x="799" 
d="M515 0l-72 201h-308l-72 -201h-18l236 666h442v-17h-420l102 -288h287v-17h-281l116 -327h202v-17h-214zM289 643l-148 -425h296zM299 733l-10 11l108 101l11 -12z" />
    <glyph glyph-name="aeacute" unicode="&#x1fd;" horiz-adv-x="808" 
d="M715 140h18v-29q0 -47 -32 -79t-78 -32h-115q-33 0 -60.5 19.5t-40.5 49.5q-29 -48 -97 -66q-52 -13 -124 -13q-47 0 -76.5 27t-29.5 73v70q0 46 29.5 73t76.5 27q59 0 124 -8q57 -7 88 -52v164q0 39 -26.5 66t-65.5 27h-106q-39 0 -65.5 -27t-26.5 -66v-22h-18v21
q0 47 32 79t78 32h106q34 0 61 -18t40 -48q12 30 39.5 48t61.5 18h115q46 0 78 -32t32 -79v-119h-317v-138q2 -38 28 -63.5t64 -25.5h115q39 0 65.5 27t26.5 66v30zM98 160v-70q0 -39 23.5 -61.5t64.5 -22.5q80 0 133 16q78 25 79 89v36q-1 33 -24.5 56.5t-54.5 29.5
q-59 11 -133 11q-41 0 -64.5 -22.5t-23.5 -61.5zM416 367v-106h299v103q0 39 -26.5 66t-65.5 27h-115q-38 0 -64.5 -26t-27.5 -64zM241 553l-10 11l108 101l11 -12z" />
    <glyph glyph-name="Oslashacute" unicode="&#x1fe;" horiz-adv-x="599" 
d="M75 -43l46 81q-26 31 -26 73v444q0 47 32 79t78 32h189q42 0 72 -27l44 77l14 -7l-47 -81q27 -32 27 -73v-444q0 -47 -32 -79t-78 -32h-189q-43 0 -73 27l-44 -77zM113 556v-446q0 -34 18 -56l326 570q-27 25 -63 25h-189q-39 0 -65.5 -27t-26.5 -66zM486 556
q0 30 -18 55l-327 -569q27 -25 64 -25h189q39 0 65.5 27t26.5 66v446zM277 733l-10 11l108 101l11 -12z" />
    <glyph glyph-name="oslashacute" unicode="&#x1ff;" horiz-adv-x="501" 
d="M80 -43l39 68q-39 32 -39 86v252q0 47 32 79t78 32h121q30 0 57 -16l38 66l14 -7l-39 -68q40 -33 40 -86v-252q0 -47 -32 -79t-78 -32h-121q-32 0 -58 16l-38 -66zM403 364q0 42 -31 70l-232 -403q22 -14 50 -14h121q39 0 65.5 27t26.5 66v254zM98 364v-254q0 -43 30 -70
l231 403q-22 14 -48 14h-121q-39 0 -65.5 -27t-26.5 -66zM225 553l-10 11l108 101l11 -12z" />
    <glyph glyph-name="Scommaaccent" unicode="&#x218;" horiz-adv-x="563" 
d="M197 356q-103 29 -103 108v91q0 47 32 79t78 32h160q46 0 78 -32t32 -79v-70h-18v72q0 39 -26.5 66t-65.5 27h-160q-39 0 -65.5 -27t-26.5 -66v-93q0 -66 85 -91q47 -13 105.5 -29.5t71.5 -20.5q104 -29 104 -109v-103q0 -47 -32 -79t-78 -32h-168q-46 0 -78 32t-32 79
v73h18v-75q0 -39 26.5 -66t65.5 -27h168q39 0 65.5 27t26.5 66v105q0 66 -86 92q-43 13 -99.5 28.5t-77.5 21.5zM264 -206l-15 7l32 79v71h18v-71z" />
    <glyph glyph-name="scommaaccent" unicode="&#x219;" horiz-adv-x="480" 
d="M193 244q-55 15 -82.5 36.5t-27.5 64.5v28q0 46 30.5 73.5t79.5 27.5h97q46 0 78 -32t32 -79v-27h-18v28q0 39 -26 66t-66 27h-97q-42 0 -67 -22t-25 -61v-29q0 -36 23 -53t73 -31q12 -3 45 -12t56 -15q54 -14 80.5 -36t26.5 -65v-32q0 -46 -31 -73.5t-79 -27.5h-105
q-46 0 -78 32t-32 79v22h18v-23q0 -39 26.5 -66t65.5 -27h105q41 0 66.5 22.5t25.5 60.5v33q0 36 -24 54t-73 31q-20 6 -48.5 13.5t-48.5 12.5zM227 -206l-15 7l32 79v71h18v-71z" />
    <glyph glyph-name="circumflex" unicode="&#x2c6;" horiz-adv-x="440" 
d="M120 547l100 109l100 -109l-12 -10l-88 96l-88 -96z" />
    <glyph glyph-name="caron" unicode="&#x2c7;" horiz-adv-x="440" 
d="M220 537l-100 109l12 10l88 -96l88 96l12 -10z" />
    <glyph glyph-name="breve" unicode="&#x2d8;" horiz-adv-x="425" 
d="M291 625h14v-58q0 -22 -22 -22h-141q-22 0 -22 22v58h14v-59q0 -8 8 -8h141q8 0 8 8v59z" />
    <glyph glyph-name="dotaccent" unicode="&#x2d9;" horiz-adv-x="258" 
d="M138 578h-18v88h18v-88z" />
    <glyph glyph-name="ring" unicode="&#x2da;" horiz-adv-x="347" 
d="M227 614v-61q0 -22 -22 -22h-63q-22 0 -22 22v61q0 22 22 22h63q22 0 22 -22zM214 616q0 8 -8 8h-65q-8 0 -8 -8v-65q0 -8 8 -8h65q8 0 8 8v65z" />
    <glyph glyph-name="ogonek" unicode="&#x2db;" horiz-adv-x="307" 
d="M187 -126l-10 -11l-57 51l49 86h18l-47 -83z" />
    <glyph glyph-name="tilde" unicode="&#x2dc;" horiz-adv-x="463" 
d="M328 622l15 -4l-14 -42q-9 -24 -32 -16l-136 46q-8 3 -11 -5l-15 -43l-15 5l14 42q8 24 33 15l135 -46q8 -3 12 6z" />
    <glyph glyph-name="hungarumlaut" unicode="&#x2dd;" horiz-adv-x="437" 
d="M134 553l-14 8l54 104l14 -8zM263 553l-14 8l54 104l14 -8z" />
    <glyph glyph-name="uni03A9" unicode="&#x3a9;" horiz-adv-x="826" 
d="M413 676q142 0 242.5 -100.5t100.5 -242.5t-100.5 -242.5t-242.5 -100.5t-242.5 100.5t-100.5 242.5t100.5 242.5t242.5 100.5zM628 355l-215 216l-215 -216l14 -13l192 194v-451h18v451l192 -194z" />
    <glyph glyph-name="pi" unicode="&#x3c0;" horiz-adv-x="515" 
d="M95 364v302h302v-14h-278l331 -331l-10 -10l-331 331v-278h-14z" />
    <glyph glyph-name="Wgrave" unicode="&#x1e80;" horiz-adv-x="816" 
d="M580 24l163 642h18l-172 -666h-18l-163 634l-163 -634h-18l-172 666h18l163 -642l164 642h16zM420 752l-10 -11l-109 100l11 12z" />
    <glyph glyph-name="wgrave" unicode="&#x1e81;" horiz-adv-x="638" 
d="M487 0h-18l-150 450l-150 -450h-18l-101 474h18l93 -446l149 446h18l149 -446l93 446h18zM332 564l-10 -11l-109 100l11 12z" />
    <glyph glyph-name="Wacute" unicode="&#x1e82;" horiz-adv-x="816" 
d="M580 24l163 642h18l-172 -666h-18l-163 634l-163 -634h-18l-172 666h18l163 -642l164 642h16zM401 741l-10 11l108 101l11 -12z" />
    <glyph glyph-name="wacute" unicode="&#x1e83;" horiz-adv-x="638" 
d="M487 0h-18l-150 450l-150 -450h-18l-101 474h18l93 -446l149 446h18l149 -446l93 446h18zM308 553l-10 11l108 101l11 -12z" />
    <glyph glyph-name="Wdieresis" unicode="&#x1e84;" horiz-adv-x="816" 
d="M580 24l163 642h18l-172 -666h-18l-163 634l-163 -634h-18l-172 666h18l163 -642l164 642h16zM349 742h-21v47h21v-47zM489 742h-21v47h21v-47z" />
    <glyph glyph-name="wdieresis" unicode="&#x1e85;" horiz-adv-x="638" 
d="M487 0h-18l-150 450l-150 -450h-18l-101 474h18l93 -446l149 446h18l149 -446l93 446h18zM260 556h-21v47h21v-47zM400 556h-21v47h21v-47z" />
    <glyph glyph-name="Ygrave" unicode="&#x1ef2;" horiz-adv-x="510" 
d="M43 666l212 -387l212 387h19l-222 -407v-259h-18v259l-222 407h19zM279 752l-10 -11l-109 100l11 12z" />
    <glyph glyph-name="ygrave" unicode="&#x1ef3;" horiz-adv-x="429" 
d="M153 -190h-18l70 191l-175 473h19l166 -451l167 451h19l-177 -474zM252 564l-10 -11l-109 100l11 12z" />
    <glyph glyph-name="endash" unicode="&#x2013;" horiz-adv-x="419" 
d="M60 287v16h299v-16h-299z" />
    <glyph glyph-name="emdash" unicode="&#x2014;" horiz-adv-x="598" 
d="M60 287v16h478v-16h-478z" />
    <glyph glyph-name="quoteleft" unicode="&#x2018;" horiz-adv-x="180" 
d="M118 671l17 -7l-35 -88v-78h-20v78z" />
    <glyph glyph-name="quoteright" unicode="&#x2019;" horiz-adv-x="190" 
d="M72 493l-17 7l35 88v78h20v-78z" />
    <glyph glyph-name="quotesinglbase" unicode="&#x201a;" horiz-adv-x="185" 
d="M67 -95l-17 7l35 88v78h20v-78z" />
    <glyph glyph-name="quotedblleft" unicode="&#x201c;" horiz-adv-x="309" 
d="M118 671l17 -7l-35 -88v-78h-20v78zM247 671l17 -7l-35 -88v-78h-20v78z" />
    <glyph glyph-name="quotedblright" unicode="&#x201d;" horiz-adv-x="319" 
d="M201 493l-17 7l35 88v78h20v-78zM72 493l-17 7l35 88v78h20v-78z" />
    <glyph glyph-name="quotedblbase" unicode="&#x201e;" horiz-adv-x="314" 
d="M196 -95l-17 7l35 88v78h20v-78zM67 -95l-17 7l35 88v78h20v-78z" />
    <glyph glyph-name="dagger" unicode="&#x2020;" horiz-adv-x="612" 
d="M312 666v-167h-18v167h18zM312 339v-409h-18v409h18zM386 426l146 2v-18l-146 2v14zM80 428l146 -2v-14l-146 -2v18z" />
    <glyph glyph-name="daggerdbl" unicode="&#x2021;" horiz-adv-x="612" 
d="M312 666v-137h-18v137h18zM312 67v-137h-18v137h18zM386 456l146 2v-18l-146 2v14zM226 140l-146 -2v18l146 -2v-14zM80 458l146 -2v-14l-146 -2v18zM532 138l-146 2v14l146 2v-18zM312 384v-172h-18v172h18z" />
    <glyph glyph-name="bullet" unicode="&#x2022;" horiz-adv-x="346" 
d="M85 327q0 37 25.5 62.5t62.5 25.5t62.5 -25.5t25.5 -62.5t-25.5 -62.5t-62.5 -25.5t-62.5 25.5t-25.5 62.5z" />
    <glyph glyph-name="ellipsis" unicode="&#x2026;" horiz-adv-x="600" 
d="M110 0h-20v78h20v-78zM310 0h-20v78h20v-78zM510 0h-20v78h20v-78z" />
    <glyph glyph-name="perthousand" unicode="&#x2030;" horiz-adv-x="1344" 
d="M849 278v-179q0 -42 -28 -70.5t-70 -28.5h-90q-42 0 -70 28.5t-28 70.5v179q0 42 28 70.5t70 28.5h90q42 0 70 -28.5t28 -70.5zM579 279v-181q0 -35 24 -59t58 -24h90q34 0 58 24t24 59v181q0 35 -24 59t-58 24h-90q-34 0 -58 -24t-24 -59zM376 567v-179q0 -42 -28 -70.5
t-70 -28.5h-90q-42 0 -70 28.5t-28 70.5v179q0 42 28 70.5t70 28.5h90q42 0 70 -28.5t28 -70.5zM106 568v-181q0 -35 24 -59t58 -24h90q34 0 58 24t24 59v181q0 35 -24 59t-58 24h-90q-34 0 -58 -24t-24 -59zM641 666l-325 -666h-17l325 666h17zM1254 278v-179
q0 -42 -28 -70.5t-70 -28.5h-90q-42 0 -70 28.5t-28 70.5v179q0 42 28 70.5t70 28.5h90q42 0 70 -28.5t28 -70.5zM984 279v-181q0 -35 24 -59t58 -24h90q34 0 58 24t24 59v181q0 35 -24 59t-58 24h-90q-34 0 -58 -24t-24 -59z" />
    <glyph glyph-name="guilsinglleft" unicode="&#x2039;" horiz-adv-x="312" 
d="M216 38l-156 200l156 200l11 -9l-149 -191l149 -191z" />
    <glyph glyph-name="guilsinglright" unicode="&#x203a;" horiz-adv-x="312" 
d="M252 238l-156 -200l-11 9l149 191l-149 191l11 9z" />
    <glyph glyph-name="fraction" unicode="&#x2044;" horiz-adv-x="358" 
d="M353 676l-332 -793h-16l332 793h16z" />
    <glyph glyph-name="Euro" unicode="&#x20ac;" horiz-adv-x="579" 
d="M37 402v14h91v139q0 47 32 79t78 32h136q46 0 78 -32t32 -79v-80h-18v81q0 39 -26.5 66t-65.5 27h-136q-39 0 -65.5 -27t-26.5 -66v-140h190v-14h-190v-132h190v-14h-190v-146q0 -39 26.5 -66t65.5 -27h136q39 0 65.5 27t26.5 66v84h18v-83q0 -47 -32 -79t-78 -32h-136
q-46 0 -78 32t-32 79v145h-91v14h91v132h-91z" />
    <glyph glyph-name="trademark" unicode="&#x2122;" horiz-adv-x="652" 
d="M356 666l100 -210l99 210h12v-300h-12v272l-94 -200h-10l-95 198v-270h-12v300h12zM75 655v11h212v-11h-99v-289h-12v289h-101z" />
    <glyph glyph-name="partialdiff" unicode="&#x2202;" horiz-adv-x="548" 
d="M274 676l214 -214l-11 -10l-196 198v-468h-14v468l-196 -198l-11 10z" />
    <glyph glyph-name="Delta" unicode="&#x2206;" horiz-adv-x="826" 
d="M413 -10q-142 0 -242.5 100.5t-100.5 242.5t100.5 242.5t242.5 100.5t242.5 -100.5t100.5 -242.5t-100.5 -242.5t-242.5 -100.5zM255 170h304v19h-273l319 318l-13 13l-318 -319v273h-19v-304z" />
    <glyph glyph-name="product" unicode="&#x220f;" horiz-adv-x="495" 
d="M400 302v-302h-302v14h278l-331 331l10 10l331 -331v278h14z" />
    <glyph glyph-name="summation" unicode="&#x2211;" horiz-adv-x="495" 
d="M95 0v302h14v-278l331 331l10 -10l-331 -331h278v-14h-302z" />
    <glyph glyph-name="minus" unicode="&#x2212;" horiz-adv-x="419" 
d="M60 287v16h299v-16h-299z" />
    <glyph glyph-name="radical" unicode="&#x221a;" horiz-adv-x="826" 
d="M413 676q142 0 242.5 -100.5t100.5 -242.5t-100.5 -242.5t-242.5 -100.5t-242.5 100.5t-100.5 242.5t100.5 242.5t242.5 100.5zM553 499h-304v-304h19v273l318 -319l13 13l-319 318h273v19z" />
    <glyph glyph-name="infinity" unicode="&#x221e;" horiz-adv-x="826" 
d="M756 333q0 -142 -100.5 -242.5t-242.5 -100.5t-242.5 100.5t-100.5 242.5t100.5 242.5t242.5 100.5t242.5 -100.5t100.5 -242.5zM641 333l-216 215l-13 -14l194 -192h-451v-18h451l-194 -192l13 -14z" />
    <glyph glyph-name="integral" unicode="&#x222b;" horiz-adv-x="515" 
d="M420 666v-302h-14v278l-331 -331l-10 10l331 331h-278v14h302z" />
    <glyph glyph-name="approxequal" unicode="&#x2248;" horiz-adv-x="826" 
d="M413 676q142 0 242.5 -100.5t100.5 -242.5t-100.5 -242.5t-242.5 -100.5t-242.5 100.5t-100.5 242.5t100.5 242.5t242.5 100.5zM577 499h-304v-19h273l-319 -318l13 -13l318 319v-273h19v304z" />
    <glyph glyph-name="notequal" unicode="&#x2260;" horiz-adv-x="826" 
d="M70 333q0 142 100.5 242.5t242.5 100.5t242.5 -100.5t100.5 -242.5t-100.5 -242.5t-242.5 -100.5t-242.5 100.5t-100.5 242.5zM401 548l-216 -215l216 -215l13 14l-194 192h451v18h-451l194 192z" />
    <glyph glyph-name="lessequal" unicode="&#x2264;" horiz-adv-x="634" 
d="M70 295l214 214l10 -11l-198 -196h468v-14h-468l198 -196l-10 -11z" />
    <glyph glyph-name="greaterequal" unicode="&#x2265;" horiz-adv-x="634" 
d="M350 509l214 -214l-214 -214l-10 11l198 196h-468v14h468l-198 196z" />
    <glyph glyph-name="lozenge" unicode="&#x25ca;" horiz-adv-x="826" 
d="M413 -10q-142 0 -242.5 100.5t-100.5 242.5t100.5 242.5t242.5 100.5t242.5 -100.5t100.5 -242.5t-100.5 -242.5t-242.5 -100.5zM271 171h304v304h-19v-273l-318 319l-13 -13l319 -318h-273v-19z" />
    <glyph glyph-name="apple" unicode="&#xf8ff;" horiz-adv-x="856" 
d="M776 333h-333v-333h-333v666h666v-333z" />
    <glyph glyph-name="commaaccent" horiz-adv-x="290" 
d="M135 -206l-15 7l32 79v71h18v-71z" />
    </font>
</defs>
</svg>
